<svg width="46" height="50" viewBox="0 0 46 50" fill="none" xmlns="http://www.w3.org/2000/svg">
<path d="M19.9059 44.3116H19.4294C19.1118 45.0633 18.7235 45.7807 18.2647 46.464C17.8059 47.1473 17.2412 47.7622 16.5706 48.3089C15.9 48.8213 15.1059 49.2313 14.1882 49.5388C13.3059 49.8463 12.3 50 11.1706 50C9.37059 50 7.76471 49.59 6.35294 48.7701C4.97647 47.9501 3.81177 46.7544 2.85882 45.1828C1.90588 43.6113 1.18235 41.6981 0.688235 39.4432C0.229412 37.1884 0 34.6431 0 31.8075C0 25.7262 1.14706 21.0799 3.44118 17.8684C5.73529 14.6228 9.28235 13 14.0824 13C15.9882 13 17.6647 13.2562 19.1118 13.7687C20.5588 14.247 21.7941 14.9474 22.8176 15.8698C23.8765 16.7581 24.7412 17.8343 25.4118 19.0983C26.0824 20.3624 26.4511 21.3727 26.8394 22.9101L19.3394 24.6096C19.1276 23.8579 19.1294 23.5739 18.8471 22.8906C18.6 22.1731 18.2647 21.5411 17.8412 20.9945C17.4176 20.4478 16.8882 20.0208 16.2529 19.7133C15.6176 19.3717 14.8412 19.2008 13.9235 19.2008C11.9118 19.2008 10.4824 20.0037 9.63529 21.6094C8.82353 23.2151 8.41765 25.47 8.41765 28.374L8.41765 34.2161C8.41765 37.12 8.85882 39.4432 9.74118 41.1856C10.6588 42.928 12.2647 43.7992 14.5588 43.7992C16.3588 43.7992 17.7 43.2867 18.5824 42.2618C19.4647 41.2368 19.9059 39.9215 19.9059 38.3158V36.0182H13.6059V30.631H27L27 49.385H19.9059V44.3116Z" fill="white"/>
<path d="M19.3333 24.6155L18.5532 10.5541C18.4185 8.12603 18.8395 6.24616 19.976 4.90073C21.1125 3.55529 22.687 2.82926 24.6995 2.72265C26.1754 2.64446 27.424 3.018 28.4454 3.84327C29.4648 4.63481 30.2133 5.99876 30.6908 7.93515L30.9423 7.92182C30.9941 5.82212 31.4755 4.19008 32.3865 3.02569C33.2956 1.82758 34.6055 1.18322 36.3162 1.09259C38.6641 0.96821 40.5669 1.6115 42.0244 3.02245C43.482 4.4334 44.2837 6.45407 44.4296 9.08445L45.2154 23.2471L19.3333 24.6155ZM39.2196 10.6795C39.1373 9.1957 38.3918 8.49111 36.983 8.56574L35.7755 8.62971C35.0375 8.6688 34.5121 8.89957 34.1991 9.32202C33.8526 9.74624 33.698 10.2956 33.7354 10.97L34.0917 17.3942L39.5759 17.1037L39.2196 10.6795ZM29.3583 12.1151C29.3209 11.4406 29.1074 10.9277 28.7179 10.5763C28.2948 10.2267 27.7311 10.0705 27.0267 10.1078L25.9701 10.1638C25.2657 10.2011 24.7393 10.415 24.3909 10.8055C24.009 11.1978 23.8367 11.7312 23.8741 12.4056L24.1799 17.9193L29.6641 17.6288L29.3583 12.1151Z" fill="white"/>
</svg>
