<svg width="63" height="63" viewBox="0 0 63 63" fill="none" xmlns="http://www.w3.org/2000/svg">
<path d="M4.26 48.1H13.38L13.38 30.94H3.66L3.66 24.04H13.38V19.54C13.38 16.9 14.14 14.76 15.66 13.12C17.22 11.44 19.62 10.6 22.86 10.6H33.36V17.5L22.26 17.5V24.04L33.36 24.04V30.94L22.26 30.94L22.26 48.1H31.98V55H4.26L4.26 48.1Z" fill="white"/>
<path d="M47.4 55C44.2 55 41.82 54.16 40.26 52.48C38.7 50.8 37.92 48.66 37.92 46.06V30.94H29.52V24.04H34.98C36.3 24.04 37.24 23.78 37.8 23.26C38.36 22.74 38.64 21.78 38.64 20.38V13.12L46.8 13.12V24.04H58.86V30.94H46.8V48.1H58.86V55H47.4Z" fill="white"/>
</svg>
