<svg width="75" height="90" viewBox="0 0 75 90" fill="none" xmlns="http://www.w3.org/2000/svg">
<path d="M28.6921 29.7217C26.1608 29.9891 24.3328 29.6703 23.2084 28.7653C22.1289 27.8043 21.508 26.5901 21.3457 25.1227L21.1022 22.9215C20.9343 21.4035 21.2753 20.0877 22.1253 18.9741C23.0259 17.8551 24.7419 17.1619 27.2732 16.8944C29.8046 16.627 31.6072 16.9485 32.6811 17.8589C33.8056 18.7639 34.4518 19.9754 34.6197 21.4934L34.8632 23.6946C35.0255 25.162 34.6592 26.4805 33.7641 27.6501C32.9142 28.7637 31.2235 29.4542 28.6921 29.7217ZM14.539 67.0768L26.9934 65.761L24.5921 44.0534L12.1378 45.3692L11.1723 36.6406L34.8659 34.1374L38.2326 64.5736L49.7757 63.3541L50.7412 72.0827L15.5045 75.8054L14.539 67.0768Z" fill="white"/>
<path d="M34.8085 80.2925L49.8448 78.7039L45.7644 41.8162L30.5762 43.4208L29.6107 34.6922L56.0382 31.9002L60.7986 74.9359C61.1624 78.2249 60.4747 81.0363 58.7353 83.3702C56.9959 85.704 54.1264 87.0822 50.1269 87.5047L35.774 89.0211L34.8085 80.2925ZM49.8644 27.4845C47.3331 27.7519 45.5051 27.4331 44.3806 26.5281C43.3012 25.5671 42.6803 24.3529 42.518 22.8855L42.2745 20.6843C42.1066 19.1663 42.4476 17.8505 43.2976 16.7369C44.1982 15.6179 45.9142 14.9247 48.4455 14.6572C50.9263 14.3952 52.7289 14.7166 53.8534 15.6217C54.9779 16.5267 55.6241 17.7382 55.792 19.2562L56.0355 21.4574C56.1978 22.9248 55.8315 24.2433 54.9364 25.4129C54.0358 26.5318 52.3452 27.2224 49.8644 27.4845Z" fill="white"/>
</svg>
