<svg width="31" height="59" viewBox="0 0 31 59" fill="none" xmlns="http://www.w3.org/2000/svg">
<path d="M8.12672 50.1073H20.6722L20.6722 20.9779H8L8 14.0852L30.0496 14.0852L30.0496 48.0694C30.0496 50.6667 29.2259 52.8044 27.5785 54.4827C25.9311 56.1609 23.4389 57 20.1019 57H8.12672V50.1073ZM25.3609 10.1293C23.2489 10.1293 21.7704 9.72976 20.9256 8.9306C20.123 8.09148 19.7218 7.09254 19.7218 5.93376V4.19558C19.7218 2.99685 20.123 1.9979 20.9256 1.19874C21.7704 0.39958 23.2489 0 25.3609 0C27.4307 0 28.888 0.39958 29.7328 1.19874C30.5776 1.9979 31 2.99685 31 4.19558V5.93376C31 7.09254 30.5776 8.09148 29.7328 8.9306C28.888 9.72976 27.4307 10.1293 25.3609 10.1293Z" fill="white"/>
<path d="M15.9461 59C10.7113 59 6.74487 57.4889 4.04692 54.4667C1.34897 51.4444 0 47.3309 0 42.1259C0 39.4815 0.342277 37.1099 1.02683 35.0111C1.75165 32.8704 2.75835 31.0654 4.04692 29.5963C5.37576 28.0852 6.96634 26.9519 8.81866 26.1963C10.7113 25.3988 12.8253 25 15.1609 25C17.4964 25 19.5903 25.3988 21.4426 26.1963C23.295 26.9519 24.8654 28.0432 26.154 29.4704C27.4426 30.8975 28.4291 32.6395 29.1137 34.6963C29.8385 36.7111 30 38.4828 30 41.4138V44.2667H8.87906V44.8333C8.87906 46.9321 9.50322 48.6321 10.7515 49.9333C11.9998 51.1926 13.832 51.8222 16.2481 51.8222C18.1004 51.8222 19.691 51.4654 21.0198 50.7519C22.3487 49.9963 23.4963 49.0099 24.4627 47.7926L29 52.5C28 54.5 26.3956 56.1667 24.2211 57.3C22.0467 58.4333 19.2883 59 15.9461 59ZM15.2213 31.6741C13.2884 31.6741 11.7381 32.3037 10.5703 33.563C9.44281 34.7802 8.87906 36.4383 8.87906 38.537V39.0407H21.4426V38.537C21.4426 36.3963 20.8789 34.7173 19.7514 33.5C18.6642 32.2827 17.1541 31.6741 15.2213 31.6741Z" fill="white"/>
</svg>
