<svg width="95" height="95" viewBox="0 0 95 95" fill="none" xmlns="http://www.w3.org/2000/svg">
<path d="M38.3133 65.6556C34.1727 65.8995 30.9968 64.6773 28.7855 61.9889C26.6037 59.2987 25.306 55.429 24.8924 50.3798C24.4788 45.3305 25.1331 41.3459 26.8553 38.4258C28.607 35.5039 31.5532 33.9211 35.6937 33.6772C39.8343 33.4333 42.9954 34.6565 45.1772 37.3466C47.3885 40.035 48.701 43.9038 49.1146 48.9531C49.5282 54.0023 48.8591 57.9878 47.1074 60.9097C45.3852 63.8298 42.4538 65.4118 38.3133 65.6556ZM37.8743 60.2964C39.7671 60.1849 41.0115 59.4143 41.6077 57.9847C42.231 56.5239 42.4398 54.5385 42.2342 52.0286L41.7952 46.6694C41.592 44.1891 41.0639 42.2768 40.2108 40.9325C39.3849 39.557 38.0256 38.925 36.1327 39.0365C34.2399 39.148 32.9819 39.9341 32.3586 41.395C31.7625 42.8246 31.566 44.7796 31.7692 47.2599L32.2118 52.6635C32.415 55.1438 32.9295 57.0717 33.7554 58.4472C34.6085 59.7915 35.9814 60.4079 37.8743 60.2964Z" fill="white"/>
<path d="M59.7786 64.393C55.638 64.6368 52.4621 63.4146 50.2508 60.7262C48.069 58.036 46.7714 54.1663 46.3577 49.1171C45.9441 44.0679 46.5984 40.0832 48.3206 37.1631C50.0724 34.2412 53.0185 32.6584 57.1591 32.4145C61.2996 32.1706 64.4608 33.3938 66.6425 36.0839C68.8538 38.7723 70.1663 42.6412 70.5799 47.6904C70.9935 52.7396 70.3244 56.7251 68.5727 59.647C66.8505 62.5671 63.9191 64.1491 59.7786 64.393ZM59.3396 59.0337C61.2324 58.9222 62.4769 58.1516 63.073 56.722C63.6963 55.2612 63.9051 53.2758 63.6995 50.7659L63.2605 45.4067C63.0573 42.9264 62.5292 41.0141 61.6762 39.6698C60.8503 38.2943 59.4909 37.6623 57.5981 37.7738C55.7053 37.8853 54.4472 38.6714 53.8239 40.1323C53.2278 41.5619 53.0313 43.5169 53.2345 45.9972L53.6771 51.4008C53.8803 53.8811 54.3949 55.809 55.2208 57.1845C56.0738 58.5288 57.4468 59.1452 59.3396 59.0337Z" fill="white"/>
</svg>
