<svg width="100" height="68" viewBox="0 0 100 68" fill="none" xmlns="http://www.w3.org/2000/svg">
<path d="M12.7499 33.1255L21.3352 22.7072C24.922 18.3546 28.9947 16.2421 33.5534 16.3695C38.1121 16.4969 43.0475 18.651 48.3595 22.8319C53.6716 27.0128 56.8772 31.266 57.9763 35.5916C59.0754 39.9172 57.8316 44.2563 54.2448 48.6088L45.6594 59.0272L12.7499 33.1255ZM48.2997 44.6931C50.0041 42.6249 50.5747 40.5804 50.0117 38.5597C49.4487 36.5389 47.8785 34.5143 45.301 32.4857L39.3132 27.7729C36.7672 25.7691 34.4241 24.7137 32.2839 24.6069C30.1438 24.5001 28.2215 25.4808 26.5172 27.549L23.9606 30.6514L45.7432 47.7954L48.2997 44.6931Z" fill="white"/>
<path d="M89.033 21.5621C91.4695 24.1026 93.1598 26.7028 94.1041 29.3628C95.0484 32.0228 95.3369 34.6057 94.9696 37.1114L87.109 37.2346C87.2957 35.0028 87.061 32.9672 86.405 31.1277C85.7214 29.2593 84.7289 27.6468 83.4276 26.2899C81.9325 24.731 80.4433 23.8716 78.9602 23.7117C77.477 23.5518 76.0718 24.0797 74.7445 25.2956C73.6531 26.2952 73.1318 27.3693 73.1805 28.5178C73.2015 29.6374 73.8 31.0414 74.9761 32.7299L77.4769 36.3773C79.6076 39.5233 80.4727 42.4185 80.0723 45.063C79.6423 47.7345 78.2918 50.1104 76.0206 52.1908C73.0415 54.9197 69.8271 56.0744 66.3775 55.6551C62.8984 55.2627 59.5114 53.3488 56.2166 49.9134C53.974 47.575 52.3907 45.202 51.4669 42.7945C50.5431 40.3869 50.2031 38.0681 50.447 35.8382L57.8501 35.8382C57.711 37.484 58.2469 38.9159 58.7976 40.4722C59.3188 42.0556 60.2439 43.5401 61.5729 44.9258C64.3693 47.8416 66.9916 48.1782 69.4397 45.9357C70.5016 44.963 70.9934 43.916 70.9152 42.7945C70.8094 41.6442 70.1831 40.2113 69.0366 38.4958L66.58 34.8078C64.669 31.9487 63.7994 29.1932 63.9711 26.5413C64.1428 23.8894 65.4527 21.4423 67.9009 19.1997C69.3462 17.8759 70.9236 16.8919 72.6331 16.2479C74.3131 15.6309 76.081 15.3945 77.9368 15.5384C79.763 15.7094 81.619 16.287 83.5048 17.2712C85.3629 18.2264 87.2056 19.6567 89.033 21.5621Z" fill="white"/>
</svg>
