<svg width="78" height="80" viewBox="0 0 78 80" fill="none" xmlns="http://www.w3.org/2000/svg">
<path d="M23 74.22C23 72.38 23.46 70.9 24.38 69.78C25.34 68.66 26.7 68 28.46 67.8V67.5C26.42 66.94 24.88 65.82 23.84 64.14C22.8 62.5 22.28 60.48 22.28 58.08C22.28 55.08 23.08 52.66 24.68 50.82C26.32 49.02 28.6 48.12 31.52 48.12C34.76 48.12 37.16 49.3 38.72 51.66C40.28 54.02 41.06 57.48 41.06 62.04V67.02H42.62C44.46 67.02 45.84 66.58 46.76 65.7C47.72 64.86 48.2 63.42 48.2 61.38C48.2 59.5 47.84 57.98 47.12 56.82C46.4 55.66 45.46 54.66 44.3 53.82L48.62 48.96C50.38 50 51.82 51.62 52.94 53.82C54.1 56.06 54.68 58.92 54.68 62.4C54.68 66.64 53.7 69.94 51.74 72.3C49.82 74.7 46.9 75.9 42.98 75.9H29.42V79.32H23V74.22ZM28.1 61.44C28.1 63 28.48 64.32 29.24 65.4C30 66.48 31.1 67.02 32.54 67.02H36.26V62.28C36.26 58.64 35.04 56.82 32.6 56.82H31.4C30.32 56.82 29.5 57.24 28.94 58.08C28.38 58.92 28.1 60.04 28.1 61.44Z" fill="white"/>
<path d="M3.9 55L3.9 24.04H12.78V29.68H13.14C13.5 28.8 13.94 27.98 14.46 27.22C14.98 26.46 15.6 25.8 16.32 25.24C17.08 24.64 17.94 24.18 18.9 23.86C19.9 23.5 21.02 23.32 22.26 23.32C23.74 23.32 25.1 23.58 26.34 24.1C27.58 24.58 28.64 25.32 29.52 26.32C30.4 27.32 31.08 28.54 31.56 29.98C32.08 31.42 32.34 33.08 32.34 34.96V55H23.46V36.16C23.46 32.16 21.72 30.16 18.24 30.16C17.56 30.16 16.88 30.26 16.2 30.46C15.56 30.62 14.98 30.9 14.46 31.3C13.94 31.66 13.52 32.12 13.2 32.68C12.92 33.24 12.78 33.9 12.78 34.66L12.78 55H3.9Z" fill="white"/>
</svg>
