<svg width="114" height="84" viewBox="0 0 114 84" fill="none" xmlns="http://www.w3.org/2000/svg">
<path d="M53.0861 63.6363C50.794 62.9247 48.8425 61.9419 47.2314 60.6878C45.6327 59.3958 44.4003 57.8824 43.5343 56.1477C42.7064 54.4249 42.2578 52.5058 42.1885 50.3902C42.1192 48.2747 42.474 46.0187 43.2531 43.6221C44.0321 41.2256 45.0746 39.183 46.3805 37.4945C47.6864 35.8059 49.1861 34.4916 50.8795 33.5516C52.6112 32.6234 54.5051 32.1016 56.5614 31.9862C58.63 31.8327 60.8103 32.1118 63.1024 32.8234C65.3945 33.535 67.3399 34.5369 68.9386 35.829C70.5496 37.083 71.7691 38.5714 72.5969 40.2942C73.463 42.0289 73.9307 43.954 74 46.0695C74.0693 48.185 73.7145 50.441 72.9354 52.8376C72.1564 55.2342 71.1139 57.2767 69.808 58.9653C68.5021 60.6538 66.9833 61.9622 65.2517 62.8903C63.5582 63.8304 61.6772 64.3771 59.6086 64.5306C57.5523 64.646 55.3782 64.3479 53.0861 63.6363ZM55.1265 57.3596C57.0365 57.9526 58.718 57.8256 60.171 56.9784C61.624 56.1312 62.7029 54.6235 63.4077 52.4552L64.9287 47.7762C65.6336 45.6078 65.6429 43.768 64.9566 42.2567C64.2703 40.7453 62.9721 39.6931 61.062 39.1001C59.152 38.5071 57.4705 38.6342 56.0175 39.4813C54.5645 40.3285 53.4856 41.8363 52.7808 44.0046L51.2598 48.6836C50.5549 50.8519 50.5456 52.6917 51.2319 54.2031C51.9182 55.7144 53.2164 56.7666 55.1265 57.3596Z" fill="white"/>
<path d="M74.9199 25.3667C79.7512 23.4436 83.9659 23.3156 87.5638 24.9828C91.1617 26.65 93.9147 29.7728 95.8228 34.3511C96.7922 36.6772 97.3457 38.889 97.4833 40.9866C97.5991 43.1358 97.3317 45.0933 96.681 46.859C96.0086 48.6763 94.9561 50.2575 93.5235 51.6026C92.0692 52.9994 90.2643 54.1268 88.1087 54.9848C85.9532 55.8428 83.8745 56.2613 81.8726 56.2403C79.8861 56.2562 78.0366 55.8732 76.3242 55.0912C74.6118 54.3092 73.0626 53.1394 71.6769 51.5817C70.2693 50.0758 69.1039 48.2151 68.1806 45.9998L67.165 43.563L86.8433 35.73L86.6356 35.2316C85.8662 33.3855 84.667 32.1194 83.0378 31.4334C81.4241 30.7844 79.5024 30.9036 77.2725 31.7912C75.563 32.4717 74.2258 33.3699 73.261 34.4857C72.3115 35.6385 71.614 36.9278 71.1683 38.3535L64.7005 35.3104C65.2461 33.5005 66.3146 31.6977 67.9059 29.902C69.4973 28.1063 71.8353 26.5945 74.9199 25.3667ZM85.6063 49.1365C87.3902 48.4264 88.5902 47.303 89.2063 45.7664C89.8007 44.2814 89.7132 42.6159 88.9438 40.7698L88.7591 40.3268L77.1639 44.9422L77.3486 45.3853C78.1334 47.2683 79.2692 48.5381 80.756 49.1946C82.2057 49.8659 83.8225 49.8465 85.6063 49.1365Z" fill="white"/>
<path d="M58.6178 21.6353C56.2325 17.0147 53.1336 14.1505 49.3211 13.0427C45.5087 11.9349 41.3781 12.4777 36.9295 14.6711C34.6693 15.7855 32.7982 17.0871 31.3163 18.5758C29.8169 20.1177 28.733 21.7669 28.0645 23.5234C27.3784 25.3331 27.1346 27.2147 27.3328 29.1681C27.5136 31.1747 28.1361 33.2088 29.2003 35.2703C30.2645 37.3318 31.5595 39.012 33.0852 40.3109C34.575 41.6275 36.2234 42.5537 38.0303 43.0897C39.8373 43.6257 41.7757 43.7624 43.8455 43.4999C45.8979 43.2906 48.0003 42.6552 50.1529 41.5939L52.5207 40.4264L42.805 21.6063L43.2894 21.3675C45.0832 20.483 46.8206 20.3176 48.5016 20.871C50.1466 21.4422 51.5197 22.7941 52.6206 24.9267C53.4646 26.5617 53.8845 28.116 53.8801 29.5896C53.8398 31.081 53.5197 32.5096 52.9196 33.8757L59.8033 35.8324C60.5803 34.1116 60.9577 32.0528 60.9355 29.6558C60.9133 27.2589 60.1407 24.5854 58.6178 21.6353ZM34.9321 32.511C34.0514 30.805 33.8831 29.1712 34.4273 27.6098C34.9539 26.1016 36.1141 24.9053 37.9079 24.0208L38.3385 23.8086L44.0633 34.8981L43.6328 35.1103C41.8031 36.0125 40.1112 36.2224 38.557 35.7402C37.0211 35.2935 35.8129 34.2171 34.9321 32.511Z" fill="white"/>
</svg>
