<svg width="1049" height="614" viewBox="0 0 1049 614" fill="none" xmlns="http://www.w3.org/2000/svg">
<rect width="1049" height="590" rx="6" fill="white"/>
<path d="M896.772 439.179C911.497 433.248 933.203 429.079 902.232 459.86C863.518 498.336 886.924 451.684 900.743 448.798" stroke="#220E91" stroke-width="2" stroke-linecap="round"/>
<path d="M930.006 445.211C934.909 426.657 888.999 468.902 905.697 477.154C911.499 479.56 926.499 468.341 929.033 454.639C931.282 442.474 916.792 450.187 915.499 466.478M915.499 466.478C914.674 471.287 915.502 480.26 918.661 481.958C927.077 486.482 924.499 460.523 915.499 466.478ZM940.942 478.628C939.846 480.421 938.025 481.882 935.272 482.534C925.046 484.956 930.218 474.455 934.082 468.902C939.312 461.154 944.938 472.095 940.942 478.628ZM940.942 478.628C944.216 473.941 959.52 461.385 957.369 465.488C949.823 471.022 940.181 487.029 958.815 482.042" stroke="#220E91" stroke-width="2" stroke-linecap="round"/>
<path d="M258.326 522C249.999 498.335 237.415 518.059 258.827 515.173C286.275 511.474 266.846 459.584 262.336 457.145C257.825 454.707 265.171 483.512 276.298 500.156C290.19 520.935 304.315 471.347 274.364 489.817M301.682 497.848C300.904 498.915 299.923 499.74 298.722 500.156C292.061 502.464 295.154 492.653 297.533 487.458C303.756 476.591 306.297 491.51 301.682 497.848ZM301.682 497.848L311.212 482.841C309.428 488.612 306.692 500.156 310.023 500.156C313.354 500.156 315.772 488.612 316.565 482.841C314.583 489.959 312.402 503.388 319.539 500.156C326.676 496.924 323.702 486.304 321.918 482.841C319.539 481.109 318.231 497.847 324.892 500.156C327.271 501.31 332.624 498.617 328.461 487.458C324.297 476.299 298.722 469.565 290.99 478.8C288.203 482.13 296.209 482.468 320.475 464.46" stroke="#220E91" stroke-width="2" stroke-linecap="round" stroke-linejoin="round"/>
<path d="M820.274 517.88C819.876 517.101 817.888 506.2 834.985 508.925C848.662 511.106 848.901 482.839 844.13 493.352C841.483 500.239 837.293 511.197 833.589 520.995M833.589 520.995C830.243 529.844 827.294 537.748 826.238 540.852C824.011 547.393 830.211 530.339 833.589 520.995ZM833.589 520.995C840.018 521.384 851.684 526.446 838.563 541.63C822.74 559.943 830.214 522.552 848.106 528.393M848.106 528.393C850.094 526.446 862.419 501.138 853.274 508.925C845.959 515.155 845.941 552.532 850.889 546.302C855.527 540.462 859.238 528.393 848.106 528.393ZM869.973 529.95C868.781 534.882 867.588 544.434 872.359 543.188C877.13 541.942 878.148 524.499 876.335 528.782C874.082 534.103 871.723 544.823 880.311 543.577C888.899 542.331 881.106 520.995 881.106 528.393C882.431 534.752 883.094 543.188 889.456 543.188C895.641 543.188 895.42 535.011 888.661 526.446C883.263 519.605 893.829 546.302 898.998 542.798M865.997 531.507C860.431 526.63 853.672 540.073 862.419 543.188C865.997 544.462 873.552 538.126 865.997 531.507Z" stroke="#220E91" stroke-width="2" stroke-linecap="round"/>
<path d="M561.787 528.244C541.77 501.658 548.092 464.086 576.017 444.341C603.943 424.596 642.793 430.229 662.81 456.814C682.826 483.4 676.505 520.972 648.579 540.717C620.654 560.462 581.804 554.829 561.787 528.244Z" stroke="#5F4CC8" stroke-width="3"/>
<path d="M555.726 531.893C533.467 502.329 540.541 460.522 571.643 438.531C602.745 416.54 645.987 422.771 668.246 452.334C690.504 481.898 683.431 523.705 652.329 545.696C621.227 567.687 577.985 561.456 555.726 531.893Z" stroke="#5F4CC8" stroke-width="3"/>
<path d="M580.363 514.473C567.772 497.75 571.823 474.015 589.552 461.481C607.28 448.946 631.84 452.45 644.43 469.173C657.021 485.895 652.97 509.63 635.241 522.165C617.513 534.7 592.953 531.195 580.363 514.473Z" stroke="#5F4CC8" stroke-width="3"/>
<path d="M640.024 499.267L593.221 469.769M630.127 513.628L583.324 484.13" stroke="#5F4CC8" stroke-width="3"/>
<path d="M596.316 476.303L600.783 479.081C601.496 479.525 601.922 480.072 602.059 480.722C602.204 481.361 602.051 482.011 601.601 482.672C600.872 483.741 599.891 483.986 598.658 483.407L598.613 483.473C599.254 483.951 599.616 484.473 599.696 485.041C599.796 485.605 599.665 486.151 599.305 486.68C599.072 487.022 598.794 487.312 598.471 487.55C598.147 487.788 597.799 487.956 597.426 488.053C597.053 488.151 596.66 488.173 596.245 488.119C595.838 488.054 595.43 487.895 595.023 487.641L590.505 484.832L596.316 476.303ZM595.404 486.372C595.868 486.661 596.3 486.773 596.699 486.707C597.098 486.642 597.429 486.416 597.692 486.03L597.951 485.65C598.214 485.265 598.292 484.89 598.186 484.525C598.098 484.157 597.851 483.846 597.443 483.593L594.522 481.776L592.585 484.619L595.404 486.372ZM597.983 482.446C598.356 482.678 598.714 482.768 599.057 482.714C599.4 482.661 599.688 482.463 599.92 482.121L600.168 481.758C600.401 481.416 600.474 481.085 600.386 480.764C600.306 480.432 600.079 480.149 599.706 479.917L596.954 478.206L595.231 480.735L597.983 482.446ZM606.296 482.51L607.655 483.355L606.709 484.743L606.777 484.785C608.064 484.079 609.324 484.11 610.559 484.878C611.634 485.547 612.206 486.459 612.273 487.614C612.351 488.777 611.91 490.063 610.949 491.474C609.988 492.884 608.935 493.791 607.79 494.193C606.657 494.602 605.553 494.472 604.477 493.803C603.243 493.035 602.703 491.947 602.858 490.537L602.79 490.495L599.591 495.189L598.233 494.344L606.296 482.51ZM604.75 492.302C605.543 492.795 606.312 492.944 607.057 492.749C607.822 492.549 608.467 492.064 608.992 491.293L609.984 489.838C610.509 489.067 610.709 488.313 610.582 487.575C610.475 486.834 610.025 486.217 609.232 485.724C608.927 485.534 608.612 485.393 608.287 485.301C607.963 485.209 607.647 485.177 607.338 485.204C607.036 485.221 606.748 485.301 606.473 485.444C606.218 485.582 605.992 485.795 605.797 486.082L603.702 489.156C603.507 489.442 603.391 489.731 603.354 490.022C603.336 490.309 603.376 490.593 603.475 490.874C603.581 491.144 603.744 491.402 603.963 491.648C604.182 491.894 604.444 492.112 604.75 492.302ZM617.463 501.596C616.93 501.265 616.641 500.897 616.595 500.491C616.549 500.086 616.632 499.668 616.846 499.236L616.761 499.183C616.231 499.559 615.653 499.757 615.027 499.776C614.421 499.79 613.761 499.576 613.047 499.133C612.13 498.562 611.558 497.877 611.329 497.076C611.101 496.275 611.261 495.473 611.809 494.668C612.35 493.875 613.061 493.446 613.943 493.383C614.836 493.326 615.944 493.71 617.269 494.534L619.137 495.696L619.712 494.853C620.14 494.225 620.278 493.644 620.126 493.11C619.981 492.565 619.575 492.085 618.907 491.669C618.318 491.303 617.758 491.12 617.226 491.119C616.703 491.107 616.196 491.223 615.707 491.468L615.24 490.236C615.504 490.086 615.803 489.967 616.138 489.877C616.473 489.787 616.835 489.753 617.223 489.775C617.619 489.786 618.028 489.86 618.45 489.997C618.88 490.123 619.316 490.324 619.757 490.598C620.788 491.239 621.43 491.999 621.685 492.879C621.951 493.766 621.776 494.662 621.161 495.565L617.962 500.259L619.185 501.02L618.397 502.177L617.463 501.596ZM614.04 498.173C614.391 498.391 614.734 498.55 615.07 498.649C615.424 498.744 615.754 498.792 616.059 498.794C616.372 498.784 616.649 498.721 616.89 498.604C617.149 498.483 617.354 498.312 617.504 498.092L618.462 496.687L616.593 495.525C615.778 495.018 615.109 494.759 614.585 494.747C614.061 494.735 613.656 494.938 613.371 495.357L613.135 495.704C612.834 496.145 612.764 496.58 612.923 497.008C613.101 497.433 613.474 497.821 614.04 498.173ZM628.872 503.114L628.787 503.061C628.237 503.205 627.698 503.239 627.171 503.162C626.662 503.081 626.096 502.847 625.473 502.459C624.522 501.868 623.944 501.202 623.738 500.463C623.552 499.719 623.759 498.907 624.36 498.025L626.409 495.017L627.768 495.862L625.797 498.754C625.437 499.283 625.323 499.77 625.456 500.213C625.589 500.657 626.001 501.093 626.692 501.523C627.371 501.945 627.976 502.204 628.508 502.299C629.058 502.391 629.454 502.26 629.694 501.907L632.014 498.503L633.373 499.347L627.561 507.876L626.203 507.031L628.872 503.114Z" fill="#5F4CC8"/>
<path d="M577.827 530.996L575.735 533.583L575.831 533.654L580.993 530.762L579.357 536.275L579.453 536.346L581.545 533.759L584.859 529.661L585.782 530.348L579.174 538.519L577.879 537.557L579.32 532.854L579.248 532.801L574.856 535.311L573.609 534.384L580.217 526.212L581.141 526.898L577.827 530.996Z" fill="#5F4CC8"/>
<path d="M569.337 526.151L568.533 525.279L578.341 521.855C578.57 521.775 578.783 521.723 578.979 521.697C579.183 521.665 579.374 521.671 579.551 521.714C579.736 521.751 579.918 521.829 580.097 521.949C580.284 522.062 580.474 522.224 580.669 522.435L581.433 523.264L580.651 523.936L579.444 522.627L577.228 523.397L573.501 530.666L572.676 529.772L574.285 526.689L575.765 523.912L575.725 523.868L572.696 524.965L569.337 526.151Z" fill="#5F4CC8"/>
<path d="M573.282 520.413L572.784 519.611C572.54 519.584 572.275 519.591 571.99 519.633C571.7 519.667 571.379 519.747 571.027 519.874C570.67 519.993 570.276 520.157 569.843 520.366C569.402 520.58 568.905 520.849 568.353 521.174L566.421 522.31L563.751 518.013L570.532 514.025L571.155 515.027L565.267 518.49L566.708 520.807L567.772 520.181C568.999 519.46 570.017 518.98 570.827 518.744C571.623 518.504 572.258 518.438 572.732 518.547C572.998 518.607 573.225 518.713 573.414 518.864C573.595 519.02 573.768 519.232 573.935 519.499L574.176 519.887L573.282 520.413Z" fill="#5F4CC8"/>
<path d="M568.891 513.333L568.553 512.455C568.319 512.385 568.058 512.346 567.771 512.338C567.48 512.321 567.151 512.344 566.782 512.408C566.41 512.463 565.992 512.556 565.529 512.686C565.056 512.82 564.518 512.999 563.916 513.223L561.808 514.007L560.001 509.301L567.4 506.55L567.821 507.647L561.398 510.036L562.372 512.574L563.534 512.142C564.872 511.645 565.96 511.35 566.799 511.257C567.624 511.16 568.259 511.206 568.704 511.396C568.952 511.502 569.155 511.646 569.312 511.828C569.46 512.014 569.59 512.253 569.702 512.545L569.866 512.971L568.891 513.333Z" fill="#5F4CC8"/>
<path d="M565.7 498.656C565.784 499.108 565.723 499.453 565.519 499.692C565.314 499.93 565.035 500.107 564.683 500.224L564.697 500.296C565.179 500.374 565.584 500.571 565.913 500.887C566.229 501.196 566.444 501.653 566.557 502.259C566.702 503.039 566.607 503.7 566.272 504.242C565.937 504.784 565.404 505.124 564.672 505.263C563.95 505.401 563.347 505.256 562.862 504.83C562.376 504.394 562.029 503.614 561.819 502.488L561.523 500.9L560.756 501.045C560.185 501.154 559.787 501.389 559.564 501.75C559.33 502.114 559.267 502.579 559.372 503.147C559.465 503.648 559.647 504.037 559.917 504.314C560.176 504.594 560.499 504.796 560.886 504.922L560.43 505.816C560.211 505.758 559.991 505.665 559.771 505.538C559.55 505.41 559.346 505.24 559.161 505.026C558.966 504.814 558.8 504.561 558.662 504.269C558.515 503.978 558.406 503.645 558.336 503.269C558.173 502.394 558.275 501.657 558.641 501.059C559.005 500.452 559.599 500.07 560.421 499.913L564.692 499.101L564.499 498.062L565.552 497.862L565.7 498.656ZM565.512 502.249C565.456 501.95 565.371 501.688 565.256 501.46C565.129 501.225 564.989 501.028 564.834 500.868C564.67 500.71 564.494 500.599 564.305 500.535C564.105 500.464 563.905 500.447 563.704 500.485L562.426 500.728L562.721 502.316C562.85 503.009 563.045 503.495 563.304 503.775C563.564 504.054 563.884 504.158 564.265 504.085L564.581 504.025C564.982 503.949 565.263 503.756 565.423 503.446C565.572 503.129 565.602 502.73 565.512 502.249Z" fill="#5F4CC8"/>
<path d="M557.587 495.964L557.591 490.521L558.631 490.503L558.627 494.769L565.474 494.651L565.473 495.827L557.587 495.964Z" fill="#5F4CC8"/>
<path d="M566.72 482.48C566.636 482.936 566.456 483.242 566.18 483.399C565.903 483.555 565.58 483.631 565.21 483.624L565.197 483.696C565.618 483.93 565.925 484.251 566.118 484.659C566.303 485.056 566.34 485.559 566.228 486.169C566.084 486.954 565.758 487.547 565.251 487.947C564.745 488.348 564.125 488.492 563.393 488.38C562.67 488.269 562.16 487.932 561.861 487.369C561.564 486.796 561.52 485.942 561.728 484.809L562.021 483.211L561.254 483.093C560.682 483.006 560.227 483.096 559.889 483.363C559.541 483.628 559.315 484.047 559.21 484.618C559.117 485.122 559.147 485.55 559.299 485.902C559.441 486.252 559.67 486.551 559.985 486.798L559.239 487.491C559.056 487.363 558.885 487.203 558.724 487.009C558.564 486.815 558.436 486.586 558.34 486.323C558.234 486.057 558.169 485.764 558.146 485.441C558.112 485.118 558.13 484.767 558.2 484.389C558.362 483.508 558.721 482.846 559.276 482.403C559.834 481.95 560.524 481.787 561.347 481.913L565.621 482.566L565.813 481.52L566.867 481.681L566.72 482.48ZM565.257 485.812C565.312 485.511 565.327 485.235 565.301 484.982C565.267 484.718 565.207 484.485 565.12 484.282C565.023 484.078 564.899 483.915 564.746 483.792C564.585 483.658 564.404 483.575 564.203 483.544L562.924 483.349L562.631 484.947C562.503 485.645 562.51 486.168 562.651 486.519C562.793 486.869 563.055 487.073 563.436 487.132L563.752 487.18C564.154 487.241 564.485 487.153 564.745 486.914C564.997 486.663 565.168 486.296 565.257 485.812Z" fill="#5F4CC8"/>
<path d="M569.384 474.729C569.22 475.165 568.989 475.437 568.689 475.546C568.39 475.655 568.059 475.676 567.697 475.607L567.671 475.677C568.043 475.978 568.287 476.346 568.403 476.781C568.514 477.204 568.459 477.708 568.24 478.292C567.958 479.043 567.532 479.575 566.963 479.886C566.393 480.197 565.759 480.237 565.06 480.004C564.37 479.775 563.93 479.357 563.737 478.75C563.548 478.135 563.658 477.284 564.065 476.199L564.64 474.669L563.907 474.425C563.362 474.243 562.899 474.256 562.519 474.464C562.13 474.668 561.833 475.044 561.627 475.591C561.446 476.073 561.399 476.501 561.485 476.874C561.561 477.244 561.732 477.577 561.998 477.874L561.141 478.434C560.985 478.278 560.845 478.091 560.722 477.872C560.599 477.654 560.515 477.407 560.468 477.13C560.411 476.851 560.4 476.55 560.435 476.227C560.46 475.902 560.541 475.558 560.677 475.197C560.994 474.353 561.465 473.758 562.09 473.413C562.718 473.059 563.425 473.012 564.211 473.274L568.29 474.631L568.666 473.629L569.672 473.964L569.384 474.729ZM567.351 477.777C567.459 477.49 567.523 477.219 567.543 476.965C567.557 476.698 567.539 476.457 567.491 476.243C567.432 476.025 567.339 475.843 567.211 475.696C567.077 475.537 566.914 475.425 566.723 475.361L565.502 474.955L564.927 476.486C564.676 477.153 564.589 477.672 564.666 478.042C564.742 478.412 564.963 478.657 565.326 478.778L565.628 478.879C566.011 479.006 566.352 478.973 566.651 478.781C566.943 478.575 567.176 478.241 567.351 477.777Z" fill="#5F4CC8"/>
<path d="M563.504 468.992L564.112 467.961L567.598 469.827L569.287 470.867L569.318 470.816L566.052 464.675L566.622 463.708L573.462 467.37L572.854 468.401L569.367 466.535L567.678 465.495L567.648 465.546L570.914 471.687L570.344 472.654L563.504 468.992Z" fill="#5F4CC8"/>
<path d="M568.746 460.686L569.527 459.767L572.065 461.757L574.508 458.888L571.97 456.899L572.752 455.98L578.813 460.733L578.032 461.651L575.306 459.514L572.864 462.383L575.589 464.52L574.807 465.438L568.746 460.686Z" fill="#5F4CC8"/>
<path d="M584.992 455.295C584.627 455.6 584.288 455.73 583.975 455.683C583.661 455.636 583.366 455.497 583.09 455.264L583.031 455.313C583.197 455.754 583.218 456.194 583.095 456.632C582.973 457.056 582.668 457.473 582.179 457.882C581.551 458.408 580.912 458.672 580.263 458.675C579.613 458.677 579.048 458.41 578.566 457.873C578.09 457.343 577.925 456.766 578.071 456.142C578.225 455.511 578.755 454.815 579.662 454.056L580.942 452.984L580.436 452.422C580.06 452.002 579.655 451.794 579.222 451.795C578.783 451.79 578.334 451.978 577.877 452.361C577.474 452.699 577.213 453.052 577.096 453.421C576.972 453.782 576.948 454.157 577.024 454.544L576 454.629C575.946 454.416 575.922 454.185 575.928 453.935C575.934 453.685 575.988 453.427 576.09 453.162C576.184 452.889 576.329 452.62 576.525 452.353C576.713 452.079 576.959 451.816 577.261 451.562C577.967 450.972 578.677 450.673 579.392 450.668C580.114 450.656 580.746 450.951 581.288 451.554L584.101 454.688L584.938 453.987L585.631 454.76L584.992 455.295ZM581.679 457.006C581.919 456.805 582.113 456.597 582.261 456.383C582.409 456.156 582.518 455.936 582.586 455.725C582.647 455.506 582.661 455.301 582.626 455.111C582.593 454.907 582.51 454.732 582.378 454.585L581.536 453.647L580.256 454.718C579.698 455.185 579.357 455.6 579.233 455.961C579.109 456.322 579.173 456.643 579.424 456.922L579.632 457.154C579.896 457.448 580.206 457.582 580.562 457.555C580.919 457.514 581.291 457.331 581.679 457.006Z" fill="#5F4CC8"/>
<path d="M595.353 449.391L593.214 447.174L589.848 448.809L590.365 451.814L589.17 452.394L587.451 441.809L588.976 441.068L596.575 448.798L595.353 449.391ZM588.855 442.583L588.732 442.643L589.635 447.718L592.452 446.35L588.855 442.583Z" fill="#5F4CC8"/>
<path d="M595.528 441.171L596.703 440.827L597.806 444.529L598.242 446.421L598.301 446.404L600.449 439.73L601.55 439.407L603.715 446.669L602.539 447.014L601.436 443.312L601 441.42L600.942 441.437L598.794 448.111L597.692 448.434L595.528 441.171Z" fill="#5F4CC8"/>
<path d="M604.624 445.35L605.506 445.249C605.779 444.715 605.972 444.102 606.084 443.409C606.206 442.705 606.219 441.895 606.124 440.979L605.874 438.583L610.937 438.004L611.618 444.55L612.911 444.402L613.227 447.441L612.117 447.568L611.904 445.523L605.838 446.216L606.051 448.262L604.941 448.389L604.624 445.35ZM610.402 444.689L609.824 439.137L607.164 439.441L607.316 440.902C607.41 441.808 607.415 442.596 607.331 443.266C607.246 443.926 607.078 444.537 606.829 445.098L610.402 444.689Z" fill="#5F4CC8"/>
<path d="M620.248 445.772C619.771 445.745 619.44 445.608 619.256 445.361C619.072 445.115 618.969 444.814 618.946 444.458L618.87 444.454C618.662 444.885 618.354 445.216 617.948 445.449C617.552 445.672 617.034 445.765 616.394 445.728C615.571 445.681 614.933 445.438 614.479 444.999C614.024 444.56 613.826 443.983 613.884 443.268C613.942 442.563 614.25 442.035 614.809 441.683C615.378 441.332 616.257 441.191 617.446 441.259L619.122 441.355L619.182 440.606C619.228 440.048 619.099 439.623 618.796 439.33C618.494 439.028 618.044 438.859 617.444 438.825C616.916 438.794 616.476 438.872 616.124 439.059C615.773 439.235 615.482 439.489 615.251 439.82L614.476 439.186C614.593 438.996 614.746 438.813 614.934 438.636C615.122 438.46 615.348 438.311 615.613 438.188C615.879 438.056 616.178 437.96 616.509 437.901C616.841 437.831 617.205 437.808 617.601 437.83C618.526 437.883 619.239 438.151 619.741 438.632C620.253 439.114 620.476 439.756 620.411 440.559L620.072 444.73L621.169 444.792L621.086 445.82L620.248 445.772ZM616.687 444.757C617.002 444.775 617.289 444.757 617.549 444.703C617.819 444.64 618.056 444.555 618.258 444.448C618.462 444.332 618.621 444.194 618.736 444.033C618.862 443.863 618.933 443.681 618.949 443.485L619.05 442.236L617.374 442.14C616.643 442.098 616.102 442.166 615.75 442.342C615.399 442.519 615.209 442.793 615.179 443.165L615.154 443.474C615.122 443.865 615.24 444.172 615.507 444.394C615.786 444.607 616.179 444.728 616.687 444.757Z" fill="#5F4CC8"/>
<path d="M628.755 447.88C627.931 447.609 627.296 447.218 626.851 446.707C626.416 446.199 626.107 445.639 625.926 445.027L627.062 444.619C627.423 445.791 628.112 446.543 629.128 446.878C629.789 447.095 630.374 447.115 630.881 446.938C631.388 446.761 631.746 446.389 631.957 445.823L632.065 445.53C632.241 445.057 632.217 444.616 631.991 444.209C631.77 443.792 631.304 443.467 630.595 443.233L629.185 442.77L629.563 441.753L630.886 442.188C632.18 442.614 633.024 442.297 633.417 441.239L633.526 440.946C633.692 440.501 633.662 440.089 633.436 439.713C633.219 439.34 632.795 439.049 632.162 438.841C631.606 438.658 631.114 438.606 630.687 438.684C630.26 438.762 629.869 438.931 629.515 439.189L628.821 438.32C629.349 437.942 629.91 437.704 630.505 437.608C631.11 437.515 631.786 437.592 632.534 437.838C633.589 438.185 634.294 438.677 634.649 439.315C635.013 439.956 635.05 440.666 634.761 441.446C634.509 442.124 634.132 442.589 633.629 442.84C633.131 443.083 632.592 443.156 632.015 443.06L631.989 443.129C632.272 443.264 632.525 443.425 632.745 443.613C632.966 443.8 633.138 444.018 633.261 444.267C633.384 444.515 633.451 444.798 633.463 445.114C633.478 445.422 633.418 445.756 633.283 446.118C633.125 446.546 632.896 446.913 632.599 447.222C632.314 447.524 631.975 447.757 631.581 447.919C631.191 448.072 630.754 448.147 630.271 448.145C629.797 448.145 629.292 448.057 628.755 447.88Z" fill="#5F4CC8"/>
<path d="M637.958 442.969L639.013 443.546L636.981 446.919L635.856 448.554L635.909 448.583L642.376 445.385L643.365 445.926L639.379 452.543L638.324 451.966L640.355 448.593L641.481 446.958L641.428 446.929L634.961 450.127L633.972 449.586L637.958 442.969Z" fill="#5F4CC8"/>
<path d="M646.401 447.939L647.323 448.696L645.158 451.131L648.041 453.495L650.206 451.06L651.129 451.817L645.957 457.634L645.034 456.877L647.36 454.262L644.477 451.897L642.151 454.513L641.229 453.756L646.401 447.939Z" fill="#5F4CC8"/>
<path d="M653.515 454.132L654.276 455.04L651.694 457.064L654.072 459.902L656.654 457.878L657.415 458.787L651.247 463.62L650.486 462.712L653.259 460.539L650.881 457.701L648.108 459.874L647.347 458.966L653.515 454.132Z" fill="#5F4CC8"/>
<path d="M662.134 466.539L662.705 467.57L652.382 468.742C652.142 468.769 651.923 468.773 651.727 468.755C651.521 468.741 651.338 468.693 651.176 468.612C651.006 468.535 650.848 468.418 650.703 468.261C650.55 468.109 650.404 467.909 650.266 467.659L649.724 466.68L650.642 466.197L651.498 467.743L653.83 467.481L659.181 461.203L659.766 462.26L657.469 464.917L655.371 467.303L655.399 467.354L658.596 466.953L662.134 466.539Z" fill="#5F4CC8"/>
<path d="M663.722 469.951L664.093 471.067L662.87 471.463L662.889 471.519C663.975 471.682 664.686 472.269 665.023 473.282C665.316 474.165 665.2 474.965 664.675 475.681C664.152 476.406 663.27 476.97 662.028 477.373C660.786 477.776 659.737 477.839 658.881 477.56C658.028 477.291 657.455 476.715 657.162 475.832C656.825 474.819 657.045 473.929 657.823 473.163L657.804 473.107L653.67 474.448L653.299 473.333L663.722 469.951ZM658.052 475.065C658.268 475.715 658.638 476.151 659.163 476.372C659.701 476.599 660.31 476.603 660.989 476.382L662.27 475.967C662.949 475.746 663.433 475.389 663.72 474.894C664.02 474.405 664.062 473.836 663.845 473.185C663.762 472.934 663.649 472.708 663.507 472.507C663.365 472.306 663.198 472.144 663.007 472.021C662.825 471.895 662.62 471.812 662.392 471.773C662.177 471.74 661.943 471.764 661.691 471.846L658.983 472.724C658.731 472.806 658.523 472.925 658.36 473.081C658.21 473.243 658.094 473.43 658.014 473.641C657.943 473.849 657.911 474.076 657.917 474.321C657.923 474.566 657.968 474.814 658.052 475.065Z" fill="#5F4CC8"/>
<path d="M658.859 483.208C658.788 482.684 658.819 482.195 658.953 481.74C659.088 481.296 659.312 480.898 659.625 480.546C659.949 480.203 660.348 479.918 660.822 479.692C661.306 479.464 661.861 479.305 662.487 479.215C663.103 479.126 663.674 479.124 664.201 479.206C664.727 479.289 665.186 479.45 665.579 479.691C665.984 479.939 666.31 480.258 666.559 480.648C666.809 481.047 666.969 481.509 667.04 482.033C667.111 482.557 667.079 483.041 666.944 483.486C666.81 483.94 666.581 484.339 666.257 484.683C665.944 485.034 665.546 485.324 665.062 485.552C664.578 485.779 664.028 485.938 663.412 486.026C662.786 486.116 662.209 486.12 661.683 486.037C661.167 485.953 660.707 485.786 660.303 485.538C659.909 485.298 659.588 484.978 659.338 484.578C659.09 484.189 658.93 483.732 658.859 483.208ZM659.904 483.058C659.992 483.708 660.265 484.203 660.724 484.543C661.182 484.882 661.835 484.991 662.683 484.869L663.804 484.708C664.653 484.587 665.252 484.298 665.602 483.842C665.952 483.386 666.083 482.833 665.995 482.183C665.907 481.533 665.633 481.038 665.175 480.698C664.717 480.359 664.064 480.25 663.216 480.371L662.095 480.533C661.246 480.654 660.647 480.943 660.297 481.399C659.947 481.855 659.816 482.408 659.904 483.058Z" fill="#5F4CC8"/>
<path d="M667.443 488.498L667.265 492.366C667.236 492.984 667.031 493.464 666.648 493.808C666.276 494.153 665.784 494.317 665.173 494.302C664.186 494.278 663.654 493.769 663.577 492.776L663.516 492.774C663.438 493.361 663.225 493.793 662.876 494.069C662.537 494.355 662.123 494.492 661.634 494.48C661.319 494.472 661.021 494.416 660.74 494.31C660.46 494.205 660.217 494.057 660.012 493.865C659.807 493.674 659.644 493.439 659.524 493.161C659.415 492.884 659.368 492.569 659.385 492.216L659.565 488.303L667.443 488.498ZM660.375 491.946C660.357 492.348 660.444 492.659 660.638 492.88C660.832 493.1 661.107 493.215 661.463 493.224L661.814 493.233C662.17 493.241 662.45 493.14 662.653 492.929C662.866 492.729 662.981 492.452 662.997 492.099L663.114 489.569L660.488 489.504L660.375 491.946ZM663.966 491.975C663.951 492.299 664.026 492.556 664.19 492.746C664.355 492.937 664.595 493.036 664.91 493.044L665.246 493.052C665.562 493.06 665.81 492.973 665.992 492.791C666.184 492.609 666.287 492.356 666.302 492.033L666.411 489.65L664.075 489.593L663.966 491.975Z" fill="#5F4CC8"/>
<path d="M666.741 497.838L666.475 498.991L663.253 498.356L662.421 501.959L665.643 502.594L665.377 503.747L657.679 502.23L657.945 501.077L661.406 501.759L662.238 498.156L658.777 497.474L659.044 496.321L666.741 497.838Z" fill="#5F4CC8"/>
<path d="M654.693 509.793C654.877 509.364 655.121 509.101 655.425 509.005C655.729 508.909 656.06 508.903 656.418 508.987L656.448 508.919C656.091 508.602 655.864 508.223 655.768 507.783C655.677 507.355 655.755 506.854 656.001 506.279C656.318 505.54 656.767 505.028 657.35 504.741C657.933 504.454 658.568 504.442 659.255 504.705C659.932 504.964 660.353 505.401 660.517 506.015C660.677 506.639 660.528 507.485 660.071 508.552L659.426 510.057L660.146 510.333C660.682 510.538 661.145 510.545 661.533 510.354C661.931 510.166 662.246 509.803 662.476 509.265C662.679 508.79 662.747 508.365 662.678 507.988C662.619 507.615 662.463 507.274 662.212 506.966L663.093 506.443C663.243 506.606 663.373 506.8 663.486 507.023C663.598 507.246 663.671 507.497 663.705 507.776C663.749 508.058 663.746 508.359 663.696 508.68C663.656 509.004 663.559 509.344 663.407 509.7C663.051 510.53 662.553 511.104 661.913 511.422C661.27 511.75 660.562 511.766 659.79 511.471L655.781 509.938L655.359 510.923L654.371 510.545L654.693 509.793ZM656.865 506.833C656.744 507.115 656.667 507.383 656.635 507.637C656.609 507.903 656.615 508.144 656.654 508.36C656.702 508.581 656.787 508.767 656.907 508.919C657.034 509.084 657.191 509.203 657.379 509.275L658.579 509.734L659.224 508.228C659.505 507.571 659.616 507.056 659.557 506.683C659.498 506.31 659.289 506.056 658.932 505.919L658.635 505.806C658.259 505.662 657.917 505.68 657.61 505.859C657.309 506.052 657.06 506.376 656.865 506.833Z" fill="#5F4CC8"/>
</svg>
