<svg width="1329" height="1050" viewBox="0 0 1329 1050" fill="none" xmlns="http://www.w3.org/2000/svg">
<path d="M561.998 649.301C475.026 570.554 218.324 460.492 137.15 585.312C55.9753 710.132 208.627 864.408 282.104 907.144C404.565 978.371 693.373 1109.44 934.896 823.018C1005.04 742.967 1227.7 589.261 1287.5 654.801C1416.47 796.153 1139.08 915.249 1031.87 927.687C934.896 938.936 885.412 1076.86 1307.28 1033.33" stroke="#5F4CC8" stroke-width="15"/>
<rect x="568.998" width="687" height="738.831" rx="6" fill="white"/>
<rect x="585.998" y="130.957" width="538" height="573.669" rx="6" fill="#220E91"/>
<rect x="585.998" y="163.207" width="538" height="541.418" rx="6" fill="#220E91"/>
<path d="M1083 479.801V659.801" stroke="white" stroke-width="2.00645"/>
<path d="M1002.27 305.801V304.706H1005.27V296.261H1005.17L1002.53 298.721L1001.79 297.926L1004.57 295.331H1006.53V304.706H1009.29V305.801H1002.27ZM1014.04 299.771C1014.77 299.771 1015.32 299.611 1015.68 299.291C1016.05 298.961 1016.23 298.541 1016.23 298.031V297.926C1016.23 297.366 1016.05 296.946 1015.69 296.666C1015.34 296.386 1014.88 296.246 1014.31 296.246C1013.75 296.246 1013.3 296.371 1012.95 296.621C1012.61 296.861 1012.33 297.181 1012.11 297.581L1011.16 296.861C1011.29 296.651 1011.45 296.446 1011.64 296.246C1011.83 296.036 1012.05 295.851 1012.3 295.691C1012.56 295.531 1012.86 295.401 1013.19 295.301C1013.53 295.201 1013.91 295.151 1014.34 295.151C1014.79 295.151 1015.21 295.211 1015.6 295.331C1015.99 295.441 1016.33 295.611 1016.62 295.841C1016.91 296.061 1017.14 296.336 1017.3 296.666C1017.47 296.996 1017.55 297.371 1017.55 297.791C1017.55 298.131 1017.5 298.436 1017.39 298.706C1017.29 298.976 1017.14 299.211 1016.95 299.411C1016.77 299.611 1016.56 299.781 1016.31 299.921C1016.06 300.061 1015.79 300.166 1015.51 300.236V300.296C1015.8 300.356 1016.08 300.456 1016.35 300.596C1016.62 300.726 1016.86 300.901 1017.07 301.121C1017.28 301.331 1017.45 301.591 1017.57 301.901C1017.7 302.201 1017.76 302.546 1017.76 302.936C1017.76 303.386 1017.67 303.801 1017.49 304.181C1017.32 304.551 1017.08 304.871 1016.76 305.141C1016.45 305.401 1016.07 305.606 1015.62 305.756C1015.18 305.906 1014.69 305.981 1014.15 305.981C1013.69 305.981 1013.28 305.931 1012.92 305.831C1012.57 305.731 1012.25 305.596 1011.97 305.426C1011.7 305.256 1011.46 305.066 1011.25 304.856C1011.05 304.646 1010.87 304.426 1010.71 304.196L1011.66 303.476C1011.8 303.686 1011.94 303.876 1012.09 304.046C1012.24 304.216 1012.41 304.366 1012.6 304.496C1012.8 304.616 1013.03 304.711 1013.28 304.781C1013.53 304.851 1013.82 304.886 1014.15 304.886C1014.89 304.886 1015.45 304.716 1015.84 304.376C1016.24 304.036 1016.44 303.551 1016.44 302.921V302.801C1016.44 302.181 1016.25 301.701 1015.86 301.361C1015.48 301.021 1014.9 300.851 1014.13 300.851H1012.89V299.771H1014.04ZM1026.5 296.426H1021.82L1021.52 300.431H1021.63C1021.89 300.081 1022.18 299.806 1022.5 299.606C1022.82 299.396 1023.26 299.291 1023.82 299.291C1024.28 299.291 1024.7 299.366 1025.08 299.516C1025.47 299.656 1025.8 299.866 1026.08 300.146C1026.36 300.426 1026.58 300.766 1026.74 301.166C1026.9 301.556 1026.98 302.006 1026.98 302.516C1026.98 303.026 1026.9 303.496 1026.74 303.926C1026.58 304.346 1026.35 304.711 1026.04 305.021C1025.73 305.321 1025.35 305.556 1024.91 305.726C1024.47 305.896 1023.97 305.981 1023.41 305.981C1022.97 305.981 1022.58 305.931 1022.23 305.831C1021.89 305.731 1021.58 305.596 1021.31 305.426C1021.05 305.256 1020.82 305.066 1020.62 304.856C1020.42 304.646 1020.24 304.426 1020.08 304.196L1021.03 303.476C1021.17 303.686 1021.31 303.876 1021.45 304.046C1021.6 304.216 1021.77 304.366 1021.96 304.496C1022.15 304.616 1022.36 304.711 1022.6 304.781C1022.84 304.851 1023.12 304.886 1023.44 304.886C1024.16 304.886 1024.71 304.691 1025.09 304.301C1025.48 303.911 1025.68 303.371 1025.68 302.681V302.561C1025.68 301.871 1025.48 301.331 1025.09 300.941C1024.7 300.551 1024.14 300.356 1023.41 300.356C1022.91 300.356 1022.52 300.441 1022.24 300.611C1021.97 300.781 1021.72 300.991 1021.49 301.241L1020.43 301.091L1020.8 295.331H1026.5V296.426Z" fill="white"/>
<path d="M667.898 157.759H661.098V165.684H658.998V148.234H661.098V155.934H667.898V148.234H669.998V165.684H667.898V157.759ZM679.713 165.984C678.78 165.984 677.938 165.825 677.188 165.509C676.455 165.192 675.822 164.742 675.288 164.159C674.772 163.559 674.372 162.85 674.088 162.034C673.805 161.2 673.663 160.275 673.663 159.259C673.663 158.225 673.805 157.292 674.088 156.459C674.388 155.625 674.797 154.917 675.313 154.334C675.83 153.734 676.447 153.275 677.163 152.959C677.897 152.642 678.705 152.484 679.588 152.484C680.455 152.484 681.238 152.642 681.938 152.959C682.655 153.275 683.263 153.717 683.763 154.284C684.263 154.834 684.647 155.492 684.913 156.259C685.18 157.025 685.313 157.867 685.313 158.784V159.734H675.763V160.334C675.763 160.9 675.855 161.425 676.038 161.909C676.222 162.392 676.48 162.809 676.813 163.159C677.163 163.509 677.58 163.784 678.063 163.984C678.563 164.167 679.113 164.259 679.713 164.259C680.58 164.259 681.33 164.059 681.963 163.659C682.597 163.259 683.08 162.709 683.413 162.009L684.888 163.009C684.505 163.875 683.863 164.592 682.963 165.159C682.08 165.709 680.997 165.984 679.713 165.984ZM679.588 154.134C679.038 154.134 678.53 154.234 678.063 154.434C677.597 154.634 677.188 154.909 676.838 155.259C676.505 155.609 676.238 156.025 676.038 156.509C675.855 156.975 675.763 157.492 675.763 158.059V158.234H683.163V157.959C683.163 157.392 683.072 156.875 682.888 156.409C682.722 155.942 682.48 155.542 682.163 155.209C681.863 154.859 681.488 154.592 681.038 154.409C680.605 154.225 680.122 154.134 679.588 154.134ZM688.329 165.684V152.784H690.179V154.284H690.279C690.479 153.784 690.762 153.359 691.129 153.009C691.495 152.659 692.037 152.484 692.754 152.484C693.504 152.484 694.062 152.675 694.429 153.059C694.795 153.425 695.02 153.909 695.104 154.509H695.179C695.412 153.925 695.745 153.442 696.179 153.059C696.612 152.675 697.212 152.484 697.979 152.484C699.029 152.484 699.729 152.85 700.079 153.584C700.445 154.317 700.629 155.367 700.629 156.734V165.684H698.779V157.059C698.779 155.959 698.662 155.2 698.429 154.784C698.212 154.35 697.804 154.134 697.204 154.134C696.67 154.134 696.237 154.309 695.904 154.659C695.57 154.992 695.404 155.509 695.404 156.209V165.684H693.554V157.059C693.554 155.959 693.437 155.2 693.204 154.784C692.987 154.35 692.587 154.134 692.004 154.134C691.47 154.134 691.029 154.309 690.679 154.659C690.345 154.992 690.179 155.509 690.179 156.209V165.684H688.329ZM705.844 159.134V157.034H713.094V159.134H705.844ZM721.284 165.684L728.109 150.034H720.459V153.284H718.584V148.234H730.234V150.084L723.534 165.684H721.284ZM734.074 165.684V163.859H739.074V149.784H738.899L734.499 153.884L733.274 152.559L737.899 148.234H741.174V163.859H745.774V165.684H734.074ZM760.364 165.684H748.714V163.534L754.539 158.284C755.389 157.517 756.089 156.734 756.639 155.934C757.189 155.117 757.464 154.259 757.464 153.359V153.059C757.464 152.009 757.189 151.2 756.639 150.634C756.089 150.05 755.273 149.759 754.189 149.759C753.123 149.759 752.298 150.034 751.714 150.584C751.148 151.117 750.723 151.834 750.439 152.734L748.564 152.034C748.731 151.517 748.956 151.017 749.239 150.534C749.539 150.034 749.914 149.592 750.364 149.209C750.814 148.825 751.356 148.517 751.989 148.284C752.639 148.05 753.389 147.934 754.239 147.934C755.106 147.934 755.873 148.059 756.539 148.309C757.223 148.559 757.789 148.909 758.239 149.359C758.706 149.809 759.056 150.342 759.289 150.959C759.539 151.575 759.664 152.25 759.664 152.984C759.664 153.65 759.564 154.275 759.364 154.859C759.181 155.442 758.914 156 758.564 156.534C758.231 157.067 757.823 157.592 757.339 158.109C756.873 158.609 756.348 159.109 755.764 159.609L750.889 163.859H760.364V165.684ZM764.055 165.684V163.859H769.055V149.784H768.88L764.48 153.884L763.255 152.559L767.88 148.234H771.155V163.859H775.755V165.684H764.055Z" fill="white"/>
<path d="M975.325 165.684L982.15 150.034H974.5V153.284H972.625V148.234H984.275V150.084L977.575 165.684H975.325ZM993.49 165.909C992.807 165.909 992.324 165.767 992.04 165.484C991.774 165.2 991.64 164.842 991.64 164.409V163.959C991.64 163.525 991.774 163.167 992.04 162.884C992.324 162.6 992.807 162.459 993.49 162.459C994.174 162.459 994.649 162.6 994.915 162.884C995.199 163.167 995.34 163.525 995.34 163.959V164.409C995.34 164.842 995.199 165.2 994.915 165.484C994.649 165.767 994.174 165.909 993.49 165.909ZM993.49 156.009C992.807 156.009 992.324 155.867 992.04 155.584C991.774 155.3 991.64 154.942 991.64 154.509V154.059C991.64 153.625 991.774 153.267 992.04 152.984C992.324 152.7 992.807 152.559 993.49 152.559C994.174 152.559 994.649 152.7 994.915 152.984C995.199 153.267 995.34 153.625 995.34 154.059V154.509C995.34 154.942 995.199 155.3 994.915 155.584C994.649 155.867 994.174 156.009 993.49 156.009ZM1007.73 155.634C1008.95 155.634 1009.86 155.367 1010.46 154.834C1011.07 154.284 1011.38 153.584 1011.38 152.734V152.559C1011.38 151.625 1011.08 150.925 1010.48 150.459C1009.9 149.992 1009.13 149.759 1008.18 149.759C1007.25 149.759 1006.49 149.967 1005.91 150.384C1005.34 150.784 1004.87 151.317 1004.51 151.984L1002.93 150.784C1003.15 150.434 1003.41 150.092 1003.73 149.759C1004.05 149.409 1004.41 149.1 1004.83 148.834C1005.26 148.567 1005.76 148.35 1006.31 148.184C1006.87 148.017 1007.51 147.934 1008.23 147.934C1008.98 147.934 1009.68 148.034 1010.33 148.234C1010.98 148.417 1011.55 148.7 1012.03 149.084C1012.51 149.45 1012.89 149.909 1013.16 150.459C1013.44 151.009 1013.58 151.634 1013.58 152.334C1013.58 152.9 1013.49 153.409 1013.31 153.859C1013.14 154.309 1012.9 154.7 1012.58 155.034C1012.28 155.367 1011.92 155.65 1011.51 155.884C1011.09 156.117 1010.65 156.292 1010.18 156.409V156.509C1010.66 156.609 1011.13 156.775 1011.58 157.009C1012.03 157.225 1012.43 157.517 1012.78 157.884C1013.13 158.234 1013.41 158.667 1013.61 159.184C1013.82 159.684 1013.93 160.259 1013.93 160.909C1013.93 161.659 1013.78 162.35 1013.48 162.984C1013.2 163.6 1012.79 164.134 1012.26 164.584C1011.74 165.017 1011.11 165.359 1010.36 165.609C1009.62 165.859 1008.81 165.984 1007.91 165.984C1007.14 165.984 1006.46 165.9 1005.86 165.734C1005.27 165.567 1004.75 165.342 1004.28 165.059C1003.83 164.775 1003.43 164.459 1003.08 164.109C1002.75 163.759 1002.45 163.392 1002.18 163.009L1003.76 161.809C1003.99 162.159 1004.23 162.475 1004.48 162.759C1004.73 163.042 1005.01 163.292 1005.33 163.509C1005.66 163.709 1006.04 163.867 1006.46 163.984C1006.87 164.1 1007.36 164.159 1007.91 164.159C1009.14 164.159 1010.08 163.875 1010.73 163.309C1011.4 162.742 1011.73 161.934 1011.73 160.884V160.684C1011.73 159.65 1011.41 158.85 1010.76 158.284C1010.12 157.717 1009.16 157.434 1007.88 157.434H1005.81V155.634H1007.73ZM1023.47 165.984C1022.4 165.984 1021.49 165.784 1020.72 165.384C1019.95 164.967 1019.32 164.375 1018.82 163.609C1018.32 162.842 1017.95 161.9 1017.72 160.784C1017.49 159.667 1017.37 158.392 1017.37 156.959C1017.37 155.542 1017.49 154.275 1017.72 153.159C1017.95 152.025 1018.32 151.075 1018.82 150.309C1019.32 149.542 1019.95 148.959 1020.72 148.559C1021.49 148.142 1022.4 147.934 1023.47 147.934C1024.54 147.934 1025.45 148.142 1026.22 148.559C1026.99 148.959 1027.62 149.542 1028.12 150.309C1028.62 151.075 1028.99 152.025 1029.22 153.159C1029.45 154.275 1029.57 155.542 1029.57 156.959C1029.57 158.392 1029.45 159.667 1029.22 160.784C1028.99 161.9 1028.62 162.842 1028.12 163.609C1027.62 164.375 1026.99 164.967 1026.22 165.384C1025.45 165.784 1024.54 165.984 1023.47 165.984ZM1023.47 164.159C1024.17 164.159 1024.77 164.025 1025.27 163.759C1025.77 163.475 1026.17 163.084 1026.47 162.584C1026.79 162.084 1027.02 161.484 1027.17 160.784C1027.32 160.067 1027.4 159.267 1027.4 158.384V155.534C1027.4 154.667 1027.32 153.875 1027.17 153.159C1027.02 152.442 1026.79 151.834 1026.47 151.334C1026.17 150.834 1025.77 150.45 1025.27 150.184C1024.77 149.9 1024.17 149.759 1023.47 149.759C1022.77 149.759 1022.17 149.9 1021.67 150.184C1021.17 150.45 1020.76 150.834 1020.45 151.334C1020.15 151.834 1019.92 152.442 1019.77 153.159C1019.62 153.875 1019.55 154.667 1019.55 155.534V158.384C1019.55 159.267 1019.62 160.067 1019.77 160.784C1019.92 161.484 1020.15 162.084 1020.45 162.584C1020.76 163.084 1021.17 163.475 1021.67 163.759C1022.17 164.025 1022.77 164.159 1023.47 164.159ZM1023.47 158.434C1022.89 158.434 1022.48 158.317 1022.25 158.084C1022.03 157.85 1021.92 157.567 1021.92 157.234V156.684C1021.92 156.35 1022.03 156.067 1022.25 155.834C1022.48 155.6 1022.89 155.484 1023.47 155.484C1024.05 155.484 1024.45 155.6 1024.67 155.834C1024.9 156.067 1025.02 156.35 1025.02 156.684V157.234C1025.02 157.567 1024.9 157.85 1024.67 158.084C1024.45 158.317 1024.05 158.434 1023.47 158.434ZM1057.98 165.684L1056.5 160.709H1050.38L1048.9 165.684H1046.73L1052.08 148.234H1054.85L1060.2 165.684H1057.98ZM1053.55 150.459H1053.33L1050.88 158.884H1056L1053.55 150.459ZM1072.32 156.934V151.409H1072.12L1068.44 160.384L1064.77 151.409H1064.57V156.934V165.684H1062.64V148.234H1065.34L1068.42 155.934H1068.57L1071.64 148.234H1074.24V165.684H1072.32V156.934Z" fill="white"/>
<path d="M1005.5 373.981C1004.89 373.981 1004.35 373.906 1003.89 373.756C1003.43 373.596 1003.05 373.381 1002.74 373.111C1002.44 372.841 1002.21 372.521 1002.05 372.151C1001.9 371.781 1001.82 371.381 1001.82 370.951C1001.82 370.231 1002.02 369.661 1002.41 369.241C1002.8 368.821 1003.31 368.526 1003.95 368.356V368.236C1003.39 368.046 1002.95 367.741 1002.62 367.321C1002.3 366.891 1002.14 366.376 1002.14 365.776C1002.14 364.976 1002.43 364.341 1003.02 363.871C1003.61 363.391 1004.44 363.151 1005.5 363.151C1006.56 363.151 1007.38 363.391 1007.97 363.871C1008.56 364.341 1008.86 364.976 1008.86 365.776C1008.86 366.376 1008.69 366.891 1008.36 367.321C1008.04 367.741 1007.6 368.046 1007.04 368.236V368.356C1007.68 368.526 1008.2 368.821 1008.59 369.241C1008.98 369.661 1009.17 370.231 1009.17 370.951C1009.17 371.381 1009.09 371.781 1008.93 372.151C1008.78 372.521 1008.55 372.841 1008.24 373.111C1007.93 373.381 1007.55 373.596 1007.09 373.756C1006.64 373.906 1006.11 373.981 1005.5 373.981ZM1005.5 372.916C1006.24 372.916 1006.82 372.751 1007.24 372.421C1007.66 372.091 1007.87 371.626 1007.87 371.026V370.696C1007.87 370.096 1007.66 369.631 1007.24 369.301C1006.83 368.971 1006.25 368.806 1005.5 368.806C1004.75 368.806 1004.16 368.971 1003.74 369.301C1003.33 369.631 1003.13 370.096 1003.13 370.696V371.026C1003.13 371.626 1003.34 372.091 1003.76 372.421C1004.18 372.751 1004.76 372.916 1005.5 372.916ZM1005.5 367.786C1006.18 367.786 1006.69 367.641 1007.04 367.351C1007.4 367.061 1007.58 366.646 1007.58 366.106V365.896C1007.58 365.356 1007.4 364.941 1007.03 364.651C1006.67 364.361 1006.16 364.216 1005.5 364.216C1004.84 364.216 1004.32 364.361 1003.95 364.651C1003.59 364.941 1003.41 365.356 1003.41 365.896V366.106C1003.41 366.646 1003.59 367.061 1003.94 367.351C1004.3 367.641 1004.82 367.786 1005.5 367.786ZM1017.51 364.426H1012.83L1012.53 368.431H1012.63C1012.89 368.081 1013.18 367.806 1013.5 367.606C1013.82 367.396 1014.26 367.291 1014.82 367.291C1015.28 367.291 1015.7 367.366 1016.08 367.516C1016.47 367.656 1016.81 367.866 1017.09 368.146C1017.37 368.426 1017.59 368.766 1017.75 369.166C1017.91 369.556 1017.99 370.006 1017.99 370.516C1017.99 371.026 1017.91 371.496 1017.75 371.926C1017.59 372.346 1017.35 372.711 1017.04 373.021C1016.73 373.321 1016.36 373.556 1015.92 373.726C1015.48 373.896 1014.98 373.981 1014.42 373.981C1013.98 373.981 1013.58 373.931 1013.23 373.831C1012.89 373.731 1012.59 373.596 1012.32 373.426C1012.06 373.256 1011.83 373.066 1011.63 372.856C1011.43 372.646 1011.25 372.426 1011.09 372.196L1012.03 371.476C1012.17 371.686 1012.31 371.876 1012.45 372.046C1012.6 372.216 1012.77 372.366 1012.96 372.496C1013.15 372.616 1013.37 372.711 1013.61 372.781C1013.85 372.851 1014.13 372.886 1014.45 372.886C1015.17 372.886 1015.72 372.691 1016.1 372.301C1016.49 371.911 1016.68 371.371 1016.68 370.681V370.561C1016.68 369.871 1016.49 369.331 1016.1 368.941C1015.71 368.551 1015.15 368.356 1014.42 368.356C1013.92 368.356 1013.53 368.441 1013.25 368.611C1012.98 368.781 1012.73 368.991 1012.5 369.241L1011.43 369.091L1011.81 363.331H1017.51V364.426Z" fill="white"/>
<path d="M952.048 556.771C952.778 556.771 953.323 556.611 953.683 556.291C954.053 555.961 954.238 555.541 954.238 555.031V554.926C954.238 554.366 954.058 553.946 953.698 553.666C953.348 553.386 952.888 553.246 952.318 553.246C951.758 553.246 951.303 553.371 950.953 553.621C950.613 553.861 950.333 554.181 950.113 554.581L949.168 553.861C949.298 553.651 949.458 553.446 949.648 553.246C949.838 553.036 950.058 552.851 950.308 552.691C950.568 552.531 950.863 552.401 951.193 552.301C951.533 552.201 951.918 552.151 952.348 552.151C952.798 552.151 953.218 552.211 953.608 552.331C953.998 552.441 954.338 552.611 954.628 552.841C954.918 553.061 955.143 553.336 955.303 553.666C955.473 553.996 955.558 554.371 955.558 554.791C955.558 555.131 955.503 555.436 955.393 555.706C955.293 555.976 955.148 556.211 954.958 556.411C954.778 556.611 954.563 556.781 954.313 556.921C954.063 557.061 953.798 557.166 953.518 557.236V557.296C953.808 557.356 954.088 557.456 954.358 557.596C954.628 557.726 954.868 557.901 955.078 558.121C955.288 558.331 955.453 558.591 955.573 558.901C955.703 559.201 955.768 559.546 955.768 559.936C955.768 560.386 955.678 560.801 955.498 561.181C955.328 561.551 955.083 561.871 954.763 562.141C954.453 562.401 954.073 562.606 953.623 562.756C953.183 562.906 952.693 562.981 952.153 562.981C951.693 562.981 951.283 562.931 950.923 562.831C950.573 562.731 950.258 562.596 949.978 562.426C949.708 562.256 949.468 562.066 949.258 561.856C949.058 561.646 948.878 561.426 948.718 561.196L949.663 560.476C949.803 560.686 949.948 560.876 950.098 561.046C950.248 561.216 950.418 561.366 950.608 561.496C950.808 561.616 951.033 561.711 951.283 561.781C951.533 561.851 951.823 561.886 952.153 561.886C952.893 561.886 953.458 561.716 953.848 561.376C954.248 561.036 954.448 560.551 954.448 559.921V559.801C954.448 559.181 954.253 558.701 953.863 558.361C953.483 558.021 952.908 557.851 952.138 557.851H950.893V556.771H952.048Z" fill="white"/>
<path d="M956.053 596.801H949.063V595.511L952.558 592.361C953.068 591.901 953.488 591.431 953.818 590.951C954.148 590.461 954.313 589.946 954.313 589.406V589.226C954.313 588.596 954.148 588.111 953.818 587.771C953.488 587.421 952.998 587.246 952.348 587.246C951.708 587.246 951.213 587.411 950.863 587.741C950.523 588.061 950.268 588.491 950.098 589.031L948.973 588.611C949.073 588.301 949.208 588.001 949.378 587.711C949.558 587.411 949.783 587.146 950.053 586.916C950.323 586.686 950.648 586.501 951.028 586.361C951.418 586.221 951.868 586.151 952.378 586.151C952.898 586.151 953.358 586.226 953.758 586.376C954.168 586.526 954.508 586.736 954.778 587.006C955.058 587.276 955.268 587.596 955.408 587.966C955.558 588.336 955.633 588.741 955.633 589.181C955.633 589.581 955.573 589.956 955.453 590.306C955.343 590.656 955.183 590.991 954.973 591.311C954.773 591.631 954.528 591.946 954.238 592.256C953.958 592.556 953.643 592.856 953.293 593.156L950.368 595.706H956.053V596.801Z" fill="white"/>
<path d="M949.273 631.801V630.706H952.273V622.261H952.168L949.528 624.721L948.793 623.926L951.568 621.331H953.533V630.706H956.293V631.801H949.273Z" fill="white"/>
<path d="M950.443 650.981H950.338V659.801H949.198V649.331H950.983L954.553 658.151H954.658V649.331H955.798V659.801H954.013L950.443 650.981Z" fill="white"/>
<rect x="585.998" y="22.4775" width="630" height="83.0696" rx="6" fill="#5F4CC8"/>
<ellipse cx="1126.15" cy="45.5924" rx="9.15585" ry="8.94792" fill="#220E91"/>
<ellipse cx="1157.11" cy="45.5924" rx="9.59185" ry="8.94792" fill="#220E91"/>
<ellipse cx="1187.19" cy="45.5924" rx="9.15585" ry="8.94792" fill="#220E91"/>
<rect x="603.471" y="69.8789" width="10.4638" height="25.5655" fill="#220E91"/>
<rect x="618.293" y="76.6963" width="10.4638" height="18.748" fill="#220E91"/>
<rect x="633.117" y="82.6621" width="10.4638" height="12.7827" fill="#220E91"/>
<path d="M557.5 473.985C458.608 513.155 303.002 454.44 345.001 297.585C381.897 159.787 254.499 71.3359 63.9406 97.2798L5.49987 105.542" stroke="#5F4CC8" stroke-width="15"/>
<ellipse cx="628.498" cy="153.365" rx="5" ry="4.88645" fill="white"/>
<path d="M621.498 161.229C621.498 160.124 622.393 159.229 623.498 159.229H633.498C634.603 159.229 635.498 160.124 635.498 161.229V176.82H621.498V161.229Z" fill="white"/>
<path d="M638.998 162.16V176.82H635.998V162.16H633.498V159.229C637.498 159.229 638.998 161.509 638.998 162.16Z" fill="white"/>
<path d="M617.998 162.16V176.82H620.998V162.16H623.498V159.229C619.498 159.229 617.998 161.509 617.998 162.16Z" fill="white"/>
<path d="M626.018 172.183V171.307H628.418V164.551H628.334L626.222 166.519L625.634 165.883L627.854 163.807H629.426V171.307H631.634V172.183H626.018Z" fill="#220E91"/>
<line x1="1074.61" y1="308.801" x2="1074.61" y2="294.801" stroke="white" stroke-width="0.774194"/>
<path d="M1074.5 289.801L1071.47 295.051H1077.53L1074.5 289.801Z" fill="white"/>
<path d="M1074.5 313.801L1071.47 309.301H1077.53L1074.5 313.801Z" fill="white"/>
<rect x="975.998" y="272.801" width="16" height="39" rx="6" fill="#5F4CC8"/>
<rect x="975.998" y="354.801" width="16" height="39" rx="6" fill="#5F4CC8"/>
<rect x="975.998" y="313.801" width="16" height="39" rx="6" fill="#5F4CC8"/>
<rect x="972.76" y="234.563" width="22.4758" height="197.476" rx="5.23788" stroke="white" stroke-width="1.52424"/>
<rect x="1028.76" y="522.563" width="44.4758" height="136.476" rx="5.23788" stroke="white" stroke-width="1.52424"/>
<rect x="971.76" y="522.563" width="44.4758" height="136.476" rx="5.23788" stroke="white" stroke-width="1.52424"/>
<rect x="1028.76" y="480.563" width="44.4758" height="31.4758" rx="5.23788" stroke="white" stroke-width="1.52424"/>
<rect x="971.76" y="480.563" width="44.4758" height="31.4758" rx="5.23788" stroke="white" stroke-width="1.52424"/>
<path d="M971.998 367.801H994.998" stroke="white" stroke-width="2"/>
<path d="M971.998 556.801H1017" stroke="white" stroke-width="2"/>
<path d="M1029 556.801H1074" stroke="white" stroke-width="2"/>
<path d="M971.998 590.801H1017" stroke="white" stroke-width="2"/>
<path d="M1029 590.801H1074" stroke="white" stroke-width="2"/>
<path d="M971.998 625.801H1017" stroke="white" stroke-width="2"/>
<path d="M1029 625.801H1074" stroke="white" stroke-width="2"/>
<path d="M972.998 300.801H994.998" stroke="white" stroke-width="2"/>
<path d="M1036 287.801H1084" stroke="white" stroke-width="2"/>
<path d="M1036 316.801H1084" stroke="white" stroke-width="2"/>
<path d="M1053.04 295.309C1047.22 287.312 1031.41 293.061 1053.04 311.801C1074.67 293.061 1058.55 287.5 1053.04 295.309Z" stroke="white" stroke-width="2"/>
<rect x="547.998" y="575.801" width="30" height="129" fill="white"/>
<path d="M555 535.915C506.5 541.942 389.6 520.474 422 368.8C449 271.885 427.3 124.283 124.5 309.185L4 381.016" stroke="#5F4CC8" stroke-width="15"/>
<rect x="547.998" y="514.801" width="30" height="43" fill="white"/>
<rect x="547.998" y="454.801" width="30" height="43" fill="white"/>
</svg>
