<?xml version="1.0" encoding="UTF-8"?>
<svg xmlns="http://www.w3.org/2000/svg" xmlns:xlink="http://www.w3.org/1999/xlink" width="800px" height="646px" viewBox="0 0 799 646" version="1.1">
<g id="surface1">
<path style=" stroke:none;fill-rule:nonzero;fill:rgb(13.333334%,5.490196%,56.862748%);fill-opacity:1;" d="M 29.582031 185.054688 C 25.546875 185.292969 22.320312 184.152344 19.898438 181.632812 C 17.472656 179.074219 16.054688 175.125 15.640625 169.789062 C 15.226562 164.453125 16.003906 160.394531 17.972656 157.617188 C 19.941406 154.800781 22.902344 153.277344 26.859375 153.042969 C 28.878906 152.925781 30.6875 153.195312 32.289062 153.855469 C 33.925781 154.472656 35.3125 155.425781 36.445312 156.710938 C 37.578125 157.992188 38.476562 159.566406 39.136719 161.4375 C 39.839844 163.300781 40.28125 165.421875 40.464844 167.792969 L 40.496094 168.207031 L 16.996094 169.589844 L 17.113281 171.132812 C 17.441406 175.324219 18.664062 178.566406 20.792969 180.863281 C 22.914062 183.125 25.816406 184.144531 29.496094 183.929688 C 32.066406 183.777344 34.195312 183.054688 35.886719 181.765625 C 37.609375 180.429688 38.832031 178.492188 39.546875 175.949219 L 40.648438 176.300781 C 39.929688 178.84375 38.640625 180.90625 36.777344 182.484375 C 34.949219 184.023438 32.550781 184.878906 29.582031 185.054688 Z M 26.949219 154.171875 C 23.347656 154.382812 20.691406 155.75 18.980469 158.273438 C 17.265625 160.757812 16.570312 164.09375 16.894531 168.285156 L 16.914062 168.523438 L 39.109375 167.214844 L 39.089844 166.980469 C 38.765625 162.789062 37.5625 159.5625 35.476562 157.300781 C 33.390625 155 30.546875 153.957031 26.949219 154.171875 Z M 52.234375 183.007812 L 62.792969 166.953125 L 50.039062 152.394531 L 51.582031 152.304688 L 63.421875 165.84375 L 63.539062 165.835938 L 73.242188 151.027344 L 74.726562 150.941406 L 64.332031 166.804688 L 77.277344 181.53125 L 75.734375 181.625 L 63.695312 167.855469 L 63.578125 167.859375 L 53.71875 182.917969 Z M 98.324219 180.292969 C 97.175781 180.359375 96.558594 179.824219 96.46875 178.675781 L 94.316406 150.921875 L 82.386719 151.621094 L 82.300781 150.496094 L 92.507812 149.894531 C 93.652344 149.828125 94.183594 149.21875 94.09375 148.074219 L 93.390625 139 L 94.636719 138.925781 L 95.472656 149.71875 L 111.140625 148.796875 L 111.230469 149.925781 L 95.5625 150.847656 L 97.761719 179.195312 L 113.429688 178.273438 L 113.515625 179.398438 Z M 122.78125 177.722656 L 133.347656 177.101562 L 131.148438 148.753906 L 120.582031 149.375 L 120.496094 148.25 L 132.304688 147.550781 L 132.765625 153.484375 L 132.941406 153.472656 C 133.234375 152.621094 133.589844 151.824219 134.011719 151.085938 C 134.46875 150.34375 135.054688 149.695312 135.765625 149.136719 C 136.476562 148.539062 137.332031 148.050781 138.335938 147.675781 C 139.339844 147.296875 140.535156 147.066406 141.921875 146.988281 L 148.746094 146.585938 L 148.832031 147.710938 L 141.769531 148.128906 C 140.542969 148.199219 139.371094 148.46875 138.253906 148.929688 C 137.175781 149.390625 136.234375 150.0625 135.429688 150.941406 C 134.621094 151.785156 134.007812 152.835938 133.585938 154.089844 C 133.167969 155.347656 133.023438 156.824219 133.15625 158.523438 L 134.59375 177.027344 L 148.003906 176.238281 L 148.09375 177.363281 L 122.871094 178.847656 Z M 180.648438 175.449219 C 179.503906 175.515625 178.882812 174.976562 178.796875 173.828125 L 178.574219 170.984375 L 178.398438 170.992188 C 177.753906 172.460938 176.664062 173.777344 175.125 174.941406 C 173.625 176.0625 171.425781 176.707031 168.539062 176.875 C 165.253906 177.070312 162.6875 176.503906 160.835938 175.183594 C 158.980469 173.824219 157.949219 171.78125 157.738281 169.050781 C 157.640625 167.828125 157.730469 166.667969 158.003906 165.582031 C 158.316406 164.492188 158.878906 163.542969 159.691406 162.742188 C 160.542969 161.9375 161.703125 161.273438 163.175781 160.75 C 164.644531 160.226562 166.507812 159.898438 168.761719 159.765625 L 177.664062 159.242188 L 177.292969 154.4375 C 177.050781 151.351562 176.085938 149.125 174.386719 147.757812 C 172.6875 146.347656 170.453125 145.726562 167.683594 145.886719 C 165.507812 146.015625 163.605469 146.605469 161.980469 147.652344 C 160.347656 148.660156 159.179688 150.21875 158.46875 152.328125 L 157.414062 151.792969 C 158.128906 149.765625 159.3125 148.128906 160.964844 146.878906 C 162.65625 145.628906 164.867188 144.921875 167.597656 144.761719 C 170.804688 144.570312 173.363281 145.296875 175.277344 146.929688 C 177.195312 148.566406 178.273438 150.984375 178.523438 154.1875 L 180.085938 174.351562 L 185.132812 174.054688 L 185.21875 175.179688 Z M 168.453125 175.75 C 169.835938 175.667969 171.148438 175.414062 172.386719 174.980469 C 173.625 174.550781 174.691406 173.972656 175.589844 173.246094 C 176.484375 172.476562 177.167969 171.5625 177.644531 170.503906 C 178.152344 169.398438 178.355469 168.15625 178.25 166.773438 L 177.746094 160.308594 L 168.902344 160.828125 C 165.144531 161.050781 162.523438 161.820312 161.035156 163.140625 C 159.546875 164.457031 158.878906 166.085938 159.027344 168.023438 L 159.175781 169.921875 C 159.335938 171.976562 160.269531 173.511719 161.976562 174.523438 C 163.683594 175.496094 165.839844 175.902344 168.453125 175.75 Z M 194.605469 173.496094 L 206.414062 172.800781 L 203.183594 131.167969 L 191.375 131.863281 L 191.285156 130.734375 L 204.34375 129.96875 L 207.660156 172.726562 L 219.46875 172.03125 L 219.558594 173.160156 L 194.691406 174.621094 Z M 241.398438 130.707031 C 240.769531 130.746094 240.304688 130.652344 240.007812 130.429688 C 239.75 130.167969 239.605469 129.839844 239.574219 129.445312 L 239.535156 128.96875 C 239.507812 128.574219 239.601562 128.25 239.820312 128 C 240.074219 127.707031 240.519531 127.542969 241.152344 127.503906 C 241.785156 127.464844 242.230469 127.578125 242.488281 127.84375 C 242.785156 128.0625 242.949219 128.371094 242.980469 128.765625 L 243.015625 129.242188 C 243.046875 129.636719 242.933594 129.980469 242.679688 130.273438 C 242.460938 130.523438 242.03125 130.667969 241.398438 130.707031 Z M 231.734375 171.3125 L 243.898438 170.59375 L 241.699219 142.246094 L 229.53125 142.960938 L 229.445312 141.835938 L 242.859375 141.046875 L 245.144531 170.519531 L 256.539062 169.851562 L 256.628906 170.976562 L 231.820312 172.4375 Z M 292.976562 172.589844 C 293.210938 175.636719 292.160156 177.941406 289.816406 179.507812 C 287.476562 181.078125 284.027344 181.996094 279.480469 182.261719 C 275.007812 182.527344 271.707031 182.003906 269.578125 180.703125 C 267.492188 179.394531 266.355469 177.574219 266.175781 175.242188 C 266.035156 173.421875 266.433594 171.890625 267.367188 170.644531 C 268.34375 169.394531 269.761719 168.417969 271.613281 167.710938 L 271.597656 167.535156 C 270.464844 167.285156 269.617188 166.835938 269.050781 166.195312 C 268.519531 165.511719 268.21875 164.695312 268.144531 163.746094 C 268.039062 162.363281 268.464844 161.226562 269.429688 160.335938 C 270.390625 159.402344 271.511719 158.703125 272.785156 158.230469 L 272.769531 158.050781 C 271.011719 157.402344 269.597656 156.332031 268.527344 154.847656 C 267.457031 153.363281 266.835938 151.472656 266.65625 149.179688 C 266.417969 146.09375 267.136719 143.570312 268.8125 141.605469 C 270.488281 139.640625 272.929688 138.5625 276.132812 138.375 C 278.742188 138.21875 280.992188 138.761719 282.875 140.003906 L 282.691406 137.628906 C 282.609375 136.5625 283.140625 135.996094 284.289062 135.925781 L 290.878906 135.539062 L 290.964844 136.667969 L 283.78125 137.089844 L 284.082031 140.945312 C 284.941406 141.765625 285.636719 142.777344 286.164062 143.976562 C 286.734375 145.136719 287.074219 146.46875 287.191406 147.96875 C 287.3125 149.511719 287.160156 150.929688 286.746094 152.226562 C 286.371094 153.519531 285.761719 154.648438 284.921875 155.609375 C 284.082031 156.53125 283.042969 157.269531 281.816406 157.816406 C 280.625 158.363281 279.257812 158.683594 277.714844 158.773438 C 277.121094 158.808594 276.566406 158.804688 276.046875 158.753906 C 275.523438 158.707031 274.964844 158.640625 274.359375 158.554688 C 270.832031 159.714844 269.15625 161.402344 269.328125 163.617188 C 269.363281 164.050781 269.453125 164.464844 269.601562 164.851562 C 269.789062 165.238281 270.09375 165.578125 270.515625 165.871094 C 270.933594 166.125 271.484375 166.332031 272.171875 166.488281 C 272.859375 166.648438 273.71875 166.695312 274.746094 166.632812 L 282.761719 166.164062 C 286.203125 165.960938 288.722656 166.449219 290.324219 167.625 C 291.925781 168.800781 292.8125 170.457031 292.976562 172.589844 Z M 291.675781 172.726562 C 291.53125 170.871094 290.785156 169.464844 289.441406 168.511719 C 288.132812 167.554688 285.878906 167.171875 282.671875 167.359375 L 273.476562 167.902344 C 271.613281 168.488281 270.132812 169.367188 269.03125 170.546875 C 267.929688 171.722656 267.453125 173.28125 267.605469 175.21875 C 267.765625 177.3125 268.761719 178.882812 270.59375 179.925781 C 272.460938 180.96875 274.898438 181.402344 277.90625 181.222656 L 280.816406 181.050781 C 282.515625 180.953125 284.046875 180.703125 285.40625 180.304688 C 286.808594 179.945312 287.980469 179.417969 288.921875 178.730469 C 289.902344 178.035156 290.628906 177.179688 291.105469 176.15625 C 291.585938 175.175781 291.777344 174.035156 291.675781 172.726562 Z M 277.628906 157.648438 C 280.476562 157.480469 282.59375 156.601562 283.980469 155.011719 C 285.40625 153.375 286.027344 151.433594 285.855469 149.179688 L 285.679688 146.925781 C 285.503906 144.671875 284.585938 142.839844 282.929688 141.429688 C 281.304688 139.976562 279.070312 139.332031 276.21875 139.5 C 273.371094 139.667969 271.234375 140.566406 269.8125 142.199219 C 268.425781 143.792969 267.820312 145.714844 267.996094 147.96875 L 268.167969 150.222656 C 268.34375 152.476562 269.261719 154.328125 270.925781 155.777344 C 272.625 157.1875 274.859375 157.8125 277.628906 157.648438 Z M 300.179688 124.328125 L 301.425781 124.253906 L 302.796875 141.925781 L 302.972656 141.917969 C 303.386719 140.582031 304.304688 139.355469 305.730469 138.242188 C 307.1875 137.082031 309.265625 136.421875 311.953125 136.265625 C 315.359375 136.066406 318.003906 136.882812 319.894531 138.71875 C 321.785156 140.550781 322.875 143.328125 323.164062 147.042969 L 324.710938 166.972656 L 323.464844 167.042969 L 321.933594 147.296875 C 321.648438 143.617188 320.628906 141.015625 318.882812 139.492188 C 317.171875 137.925781 314.832031 137.226562 311.863281 137.402344 C 310.636719 137.472656 309.464844 137.722656 308.34375 138.144531 C 307.261719 138.527344 306.3125 139.078125 305.492188 139.804688 C 304.675781 140.527344 304.046875 141.417969 303.613281 142.476562 C 303.179688 143.535156 303.011719 144.734375 303.117188 146.078125 L 304.828125 168.140625 L 303.582031 168.214844 Z M 347.417969 165.636719 C 346.269531 165.703125 345.652344 165.164062 345.5625 164.015625 L 343.410156 136.261719 L 331.480469 136.960938 L 331.394531 135.835938 L 341.601562 135.234375 C 342.75 135.167969 343.277344 134.5625 343.1875 133.414062 L 342.484375 124.339844 L 343.730469 124.265625 L 344.570312 135.058594 L 360.234375 134.136719 L 360.324219 135.265625 L 344.65625 136.1875 L 346.855469 164.535156 L 362.523438 163.613281 L 362.609375 164.742188 Z M 347.417969 165.636719 "/>
<path style=" stroke:none;fill-rule:nonzero;fill:rgb(13.333334%,5.490196%,56.862748%);fill-opacity:1;" d="M 617.015625 259.660156 L 628.035156 261.523438 L 636.132812 224.203125 L 625.113281 222.339844 L 625.730469 219.492188 L 640.09375 221.917969 L 631.375 262.085938 L 642.335938 263.941406 L 641.71875 266.789062 L 616.394531 262.507812 Z M 674.332031 232.890625 C 673.277344 232.710938 672.5625 232.371094 672.183594 231.863281 C 671.855469 231.328125 671.761719 230.726562 671.90625 230.070312 L 672.070312 229.3125 C 672.210938 228.65625 672.546875 228.148438 673.066406 227.796875 C 673.636719 227.410156 674.449219 227.304688 675.503906 227.484375 C 676.558594 227.660156 677.253906 228.019531 677.582031 228.558594 C 677.957031 229.0625 678.074219 229.644531 677.929688 230.304688 L 677.765625 231.0625 C 677.625 231.71875 677.269531 232.242188 676.699219 232.628906 C 676.175781 232.980469 675.386719 233.070312 674.332031 232.890625 Z M 653.6875 265.859375 L 665.058594 267.78125 L 670.332031 243.484375 L 658.960938 241.558594 L 659.578125 238.710938 L 674.289062 241.199219 L 668.398438 268.347656 L 679.007812 270.140625 L 678.394531 272.988281 L 653.066406 268.707031 Z M 713.472656 282.597656 C 712.820312 285.617188 711.089844 287.617188 708.285156 288.589844 C 705.472656 289.597656 701.644531 289.695312 696.796875 288.875 C 692.109375 288.082031 688.871094 286.851562 687.085938 285.183594 C 685.300781 283.515625 684.664062 281.5 685.175781 279.136719 C 685.546875 277.433594 686.308594 276.15625 687.46875 275.304688 C 688.617188 274.496094 690.082031 273.980469 691.875 273.761719 L 691.972656 273.296875 C 690.21875 272.234375 689.554688 270.71875 689.984375 268.742188 C 690.304688 267.269531 691.054688 266.230469 692.242188 265.628906 C 693.433594 264.984375 694.816406 264.597656 696.382812 264.460938 L 696.433594 264.226562 C 694.804688 263.148438 693.648438 261.746094 692.972656 260.027344 C 692.328125 258.3125 692.246094 256.367188 692.714844 254.199219 C 693.042969 252.6875 693.597656 251.351562 694.375 250.199219 C 695.199219 249.011719 696.175781 248.054688 697.308594 247.320312 C 698.488281 246.554688 699.808594 246.054688 701.277344 245.824219 C 702.757812 245.550781 704.332031 245.554688 706.015625 245.839844 C 708.4375 246.25 710.398438 247.101562 711.902344 248.402344 L 712.164062 247.179688 C 712.367188 246.25 712.742188 245.550781 713.289062 245.082031 C 713.882812 244.578125 714.691406 244.414062 715.707031 244.585938 L 721.625 245.585938 L 720.996094 248.492188 L 714.078125 247.324219 L 713.484375 250.054688 C 714.269531 251.113281 714.78125 252.304688 715.019531 253.628906 C 715.296875 254.960938 715.269531 256.402344 714.933594 257.953125 C 714.605469 259.464844 714.03125 260.792969 713.214844 261.941406 C 712.4375 263.09375 711.460938 264.054688 710.28125 264.820312 C 709.109375 265.546875 707.789062 266.046875 706.3125 266.320312 C 704.839844 266.554688 703.265625 266.527344 701.585938 266.242188 C 701.039062 266.152344 700.535156 266.046875 700.078125 265.925781 C 699.613281 265.808594 699.125 265.644531 698.601562 265.4375 C 697.285156 265.535156 696.089844 265.816406 695.015625 266.277344 C 693.945312 266.738281 693.292969 267.492188 693.066406 268.539062 C 692.6875 270.28125 694.140625 271.433594 697.421875 271.988281 L 704.632812 273.207031 C 708.308594 273.828125 710.8125 274.976562 712.152344 276.648438 C 713.539062 278.289062 713.980469 280.269531 713.472656 282.597656 Z M 710.285156 282.175781 C 710.59375 280.742188 710.296875 279.507812 709.386719 278.46875 C 708.507812 277.476562 706.703125 276.75 703.964844 276.285156 L 694.058594 274.613281 C 692.597656 274.808594 691.390625 275.246094 690.429688 275.925781 C 689.503906 276.65625 688.890625 277.695312 688.597656 279.054688 C 688.253906 280.640625 688.617188 282.046875 689.6875 283.273438 C 690.789062 284.546875 692.667969 285.40625 695.328125 285.855469 L 699.253906 286.519531 C 702.261719 287.027344 704.738281 286.925781 706.675781 286.207031 C 708.644531 285.535156 709.847656 284.191406 710.285156 282.175781 Z M 702.15625 263.628906 C 704.695312 264.058594 706.726562 263.757812 708.246094 262.726562 C 709.804688 261.707031 710.792969 260.226562 711.214844 258.289062 L 711.628906 256.371094 C 712.058594 254.394531 711.757812 252.695312 710.730469 251.277344 C 709.75 249.824219 707.988281 248.886719 705.445312 248.457031 C 702.945312 248.03125 700.914062 248.332031 699.359375 249.355469 C 697.847656 250.34375 696.875 251.828125 696.449219 253.804688 L 696.03125 255.722656 C 695.609375 257.660156 695.910156 259.359375 696.929688 260.816406 C 697.953125 262.273438 699.691406 263.210938 702.15625 263.628906 Z M 732.640625 237.566406 L 735.984375 238.128906 L 732.148438 255.800781 L 732.382812 255.84375 C 733.273438 254.546875 734.519531 253.472656 736.121094 252.617188 C 737.761719 251.769531 739.855469 251.558594 742.394531 251.988281 C 745.675781 252.546875 748 253.960938 749.371094 256.242188 C 750.789062 258.492188 751.101562 261.4375 750.308594 265.082031 L 746.109375 284.4375 L 742.769531 283.871094 L 746.84375 265.09375 C 747.515625 261.996094 747.324219 259.613281 746.265625 257.949219 C 745.25 256.289062 743.449219 255.242188 740.871094 254.804688 C 739.816406 254.628906 738.769531 254.59375 737.734375 254.699219 C 736.699219 254.804688 735.730469 255.0625 734.832031 255.472656 C 733.972656 255.890625 733.214844 256.484375 732.558594 257.257812 C 731.914062 257.992188 731.46875 258.921875 731.226562 260.046875 L 726.648438 281.148438 L 723.304688 280.582031 Z M 769.769531 288.4375 C 768.125 288.160156 767.007812 287.527344 766.410156 286.542969 C 765.863281 285.527344 765.746094 284.28125 766.066406 282.808594 L 770.910156 260.488281 L 760.183594 258.671875 L 760.800781 255.824219 L 769.300781 257.261719 C 770.160156 257.40625 770.804688 257.335938 771.230469 257.046875 C 771.660156 256.757812 771.964844 256.1875 772.148438 255.332031 L 773.941406 247.078125 L 777.164062 247.625 L 774.871094 258.203125 L 789.289062 260.640625 L 788.671875 263.488281 L 774.253906 261.050781 L 768.980469 285.351562 L 783.398438 287.789062 L 782.78125 290.636719 Z M 769.769531 288.4375 "/>
<path style=" stroke:none;fill-rule:nonzero;fill:rgb(13.333334%,5.490196%,56.862748%);fill-opacity:1;" d="M 433.472656 161.441406 L 442.4375 161.925781 L 444.046875 139.378906 L 435.082031 138.894531 L 435.371094 134.859375 L 449.082031 135.601562 L 448.53125 143.316406 L 448.828125 143.332031 C 449.636719 140.953125 450.957031 139.136719 452.792969 137.886719 C 454.671875 136.601562 456.976562 136.03125 459.710938 136.175781 L 463.984375 136.410156 L 463.644531 141.15625 L 457.886719 140.84375 C 455.15625 140.695312 452.882812 141.367188 451.066406 142.859375 C 449.292969 144.347656 448.3125 146.382812 448.128906 148.953125 L 447.183594 162.183594 L 459.058594 162.828125 L 458.769531 166.859375 L 433.183594 165.476562 Z M 482.5 168.863281 C 480.285156 168.742188 478.3125 168.257812 476.585938 167.410156 C 474.894531 166.5625 473.46875 165.414062 472.300781 163.960938 C 471.175781 162.472656 470.347656 160.738281 469.8125 158.765625 C 469.28125 156.75 469.101562 154.535156 469.273438 152.121094 C 469.449219 149.667969 469.945312 147.472656 470.757812 145.53125 C 471.609375 143.59375 472.703125 141.964844 474.027344 140.644531 C 475.355469 139.289062 476.898438 138.28125 478.652344 137.621094 C 480.449219 136.964844 482.394531 136.691406 484.492188 136.804688 C 486.550781 136.917969 488.382812 137.394531 489.992188 138.234375 C 491.636719 139.078125 493.007812 140.207031 494.097656 141.613281 C 495.191406 142.984375 495.992188 144.597656 496.496094 146.449219 C 497 148.304688 497.171875 150.316406 497.015625 152.492188 L 496.855469 154.75 L 474.179688 153.519531 L 474.078125 154.945312 C 473.980469 156.289062 474.109375 157.546875 474.464844 158.71875 C 474.816406 159.886719 475.359375 160.910156 476.09375 161.785156 C 476.863281 162.660156 477.808594 163.367188 478.921875 163.902344 C 480.078125 164.402344 481.367188 164.691406 482.792969 164.769531 C 484.847656 164.878906 486.664062 164.5 488.238281 163.632812 C 489.808594 162.765625 491.046875 161.523438 491.960938 159.902344 L 495.292969 162.46875 C 494.234375 164.472656 492.589844 166.09375 490.355469 167.320312 C 488.164062 168.511719 485.546875 169.027344 482.5 168.863281 Z M 484.210938 140.722656 C 482.90625 140.652344 481.683594 140.824219 480.539062 141.238281 C 479.398438 141.652344 478.382812 142.253906 477.492188 143.039062 C 476.640625 143.824219 475.9375 144.78125 475.378906 145.902344 C 474.863281 146.984375 474.558594 148.199219 474.464844 149.542969 L 474.433594 149.960938 L 492.003906 150.910156 L 492.050781 150.261719 C 492.148438 148.914062 492.015625 147.675781 491.660156 146.546875 C 491.34375 145.417969 490.839844 144.4375 490.144531 143.605469 C 489.492188 142.734375 488.644531 142.054688 487.609375 141.5625 C 486.609375 141.070312 485.476562 140.789062 484.210938 140.722656 Z M 532.851562 174.390625 C 532.632812 177.476562 531.183594 179.679688 528.507812 181.003906 C 525.828125 182.367188 521.914062 182.910156 516.769531 182.632812 C 511.824219 182.363281 508.308594 181.519531 506.226562 180.09375 C 504.183594 178.671875 503.246094 176.734375 503.421875 174.28125 C 503.542969 172.621094 504.070312 171.359375 505.003906 170.496094 C 505.9375 169.636719 507.214844 169.03125 508.828125 168.679688 L 508.878906 167.96875 C 508.039062 167.484375 507.40625 166.894531 506.980469 166.195312 C 506.554688 165.5 506.375 164.636719 506.449219 163.605469 C 506.5625 162.023438 507.160156 160.867188 508.246094 160.128906 C 509.371094 159.398438 510.742188 158.875 512.351562 158.566406 L 512.371094 158.328125 C 510.527344 157.394531 509.132812 156.089844 508.179688 154.410156 C 507.265625 152.730469 506.886719 150.804688 507.042969 148.628906 C 507.152344 147.085938 507.53125 145.679688 508.179688 144.402344 C 508.828125 143.128906 509.695312 142.0625 510.789062 141.207031 C 511.925781 140.316406 513.246094 139.652344 514.746094 139.21875 C 516.246094 138.785156 517.890625 138.613281 519.667969 138.710938 C 521.964844 138.835938 523.953125 139.359375 525.636719 140.285156 L 525.675781 139.75 C 525.757812 138.566406 526.105469 137.589844 526.71875 136.832031 C 527.328125 136.070312 528.304688 135.726562 529.652344 135.796875 L 535.289062 136.105469 L 534.992188 140.257812 L 528.109375 139.882812 L 527.960938 141.960938 C 529 142.96875 529.769531 144.140625 530.269531 145.480469 C 530.769531 146.816406 530.960938 148.296875 530.847656 149.917969 C 530.738281 151.460938 530.339844 152.871094 529.652344 154.144531 C 529.003906 155.417969 528.132812 156.503906 527.035156 157.398438 C 525.941406 158.25 524.625 158.894531 523.082031 159.328125 C 521.582031 159.761719 519.941406 159.929688 518.160156 159.835938 C 517.644531 159.804688 517.152344 159.757812 516.679688 159.695312 C 516.207031 159.628906 515.738281 159.542969 515.269531 159.441406 C 514.789062 159.492188 514.285156 159.605469 513.753906 159.773438 C 513.230469 159.90625 512.738281 160.117188 512.28125 160.410156 C 511.824219 160.664062 511.445312 160.980469 511.140625 161.359375 C 510.835938 161.742188 510.664062 162.1875 510.625 162.703125 C 510.5625 163.613281 510.972656 164.25 511.859375 164.617188 C 512.75 164.941406 513.929688 165.144531 515.390625 165.222656 L 522.160156 165.589844 C 526.117188 165.804688 528.933594 166.710938 530.605469 168.3125 C 532.28125 169.871094 533.03125 171.898438 532.851562 174.390625 Z M 528.386719 174.386719 C 528.472656 173.160156 528.046875 172.144531 527.113281 171.339844 C 526.171875 170.574219 524.476562 170.121094 522.023438 169.992188 L 511.398438 169.414062 C 509.28125 170.132812 508.152344 171.460938 508.015625 173.402344 C 507.917969 174.746094 508.371094 175.921875 509.371094 176.929688 C 510.371094 177.976562 512.113281 178.566406 514.609375 178.703125 L 519.238281 178.953125 C 522.007812 179.101562 524.199219 178.785156 525.800781 177.996094 C 527.40625 177.25 528.265625 176.046875 528.386719 174.386719 Z M 518.421875 156.15625 C 520.796875 156.285156 522.578125 155.824219 523.765625 154.777344 C 524.992188 153.730469 525.671875 152.300781 525.800781 150.480469 L 525.925781 148.757812 C 526.054688 146.9375 525.582031 145.464844 524.511719 144.335938 C 523.484375 143.167969 521.78125 142.519531 519.40625 142.390625 C 517.03125 142.261719 515.25 142.722656 514.066406 143.769531 C 512.878906 144.777344 512.222656 146.191406 512.09375 148.011719 L 511.96875 149.730469 C 511.839844 151.550781 512.289062 153.042969 513.316406 154.210938 C 514.347656 155.378906 516.050781 156.027344 518.421875 156.15625 Z M 560.804688 167.386719 L 560.566406 167.375 C 560.195312 168.109375 559.746094 168.816406 559.222656 169.503906 C 558.699219 170.152344 558.0625 170.710938 557.3125 171.1875 C 556.601562 171.664062 555.761719 172.035156 554.789062 172.300781 C 553.816406 172.566406 552.699219 172.664062 551.433594 172.597656 C 548.226562 172.421875 545.726562 171.273438 543.929688 169.152344 C 542.140625 166.992188 541.375 164.050781 541.640625 160.332031 L 543.042969 140.691406 L 547.792969 140.949219 L 546.449219 159.757812 C 546.25 162.566406 546.710938 164.695312 547.839844 166.148438 C 548.972656 167.558594 550.722656 168.328125 553.097656 168.457031 C 554.046875 168.507812 554.988281 168.441406 555.914062 168.253906 C 556.839844 168.066406 557.679688 167.753906 558.421875 167.316406 C 559.171875 166.882812 559.785156 166.316406 560.273438 165.628906 C 560.761719 164.902344 561.042969 164.023438 561.117188 162.996094 L 562.632812 141.753906 L 567.382812 142.011719 L 565.195312 172.628906 L 560.445312 172.371094 Z M 576.027344 169.164062 L 586.710938 169.742188 L 589.273438 133.90625 L 578.585938 133.328125 L 578.875 129.292969 L 594.308594 130.128906 L 591.460938 170 L 602.144531 170.578125 L 601.859375 174.613281 L 575.738281 173.199219 Z M 635.96875 176.460938 C 634.109375 176.363281 632.816406 175.8125 632.09375 174.820312 C 631.371094 173.828125 630.960938 172.617188 630.863281 171.183594 L 630.566406 171.167969 C 629.765625 172.910156 628.578125 174.253906 627 175.203125 C 625.464844 176.113281 623.453125 176.5 620.957031 176.363281 C 617.753906 176.191406 615.257812 175.21875 613.480469 173.457031 C 611.699219 171.691406 610.910156 169.367188 611.117188 166.480469 C 611.320312 163.628906 612.507812 161.492188 614.671875 160.058594 C 616.882812 158.628906 620.300781 158.042969 624.929688 158.292969 L 631.460938 158.648438 L 631.675781 155.621094 C 631.835938 153.367188 631.324219 151.652344 630.136719 150.472656 C 628.953125 149.257812 627.195312 148.585938 624.859375 148.460938 C 622.800781 148.347656 621.089844 148.675781 619.722656 149.433594 C 618.359375 150.152344 617.234375 151.183594 616.34375 152.527344 L 613.308594 149.980469 C 613.761719 149.210938 614.351562 148.46875 615.078125 147.753906 C 615.804688 147.035156 616.679688 146.429688 617.710938 145.929688 C 618.742188 145.390625 619.902344 144.996094 621.191406 144.746094 C 622.484375 144.460938 623.898438 144.359375 625.445312 144.441406 C 629.042969 144.636719 631.828125 145.703125 633.796875 147.636719 C 635.804688 149.570312 636.691406 152.160156 636.460938 155.402344 L 635.257812 172.253906 L 639.53125 172.484375 L 639.234375 176.640625 Z M 622.074219 172.433594 C 623.300781 172.5 624.417969 172.421875 625.429688 172.199219 C 626.480469 171.9375 627.398438 171.589844 628.183594 171.15625 C 628.972656 170.683594 629.589844 170.121094 630.03125 169.46875 C 630.519531 168.78125 630.789062 168.039062 630.847656 167.25 L 631.207031 162.207031 L 624.675781 161.851562 C 621.828125 161.699219 619.722656 161.980469 618.359375 162.703125 C 616.996094 163.421875 616.261719 164.535156 616.152344 166.039062 L 616.066406 167.28125 C 615.953125 168.867188 616.421875 170.101562 617.46875 170.992188 C 618.558594 171.84375 620.09375 172.324219 622.074219 172.433594 Z M 647.039062 173.011719 L 656 173.496094 L 657.613281 150.949219 L 648.648438 150.464844 L 648.9375 146.429688 L 662.648438 147.171875 L 662.097656 154.886719 L 662.394531 154.902344 C 663.199219 152.523438 664.523438 150.710938 666.359375 149.460938 C 668.238281 148.171875 670.542969 147.601562 673.273438 147.75 L 677.546875 147.980469 L 677.210938 152.726562 L 671.453125 152.414062 C 668.722656 152.265625 666.449219 152.9375 664.632812 154.429688 C 662.859375 155.921875 661.878906 157.953125 661.695312 160.523438 L 660.75 173.753906 L 672.621094 174.398438 L 672.335938 178.429688 L 646.75 177.046875 Z M 647.039062 173.011719 "/>
<path style=" stroke:none;fill-rule:nonzero;fill:rgb(13.333334%,5.490196%,56.862748%);fill-opacity:1;" d="M 116.855469 395.1875 L 125.65625 393.40625 L 120.082031 371.5 L 111.285156 373.285156 L 110.285156 369.363281 L 123.746094 366.632812 L 125.652344 374.128906 L 125.945312 374.070312 C 125.96875 371.597656 126.667969 369.535156 128.046875 367.882812 C 129.449219 366.183594 131.496094 365.0625 134.175781 364.519531 L 138.371094 363.667969 L 139.542969 368.28125 L 133.890625 369.425781 C 131.210938 369.96875 129.230469 371.179688 127.953125 373.054688 C 126.710938 374.921875 126.410156 377.105469 127.046875 379.605469 L 130.316406 392.457031 L 141.96875 390.097656 L 142.964844 394.015625 L 117.855469 399.109375 Z M 166.484375 389.972656 C 164.308594 390.414062 162.253906 390.445312 160.320312 390.070312 C 158.425781 389.6875 156.683594 388.949219 155.101562 387.855469 C 153.542969 386.71875 152.195312 385.273438 151.054688 383.523438 C 149.90625 381.734375 149.035156 379.667969 148.4375 377.324219 C 147.832031 374.941406 147.613281 372.722656 147.785156 370.667969 C 147.996094 368.605469 148.53125 366.777344 149.394531 365.191406 C 150.246094 363.5625 151.414062 362.214844 152.898438 361.144531 C 154.421875 360.066406 156.214844 359.320312 158.273438 358.902344 C 160.292969 358.492188 162.210938 358.488281 164.027344 358.886719 C 165.882812 359.277344 167.558594 360.011719 169.058594 361.078125 C 170.546875 362.113281 171.824219 363.449219 172.898438 365.089844 C 173.96875 366.730469 174.773438 368.609375 175.308594 370.722656 L 175.867188 372.914062 L 153.609375 377.429688 L 153.964844 378.8125 C 154.296875 380.117188 154.816406 381.285156 155.527344 382.3125 C 156.238281 383.339844 157.085938 384.179688 158.066406 384.828125 C 159.085938 385.472656 160.222656 385.910156 161.464844 386.140625 C 162.738281 386.328125 164.074219 386.277344 165.472656 385.996094 C 167.492188 385.585938 169.121094 384.769531 170.363281 383.546875 C 171.605469 382.324219 172.40625 380.828125 172.773438 379.058594 L 176.800781 380.667969 C 176.414062 382.847656 175.339844 384.800781 173.574219 386.535156 C 171.835938 388.21875 169.472656 389.367188 166.484375 389.972656 Z M 159.238281 362.707031 C 157.957031 362.96875 156.832031 363.4375 155.863281 364.121094 C 154.890625 364.800781 154.101562 365.628906 153.492188 366.601562 C 152.917969 367.566406 152.542969 368.652344 152.359375 369.863281 C 152.207031 371.023438 152.296875 372.257812 152.628906 373.566406 L 152.730469 373.96875 L 169.976562 370.472656 L 169.816406 369.835938 C 169.484375 368.53125 168.96875 367.382812 168.265625 366.394531 C 167.601562 365.394531 166.804688 364.585938 165.871094 363.96875 C 164.96875 363.304688 163.9375 362.867188 162.78125 362.65625 C 161.664062 362.4375 160.484375 362.457031 159.238281 362.707031 Z M 216.789062 382.617188 C 217.554688 385.613281 216.855469 388.082031 214.691406 390.015625 C 212.539062 391.988281 208.9375 393.484375 203.886719 394.507812 C 199.03125 395.496094 195.375 395.570312 192.914062 394.734375 C 190.492188 393.890625 188.980469 392.277344 188.375 389.898438 C 187.964844 388.28125 188.074219 386.945312 188.703125 385.890625 C 189.332031 384.832031 190.371094 383.933594 191.816406 383.195312 L 191.640625 382.503906 C 190.679688 382.257812 189.882812 381.851562 189.25 381.292969 C 188.617188 380.734375 188.175781 379.953125 187.917969 378.957031 C 187.527344 377.417969 187.738281 376.164062 188.554688 375.191406 C 189.40625 374.207031 190.5625 373.367188 192.019531 372.667969 L 191.960938 372.4375 C 189.890625 372.007812 188.128906 371.113281 186.679688 369.75 C 185.269531 368.378906 184.296875 366.636719 183.757812 364.523438 C 183.375 363.023438 183.296875 361.585938 183.519531 360.207031 C 183.738281 358.828125 184.242188 357.597656 185.027344 356.507812 C 185.839844 355.371094 186.902344 354.410156 188.214844 353.617188 C 189.523438 352.828125 191.050781 352.253906 192.800781 351.898438 C 195.054688 351.441406 197.136719 351.445312 199.050781 351.90625 L 198.917969 351.386719 C 198.625 350.234375 198.652344 349.21875 199 348.339844 C 199.347656 347.457031 200.183594 346.886719 201.503906 346.617188 L 207.039062 345.496094 L 208.066406 349.53125 L 201.308594 350.902344 L 201.820312 352.917969 C 203.144531 353.621094 204.257812 354.546875 205.164062 355.695312 C 206.066406 356.847656 206.722656 358.207031 207.121094 359.785156 C 207.503906 361.285156 207.5625 362.726562 207.304688 364.113281 C 207.082031 365.492188 206.585938 366.742188 205.808594 367.871094 C 205.023438 368.960938 203.957031 369.902344 202.609375 370.703125 C 201.296875 371.492188 199.769531 372.066406 198.019531 372.421875 C 197.515625 372.523438 197.027344 372.601562 196.550781 372.660156 C 196.074219 372.714844 195.59375 372.75 195.109375 372.769531 C 194.660156 372.941406 194.210938 373.175781 193.753906 373.46875 C 193.289062 373.726562 192.878906 374.050781 192.53125 374.445312 C 192.171875 374.800781 191.90625 375.199219 191.730469 375.636719 C 191.558594 376.078125 191.535156 376.546875 191.660156 377.046875 C 191.886719 377.929688 192.484375 378.433594 193.457031 378.5625 C 194.417969 378.648438 195.617188 378.546875 197.054688 378.253906 L 203.695312 376.910156 C 207.582031 376.121094 210.582031 376.277344 212.703125 377.382812 C 214.8125 378.453125 216.175781 380.195312 216.789062 382.617188 Z M 212.480469 383.734375 C 212.175781 382.542969 211.445312 381.679688 210.289062 381.148438 C 209.144531 380.652344 207.367188 380.648438 204.957031 381.136719 L 194.527344 383.253906 C 192.714844 384.46875 192.046875 386.019531 192.523438 387.902344 C 192.855469 389.210938 193.664062 390.21875 194.949219 390.925781 C 196.242188 391.675781 198.113281 391.800781 200.558594 391.304688 L 205.101562 390.382812 C 207.820312 389.832031 209.832031 388.980469 211.132812 387.828125 C 212.441406 386.710938 212.890625 385.347656 212.480469 383.734375 Z M 197.113281 368.847656 C 199.441406 368.375 201.015625 367.488281 201.828125 366.191406 C 202.679688 364.890625 202.882812 363.351562 202.433594 361.585938 L 202.007812 359.914062 C 201.558594 358.144531 200.636719 356.855469 199.246094 356.046875 C 197.886719 355.191406 196.039062 355 193.710938 355.472656 C 191.378906 355.945312 189.804688 356.832031 188.992188 358.128906 C 188.167969 359.386719 187.984375 360.898438 188.433594 362.667969 L 188.859375 364.339844 C 189.308594 366.105469 190.214844 367.417969 191.574219 368.273438 C 192.9375 369.128906 194.78125 369.320312 197.113281 368.847656 Z M 241.53125 368.929688 L 241.296875 368.976562 C 241.171875 369.769531 240.964844 370.558594 240.675781 371.347656 C 240.375 372.09375 239.9375 372.789062 239.367188 373.429688 C 238.832031 374.066406 238.140625 374.628906 237.285156 375.125 C 236.433594 375.621094 235.382812 375.996094 234.140625 376.25 C 230.996094 376.886719 228.21875 376.417969 225.820312 374.84375 C 223.40625 373.234375 221.742188 370.621094 220.824219 367.007812 L 215.96875 347.925781 L 220.628906 346.980469 L 225.277344 365.253906 C 225.972656 367.984375 227.09375 369.898438 228.640625 371 C 230.175781 372.0625 232.109375 372.355469 234.441406 371.882812 C 235.371094 371.695312 236.253906 371.394531 237.089844 370.984375 C 237.925781 370.570312 238.632812 370.0625 239.214844 369.460938 C 239.796875 368.859375 240.214844 368.167969 240.464844 367.386719 C 240.707031 366.574219 240.699219 365.664062 240.445312 364.664062 L 235.195312 344.027344 L 239.855469 343.082031 L 247.421875 372.828125 L 242.761719 373.773438 Z M 256.773438 366.808594 L 267.261719 364.679688 L 258.402344 329.863281 L 247.914062 331.992188 L 246.917969 328.070312 L 262.070312 324.996094 L 271.925781 363.734375 L 282.410156 361.609375 L 283.410156 365.527344 L 257.773438 370.726562 Z M 316.886719 358.738281 C 315.0625 359.105469 313.644531 358.910156 312.632812 358.144531 C 311.621094 357.378906 310.84375 356.328125 310.296875 354.980469 L 310.003906 355.042969 C 309.785156 356.90625 309.0625 358.484375 307.839844 359.785156 C 306.648438 361.035156 304.828125 361.910156 302.382812 362.40625 C 299.234375 363.042969 296.523438 362.746094 294.25 361.511719 C 291.972656 360.273438 290.480469 358.253906 289.765625 355.449219 C 289.0625 352.679688 289.53125 350.34375 291.167969 348.433594 C 292.84375 346.519531 295.957031 345.101562 300.5 344.175781 L 306.910156 342.878906 L 306.160156 339.9375 C 305.605469 337.746094 304.566406 336.238281 303.050781 335.417969 C 301.523438 334.554688 299.613281 334.355469 297.324219 334.820312 C 295.304688 335.230469 293.753906 335.96875 292.679688 337.035156 C 291.59375 338.0625 290.832031 339.328125 290.398438 340.832031 L 286.664062 339.164062 C 286.859375 338.316406 287.191406 337.460938 287.664062 336.597656 C 288.140625 335.734375 288.792969 334.933594 289.628906 334.199219 C 290.453125 333.425781 291.445312 332.757812 292.613281 332.199219 C 293.765625 331.601562 295.101562 331.148438 296.617188 330.839844 C 300.152344 330.125 303.171875 330.441406 305.683594 331.789062 C 308.230469 333.132812 309.902344 335.378906 310.707031 338.53125 L 314.871094 354.902344 L 319.066406 354.050781 L 320.09375 358.085938 Z M 302.214844 358.378906 C 303.417969 358.136719 304.472656 357.78125 305.375 357.3125 C 306.304688 356.800781 307.082031 356.238281 307.703125 355.628906 C 308.3125 354.980469 308.730469 354.289062 308.953125 353.558594 C 309.203125 352.777344 309.230469 352.003906 309.035156 351.238281 L 307.789062 346.335938 L 301.378906 347.636719 C 298.582031 348.203125 296.640625 349 295.554688 350.03125 C 294.46875 351.058594 294.113281 352.304688 294.484375 353.765625 L 294.792969 354.976562 C 295.183594 356.511719 296.023438 357.574219 297.320312 358.160156 C 298.640625 358.699219 300.273438 358.773438 302.214844 358.378906 Z M 326.472656 352.671875 L 335.269531 350.886719 L 329.695312 328.980469 L 320.898438 330.765625 L 319.902344 326.84375 L 333.359375 324.117188 L 335.265625 331.609375 L 335.558594 331.550781 C 335.582031 329.082031 336.285156 327.019531 337.660156 325.363281 C 339.066406 323.664062 341.109375 322.542969 343.789062 322 L 347.984375 321.148438 L 349.160156 325.761719 L 343.503906 326.90625 C 340.824219 327.449219 338.847656 328.660156 337.566406 330.535156 C 336.328125 332.40625 336.023438 334.585938 336.660156 337.085938 L 339.929688 349.941406 L 351.582031 347.578125 L 352.582031 351.496094 L 327.46875 356.589844 Z M 326.472656 352.671875 "/>
<path style=" stroke:none;fill-rule:nonzero;fill:rgb(13.333334%,5.490196%,56.862748%);fill-opacity:1;" d="M 17.957031 297.152344 L 9.992188 267.511719 L 15.414062 266.425781 L 16.449219 270.277344 L 16.738281 270.21875 C 16.867188 268.859375 17.238281 267.65625 17.855469 266.605469 C 18.515625 265.546875 19.660156 264.851562 21.289062 264.527344 C 22.882812 264.210938 24.226562 264.40625 25.320312 265.113281 C 26.4375 265.777344 27.316406 266.832031 27.953125 268.28125 L 28.183594 268.234375 C 28.367188 266.785156 28.824219 265.503906 29.546875 264.390625 C 30.261719 263.238281 31.53125 262.480469 33.359375 262.117188 C 35.691406 261.652344 37.519531 262.132812 38.847656 263.5625 C 40.210938 264.984375 41.3125 267.246094 42.144531 270.347656 L 47.75 291.199219 L 42.328125 292.285156 L 36.9375 272.234375 C 36.382812 270.167969 35.75 268.800781 35.039062 268.136719 C 34.316406 267.433594 33.394531 267.195312 32.265625 267.417969 C 31.253906 267.621094 30.492188 268.136719 29.976562 268.964844 C 29.492188 269.75 29.429688 270.8125 29.789062 272.152344 L 35.5625 293.636719 L 30.140625 294.71875 L 24.753906 274.671875 C 24.199219 272.601562 23.566406 271.234375 22.855469 270.570312 C 22.171875 269.859375 21.265625 269.617188 20.140625 269.839844 C 19.089844 270.050781 18.308594 270.570312 17.792969 271.398438 C 17.308594 272.183594 17.246094 273.242188 17.605469 274.585938 L 23.378906 296.066406 Z M 68.664062 287.75 C 66.371094 288.207031 64.214844 288.253906 62.191406 287.890625 C 60.171875 287.53125 58.355469 286.800781 56.753906 285.710938 C 55.148438 284.617188 53.765625 283.199219 52.601562 281.457031 C 51.425781 279.671875 50.519531 277.59375 49.878906 275.21875 C 49.242188 272.847656 48.996094 270.636719 49.140625 268.589844 C 49.328125 266.535156 49.839844 264.714844 50.6875 263.136719 C 51.558594 261.507812 52.773438 260.15625 54.324219 259.078125 C 55.878906 258.003906 57.726562 257.25 59.863281 256.824219 C 61.960938 256.40625 63.964844 256.386719 65.867188 256.773438 C 67.765625 257.121094 69.488281 257.828125 71.042969 258.886719 C 72.597656 259.949219 73.929688 261.316406 75.035156 262.992188 C 76.179688 264.660156 77.046875 266.585938 77.632812 268.769531 L 78.265625 271.125 L 56.695312 275.433594 L 56.957031 276.410156 C 57.585938 278.746094 58.835938 280.511719 60.714844 281.710938 C 62.582031 282.871094 64.820312 283.191406 67.421875 282.671875 C 69.367188 282.285156 70.910156 281.550781 72.054688 280.476562 C 73.226562 279.355469 74.054688 278.019531 74.539062 276.46875 L 79.429688 279.125 C 78.882812 281.050781 77.71875 282.816406 75.941406 284.421875 C 74.199219 286.019531 71.773438 287.128906 68.664062 287.75 Z M 61.144531 261.59375 C 60.015625 261.816406 59.019531 262.21875 58.148438 262.792969 C 57.320312 263.363281 56.652344 264.082031 56.148438 264.949219 C 55.671875 265.769531 55.371094 266.699219 55.238281 267.734375 C 55.109375 268.769531 55.195312 269.863281 55.503906 271.007812 L 55.613281 271.410156 L 70.710938 268.398438 L 70.558594 267.824219 C 69.929688 265.484375 68.75 263.765625 67.019531 262.65625 C 65.316406 261.503906 63.359375 261.148438 61.144531 261.59375 Z M 107.96875 273.847656 L 107.617188 273.917969 C 107.207031 275.898438 106.402344 277.550781 105.203125 278.878906 C 103.992188 280.171875 102.28125 281.035156 100.066406 281.480469 C 96.53125 282.183594 93.363281 281.445312 90.5625 279.261719 C 87.765625 277.074219 85.675781 273.417969 84.296875 268.285156 C 82.917969 263.152344 82.925781 259.078125 84.324219 256.054688 C 85.726562 253.03125 88.191406 251.164062 91.730469 250.457031 C 93.945312 250.015625 95.929688 250.164062 97.683594 250.902344 C 99.429688 251.605469 100.992188 252.765625 102.367188 254.386719 L 102.71875 254.316406 L 97.902344 236.394531 L 104.253906 235.125 L 115.679688 277.632812 L 109.324219 278.902344 Z M 101.316406 275.84375 C 102.25 275.65625 103.09375 275.367188 103.847656 274.972656 C 104.601562 274.582031 105.226562 274.09375 105.726562 273.507812 C 106.222656 272.925781 106.5625 272.273438 106.734375 271.550781 C 106.9375 270.785156 106.917969 269.941406 106.671875 269.023438 L 104.015625 259.140625 C 103.769531 258.222656 103.363281 257.476562 102.796875 256.90625 C 102.265625 256.285156 101.625 255.808594 100.878906 255.472656 C 100.132812 255.136719 99.320312 254.9375 98.441406 254.867188 C 97.566406 254.800781 96.660156 254.863281 95.726562 255.046875 C 93.316406 255.527344 91.648438 256.628906 90.71875 258.347656 C 89.824219 260.058594 89.703125 262.121094 90.351562 264.535156 L 91.648438 269.359375 C 92.296875 271.773438 93.457031 273.578125 95.132812 274.777344 C 96.84375 275.96875 98.90625 276.324219 101.316406 275.84375 Z M 130.203125 237.8125 C 128.570312 238.136719 127.335938 238.042969 126.5 237.523438 C 125.703125 236.996094 125.175781 236.253906 124.917969 235.296875 L 124.59375 234.089844 C 124.335938 233.132812 124.429688 232.265625 124.878906 231.492188 C 125.363281 230.707031 126.402344 230.15625 127.996094 229.839844 C 129.628906 229.511719 130.84375 229.613281 131.640625 230.140625 C 132.476562 230.660156 133.023438 231.398438 133.28125 232.355469 L 133.605469 233.5625 C 133.859375 234.519531 133.746094 235.390625 133.261719 236.171875 C 132.816406 236.949219 131.792969 237.496094 130.203125 237.8125 Z M 124.792969 270.488281 L 135.054688 268.4375 L 129.804688 248.90625 L 119.542969 250.957031 L 118.183594 245.902344 L 134.800781 242.585938 L 141.40625 267.167969 L 151.027344 265.25 L 152.386719 270.304688 L 126.152344 275.542969 Z M 177.589844 259.945312 L 177.296875 260 C 177.191406 260.828125 176.984375 261.660156 176.675781 262.488281 C 176.394531 263.269531 175.976562 264 175.421875 264.675781 C 174.855469 265.3125 174.144531 265.878906 173.296875 266.371094 C 172.445312 266.863281 171.398438 267.230469 170.15625 267.480469 C 167.121094 268.085938 164.410156 267.597656 162.023438 266.019531 C 159.632812 264.4375 157.953125 261.847656 156.984375 258.246094 L 151.859375 239.175781 L 158.214844 237.90625 L 163.09375 256.058594 C 164.359375 260.769531 167.070312 262.710938 171.230469 261.878906 C 172.046875 261.71875 172.816406 261.460938 173.542969 261.113281 C 174.257812 260.730469 174.871094 260.265625 175.378906 259.71875 C 175.886719 259.171875 176.234375 258.558594 176.417969 257.878906 C 176.632812 257.148438 176.621094 256.34375 176.386719 255.460938 L 170.980469 235.359375 L 177.335938 234.089844 L 185.300781 263.730469 L 178.949219 265 Z M 192.742188 262.242188 L 184.777344 232.601562 L 190.199219 231.519531 L 191.230469 235.367188 L 191.523438 235.3125 C 191.652344 233.953125 192.023438 232.75 192.640625 231.699219 C 193.296875 230.636719 194.445312 229.945312 196.074219 229.621094 C 197.667969 229.300781 199.011719 229.496094 200.101562 230.207031 C 201.222656 230.871094 202.101562 231.925781 202.734375 233.375 L 202.96875 233.328125 C 203.152344 231.878906 203.605469 230.597656 204.332031 229.484375 C 205.046875 228.332031 206.316406 227.574219 208.144531 227.210938 C 210.476562 226.742188 212.304688 227.226562 213.628906 228.65625 C 214.996094 230.078125 216.09375 232.339844 216.929688 235.441406 L 222.535156 256.292969 L 217.113281 257.375 L 211.722656 237.328125 C 211.167969 235.261719 210.535156 233.894531 209.824219 233.230469 C 209.101562 232.527344 208.175781 232.289062 207.050781 232.511719 C 206.039062 232.714844 205.277344 233.230469 204.761719 234.058594 C 204.277344 234.84375 204.214844 235.902344 204.574219 237.242188 L 210.347656 258.726562 L 204.925781 259.808594 L 199.539062 239.761719 C 198.984375 237.695312 198.347656 236.328125 197.636719 235.664062 C 196.957031 234.953125 196.050781 234.707031 194.925781 234.933594 C 193.875 235.144531 193.09375 235.664062 192.578125 236.492188 C 192.09375 237.273438 192.03125 238.335938 192.390625 239.675781 L 198.164062 261.160156 Z M 192.742188 262.242188 "/>
<path style=" stroke:none;fill-rule:nonzero;fill:rgb(13.333334%,5.490196%,56.862748%);fill-opacity:1;" d="M 455.535156 355.726562 C 452.261719 355.113281 449.566406 354.066406 447.445312 352.582031 C 445.363281 351.101562 443.816406 349.363281 442.804688 347.359375 L 447.574219 344.628906 C 448.546875 346.300781 449.757812 347.675781 451.203125 348.753906 C 452.699219 349.796875 454.574219 350.53125 456.835938 350.957031 C 458.898438 351.34375 460.640625 351.304688 462.058594 350.847656 C 463.515625 350.394531 464.421875 349.4375 464.785156 347.972656 C 464.9375 347.359375 464.949219 346.816406 464.820312 346.351562 C 464.691406 345.882812 464.445312 345.472656 464.082031 345.125 C 463.722656 344.773438 463.265625 344.46875 462.71875 344.203125 C 462.214844 343.949219 461.65625 343.722656 461.050781 343.527344 L 456.445312 341.878906 C 455.316406 341.507812 454.191406 341.035156 453.066406 340.460938 C 451.945312 339.890625 450.972656 339.203125 450.152344 338.40625 C 449.378906 337.574219 448.804688 336.601562 448.429688 335.484375 C 448.089844 334.375 448.113281 333.050781 448.492188 331.507812 C 449.242188 328.46875 450.984375 326.375 453.710938 325.238281 C 456.476562 324.101562 459.789062 323.898438 463.644531 324.621094 C 466.449219 325.144531 468.757812 326.023438 470.578125 327.25 C 472.441406 328.441406 473.875 329.898438 474.878906 331.617188 L 470.398438 334.648438 C 469.839844 333.617188 468.929688 332.597656 467.667969 331.597656 C 466.417969 330.558594 464.601562 329.816406 462.226562 329.371094 C 457.980469 328.574219 455.527344 329.503906 454.875 332.160156 C 454.558594 333.429688 454.789062 334.402344 455.5625 335.066406 C 456.382812 335.707031 457.398438 336.21875 458.605469 336.605469 L 463.210938 338.253906 C 464.371094 338.671875 465.5 339.144531 466.589844 339.671875 C 467.722656 340.207031 468.675781 340.890625 469.449219 341.71875 C 470.269531 342.515625 470.847656 343.472656 471.1875 344.582031 C 471.5625 345.699219 471.558594 347.027344 471.179688 348.570312 C 470.4375 351.570312 468.664062 353.714844 465.859375 355.003906 C 463.105469 356.257812 459.664062 356.5 455.535156 355.726562 Z M 491.15625 362.398438 C 488.855469 361.96875 486.882812 361.21875 485.230469 360.144531 C 483.582031 359.070312 482.300781 357.742188 481.386719 356.160156 C 480.472656 354.578125 479.917969 352.78125 479.722656 350.773438 C 479.535156 348.722656 479.734375 346.503906 480.324219 344.121094 C 480.914062 341.730469 481.777344 339.636719 482.914062 337.835938 C 484.089844 336.042969 485.449219 334.585938 486.992188 333.464844 C 488.582031 332.3125 490.339844 331.535156 492.277344 331.132812 C 494.207031 330.730469 496.246094 330.726562 498.390625 331.128906 C 500.492188 331.523438 502.3125 332.246094 503.84375 333.300781 C 505.386719 334.3125 506.601562 335.589844 507.484375 337.125 C 508.371094 338.660156 508.902344 340.390625 509.078125 342.316406 C 509.292969 344.25 509.128906 346.3125 508.585938 348.507812 L 508.003906 350.875 L 486.382812 346.824219 L 486.140625 347.804688 C 485.558594 350.15625 485.824219 352.21875 486.933594 353.996094 C 488.050781 355.738281 489.917969 356.851562 492.527344 357.339844 C 494.476562 357.707031 496.230469 357.613281 497.792969 357.058594 C 499.40625 356.472656 500.808594 355.570312 502.011719 354.34375 L 505.128906 358.554688 C 503.6875 360.09375 501.765625 361.265625 499.367188 362.066406 C 497.011719 362.875 494.273438 362.984375 491.15625 362.398438 Z M 497.207031 335.921875 C 496.074219 335.710938 494.976562 335.707031 493.90625 335.910156 C 492.878906 336.117188 491.921875 336.523438 491.039062 337.125 C 490.207031 337.691406 489.476562 338.421875 488.847656 339.3125 C 488.222656 340.199219 487.765625 341.222656 487.480469 342.378906 L 487.378906 342.78125 L 502.515625 345.617188 L 502.65625 345.039062 C 503.238281 342.691406 503.015625 340.695312 501.996094 339.054688 C 501.023438 337.382812 499.425781 336.339844 497.207031 335.921875 Z M 510.761719 365.347656 L 518.121094 335.550781 L 523.554688 336.570312 L 522.601562 340.4375 L 522.890625 340.492188 C 523.671875 339.3125 524.601562 338.355469 525.679688 337.632812 C 526.792969 336.914062 528.167969 336.707031 529.804688 337.015625 C 531.402344 337.3125 532.519531 337.988281 533.15625 339.03125 C 533.84375 340.046875 534.121094 341.328125 533.980469 342.871094 L 534.214844 342.917969 C 535.09375 341.671875 536.132812 340.675781 537.335938 339.9375 C 538.546875 339.15625 540.070312 338.9375 541.898438 339.28125 C 544.238281 339.71875 545.652344 340.828125 546.152344 342.613281 C 546.6875 344.40625 546.570312 346.863281 545.800781 349.980469 L 540.621094 370.941406 L 535.1875 369.925781 L 540.164062 349.773438 C 540.679688 347.691406 540.777344 346.21875 540.460938 345.355469 C 540.152344 344.453125 539.4375 343.894531 538.304688 343.683594 C 537.292969 343.492188 536.351562 343.679688 535.480469 344.242188 C 534.65625 344.769531 534.074219 345.710938 533.742188 347.058594 L 528.410156 368.652344 L 522.976562 367.636719 L 527.953125 347.484375 C 528.464844 345.402344 528.566406 343.933594 528.25 343.066406 C 527.980469 342.171875 527.28125 341.617188 526.152344 341.40625 C 525.101562 341.210938 524.136719 341.390625 523.265625 341.953125 C 522.441406 342.484375 521.863281 343.421875 521.53125 344.769531 L 516.195312 366.367188 Z M 571.328125 339.839844 C 569.691406 339.53125 568.625 338.992188 568.125 338.210938 C 567.664062 337.441406 567.550781 336.574219 567.789062 335.613281 L 568.085938 334.398438 C 568.324219 333.4375 568.835938 332.6875 569.621094 332.148438 C 570.445312 331.617188 571.65625 331.503906 573.253906 331.800781 C 574.890625 332.109375 575.9375 332.648438 576.398438 333.417969 C 576.902344 334.199219 577.03125 335.066406 576.792969 336.03125 L 576.492188 337.242188 C 576.257812 338.207031 575.726562 338.953125 574.902344 339.480469 C 574.117188 340.019531 572.925781 340.136719 571.328125 339.839844 Z M 550.386719 367.453125 L 560.667969 369.382812 L 565.519531 349.746094 L 555.234375 347.820312 L 556.488281 342.738281 L 573.144531 345.859375 L 567.039062 370.574219 L 576.679688 372.382812 L 575.425781 377.460938 L 549.128906 372.539062 Z M 593.4375 336.128906 L 599.804688 337.320312 L 595.355469 355.339844 L 595.707031 355.402344 C 597.050781 353.761719 598.585938 352.578125 600.3125 351.855469 C 602.050781 351.09375 604.027344 350.921875 606.25 351.335938 C 609.792969 352 612.292969 353.839844 613.753906 356.851562 C 615.207031 359.863281 615.300781 363.949219 614.027344 369.105469 C 612.753906 374.265625 610.742188 377.957031 607.988281 380.179688 C 605.238281 382.40625 602.089844 383.183594 598.546875 382.519531 C 596.328125 382.105469 594.601562 381.257812 593.367188 379.980469 C 592.144531 378.660156 591.304688 377.015625 590.855469 375.035156 L 590.507812 374.972656 L 589.25 380.054688 L 582.882812 378.859375 Z M 597.1875 376.886719 C 599.601562 377.339844 601.632812 376.957031 603.28125 375.734375 C 604.964844 374.519531 606.109375 372.699219 606.707031 370.273438 L 607.90625 365.421875 C 608.503906 362.996094 608.320312 360.929688 607.359375 359.21875 C 606.433594 357.515625 604.765625 356.4375 602.351562 355.984375 C 601.414062 355.808594 600.507812 355.757812 599.632812 355.835938 C 598.757812 355.914062 597.953125 356.125 597.214844 356.472656 C 596.476562 356.816406 595.828125 357.300781 595.269531 357.917969 C 594.757812 358.507812 594.386719 359.265625 594.15625 360.1875 L 591.703125 370.121094 C 591.476562 371.042969 591.453125 371.886719 591.632812 372.644531 C 591.859375 373.371094 592.226562 374.027344 592.738281 374.605469 C 593.246094 375.183594 593.882812 375.664062 594.644531 376.046875 C 595.402344 376.433594 596.25 376.710938 597.1875 376.886719 Z M 630.664062 388.535156 C 628.441406 388.121094 626.527344 387.378906 624.914062 386.3125 C 623.34375 385.25 622.101562 383.929688 621.1875 382.351562 C 620.308594 380.777344 619.78125 378.964844 619.59375 376.917969 C 619.40625 374.867188 619.609375 372.648438 620.199219 370.261719 C 620.789062 367.875 621.652344 365.78125 622.789062 363.980469 C 623.925781 362.179688 625.265625 360.71875 626.804688 359.597656 C 628.386719 358.484375 630.140625 357.726562 632.074219 357.324219 C 634.046875 356.925781 636.144531 356.9375 638.363281 357.351562 C 640.585938 357.769531 642.480469 358.507812 644.054688 359.566406 C 645.664062 360.632812 646.910156 361.957031 647.785156 363.527344 C 648.695312 365.109375 649.246094 366.925781 649.433594 368.972656 C 649.621094 371.023438 649.417969 373.242188 648.828125 375.628906 C 648.238281 378.011719 647.375 380.105469 646.238281 381.910156 C 645.101562 383.710938 643.742188 385.167969 642.164062 386.28125 C 640.625 387.402344 638.867188 388.160156 636.894531 388.554688 C 634.960938 388.957031 632.882812 388.953125 630.664062 388.535156 Z M 631.890625 383.570312 C 634.226562 384.007812 636.246094 383.664062 637.953125 382.53125 C 639.707031 381.371094 640.925781 379.402344 641.613281 376.632812 L 642.722656 372.125 C 643.410156 369.355469 643.222656 367.144531 642.160156 365.496094 C 641.148438 363.816406 639.476562 362.757812 637.136719 362.320312 C 634.800781 361.882812 632.753906 362.242188 631 363.40625 C 629.292969 364.535156 628.097656 366.488281 627.414062 369.257812 L 626.304688 373.761719 C 625.617188 376.535156 625.78125 378.761719 626.792969 380.441406 C 627.851562 382.089844 629.550781 383.132812 631.890625 383.570312 Z M 653.980469 386.863281 L 663.972656 388.734375 L 672.015625 356.164062 L 662.023438 354.292969 L 663.277344 349.210938 L 679.640625 352.277344 L 670.339844 389.929688 L 680.332031 391.800781 L 679.078125 396.882812 L 652.722656 391.945312 Z M 708.707031 397.117188 L 708.359375 397.050781 C 707.015625 398.691406 705.476562 399.894531 703.738281 400.65625 C 702.011719 401.378906 700.035156 401.535156 697.816406 401.117188 C 694.273438 400.453125 691.769531 398.617188 690.3125 395.601562 C 688.855469 392.589844 688.765625 388.507812 690.039062 383.347656 C 691.3125 378.1875 693.324219 374.496094 696.074219 372.273438 C 698.824219 370.050781 701.972656 369.269531 705.519531 369.933594 C 707.738281 370.347656 709.460938 371.21875 710.683594 372.53125 C 711.917969 373.8125 712.757812 375.4375 713.207031 377.417969 L 713.558594 377.480469 L 718.007812 359.464844 L 724.375 360.660156 L 713.824219 403.390625 L 707.453125 402.199219 Z M 701.714844 396.46875 C 702.648438 396.644531 703.554688 396.695312 704.429688 396.617188 C 705.304688 396.539062 706.113281 396.328125 706.847656 395.984375 C 707.585938 395.636719 708.210938 395.171875 708.722656 394.582031 C 709.285156 393.960938 709.679688 393.1875 709.90625 392.265625 L 712.359375 382.332031 C 712.589844 381.410156 712.589844 380.582031 712.359375 379.855469 C 712.179688 379.097656 711.835938 378.429688 711.328125 377.847656 C 710.816406 377.269531 710.183594 376.789062 709.421875 376.40625 C 708.660156 376.019531 707.8125 375.742188 706.878906 375.566406 C 704.460938 375.113281 702.414062 375.496094 700.726562 376.710938 C 699.078125 377.929688 697.957031 379.753906 697.355469 382.179688 L 696.160156 387.03125 C 695.558594 389.457031 695.722656 391.519531 696.648438 393.226562 C 697.609375 394.9375 699.300781 396.019531 701.714844 396.46875 Z M 701.714844 396.46875 "/>
<path style=" stroke:none;fill-rule:nonzero;fill:rgb(98.431373%,62.7451%,62.352943%);fill-opacity:1;" d="M 1.1875 523.460938 L 373.34375 523.460938 L 373.34375 21.414062 L 1.1875 21.414062 Z M 1.1875 523.460938 "/>
<path style=" stroke:none;fill-rule:nonzero;fill:rgb(98.431373%,62.7451%,62.352943%);fill-opacity:1;" d="M 797.8125 523.460938 L 425.65625 523.460938 L 425.65625 21.414062 L 797.8125 21.414062 Z M 797.8125 523.460938 "/>
<path style=" stroke:none;fill-rule:nonzero;fill:rgb(98.431373%,62.7451%,62.352943%);fill-opacity:1;" d="M 288.925781 603.765625 C 288.925781 627.089844 307.820312 646 331.132812 646 C 354.445312 646 373.34375 627.089844 373.34375 603.765625 L 373.34375 504.425781 L 288.925781 504.425781 Z M 288.925781 603.765625 "/>
<path style=" stroke:none;fill-rule:nonzero;fill:rgb(98.431373%,62.7451%,62.352943%);fill-opacity:1;" d="M 511.265625 603.171875 C 511.265625 626.824219 492.101562 646 468.460938 646 C 444.820312 646 425.65625 626.824219 425.65625 603.171875 L 425.65625 504.425781 L 511.265625 504.425781 Z M 511.265625 603.171875 "/>
<path style=" stroke:none;fill-rule:nonzero;fill:rgb(85.09804%,85.09804%,85.09804%);fill-opacity:1;" d="M 302.777344 592.074219 C 302.777344 595.863281 302.246094 611.335938 304.957031 615.886719 C 306.398438 619.386719 308.511719 622.566406 311.171875 625.246094 C 313.835938 627.921875 316.996094 630.046875 320.472656 631.496094 C 323.953125 632.945312 327.679688 633.691406 331.445312 633.691406 C 335.210938 633.691406 338.9375 632.945312 342.414062 631.496094 C 345.894531 630.046875 349.054688 627.921875 351.714844 625.246094 C 354.378906 622.566406 356.488281 619.386719 357.929688 615.886719 C 360.96875 610.804688 360.113281 595.863281 360.113281 592.074219 Z M 302.777344 592.074219 "/>
<path style=" stroke:none;fill-rule:nonzero;fill:rgb(85.09804%,85.09804%,85.09804%);fill-opacity:1;" d="M 496.601562 592.074219 C 496.601562 595.863281 497.132812 611.335938 494.421875 615.886719 C 492.980469 619.386719 490.867188 622.566406 488.207031 625.246094 C 485.542969 627.921875 482.382812 630.046875 478.90625 631.496094 C 475.425781 632.945312 471.699219 633.691406 467.933594 633.691406 C 464.171875 633.691406 460.441406 632.945312 456.964844 631.496094 C 453.484375 630.046875 450.324219 627.921875 447.664062 625.246094 C 445.003906 622.566406 442.890625 619.386719 441.449219 615.886719 C 438.410156 610.804688 439.269531 595.863281 439.269531 592.074219 Z M 496.601562 592.074219 "/>
<path style=" stroke:none;fill-rule:nonzero;fill:rgb(98.431373%,62.7451%,62.352943%);fill-opacity:1;" d="M 206.882812 603.765625 C 206.882812 620.519531 220.457031 634.101562 237.203125 634.101562 C 253.949219 634.101562 267.523438 620.519531 267.523438 603.765625 L 267.523438 517.515625 L 206.882812 517.515625 Z M 206.882812 603.765625 "/>
<path style=" stroke:none;fill-rule:nonzero;fill:rgb(98.431373%,62.7451%,62.352943%);fill-opacity:1;" d="M 593.304688 603.765625 C 593.304688 620.519531 579.730469 634.101562 562.984375 634.101562 C 546.242188 634.101562 532.667969 620.519531 532.667969 603.765625 L 532.667969 517.515625 L 593.304688 517.515625 Z M 593.304688 603.765625 "/>
<path style=" stroke:none;fill-rule:nonzero;fill:rgb(85.09804%,85.09804%,85.09804%);fill-opacity:1;" d="M 217.0625 600.46875 C 217.0625 602.597656 216.691406 611.308594 218.589844 613.867188 C 219.597656 615.835938 221.074219 617.625 222.933594 619.132812 C 224.796875 620.640625 227.007812 621.835938 229.4375 622.652344 C 231.871094 623.46875 234.480469 623.886719 237.113281 623.886719 C 239.746094 623.886719 242.351562 623.46875 244.785156 622.652344 C 247.214844 621.835938 249.425781 620.640625 251.289062 619.132812 C 253.152344 617.625 254.628906 615.835938 255.636719 613.867188 C 257.761719 611.007812 257.160156 602.597656 257.160156 600.46875 Z M 217.0625 600.46875 "/>
<path style=" stroke:none;fill-rule:nonzero;fill:rgb(85.09804%,85.09804%,85.09804%);fill-opacity:1;" d="M 582.316406 600.46875 C 582.316406 602.597656 582.6875 611.308594 580.789062 613.867188 C 579.785156 615.835938 578.308594 617.625 576.445312 619.132812 C 574.582031 620.640625 572.371094 621.835938 569.941406 622.652344 C 567.507812 623.46875 564.902344 623.886719 562.269531 623.886719 C 559.636719 623.886719 557.027344 623.46875 554.59375 622.652344 C 552.164062 621.835938 549.953125 620.640625 548.089844 619.132812 C 546.230469 617.625 544.753906 615.835938 543.746094 613.867188 C 541.617188 611.007812 542.21875 602.597656 542.21875 600.46875 Z M 582.316406 600.46875 "/>
<path style=" stroke:none;fill-rule:nonzero;fill:rgb(98.431373%,62.7451%,62.352943%);fill-opacity:1;" d="M 137.921875 593.652344 C 137.921875 610.738281 151.761719 624.585938 168.835938 624.585938 C 185.910156 624.585938 199.75 610.738281 199.75 593.652344 L 199.75 510.375 L 137.921875 510.375 Z M 137.921875 593.652344 "/>
<path style=" stroke:none;fill-rule:nonzero;fill:rgb(98.431373%,62.7451%,62.352943%);fill-opacity:1;" d="M 661.078125 593.652344 C 661.078125 610.738281 647.238281 624.585938 630.164062 624.585938 C 613.089844 624.585938 599.25 610.738281 599.25 593.652344 L 599.25 510.375 L 661.078125 510.375 Z M 661.078125 593.652344 "/>
<path style=" stroke:none;fill-rule:nonzero;fill:rgb(85.09804%,85.09804%,85.09804%);fill-opacity:1;" d="M 148.289062 590.210938 C 148.289062 592.34375 147.917969 601.050781 149.816406 603.613281 C 150.824219 605.582031 152.300781 607.371094 154.160156 608.878906 C 156.023438 610.386719 158.234375 611.582031 160.664062 612.394531 C 163.097656 613.210938 165.707031 613.632812 168.339844 613.632812 C 170.972656 613.632812 173.578125 613.210938 176.011719 612.394531 C 178.441406 611.582031 180.652344 610.386719 182.515625 608.878906 C 184.378906 607.371094 185.855469 605.582031 186.863281 603.613281 C 188.988281 600.753906 188.386719 592.34375 188.386719 590.210938 Z M 148.289062 590.210938 "/>
<path style=" stroke:none;fill-rule:nonzero;fill:rgb(85.09804%,85.09804%,85.09804%);fill-opacity:1;" d="M 651.097656 590.210938 C 651.097656 592.34375 651.464844 601.050781 649.570312 603.613281 C 648.5625 605.582031 647.085938 607.371094 645.222656 608.878906 C 643.363281 610.386719 641.152344 611.582031 638.71875 612.394531 C 636.285156 613.210938 633.679688 613.632812 631.046875 613.632812 C 628.414062 613.632812 625.804688 613.210938 623.375 612.394531 C 620.941406 611.582031 618.730469 610.386719 616.871094 608.878906 C 615.007812 607.371094 613.53125 605.582031 612.523438 603.613281 C 610.398438 600.753906 610.996094 592.34375 610.996094 590.210938 Z M 651.097656 590.210938 "/>
<path style=" stroke:none;fill-rule:nonzero;fill:rgb(98.431373%,62.7451%,62.352943%);fill-opacity:1;" d="M 68.960938 580.566406 C 68.960938 597.648438 82.800781 611.5 99.875 611.5 C 116.949219 611.5 130.789062 597.648438 130.789062 580.566406 L 130.789062 498.480469 L 68.960938 498.480469 Z M 68.960938 580.566406 "/>
<path style=" stroke:none;fill-rule:nonzero;fill:rgb(98.431373%,62.7451%,62.352943%);fill-opacity:1;" d="M 730.039062 580.566406 C 730.039062 597.648438 716.199219 611.5 699.125 611.5 C 682.050781 611.5 668.210938 597.648438 668.210938 580.566406 L 668.210938 498.480469 L 730.039062 498.480469 Z M 730.039062 580.566406 "/>
<path style=" stroke:none;fill-rule:nonzero;fill:rgb(85.09804%,85.09804%,85.09804%);fill-opacity:1;" d="M 79.515625 578.433594 C 79.515625 580.5625 79.144531 589.269531 81.042969 591.832031 C 82.050781 593.800781 83.527344 595.589844 85.386719 597.097656 C 87.25 598.605469 89.460938 599.800781 91.890625 600.617188 C 94.324219 601.433594 96.933594 601.851562 99.566406 601.851562 C 102.199219 601.851562 104.804688 601.433594 107.238281 600.617188 C 109.671875 599.800781 111.878906 598.605469 113.742188 597.097656 C 115.605469 595.589844 117.082031 593.800781 118.089844 591.832031 C 120.214844 588.972656 119.613281 580.5625 119.613281 578.433594 Z M 79.515625 578.433594 "/>
<path style=" stroke:none;fill-rule:nonzero;fill:rgb(85.09804%,85.09804%,85.09804%);fill-opacity:1;" d="M 719.871094 578.433594 C 719.871094 580.5625 720.238281 589.269531 718.34375 591.832031 C 717.335938 593.800781 715.859375 595.589844 713.996094 597.097656 C 712.136719 598.605469 709.925781 599.800781 707.492188 600.617188 C 705.058594 601.433594 702.453125 601.851562 699.820312 601.851562 C 697.1875 601.851562 694.578125 601.433594 692.148438 600.617188 C 689.714844 599.800781 687.503906 598.605469 685.644531 597.097656 C 683.78125 595.589844 682.304688 593.800781 681.296875 591.832031 C 679.171875 588.972656 679.769531 580.5625 679.769531 578.433594 Z M 719.871094 578.433594 "/>
<path style=" stroke:none;fill-rule:nonzero;fill:rgb(83.92157%,38.039216%,43.921569%);fill-opacity:1;" d="M 78.472656 557.964844 L 120.085938 557.964844 L 120.085938 552.015625 L 78.472656 552.015625 Z M 78.472656 557.964844 "/>
<path style=" stroke:none;fill-rule:nonzero;fill:rgb(83.92157%,38.039216%,43.921569%);fill-opacity:1;" d="M 720.527344 557.964844 L 678.914062 557.964844 L 678.914062 552.015625 L 720.527344 552.015625 Z M 720.527344 557.964844 "/>
<path style=" stroke:none;fill-rule:nonzero;fill:rgb(83.92157%,38.039216%,43.921569%);fill-opacity:1;" d="M 78.472656 547.257812 L 120.085938 547.257812 L 120.085938 541.308594 L 78.472656 541.308594 Z M 78.472656 547.257812 "/>
<path style=" stroke:none;fill-rule:nonzero;fill:rgb(83.92157%,38.039216%,43.921569%);fill-opacity:1;" d="M 720.527344 547.257812 L 678.914062 547.257812 L 678.914062 541.308594 L 720.527344 541.308594 Z M 720.527344 547.257812 "/>
<path style=" stroke:none;fill-rule:nonzero;fill:rgb(83.92157%,38.039216%,43.921569%);fill-opacity:1;" d="M 147.433594 556.773438 L 189.050781 556.773438 L 189.050781 550.824219 L 147.433594 550.824219 Z M 147.433594 556.773438 "/>
<path style=" stroke:none;fill-rule:nonzero;fill:rgb(83.92157%,38.039216%,43.921569%);fill-opacity:1;" d="M 651.566406 556.773438 L 609.949219 556.773438 L 609.949219 550.824219 L 651.566406 550.824219 Z M 651.566406 556.773438 "/>
<path style=" stroke:none;fill-rule:nonzero;fill:rgb(83.92157%,38.039216%,43.921569%);fill-opacity:1;" d="M 216.394531 563.910156 L 258.011719 563.910156 L 258.011719 557.964844 L 216.394531 557.964844 Z M 216.394531 563.910156 "/>
<path style=" stroke:none;fill-rule:nonzero;fill:rgb(83.92157%,38.039216%,43.921569%);fill-opacity:1;" d="M 582.605469 563.910156 L 540.988281 563.910156 L 540.988281 557.964844 L 582.605469 557.964844 Z M 582.605469 563.910156 "/>
<path style=" stroke:none;fill-rule:nonzero;fill:rgb(83.92157%,38.039216%,43.921569%);fill-opacity:1;" d="M 303.191406 565.101562 L 360.261719 565.101562 L 360.261719 559.152344 L 303.191406 559.152344 Z M 303.191406 565.101562 "/>
<path style=" stroke:none;fill-rule:nonzero;fill:rgb(83.92157%,38.039216%,43.921569%);fill-opacity:1;" d="M 495.808594 565.101562 L 438.738281 565.101562 L 438.738281 559.152344 L 495.808594 559.152344 Z M 495.808594 565.101562 "/>
<path style=" stroke:none;fill-rule:nonzero;fill:rgb(83.92157%,38.039216%,43.921569%);fill-opacity:1;" d="M 147.433594 567.480469 L 189.050781 567.480469 L 189.050781 561.53125 L 147.433594 561.53125 Z M 147.433594 567.480469 "/>
<path style=" stroke:none;fill-rule:nonzero;fill:rgb(83.92157%,38.039216%,43.921569%);fill-opacity:1;" d="M 651.566406 567.480469 L 609.949219 567.480469 L 609.949219 561.53125 L 651.566406 561.53125 Z M 651.566406 567.480469 "/>
<path style=" stroke:none;fill-rule:nonzero;fill:rgb(83.92157%,38.039216%,43.921569%);fill-opacity:1;" d="M 216.394531 574.617188 L 258.011719 574.617188 L 258.011719 568.671875 L 216.394531 568.671875 Z M 216.394531 574.617188 "/>
<path style=" stroke:none;fill-rule:nonzero;fill:rgb(83.92157%,38.039216%,43.921569%);fill-opacity:1;" d="M 582.605469 574.617188 L 540.988281 574.617188 L 540.988281 568.671875 L 582.605469 568.671875 Z M 582.605469 574.617188 "/>
<path style=" stroke:none;fill-rule:nonzero;fill:rgb(83.92157%,38.039216%,43.921569%);fill-opacity:1;" d="M 303.191406 575.808594 L 360.261719 575.808594 L 360.261719 569.859375 L 303.191406 569.859375 Z M 303.191406 575.808594 "/>
<path style=" stroke:none;fill-rule:nonzero;fill:rgb(83.92157%,38.039216%,43.921569%);fill-opacity:1;" d="M 495.808594 575.808594 L 438.738281 575.808594 L 438.738281 569.859375 L 495.808594 569.859375 Z M 495.808594 575.808594 "/>
<path style=" stroke:none;fill-rule:nonzero;fill:rgb(98.431373%,62.7451%,62.352943%);fill-opacity:1;" d="M 1.1875 562.128906 C 1.1875 578.882812 14.761719 592.464844 31.507812 592.464844 C 48.253906 592.464844 61.828125 578.882812 61.828125 562.128906 L 61.828125 488.960938 L 1.1875 488.960938 Z M 1.1875 562.128906 "/>
<path style=" stroke:none;fill-rule:nonzero;fill:rgb(98.431373%,62.7451%,62.352943%);fill-opacity:1;" d="M 797.8125 562.128906 C 797.8125 578.882812 784.238281 592.464844 767.492188 592.464844 C 750.746094 592.464844 737.171875 578.882812 737.171875 562.128906 L 737.171875 488.960938 L 797.8125 488.960938 Z M 797.8125 562.128906 "/>
<path style=" stroke:none;fill-rule:nonzero;fill:rgb(85.09804%,85.09804%,85.09804%);fill-opacity:1;" d="M 10.742188 559.234375 C 10.742188 561.367188 10.371094 570.074219 12.269531 572.636719 C 13.273438 574.605469 14.753906 576.394531 16.613281 577.902344 C 18.476562 579.410156 20.6875 580.605469 23.117188 581.421875 C 25.550781 582.238281 28.15625 582.65625 30.792969 582.65625 C 33.425781 582.65625 36.03125 582.238281 38.464844 581.421875 C 40.894531 580.605469 43.105469 579.410156 44.96875 577.902344 C 46.828125 576.394531 48.308594 574.605469 49.3125 572.636719 C 51.441406 569.777344 50.839844 561.367188 50.839844 559.234375 Z M 10.742188 559.234375 "/>
<path style=" stroke:none;fill-rule:nonzero;fill:rgb(85.09804%,85.09804%,85.09804%);fill-opacity:1;" d="M 788.644531 559.234375 C 788.644531 561.367188 789.011719 570.074219 787.117188 572.636719 C 786.109375 574.605469 784.632812 576.394531 782.769531 577.902344 C 780.910156 579.410156 778.699219 580.605469 776.265625 581.421875 C 773.832031 582.238281 771.226562 582.65625 768.59375 582.65625 C 765.960938 582.65625 763.351562 582.238281 760.921875 581.421875 C 758.488281 580.605469 756.277344 579.410156 754.417969 577.902344 C 752.554688 576.394531 751.078125 574.605469 750.070312 572.636719 C 747.945312 569.777344 748.542969 561.367188 748.542969 559.234375 Z M 788.644531 559.234375 "/>
<path style=" stroke:none;fill-rule:nonzero;fill:rgb(83.92157%,38.039216%,43.921569%);fill-opacity:1;" d="M 9.511719 534.167969 L 51.125 534.167969 L 51.125 528.222656 L 9.511719 528.222656 Z M 9.511719 534.167969 "/>
<path style=" stroke:none;fill-rule:nonzero;fill:rgb(83.92157%,38.039216%,43.921569%);fill-opacity:1;" d="M 789.488281 534.167969 L 747.875 534.167969 L 747.875 528.222656 L 789.488281 528.222656 Z M 789.488281 534.167969 "/>
<path style=" stroke:none;fill-rule:nonzero;fill:rgb(83.92157%,38.039216%,43.921569%);fill-opacity:1;" d="M 9.511719 544.875 L 51.125 544.875 L 51.125 538.929688 L 9.511719 538.929688 Z M 9.511719 544.875 "/>
<path style=" stroke:none;fill-rule:nonzero;fill:rgb(83.92157%,38.039216%,43.921569%);fill-opacity:1;" d="M 789.488281 544.875 L 747.875 544.875 L 747.875 538.929688 L 789.488281 538.929688 Z M 789.488281 544.875 "/>
<path style=" stroke:none;fill-rule:nonzero;fill:rgb(100%,100%,100%);fill-opacity:1;" d="M 1.1875 435.425781 L 373.34375 366.191406 L 373.34375 109.453125 L 1.1875 132.527344 Z M 1.1875 435.425781 "/>
<path style="fill:none;stroke-width:1;stroke-linecap:butt;stroke-linejoin:miter;stroke:rgb(85.09804%,85.09804%,85.09804%);stroke-opacity:1;stroke-miterlimit:4;" d="M 314.001252 206.448747 L 314.001252 307.804851 L 0.998748 366.000308 L 0.998748 262.703699 M 314.001252 206.448747 L 0.998748 262.703699 M 314.001252 206.448747 L 314.001252 186.08165 M 0.998748 262.703699 L 0.998748 168.62367 M 0.998748 168.62367 L 314.001252 187.536208 L 314.001252 186.08165 M 0.998748 168.62367 L 0.998748 111.396823 L 314.001252 92.001621 L 314.001252 186.08165 " transform="matrix(1.188988,0,0,1.189687,0,0)"/>
<path style=" stroke:none;fill-rule:nonzero;fill:rgb(100%,100%,100%);fill-opacity:1;" d="M 797.8125 435.425781 L 425.65625 366.191406 L 425.65625 109.453125 L 797.8125 132.527344 Z M 797.8125 435.425781 "/>
<path style="fill:none;stroke-width:1;stroke-linecap:butt;stroke-linejoin:miter;stroke:rgb(85.09804%,85.09804%,85.09804%);stroke-opacity:1;stroke-miterlimit:4;" d="M 357.998748 206.448747 L 357.998748 307.804851 L 671.001252 366.000308 L 671.001252 262.703699 M 357.998748 206.448747 L 671.001252 262.703699 M 357.998748 206.448747 L 357.998748 186.08165 M 671.001252 262.703699 L 671.001252 168.62367 M 671.001252 168.62367 L 357.998748 187.536208 L 357.998748 186.08165 M 671.001252 168.62367 L 671.001252 111.396823 L 357.998748 92.001621 L 357.998748 186.08165 " transform="matrix(1.188988,0,0,1.189687,0,0)"/>
<path style=" stroke:none;fill-rule:nonzero;fill:rgb(95.294118%,21.176471%,29.803923%);fill-opacity:1;" d="M 373.496094 20.257812 C 373.484375 31.394531 290.132812 40.40625 187.332031 40.386719 C 84.527344 40.367188 1.199219 31.324219 1.210938 20.1875 C 1.222656 9.050781 84.570312 0.0390625 187.375 0.0585938 C 290.179688 0.078125 373.507812 9.121094 373.496094 20.257812 Z M 373.496094 20.257812 "/>
<path style=" stroke:none;fill-rule:nonzero;fill:rgb(95.294118%,21.176471%,29.803923%);fill-opacity:1;" d="M 797.964844 20.257812 C 797.953125 31.394531 714.597656 40.40625 611.785156 40.386719 C 508.976562 40.367188 425.640625 31.324219 425.652344 20.1875 C 425.667969 9.050781 509.019531 0.0390625 611.832031 0.0585938 C 714.640625 0.078125 797.976562 9.121094 797.964844 20.257812 Z M 797.964844 20.257812 "/>
<path style=" stroke:none;fill-rule:nonzero;fill:rgb(85.09804%,85.09804%,85.09804%);fill-opacity:1;" d="M 296.03125 19.933594 C 295.832031 24.378906 248.589844 27.640625 190.515625 27.214844 C 132.441406 26.789062 85.527344 22.839844 85.726562 18.390625 C 85.925781 13.945312 133.167969 10.683594 191.242188 11.109375 C 249.316406 11.535156 296.234375 15.484375 296.03125 19.933594 Z M 296.03125 19.933594 "/>
<path style=" stroke:none;fill-rule:nonzero;fill:rgb(85.09804%,85.09804%,85.09804%);fill-opacity:1;" d="M 720.476562 19.933594 C 720.277344 24.378906 673.035156 27.640625 614.960938 27.214844 C 556.886719 26.789062 509.972656 22.839844 510.171875 18.390625 C 510.371094 13.945312 557.613281 10.683594 615.6875 11.109375 C 673.761719 11.535156 720.675781 15.484375 720.476562 19.933594 Z M 720.476562 19.933594 "/>
<path style=" stroke:none;fill-rule:nonzero;fill:rgb(57.254905%,12.156863%,18.039216%);fill-opacity:1;" d="M 258.832031 18.746094 C 258.84375 20.992188 229.226562 22.832031 192.679688 22.859375 C 156.132812 22.886719 126.5 21.089844 126.488281 18.84375 C 126.480469 16.597656 156.097656 14.757812 192.644531 14.730469 C 229.1875 14.703125 258.824219 16.5 258.832031 18.746094 Z M 258.832031 18.746094 "/>
<path style=" stroke:none;fill-rule:nonzero;fill:rgb(57.254905%,12.156863%,18.039216%);fill-opacity:1;" d="M 683.277344 18.746094 C 683.285156 20.992188 653.667969 22.832031 617.121094 22.859375 C 580.578125 22.886719 550.941406 21.089844 550.933594 18.84375 C 550.921875 16.597656 580.539062 14.757812 617.085938 14.730469 C 653.632812 14.703125 683.265625 16.5 683.277344 18.746094 Z M 683.277344 18.746094 "/>
</g>
</svg>
