<svg width="1052" height="1197" viewBox="0 0 1052 1197" fill="none" xmlns="http://www.w3.org/2000/svg">
<path d="M809.578 172.791C677.03 96.2646 563.854 132.039 527.597 172.791C527.597 172.791 426.933 324.04 338.933 396.04C293.864 432.915 233.433 479.54 233.433 479.54L338.933 1079.54C624.933 1077.14 926.021 603.54 952.887 407.572C958.786 364.54 953.448 255.854 809.578 172.791Z" fill="#FBA09F"/>
<path d="M586.67 201.877C648.375 166.008 859.207 172.628 895.841 380.377C862.691 308.605 765.711 182.695 614.118 225.341C699.819 232.721 806.627 264.686 859.788 371.817L844.73 375.216C740.583 253.661 658.261 259.337 658.261 259.337C634.897 262.212 671.318 279.127 730.249 313.151L649.359 453.256" stroke="#F4354C" stroke-width="16.6871"/>
<rect x="517.392" y="427.872" width="262" height="76" rx="6.44" transform="rotate(30 517.392 427.872)" fill="#921F2E"/>
<ellipse cx="617.814" cy="338.873" rx="55" ry="53.5" transform="rotate(30 617.814 338.873)" fill="white"/>
<ellipse cx="766.304" cy="419.738" rx="54.5" ry="53.5" transform="rotate(30 766.304 419.738)" fill="white"/>
<ellipse cx="610.51" cy="363.523" rx="24" ry="23.5" transform="rotate(30 610.51 363.523)" fill="#438DCE"/>
<ellipse cx="759.867" cy="444.889" rx="24.5" ry="23.5" transform="rotate(30 759.867 444.889)" fill="#438DCE"/>
<ellipse cx="610.509" cy="363.522" rx="11" ry="10.5" transform="rotate(30 610.509 363.522)" fill="#220E91"/>
<ellipse cx="759.434" cy="444.639" rx="11" ry="10.5" transform="rotate(30 759.434 444.639)" fill="#220E91"/>
<circle cx="616.174" cy="358.71" r="5.5" transform="rotate(30 616.174 358.71)" fill="white"/>
<circle cx="765.964" cy="440.327" r="5.5" transform="rotate(30 765.964 440.327)" fill="white"/>
<path d="M564.155 454.871L594.466 472.371L584.186 490.176C582.408 493.256 578.469 494.312 575.389 492.533L556.232 481.473C553.152 479.695 552.097 475.756 553.875 472.676L564.155 454.871Z" fill="#FDD30B"/>
<path d="M526.155 520.688L556.466 538.188L567.246 519.517C569.025 516.437 567.969 512.498 564.889 510.72L545.732 499.66C542.652 497.881 538.714 498.937 536.935 502.017L526.155 520.688Z" fill="white"/>
<path d="M531.248 435.872L561.559 453.372L551.279 471.177C549.501 474.257 545.562 475.313 542.482 473.534L523.325 462.474C520.245 460.696 519.19 456.757 520.968 453.677L531.248 435.872Z" fill="white"/>
<path d="M493.248 501.689L523.559 519.189L534.339 500.518C536.117 497.438 535.062 493.499 531.982 491.721L512.825 480.661C509.745 478.882 505.806 479.938 504.028 483.018L493.248 501.689Z" fill="white"/>
<path d="M596.198 473.371L628.241 491.871L617.961 509.676C616.183 512.756 612.244 513.812 609.164 512.033L588.275 499.973C585.195 498.195 584.14 494.256 585.918 491.176L596.198 473.371Z" fill="white"/>
<path d="M558.198 539.188L590.241 557.688L601.021 539.017C602.8 535.937 601.744 531.998 598.664 530.22L577.775 518.16C574.695 516.381 570.757 517.437 568.978 520.517L558.198 539.188Z" fill="white"/>
<path d="M629.973 492.871L661.15 510.871L650.87 528.676C649.092 531.756 645.153 532.812 642.073 531.033L622.05 519.473C618.97 517.695 617.915 513.756 619.693 510.676L629.973 492.871Z" fill="white"/>
<path d="M591.973 558.688L623.15 576.688L633.93 558.017C635.708 554.937 634.653 550.998 631.573 549.22L611.55 537.66C608.47 535.881 604.532 536.937 602.753 540.017L591.973 558.688Z" fill="white"/>
<path d="M662.882 511.871L694.059 529.871L683.779 547.676C682.001 550.756 678.062 551.812 674.982 550.033L654.96 538.473C651.879 536.695 650.824 532.756 652.602 529.676L662.882 511.871Z" fill="white"/>
<path d="M624.882 577.688L656.059 595.688L666.839 577.017C668.618 573.937 667.562 569.998 664.482 568.22L644.46 556.66C641.379 554.881 637.441 555.937 635.662 559.017L624.882 577.688Z" fill="white"/>
<path d="M695.791 530.871L726.102 548.371L715.822 566.176C714.044 569.256 710.105 570.312 707.025 568.533L687.868 557.473C684.788 555.695 683.733 551.756 685.511 548.676L695.791 530.871Z" fill="white"/>
<path d="M657.791 596.688L688.102 614.188L698.882 595.517C700.66 592.437 699.605 588.498 696.525 586.72L677.368 575.66C674.288 573.881 670.349 574.937 668.571 578.017L657.791 596.688Z" fill="white"/>
<rect x="606.94" y="428.765" width="102" height="14" transform="rotate(30 606.94 428.765)" fill="#D66170"/>
<rect x="513.772" y="592.04" width="88.5904" height="45.431" rx="6.44" transform="rotate(31.0018 513.772 592.04)" fill="#D66170"/>
<rect x="454.139" y="686.031" width="88.5904" height="46.5667" rx="6.44" transform="rotate(31.0018 454.139 686.031)" fill="#D66170"/>
<rect x="484.434" y="639.333" width="88.5904" height="46.5667" rx="6.44" transform="rotate(31.0018 484.434 639.333)" fill="#D66170"/>
<rect x="424.652" y="733.587" width="88.5904" height="46.5667" rx="6.44" transform="rotate(31.0018 424.652 733.587)" fill="#D66170"/>
<rect x="486.687" y="592.981" width="132.886" height="18.1724" rx="6.44" transform="rotate(31.0018 486.687 592.981)" fill="#D66170"/>
<rect x="426.462" y="687.941" width="132.886" height="18.1724" rx="6.44" transform="rotate(31.0018 426.462 687.941)" fill="#D66170"/>
<rect x="457.356" y="640.278" width="132.886" height="18.1724" rx="6.44" transform="rotate(31.0018 457.356 640.278)" fill="#D66170"/>
<rect x="396.975" y="735.498" width="132.886" height="18.1724" rx="6.44" transform="rotate(31.0018 396.975 735.498)" fill="#D66170"/>
<rect x="394.28" y="782.554" width="88.5904" height="46.5667" rx="6.44" transform="rotate(31.0018 394.28 782.554)" fill="#D66170"/>
<rect x="364.871" y="831.496" width="88.5904" height="46.5667" rx="6.44" transform="rotate(31.0018 364.871 831.496)" fill="#D66170"/>
<rect x="367.202" y="783.499" width="132.886" height="18.1724" rx="6.44" transform="rotate(31.0018 367.202 783.499)" fill="#D66170"/>
<rect x="337.792" y="832.44" width="132.886" height="18.1724" rx="6.44" transform="rotate(31.0018 337.792 832.44)" fill="#D66170"/>
</svg>
