<svg width="1280" height="792" viewBox="0 0 1280 792" fill="none" xmlns="http://www.w3.org/2000/svg">
<path d="M91 142.067C55.5 80.4973 5.98838 81.734 -44.1416 91.5065L-33 9.15525C87.2041 -13.6542 148 61.9287 161.5 96.6225L91 142.067Z" fill="white" stroke="#220E91"/>
<path d="M17.15 87.347L21.0058 69.8058L23.4856 70.2538L19.6299 87.795L17.15 87.347Z" fill="#220E91"/>
<path d="M28.8306 89.8023L35.1803 73.0022L37.5869 73.7497L31.2371 90.5498L28.8306 89.8023Z" fill="#220E91"/>
<path d="M49.1528 99.1438L59.9254 84.7732L62.0709 86.095L51.2984 100.466L49.1528 99.1438Z" fill="#220E91"/>
<path d="M58.6137 105.233L71.083 92.3074L73.0577 93.8729L60.5885 106.799L58.6137 105.233Z" fill="#220E91"/>
<path d="M75.2648 120.525L90.0392 110.314L91.6613 112.242L76.8868 122.454L75.2648 120.525Z" fill="#220E91"/>
<path d="M82.3833 129.295L97.8916 120.237L99.3515 122.291L83.8433 131.349L82.3833 129.295Z" fill="#220E91"/>
<path d="M155.599 83.3869L138.879 89.9455L137.794 87.6713L154.514 81.1128L155.599 83.3869Z" fill="#220E91"/>
<path d="M149.522 71.9065L133.667 80.3446L132.298 78.2294L148.152 69.7913L149.522 71.9065Z" fill="#220E91"/>
<path d="M142.085 61.1239L127.113 71.0441L125.532 69.0824L140.503 59.1621L142.085 61.1239Z" fill="#220E91"/>
<path d="M124.336 41.9728L111.328 54.3558L109.42 52.709L122.429 40.326L124.336 41.9728Z" fill="#220E91"/>
<path d="M113.977 33.4226L102.17 46.9563L100.122 45.488L111.929 31.9543L113.977 33.4226Z" fill="#220E91"/>
<path d="M102.96 25.8631L92.4104 40.3979L90.2462 39.107L100.796 24.5722L102.96 25.8631Z" fill="#220E91"/>
<path d="M91.0809 19.1381L81.9702 34.6157L79.7017 33.5184L88.8124 18.0408L91.0809 19.1381Z" fill="#220E91"/>
<path d="M65.2756 9.73334L59.2585 26.6554L56.8396 25.9486L62.8567 9.02653L65.2756 9.73334Z" fill="#220E91"/>
<path d="M52.0149 6.18873L47.5592 23.5872L45.0932 23.0683L49.5489 5.66974L52.0149 6.18873Z" fill="#220E91"/>
<path d="M38.498 3.6829L35.5775 21.4039L33.0803 21.0657L36.0008 3.34469L38.498 3.6829Z" fill="#220E91"/>
<path d="M24.8422 2.1782L23.3937 20.0797L20.8793 19.9125L22.3277 2.01101L24.8422 2.1782Z" fill="#220E91"/>
<path d="M130.369 49.8472L132.317 52.1561L68.9991 113.725L67.0507 111.416L130.369 49.8472Z" fill="#220E91"/>
<path d="M73.8086 15.6245L76.4985 16.9999L41.9918 95.6442L39.3019 94.2688L73.8086 15.6245Z" fill="#220E91"/>
<path d="M8.7207 2L11.7293 2.27475L8.99096 88.1126L5.98234 87.8379L8.7207 2Z" fill="#220E91"/>
<path d="M107.029 87.9184L122.823 75.5195L126.303 79.753L124.029 90.8418C123.663 92.7898 123.523 94.3405 123.608 95.4938C123.693 96.6471 124.074 97.6357 124.751 98.4598L125.005 98.7688C125.75 99.6752 126.582 100.141 127.5 100.166C128.435 100.212 129.363 99.8724 130.286 99.1479C131.335 98.3246 131.897 97.392 131.973 96.35C132.048 95.308 131.862 94.2844 131.416 93.2792L136.807 91.5887C137.165 92.5279 137.395 93.5001 137.496 94.5051C137.614 95.5307 137.541 96.5542 137.276 97.5755C136.99 98.6133 136.515 99.6305 135.85 100.627C135.202 101.644 134.291 102.614 133.116 103.536C131.921 104.474 130.715 105.149 129.501 105.561C128.286 105.972 127.116 106.144 125.992 106.078C124.867 106.012 123.807 105.708 122.811 105.168C121.832 104.649 120.962 103.926 120.2 102.999C119.455 102.092 118.926 101.134 118.615 100.125C118.299 99.1531 118.142 98.1233 118.146 97.036C118.129 95.9651 118.233 94.8324 118.459 93.6381C118.664 92.4602 118.922 91.2412 119.232 89.981L120.801 83.5131L110.229 91.812L107.029 87.9184ZM100.465 93.0708L107.543 116.798L114.654 111.216L111.428 107.291L115.424 104.155L121.749 111.849L105.954 124.248L102.652 120.231L95.4938 96.9733L100.465 93.0708Z" fill="#220E91"/>
<path d="M70.9744 55.2838L83.4133 39.5205L87.7903 42.8178L88.1856 54.1305C88.2877 56.11 88.5156 57.6502 88.8694 58.7512C89.2232 59.8522 89.8261 60.7236 90.678 61.3654L90.9975 61.6061C91.9347 62.3121 92.8523 62.5694 93.7504 62.3781C94.6698 62.2029 95.4929 61.6547 96.2197 60.7336C97.0457 59.6869 97.3728 58.6483 97.2012 57.6178C97.0295 56.5873 96.6085 55.6359 95.9383 54.7639L100.782 51.8537C101.35 52.6826 101.802 53.5735 102.137 54.5266C102.493 55.4957 102.662 56.5078 102.644 57.5627C102.61 58.6386 102.387 59.739 101.975 60.8638C101.584 62.0046 100.926 63.1612 100.001 64.3335C99.0598 65.5267 98.0469 66.466 96.9628 67.1513C95.8786 67.8366 94.7823 68.2791 93.6739 68.4788C92.5654 68.6785 91.4637 68.6329 90.3687 68.3421C89.295 68.0673 88.2789 67.5689 87.3205 66.8468C86.3833 66.1408 85.6446 65.334 85.1043 64.4263C84.5688 63.5556 84.175 62.5914 83.9229 61.5336C83.6543 60.4968 83.4896 59.3714 83.4288 58.1573C83.3515 56.9642 83.3155 55.7188 83.3207 54.421L83.3256 47.7656L75 58.3164L70.9744 55.2838ZM61.9529 65.9416C62.9936 64.6228 64.1293 63.5924 65.36 62.8506C66.5954 62.1457 67.8773 61.7263 69.2057 61.5921C70.5554 61.4741 71.9221 61.6358 73.3057 62.0773C74.6893 62.5188 76.052 63.245 77.3939 64.2558C78.9487 65.4272 80.2284 66.775 81.2329 68.2995C82.2587 69.8399 83.06 71.4282 83.6368 73.0644C84.2183 74.7375 84.606 76.398 84.7998 78.0461C84.9771 79.715 85.0135 81.2612 84.9092 82.6846L79.78 89.1846C79.8952 87.1018 79.9351 85.1792 79.8995 83.4167C79.8687 81.6912 79.7282 80.0833 79.4779 78.593C79.2323 77.1396 78.8475 75.7983 78.3233 74.5689C77.7826 73.3605 77.0599 72.232 76.1554 71.1834L75.8365 71.3938C76.1138 71.9032 76.3475 72.4463 76.5374 73.0233C76.7273 73.6003 76.8145 74.2 76.7988 74.8224C76.8044 75.4608 76.6966 76.1139 76.4753 76.7817C76.2375 77.4704 75.8378 78.1706 75.2761 78.8823C74.5493 79.8034 73.7016 80.5334 72.7331 81.0721C71.7859 81.6269 70.7804 81.9543 69.7167 82.0542C68.6578 82.1911 67.5702 82.1061 66.454 81.7992C65.3377 81.4923 64.2471 80.9378 63.1821 80.1355C62.0532 79.2851 61.1665 78.3 60.5219 77.1802C59.8773 76.0604 59.4927 74.8694 59.368 73.6072C59.248 72.382 59.4011 71.1121 59.8271 69.7975C60.2532 68.483 60.9618 67.1976 61.9529 65.9416ZM65.7157 68.7262C64.8237 69.8566 64.4446 70.9395 64.5784 71.975C64.7336 73.0264 65.3649 73.9693 66.4725 74.8037L66.9198 75.1407C68.0273 75.975 69.1082 76.3053 70.1623 76.1314C71.2212 75.9945 72.1884 75.3714 73.064 74.2619C73.9064 73.1942 74.269 72.1322 74.1517 71.0759C74.0557 70.0356 73.4539 69.0982 72.3463 68.2639L71.899 67.9269C70.7915 67.0925 69.7058 66.7253 68.6421 66.8252C67.5832 66.9621 66.6078 67.5957 65.7157 68.7262Z" fill="#220E91"/>
<path d="M18.5417 42.7374L21.3608 22.8563L26.8024 23.5038L32.8357 33.0815C33.9198 34.7408 34.8917 35.9572 35.7514 36.7307C36.611 37.5042 37.5705 37.954 38.6297 38.08L39.0269 38.1273C40.192 38.2659 41.1145 38.0266 41.7944 37.4095C42.5008 36.7955 42.9363 35.9076 43.101 34.7459C43.2882 33.4258 43.0484 32.3636 42.3816 31.5593C41.7147 30.7551 40.8723 30.1448 39.8543 29.7283L42.576 24.7765C43.4843 25.2068 44.3228 25.7495 45.0916 26.4048C45.8868 27.0632 46.5423 27.8527 47.058 28.7732C47.57 29.7201 47.9308 30.7833 48.1405 31.9627C48.3768 33.1452 48.39 34.4758 48.1804 35.9543C47.967 37.4593 47.5642 38.7806 46.9721 39.9183C46.3799 41.056 45.6551 41.99 44.7976 42.7203C43.9401 43.4505 42.965 43.9654 41.8724 44.265C40.8063 44.5677 39.6774 44.6482 38.4858 44.5064C37.3207 44.3678 36.2764 44.0421 35.3528 43.5295C34.4519 43.0465 33.6265 42.4113 32.8764 41.624C32.1227 40.8631 31.4141 39.9734 30.7508 38.9548C30.0836 37.9626 29.4259 36.9043 28.7775 35.7801L25.4333 30.026L23.5464 43.3329L18.5417 42.7374ZM37.8641 67.9758L39.6779 55.1838L30.9897 53.5057L30.9392 53.8621C31.5335 54.2281 32.0693 54.6275 32.5464 55.0601C33.0501 55.4959 33.4517 55.9867 33.7513 56.5325C34.0774 57.0814 34.2995 57.6985 34.4178 58.3837C34.536 59.069 34.5352 59.8341 34.4154 60.679C34.2545 61.8143 33.9042 62.86 33.3648 63.816C32.8216 64.7984 32.1117 65.6268 31.2352 66.3011C30.3815 67.005 29.3667 67.5152 28.1909 67.8317C27.0416 68.1513 25.7784 68.2292 24.4015 68.0654C22.9981 67.8984 21.7342 67.5064 20.61 66.8894C19.4858 66.2724 18.5523 65.4498 17.8095 64.4218C17.063 63.4201 16.5336 62.2161 16.2214 60.8097C15.9357 59.4064 15.9145 57.8467 16.1579 56.1306C16.3488 54.784 16.6648 53.6 17.1058 52.5786C17.5469 51.5572 18.0637 50.6655 18.6564 49.9038C19.2719 49.1716 19.9404 48.5396 20.662 48.008C21.4064 47.5059 22.1527 47.0846 22.9011 46.7441L25.7049 51.4673C25.1304 51.7212 24.5805 51.9913 24.0552 52.2778C23.5261 52.5908 23.0444 52.9496 22.61 53.3543C22.1984 53.7886 21.8474 54.2704 21.5569 54.7996C21.2892 55.3584 21.1029 56.0075 20.9981 56.7467C20.7884 58.2253 21.0284 59.3815 21.718 60.2152C22.4303 61.0786 23.4617 61.5906 24.8121 61.7513L25.1299 61.7891C26.4274 61.9435 27.5012 61.682 28.3512 61.0045C29.2012 60.327 29.7217 59.315 29.9126 57.9685C30.0698 56.8596 29.9758 55.9087 29.6305 55.1159C29.3079 54.3526 28.9609 53.761 28.5897 53.3409L29.9556 48.55L45.499 51.4465L43.0674 68.5949L37.8641 67.9758Z" fill="#220E91"/>
<path d="M344.502 579.966C188.502 507.646 1.00195 553.579 -32.998 611.239V698.332C133.723 577.246 247.74 640.637 314.206 669.025C535.502 763.544 664.62 701.66 758.502 659.126C827.002 628.091 862.959 615.113 942.502 613.682C1105.5 610.75 1247.54 720.336 1323 790.571L1330 659.103L1282.5 631.273L1225 596.58C1128.5 546.249 1059.13 521.036 974.002 517.419C905.002 514.487 886.502 517.419 810.002 537.453C777.792 545.889 753.502 553.06 693.002 584.852C540.502 664.989 435.502 618.08 344.502 579.966Z" fill="white"/>
<path d="M344.502 579.966C188.502 507.647 1.00195 553.579 -32.998 611.239V698.333C133.723 577.247 247.74 640.638 314.206 669.026C535.502 763.544 664.62 701.661 758.502 659.126C827.002 628.091 862.959 615.113 942.502 613.682C1105.5 610.751 1247.54 720.337 1323 790.572L1330 659.104L1282.5 631.274L1225 596.58C1128.5 546.249 1059.13 521.037 974.002 517.419C905.002 514.488 886.502 517.419 810.002 537.454C777.792 545.89 753.502 553.06 693.002 584.852C540.502 664.99 435.502 618.08 344.502 579.966Z" stroke="#220E91"/>
<path d="M2.78992 597.166L-5.77074 581.378L-3.533 580.219L5.02766 596.008L2.78992 597.166Z" fill="#220E91"/>
<path d="M13.8524 591.722L6.0979 575.522L8.38974 574.475L16.1442 590.674L13.8524 591.722Z" fill="#220E91"/>
<path d="M24.3019 587.159L17.2354 570.647L19.568 569.694L26.6345 586.205L24.3019 587.159Z" fill="#220E91"/>
<path d="M45.1265 579.407L39.2777 562.426L41.6715 561.639L47.5203 578.62L45.1265 579.407Z" fill="#220E91"/>
<path d="M56.4829 575.826L51.2211 558.654L53.6396 557.947L58.9015 575.118L56.4829 575.826Z" fill="#220E91"/>
<path d="M67.1596 572.826L62.4475 555.495L64.8866 554.861L69.5987 572.192L67.1596 572.826Z" fill="#220E91"/>
<path d="M78.683 569.965L74.5279 552.493L76.9853 551.934L81.1404 569.407L78.683 569.965Z" fill="#220E91"/>
<path d="M102.231 565.26L99.1766 547.561L101.663 547.152L104.718 564.85L102.231 565.26Z" fill="#220E91"/>
<path d="M114.066 563.444L111.556 545.661L114.053 545.324L116.563 563.108L114.066 563.444Z" fill="#220E91"/>
<path d="M124.463 562.14L122.462 544.292L124.968 544.023L126.969 561.872L124.463 562.14Z" fill="#220E91"/>
<path d="M137.44 560.898L136.008 542.995L138.521 542.803L139.953 560.706L137.44 560.898Z" fill="#220E91"/>
<path d="M160.678 559.709L160.322 541.752L162.842 541.704L163.198 559.661L160.678 559.709Z" fill="#220E91"/>
<path d="M170.729 559.6L170.877 541.64L173.397 541.66L173.249 559.62L170.729 559.6Z" fill="#220E91"/>
<path d="M183.379 559.826L184.092 541.88L186.61 541.976L185.897 559.922L183.379 559.826Z" fill="#220E91"/>
<path d="M194.137 560.324L195.373 542.407L197.888 542.572L196.651 560.49L194.137 560.324Z" fill="#220E91"/>
<path d="M218.95 562.587L221.311 544.782L223.811 545.099L221.45 562.903L218.95 562.587Z" fill="#220E91"/>
<path d="M230.666 564.196L233.573 546.473L236.063 546.863L233.156 564.586L230.666 564.196Z" fill="#220E91"/>
<path d="M240.293 565.778L243.697 548.144L246.175 548.601L242.771 566.235L240.293 565.778Z" fill="#220E91"/>
<path d="M252.553 568.156L256.514 550.638L258.977 551.17L255.016 568.688L252.553 568.156Z" fill="#220E91"/>
<path d="M275.44 573.674L280.468 556.432L282.895 557.109L277.868 574.35L275.44 573.674Z" fill="#220E91"/>
<path d="M286.032 576.716L291.568 559.63L293.975 560.375L288.44 577.461L286.032 576.716Z" fill="#220E91"/>
<path d="M296.838 579.173L302.88 562.26L305.265 563.074L299.223 579.987L296.838 579.173Z" fill="#220E91"/>
<path d="M307.852 583.027L314.399 566.303L316.76 567.185L310.212 583.909L307.852 583.027Z" fill="#220E91"/>
<path d="M330.45 592.086L338 575.79L340.304 576.809L332.755 593.105L330.45 592.086Z" fill="#220E91"/>
<path d="M342.009 597.341L350.051 581.283L352.325 582.37L344.282 598.429L342.009 597.341Z" fill="#220E91"/>
<path d="M353.82 602.274L360.421 585.571L362.779 586.461L356.177 603.164L353.82 602.274Z" fill="#220E91"/>
<path d="M365.916 607.803L372.458 591.076L374.818 591.958L368.277 608.684L365.916 607.803Z" fill="#220E91"/>
<path d="M388.308 616.048L394.62 599.233L396.993 600.084L390.68 616.898L388.308 616.048Z" fill="#220E91"/>
<path d="M400.29 620.295L406.411 603.411L408.793 604.235L402.671 621.12L400.29 620.295Z" fill="#220E91"/>
<path d="M411.729 624.198L417.609 607.228L420.001 608.019L414.122 624.99L411.729 624.198Z" fill="#220E91"/>
<path d="M422.679 627.757L428.261 610.686L430.667 611.438L425.084 628.508L422.679 627.757Z" fill="#220E91"/>
<path d="M446.344 634.68L451.095 617.359L453.532 617.998L448.782 635.318L446.344 634.68Z" fill="#220E91"/>
<path d="M457.638 637.531L461.868 620.077L464.324 620.645L460.093 638.1L457.638 637.531Z" fill="#220E91"/>
<path d="M470.17 640.283L473.77 622.688L476.244 623.171L472.643 640.766L470.17 640.283Z" fill="#220E91"/>
<path d="M482.531 642.532L485.429 624.807L487.919 625.196L485.021 642.92L482.531 642.532Z" fill="#220E91"/>
<path d="M507.165 644.506L508.47 626.594L510.984 626.769L509.679 644.681L507.165 644.506Z" fill="#220E91"/>
<path d="M519.669 645.169L520.111 627.215L522.63 627.274L522.188 645.229L519.669 645.169Z" fill="#220E91"/>
<path d="M532.453 646.222L532.011 628.268L534.53 628.208L534.973 646.163L532.453 646.222Z" fill="#220E91"/>
<path d="M544.056 645.767L542.78 627.852L545.294 627.681L546.57 645.596L544.056 645.767Z" fill="#220E91"/>
<path d="M557.726 644.584L555.572 626.754L558.075 626.465L560.229 644.296L557.726 644.584Z" fill="#220E91"/>
<path d="M568.73 643.152L565.83 625.427L568.32 625.038L571.219 642.763L568.73 643.152Z" fill="#220E91"/>
<path d="M581.989 640.86L578.325 623.278L580.797 622.786L584.46 640.369L581.989 640.86Z" fill="#220E91"/>
<path d="M595.262 639.202L590.924 621.774L593.376 621.191L597.714 638.619L595.262 639.202Z" fill="#220E91"/>
<path d="M606.502 636.378L601.576 619.107L604.007 618.445L608.933 635.716L606.502 636.378Z" fill="#220E91"/>
<path d="M629.274 629.543L623.328 612.596L625.717 611.795L631.664 628.742L629.274 629.543Z" fill="#220E91"/>
<path d="M641.8 625.564L635.415 608.777L637.784 607.917L644.168 624.704L641.8 625.564Z" fill="#220E91"/>
<path d="M654.041 620.991L647.252 604.364L649.6 603.448L656.388 620.076L654.041 620.991Z" fill="#220E91"/>
<path d="M665.065 616.594L657.934 600.11L660.263 599.148L667.394 615.631L665.065 616.594Z" fill="#220E91"/>
<path d="M686.088 607.088L678.374 590.869L680.668 589.827L688.382 606.046L686.088 607.088Z" fill="#220E91"/>
<path d="M697.028 602.045L689.066 585.946L691.345 584.869L699.306 600.968L697.028 602.045Z" fill="#220E91"/>
<path d="M707.989 596.295L700.091 580.165L702.374 579.097L710.271 595.228L707.989 596.295Z" fill="#220E91"/>
<path d="M719.184 590.124L711.426 573.926L713.718 572.877L721.476 589.076L719.184 590.124Z" fill="#220E91"/>
<path d="M741.002 580.393L733.625 564.018L735.94 563.022L743.317 579.397L741.002 580.393Z" fill="#220E91"/>
<path d="M751.566 574.933L744.423 558.455L746.751 557.491L753.895 573.969L751.566 574.933Z" fill="#220E91"/>
<path d="M762.458 570.498L755.581 553.906L757.924 552.979L764.801 569.57L762.458 570.498Z" fill="#220E91"/>
<path d="M773.684 566.137L767.105 549.426L769.464 548.539L776.042 565.251L773.684 566.137Z" fill="#220E91"/>
<path d="M795.283 559.385L789.365 542.428L791.755 541.631L797.674 558.588L795.283 559.385Z" fill="#220E91"/>
<path d="M807.544 555.414L802.016 538.326L804.423 537.582L809.952 554.67L807.544 555.414Z" fill="#220E91"/>
<path d="M818.204 553.192L813.059 535.985L815.482 535.293L820.627 552.5L818.204 553.192Z" fill="#220E91"/>
<path d="M829.179 550.154L824.442 532.83L826.88 532.194L831.617 549.518L829.179 550.154Z" fill="#220E91"/>
<path d="M852.133 544.665L848.282 527.123L850.749 526.606L854.599 544.148L852.133 544.665Z" fill="#220E91"/>
<path d="M864.149 541.291L860.775 523.65L863.254 523.197L866.628 540.838L864.149 541.291Z" fill="#220E91"/>
<path d="M874.339 539.512L871.415 521.791L873.905 521.399L876.828 539.12L874.339 539.512Z" fill="#220E91"/>
<path d="M887.093 537.631L884.682 519.834L887.181 519.511L889.592 537.308L887.093 537.631Z" fill="#220E91"/>
<path d="M909.198 534.277L907.761 516.375L910.273 516.182L911.71 534.084L909.198 534.277Z" fill="#220E91"/>
<path d="M920.794 533.483L919.86 515.548L922.377 515.423L923.31 533.358L920.794 533.483Z" fill="#220E91"/>
<path d="M932.773 533.968L932.351 516.013L934.871 515.956L935.292 533.911L932.773 533.968Z" fill="#220E91"/>
<path d="M945.156 533.806L945.254 515.846L947.774 515.859L947.676 533.819L945.156 533.806Z" fill="#220E91"/>
<path d="M968.655 534.454L969.751 516.527L972.266 516.674L971.171 534.6L968.655 534.454Z" fill="#220E91"/>
<path d="M979.721 535.187L981.291 517.296L983.802 517.506L982.232 535.398L979.721 535.187Z" fill="#220E91"/>
<path d="M991.174 535.257L993.217 517.414L995.723 517.688L993.679 535.531L991.174 535.257Z" fill="#220E91"/>
<path d="M1003.02 536.646L1005.53 518.863L1008.03 519.2L1005.52 536.983L1003.02 536.646Z" fill="#220E91"/>
<path d="M1027.93 540.563L1031.38 522.937L1033.86 523.4L1030.41 541.026L1027.93 540.563Z" fill="#220E91"/>
<path d="M1038.26 542.572L1042.12 525.031L1044.59 525.548L1040.73 543.09L1038.26 542.572Z" fill="#220E91"/>
<path d="M1048.96 544.888L1053.22 527.44L1055.67 528.012L1051.42 545.46L1048.96 544.888Z" fill="#220E91"/>
<path d="M1060.03 547.535L1064.68 530.188L1067.12 530.814L1062.47 548.161L1060.03 547.535Z" fill="#220E91"/>
<path d="M1071.46 550.536L1076.5 533.299L1078.93 533.977L1073.89 551.214L1071.46 550.536Z" fill="#220E91"/>
<path d="M1083.27 553.914L1088.69 536.793L1091.1 537.522L1085.68 554.644L1083.27 553.914Z" fill="#220E91"/>
<path d="M1095.45 557.693L1101.25 540.694L1103.64 541.474L1097.85 558.473L1095.45 557.693Z" fill="#220E91"/>
<path d="M1105.09 560.882L1111.21 543.996L1113.59 544.819L1107.47 561.706L1105.09 560.882Z" fill="#220E91"/>
<path d="M1118 565.448L1124.47 548.695L1126.84 549.567L1120.36 566.32L1118 565.448Z" fill="#220E91"/>
<path d="M1138.94 574.496L1146.02 557.989L1148.35 558.943L1141.27 575.451L1138.94 574.496Z" fill="#220E91"/>
<path d="M1149.89 579.046L1157.26 562.667L1159.58 563.661L1152.21 580.041L1149.89 579.046Z" fill="#220E91"/>
<path d="M1161.17 583.96L1168.82 567.711L1171.11 568.745L1163.46 584.994L1161.17 583.96Z" fill="#220E91"/>
<path d="M1172.75 589.253L1180.68 573.137L1182.96 574.209L1175.03 590.325L1172.75 589.253Z" fill="#220E91"/>
<path d="M1193.76 599.452L1202.18 583.588L1204.42 584.727L1196.01 600.591L1193.76 599.452Z" fill="#220E91"/>
<path d="M1203.12 604.246L1211.76 588.499L1213.99 589.669L1205.35 605.415L1203.12 604.246Z" fill="#220E91"/>
<path d="M1216 611.445L1225.51 596.212L1227.68 597.504L1218.16 612.736L1216 611.445Z" fill="#220E91"/>
<path d="M1226.19 617.524L1235.7 602.292L1237.87 603.583L1228.35 618.815L1226.19 617.524Z" fill="#220E91"/>
<path d="M1246.57 629.683L1256.09 614.451L1258.25 615.742L1248.73 630.974L1246.57 629.683Z" fill="#220E91"/>
<path d="M1256.76 635.762L1266.27 620.53L1268.44 621.821L1258.92 637.053L1256.76 635.762Z" fill="#220E91"/>
<path d="M1266.95 641.841L1276.46 626.609L1278.63 627.9L1269.11 643.133L1266.95 641.841Z" fill="#220E91"/>
<path d="M1277.61 648.203L1287.13 632.971L1289.29 634.262L1279.78 649.494L1277.61 648.203Z" fill="#220E91"/>
<path d="M1290.21 739.006L1278.48 752.608L1276.54 751.006L1288.26 737.404L1290.21 739.006Z" fill="#220E91"/>
<path d="M1280.91 731.429L1269.37 745.19L1267.4 743.614L1278.94 729.854L1280.91 731.429Z" fill="#220E91"/>
<path d="M1271.44 723.932L1260.1 737.858L1258.11 736.31L1269.46 722.385L1271.44 723.932Z" fill="#220E91"/>
<path d="M1262.04 716.699L1250.89 730.779L1248.88 729.259L1260.03 715.179L1262.04 716.699Z" fill="#220E91"/>
<path d="M1252.25 709.402L1241.33 723.66L1239.3 722.172L1250.22 707.914L1252.25 709.402Z" fill="#220E91"/>
<path d="M1242.54 702.384L1231.83 716.808L1229.78 715.351L1240.48 700.927L1242.54 702.384Z" fill="#220E91"/>
<path d="M1232.66 695.49L1222.19 710.083L1220.12 708.659L1230.58 694.065L1232.66 695.49Z" fill="#220E91"/>
<path d="M1222.65 688.732L1212.42 703.5L1210.32 702.11L1220.54 687.342L1222.65 688.732Z" fill="#220E91"/>
<path d="M1212.48 682.122L1202.52 697.068L1200.4 695.715L1210.36 680.769L1212.48 682.122Z" fill="#220E91"/>
<path d="M1191.73 669.396L1182.35 684.708L1180.17 683.434L1189.56 668.123L1191.73 669.396Z" fill="#220E91"/>
<path d="M1181.34 663.409L1172.22 678.886L1170.03 677.651L1179.14 662.174L1181.34 663.409Z" fill="#220E91"/>
<path d="M1170.62 657.504L1161.84 673.168L1159.61 671.979L1168.4 656.314L1170.62 657.504Z" fill="#220E91"/>
<path d="M1159.94 651.893L1151.47 667.726L1149.22 666.578L1157.7 650.746L1159.94 651.893Z" fill="#220E91"/>
<path d="M1138.02 641.218L1130.24 657.407L1127.95 656.356L1135.73 640.167L1138.02 641.218Z" fill="#220E91"/>
<path d="M1126.94 636.256L1119.52 652.611L1117.21 651.609L1124.63 635.254L1126.94 636.256Z" fill="#220E91"/>
<path d="M1115.73 631.532L1108.68 648.051L1106.34 647.099L1113.39 630.581L1115.73 631.532Z" fill="#220E91"/>
<path d="M1092.82 622.796L1086.62 639.652L1084.24 638.816L1090.44 621.961L1092.82 622.796Z" fill="#220E91"/>
<path d="M1081.26 618.859L1075.48 635.865L1073.08 635.088L1078.86 618.081L1081.26 618.859Z" fill="#220E91"/>
<path d="M1069.58 615.205L1064.25 632.356L1061.83 631.639L1067.16 614.488L1069.58 615.205Z" fill="#220E91"/>
<path d="M1045.92 608.789L1041.54 626.206L1039.09 625.616L1043.47 608.2L1045.92 608.789Z" fill="#220E91"/>
<path d="M1033.95 606.05L1030.07 623.584L1027.6 623.062L1031.49 605.528L1033.95 606.05Z" fill="#220E91"/>
<path d="M1021.97 603.652L1018.53 621.28L1016.05 620.819L1019.49 603.191L1021.97 603.652Z" fill="#220E91"/>
<path d="M997.659 599.831L995.298 617.635L992.798 617.319L995.159 599.514L997.659 599.831Z" fill="#220E91"/>
<path d="M985.424 598.442L983.625 616.311L981.116 616.07L982.915 598.2L985.424 598.442Z" fill="#220E91"/>
<path d="M973.19 597.417L971.893 615.331L969.379 615.157L970.676 597.244L973.19 597.417Z" fill="#220E91"/>
<path d="M948.594 596.446L948.405 614.405L945.885 614.38L946.074 596.421L948.594 596.446Z" fill="#220E91"/>
<path d="M936.257 596.51L936.673 614.465L934.153 614.521L933.737 596.565L936.257 596.51Z" fill="#220E91"/>
<path d="M923.967 596.946L924.918 614.881L922.402 615.008L921.45 597.074L923.967 596.946Z" fill="#220E91"/>
<path d="M899.405 598.925L901.517 616.76L899.013 617.044L896.901 599.208L899.405 598.925Z" fill="#220E91"/>
<path d="M887.204 600.465L889.86 618.227L887.366 618.583L884.709 600.821L887.204 600.465Z" fill="#220E91"/>
<path d="M875.054 602.366L878.254 620.038L875.771 620.468L872.571 602.795L875.054 602.366Z" fill="#220E91"/>
<path d="M850.948 607.234L855.228 624.677L852.774 625.251L848.495 607.809L850.948 607.234Z" fill="#220E91"/>
<path d="M839.107 610.168L843.843 627.492L841.405 628.129L836.668 610.804L839.107 610.168Z" fill="#220E91"/>
<path d="M827.257 613.457L832.521 630.628L830.102 631.336L824.839 614.165L827.257 613.457Z" fill="#220E91"/>
<path d="M815.491 617.079L821.274 634.082L818.877 634.861L813.094 617.857L815.491 617.079Z" fill="#220E91"/>
<path d="M792.381 626.218L799.103 642.872L796.752 643.779L790.03 627.124L792.381 626.218Z" fill="#220E91"/>
<path d="M781.071 630.723L788.214 647.202L785.886 648.166L778.742 631.687L781.071 630.723Z" fill="#220E91"/>
<path d="M769.882 635.513L777.437 651.806L775.133 652.827L767.578 636.533L769.882 635.513Z" fill="#220E91"/>
<path d="M746.108 645.699L754.173 661.746L751.901 662.837L743.836 646.789L746.108 645.699Z" fill="#220E91"/>
<path d="M735.382 650.814L743.34 666.915L741.061 667.991L733.103 651.89L735.382 650.814Z" fill="#220E91"/>
<path d="M724.683 655.809L732.471 671.992L730.181 673.045L722.393 656.861L724.683 655.809Z" fill="#220E91"/>
<path d="M713.923 660.672L721.478 676.966L719.174 677.986L711.619 661.692L713.923 660.672Z" fill="#220E91"/>
<path d="M692.238 669.841L699.174 686.407L696.834 687.343L689.898 670.776L692.238 669.841Z" fill="#220E91"/>
<path d="M681.289 674.091L687.851 690.81L685.491 691.694L678.93 674.976L681.289 674.091Z" fill="#220E91"/>
<path d="M670.255 678.093L676.397 694.97L674.017 695.798L667.875 678.921L670.255 678.093Z" fill="#220E91"/>
<path d="M659.159 681.814L664.871 698.841L662.471 699.61L656.759 682.583L659.159 681.814Z" fill="#220E91"/>
<path d="M647.971 685.249L653.218 702.425L650.799 703.131L645.552 685.955L647.971 685.249Z" fill="#220E91"/>
<path d="M625.355 691.197L629.611 708.645L627.156 709.217L622.901 691.768L625.355 691.197Z" fill="#220E91"/>
<path d="M613.936 693.689L617.632 711.265L615.161 711.761L611.465 694.185L613.936 693.689Z" fill="#220E91"/>
<path d="M602.453 695.845L605.609 713.526L603.125 713.949L599.969 696.269L602.453 695.845Z" fill="#220E91"/>
<path d="M590.899 697.663L593.542 715.427L591.047 715.782L588.404 698.017L590.899 697.663Z" fill="#220E91"/>
<path d="M579.315 699.138L581.381 716.979L578.876 717.256L576.81 699.415L579.315 699.138Z" fill="#220E91"/>
<path d="M556.012 701.058L556.986 718.992L554.469 719.122L553.495 701.189L556.012 701.058Z" fill="#220E91"/>
<path d="M544.332 701.506L544.747 719.461L542.228 719.516L541.812 701.561L544.332 701.506Z" fill="#220E91"/>
<path d="M532.645 701.619L532.498 719.578L529.978 719.558L530.125 701.599L532.645 701.619Z" fill="#220E91"/>
<path d="M520.936 701.397L520.276 719.345L517.758 719.256L518.418 701.308L520.936 701.397Z" fill="#220E91"/>
<path d="M509.235 700.85L508.062 718.772L505.546 718.615L506.72 700.693L509.235 700.85Z" fill="#220E91"/>
<path d="M497.554 699.989L495.87 717.87L493.36 717.644L495.044 699.763L497.554 699.989Z" fill="#220E91"/>
<path d="M474.25 697.345L471.608 715.11L469.113 714.755L471.755 696.991L474.25 697.345Z" fill="#220E91"/>
<path d="M462.644 695.582L459.556 713.274L457.07 712.86L460.158 695.167L462.644 695.582Z" fill="#220E91"/>
<path d="M451.079 693.539L447.552 711.15L445.077 710.676L448.604 693.066L451.079 693.539Z" fill="#220E91"/>
<path d="M439.564 691.224L435.653 708.753L433.189 708.228L437.099 690.699L439.564 691.224Z" fill="#220E91"/>
<path d="M428.092 688.653L423.757 706.082L421.306 705.5L425.64 688.071L428.092 688.653Z" fill="#220E91"/>
<path d="M405.332 682.772L400.267 700.003L397.841 699.322L402.906 682.091L405.332 682.772Z" fill="#220E91"/>
<path d="M394.035 680.46L388.616 697.583L386.204 696.854L391.622 679.731L394.035 680.46Z" fill="#220E91"/>
<path d="M382.791 676.948L377.028 693.958L374.63 693.183L380.394 676.173L382.791 676.948Z" fill="#220E91"/>
<path d="M371.596 673.221L365.495 690.113L363.113 689.292L369.213 672.399L371.596 673.221Z" fill="#220E91"/>
<path d="M349.419 665.175L342.711 681.836L340.359 680.931L347.066 664.271L349.419 665.175Z" fill="#220E91"/>
<path d="M338.451 660.879L331.471 677.427L329.133 676.485L336.113 659.937L338.451 660.879Z" fill="#220E91"/>
<path d="M327.538 656.402L320.292 672.836L317.97 671.858L325.215 655.424L327.538 656.402Z" fill="#220E91"/>
<path d="M315.077 651.05L307.542 667.353L305.236 666.335L312.772 650.032L315.077 651.05Z" fill="#220E91"/>
<path d="M304.214 646.226L296.632 662.508L294.33 661.484L301.911 645.202L304.214 646.226Z" fill="#220E91"/>
<path d="M282.019 636.597L274.883 653.078L272.554 652.115L279.691 635.634L282.019 636.597Z" fill="#220E91"/>
<path d="M270.671 632.023L263.952 648.679L261.601 647.773L268.319 631.117L270.671 632.023Z" fill="#220E91"/>
<path d="M259.224 627.755L252.981 644.595L250.606 643.754L256.848 626.914L259.224 627.755Z" fill="#220E91"/>
<path d="M235.719 620.244L230.705 637.489L228.277 636.815L233.291 619.569L235.719 620.244Z" fill="#220E91"/>
<path d="M223.69 617.114L219.421 634.559L216.967 633.986L221.236 616.54L223.69 617.114Z" fill="#220E91"/>
<path d="M211.581 614.489L208.038 632.096L205.563 631.621L209.106 614.014L211.581 614.489Z" fill="#220E91"/>
<path d="M186.921 610.792L185.063 628.655L182.555 628.406L184.413 610.543L186.921 610.792Z" fill="#220E91"/>
<path d="M174.501 609.789L173.474 627.72L170.958 627.582L171.985 609.652L174.501 609.789Z" fill="#220E91"/>
<path d="M162.026 610.341L161.864 628.3L159.344 628.279L159.506 610.319L162.026 610.341Z" fill="#220E91"/>
<path d="M137.048 611.242L138.685 629.127L136.175 629.346L134.538 611.461L137.048 611.242Z" fill="#220E91"/>
<path d="M124.646 612.561L127.133 630.348L124.635 630.681L122.148 612.894L124.646 612.561Z" fill="#220E91"/>
<path d="M112.36 614.435L115.631 632.094L113.15 632.533L109.878 614.874L112.36 614.435Z" fill="#220E91"/>
<path d="M88.1043 618.796L92.9184 636.099L90.483 636.746L85.6688 619.443L88.1043 618.796Z" fill="#220E91"/>
<path d="M76.1563 622.219L81.7181 639.296L79.3119 640.045L73.75 622.968L76.1563 622.219Z" fill="#220E91"/>
<path d="M64.4233 626.09L70.6513 642.936L68.2751 643.775L62.0471 626.929L64.4233 626.09Z" fill="#220E91"/>
<path d="M41.5044 635.085L48.9424 651.433L46.6312 652.437L39.1932 636.09L41.5044 635.085Z" fill="#220E91"/>
<path d="M30.3337 640.152L38.3159 656.241L36.0386 657.32L28.0564 641.231L30.3337 640.152Z" fill="#220E91"/>
<path d="M19.3088 645.585L27.813 661.404L25.5712 662.555L17.067 646.736L19.3088 645.585Z" fill="#220E91"/>
<path d="M8.5889 651.28L17.5433 666.848L15.3346 668.061L6.38021 652.493L8.5889 651.28Z" fill="#220E91"/>
<path d="M-2.17005 657.394L7.26246 672.678L5.09154 673.957L-4.34097 658.674L-2.17005 657.394Z" fill="#220E91"/>
<rect width="3.03991" height="97.2329" transform="matrix(0.827335 0.561708 -0.579387 0.815053 1246.34 609.233)" fill="#220E91"/>
<rect width="3.03748" height="97.3116" transform="matrix(0.806259 0.591562 -0.609202 0.793015 1298.89 644.257)" fill="#220E91"/>
<rect width="3.04291" height="96.7638" transform="matrix(0.852716 0.522374 -0.539891 0.841735 1190.89 579.139)" fill="#220E91"/>
<rect width="3.05026" height="97.2305" transform="matrix(0.911482 0.411339 -0.427215 0.90415 1136.17 554.016)" fill="#220E91"/>
<rect width="3.05733" height="97.1046" transform="matrix(0.964263 0.264949 -0.276473 0.961022 1076.01 533.544)" fill="#220E91"/>
<rect width="3.06105" height="96.9295" transform="matrix(0.99081 0.13526 -0.141495 0.989939 1017.71 521.817)" fill="#220E91"/>
<rect width="3.06237" height="96.7374" transform="matrix(0.999973 0.00737541 -0.00772217 0.99997 958.332 516.94)" fill="#220E91"/>
<path d="M895 518.354L898.028 517.908L914 614.659L910.972 615.106L895 518.354Z" fill="#220E91"/>
<path d="M836 530.337L838.977 529.635L867.477 620.309L864.5 621.011L836 530.337Z" fill="#220E91"/>
<path d="M779.003 546.738L781.919 545.823L809.819 637.245L806.904 638.16L779.003 546.738Z" fill="#220E91"/>
<rect width="3.051" height="96.4535" transform="matrix(0.91713 -0.398588 0.414174 0.910198 723 569.943)" fill="#220E91"/>
<rect width="3.05035" height="94.5213" transform="matrix(0.912151 -0.409854 0.425696 0.904866 668 596.364)" fill="#220E91"/>
<rect width="3.05731" height="92.6183" transform="matrix(0.964097 -0.26555 0.277096 0.960842 613 616.449)" fill="#220E91"/>
<rect width="3.06121" height="90.2525" transform="matrix(0.99191 -0.12694 0.132805 0.991142 555 627.752)" fill="#220E91"/>
<rect width="3.06034" height="90.5149" transform="matrix(0.985784 0.16802 -0.175681 0.984447 496.82 627.071)" fill="#220E91"/>
<rect width="3.05523" height="91.4836" transform="matrix(0.948927 0.315496 -0.328758 0.944414 439.078 615.637)" fill="#220E91"/>
<rect width="3.05493" height="93.8057" transform="matrix(0.946741 0.321997 -0.335467 0.942052 383.469 596.332)" fill="#220E91"/>
<rect width="3.04845" height="94.1427" transform="matrix(0.897426 0.441165 -0.457641 0.889137 326.098 572.146)" fill="#220E91"/>
<rect width="3.05584" height="90.2651" transform="matrix(0.953434 0.301602 -0.314409 0.949288 268.383 553.605)" fill="#220E91"/>
<rect width="3.06068" height="86.3914" transform="matrix(0.988176 0.153326 -0.160354 0.98706 207.855 544.294)" fill="#220E91"/>
<rect width="3.06068" height="86.3914" transform="matrix(0.999999 -0.00106926 -0.0060465 0.999982 147.521 542.003)" fill="#220E91"/>
<path d="M90.8103 550.004L87.0036 550.51L102.728 633.996L105.994 632.989L90.8103 550.004Z" fill="#220E91"/>
<path d="M32.0002 566.499L29 567.5L56.4996 647.5L59.5031 646.504L32.0002 566.499Z" fill="#220E91"/>
<path d="M1285.84 689.809L1289.89 692.458L1285.64 698.663L1301.31 708.91L1301.51 708.613L1298.49 699.854L1303.17 698.328L1306.76 708.657L1301.56 716.247L1282.25 703.613L1278.9 708.497L1274.85 705.848L1285.84 689.809Z" fill="#220E91"/>
<path d="M1231.4 665.499L1243.16 649.223L1247.67 652.335L1248.54 663.626C1248.72 665.6 1249.01 667.13 1249.41 668.215C1249.81 669.301 1250.45 670.147 1251.33 670.752L1251.66 670.98C1252.63 671.646 1253.55 671.865 1254.44 671.636C1255.35 671.422 1256.15 670.84 1256.84 669.889C1257.62 668.808 1257.9 667.756 1257.69 666.733C1257.47 665.711 1257.01 664.777 1256.31 663.934L1261.02 660.822C1261.62 661.627 1262.11 662.498 1262.49 663.437C1262.88 664.391 1263.1 665.395 1263.12 666.45C1263.13 667.527 1262.96 668.636 1262.59 669.778C1262.25 670.934 1261.64 672.118 1260.77 673.328C1259.88 674.56 1258.91 675.542 1257.85 676.272C1256.8 677.002 1255.72 677.491 1254.62 677.737C1253.52 677.983 1252.42 677.983 1251.32 677.739C1250.23 677.509 1249.2 677.053 1248.21 676.372C1247.24 675.705 1246.47 674.93 1245.89 674.045C1245.32 673.197 1244.89 672.25 1244.59 671.203C1244.28 670.178 1244.07 669.06 1243.96 667.85C1243.83 666.66 1243.74 665.417 1243.69 664.12L1243.42 657.467L1235.54 668.362L1231.4 665.499Z" fill="#220E91"/>
<path d="M1195.94 635.455C1195.08 636.741 1194.71 637.83 1194.82 638.722C1194.91 639.636 1195.32 640.323 1196.04 640.782L1196.27 640.933C1197.13 641.478 1197.99 641.62 1198.87 641.36C1199.76 641.135 1200.55 640.502 1201.25 639.46C1201.89 638.507 1202.24 637.451 1202.31 636.293C1202.38 635.172 1202.16 634.036 1201.65 632.885L1206.73 631.62C1207.02 632.437 1207.22 633.262 1207.34 634.095C1207.48 634.943 1207.5 635.796 1207.41 636.654C1207.34 637.527 1207.12 638.419 1206.77 639.332C1206.42 640.282 1205.91 641.266 1205.23 642.286C1204.38 643.55 1203.47 644.598 1202.5 645.431C1201.53 646.265 1200.52 646.857 1199.49 647.207C1198.46 647.594 1197.43 647.744 1196.4 647.655C1195.37 647.566 1194.38 647.22 1193.43 646.617C1192.69 646.144 1192.1 645.591 1191.66 644.96C1191.21 644.329 1190.91 643.659 1190.74 642.951C1190.55 642.265 1190.5 641.551 1190.58 640.81C1190.67 640.106 1190.86 639.408 1191.16 638.715L1190.96 638.586C1189.77 639.847 1188.37 640.635 1186.78 640.949C1185.2 641.299 1183.6 640.958 1181.99 639.925C1180.93 639.25 1180.12 638.419 1179.56 637.43C1178.99 636.464 1178.67 635.387 1178.6 634.202C1178.51 633.039 1178.67 631.784 1179.09 630.438C1179.52 629.129 1180.19 627.787 1181.11 626.412C1181.89 625.237 1182.71 624.274 1183.57 623.523C1184.41 622.794 1185.26 622.215 1186.13 621.786C1187.01 621.372 1187.89 621.082 1188.78 620.916C1189.66 620.787 1190.53 620.721 1191.36 620.717L1191.79 626.259C1190.49 626.152 1189.27 626.275 1188.13 626.627C1187.01 627.015 1186.01 627.852 1185.16 629.138C1184.35 630.335 1184.02 631.435 1184.15 632.436C1184.29 633.438 1184.85 634.254 1185.83 634.886L1186.07 635.037C1187.04 635.654 1188 635.747 1188.96 635.317C1189.95 634.901 1190.87 634.039 1191.75 632.731L1193.19 630.569L1197.41 633.26L1195.94 635.455Z" fill="#220E91"/>
<path d="M1127.63 606.269L1132.46 608.583L1138.09 597.354L1142.71 599.564L1153.46 617.035L1150.23 623.472L1134.07 615.736L1132.45 618.954L1128.27 616.951L1129.88 613.732L1125.05 611.418L1127.63 606.269ZM1140.11 603.684L1136.65 610.586L1147.22 615.646L1147.38 615.324L1140.11 603.684Z" fill="#220E91"/>
<path d="M1096.49 598.896L1101.37 586.933L1093.37 583.132L1093.24 583.465C1093.72 583.969 1094.14 584.49 1094.5 585.03C1094.88 585.579 1095.15 586.155 1095.31 586.76C1095.49 587.374 1095.55 588.029 1095.5 588.724C1095.45 589.418 1095.26 590.161 1094.94 590.951C1094.5 592.013 1093.91 592.94 1093.15 593.733C1092.39 594.551 1091.5 595.178 1090.49 595.613C1089.49 596.083 1088.38 596.324 1087.17 596.338C1085.98 596.361 1084.74 596.12 1083.44 595.617C1082.13 595.104 1081 594.408 1080.06 593.528C1079.13 592.648 1078.42 591.616 1077.96 590.432C1077.48 589.273 1077.26 587.972 1077.3 586.529C1077.37 585.096 1077.73 583.576 1078.38 581.971C1078.9 580.712 1079.49 579.642 1080.17 578.761C1080.84 577.879 1081.56 577.143 1082.32 576.552C1083.1 575.995 1083.9 575.549 1084.72 575.213C1085.57 574.912 1086.39 574.689 1087.2 574.546L1088.76 579.832C1088.14 579.934 1087.54 580.059 1086.96 580.206C1086.38 580.378 1085.82 580.605 1085.3 580.89C1084.8 581.208 1084.34 581.588 1083.93 582.029C1083.54 582.505 1083.2 583.088 1082.92 583.78C1082.35 585.162 1082.3 586.345 1082.77 587.326C1083.24 588.342 1084.12 589.097 1085.38 589.591L1085.68 589.707C1086.9 590.181 1088 590.196 1088.99 589.751C1089.98 589.306 1090.73 588.454 1091.24 587.194C1091.66 586.157 1091.81 585.211 1091.67 584.355C1091.54 583.533 1091.35 582.872 1091.09 582.372L1093.58 578.063L1107.91 584.76L1101.37 600.798L1096.49 598.896Z" fill="#220E91"/>
<path d="M1025 571.263C1025.4 569.631 1026 568.226 1026.82 567.047C1027.65 565.9 1028.64 564.995 1029.79 564.334C1030.97 563.679 1032.27 563.273 1033.71 563.118C1035.15 562.962 1036.69 563.076 1038.32 563.46C1040.22 563.904 1041.94 564.622 1043.48 565.614C1045.04 566.611 1046.43 567.744 1047.63 569.011C1048.85 570.31 1049.88 571.676 1050.74 573.11C1051.59 574.569 1052.26 575.972 1052.75 577.321L1050.78 585.362C1050.02 583.404 1049.27 581.624 1048.51 580.022C1047.77 578.452 1046.97 577.033 1046.13 575.768C1045.31 574.534 1044.41 573.459 1043.42 572.544C1042.43 571.655 1041.31 570.912 1040.06 570.317L1039.85 570.639C1040.32 570.994 1040.75 571.397 1041.16 571.85C1041.57 572.302 1041.9 572.817 1042.14 573.394C1042.41 573.978 1042.58 574.62 1042.66 575.323C1042.73 576.051 1042.65 576.855 1042.44 577.736C1042.16 578.875 1041.69 579.888 1041.03 580.775C1040.4 581.668 1039.62 582.375 1038.7 582.898C1037.79 583.453 1036.77 583.815 1035.63 583.986C1034.49 584.157 1033.27 584.09 1031.97 583.786C1030.6 583.463 1029.38 582.918 1028.34 582.152C1027.29 581.386 1026.45 580.45 1025.81 579.342C1025.2 578.267 1024.81 577.04 1024.66 575.661C1024.5 574.283 1024.62 572.817 1025 571.263ZM1029.56 572.293C1029.22 573.691 1029.32 574.838 1029.87 575.734C1030.45 576.635 1031.41 577.245 1032.76 577.561L1033.3 577.689C1034.65 578.006 1035.77 577.871 1036.66 577.284C1037.56 576.73 1038.18 575.766 1038.52 574.393C1038.85 573.073 1038.74 571.951 1038.19 571.03C1037.68 570.115 1036.74 569.499 1035.39 569.182L1034.85 569.054C1033.5 568.737 1032.36 568.84 1031.44 569.363C1030.53 569.918 1029.91 570.894 1029.56 572.293Z" fill="#220E91"/>
<path d="M973.352 559.196L995.538 570.56L996.276 561.55L991.211 561.154L991.626 556.091L1001.56 556.867L999.917 576.88L994.733 576.475L972.836 565.495L973.352 559.196Z" fill="#220E91"/>
<path d="M917.596 565.329C917.441 563.656 917.502 562.152 917.78 560.815C918.084 559.476 918.553 558.324 919.186 557.357C919.819 556.391 920.605 555.625 921.544 555.06C922.511 554.519 923.579 554.197 924.748 554.093C926.554 553.933 928.05 554.323 929.235 555.262C930.447 556.198 931.354 557.456 931.956 559.036L932.275 559.008C932.651 557.582 933.317 556.386 934.271 555.417C935.226 554.449 936.513 553.893 938.133 553.75C939.196 553.656 940.198 553.781 941.141 554.126C942.084 554.47 942.912 555.026 943.626 555.793C944.366 556.557 944.965 557.521 945.421 558.685C945.904 559.847 946.218 561.212 946.363 562.778C946.506 564.318 946.447 565.702 946.186 566.93C945.954 568.182 945.545 569.249 944.957 570.131C944.396 571.011 943.684 571.703 942.82 572.208C941.956 572.713 940.993 573.012 939.931 573.107C938.31 573.25 936.942 572.93 935.824 572.146C934.707 571.361 933.832 570.301 933.199 568.965L932.88 568.993C932.579 570.653 931.919 572.05 930.899 573.185C929.906 574.317 928.507 574.963 926.7 575.123C925.532 575.227 924.42 575.084 923.367 574.696C922.342 574.332 921.429 573.73 920.628 572.891C919.827 572.051 919.154 571 918.608 569.737C918.089 568.471 917.751 567.002 917.596 565.329ZM922.178 564.923C922.306 566.303 922.722 567.324 923.427 567.984C924.133 568.671 925.031 568.966 926.12 568.87L926.917 568.799C928.032 568.7 928.862 568.265 929.407 567.494C929.978 566.721 930.198 565.63 930.067 564.223C929.937 562.816 929.519 561.782 928.815 561.122C928.138 560.459 927.241 560.177 926.125 560.276L925.329 560.347C924.24 560.443 923.41 560.878 922.839 561.652C922.27 562.452 922.05 563.542 922.178 564.923ZM934.45 563.835C934.573 565.162 934.972 566.144 935.647 566.78C936.322 567.416 937.178 567.689 938.214 567.597L938.812 567.544C939.847 567.452 940.624 567.022 941.142 566.253C941.689 565.508 941.902 564.485 941.781 563.184C941.66 561.883 941.261 560.901 940.584 560.239C939.935 559.6 939.093 559.327 938.057 559.419L937.46 559.472C936.424 559.564 935.632 559.982 935.085 560.726C934.539 561.471 934.327 562.507 934.45 563.835Z" fill="#220E91"/>
<path d="M884.569 579.62C882.665 580.139 880.793 580.331 878.952 580.198C877.112 580.064 875.336 579.719 873.624 579.163C871.946 578.625 870.372 577.921 868.903 577.05C867.442 576.205 866.161 575.31 865.06 574.367L862.787 566.405C864.421 567.756 865.951 568.942 867.379 569.962C868.841 571.001 870.238 571.864 871.571 572.55C872.937 573.256 874.273 573.762 875.581 574.069C876.896 574.401 878.25 574.53 879.643 574.454L879.659 574.077C879.079 573.986 878.493 573.828 877.902 573.602C877.318 573.402 876.763 573.111 876.238 572.729C875.747 572.366 875.29 571.882 874.868 571.278C874.453 570.701 874.122 569.976 873.873 569.104C873.551 567.976 873.444 566.872 873.551 565.792C873.685 564.705 874.009 563.705 874.525 562.79C875.073 561.895 875.804 561.101 876.716 560.411C877.628 559.72 878.727 559.199 880.013 558.848C881.377 558.477 882.707 558.377 884.004 558.548C885.301 558.72 886.485 559.129 887.557 559.777C888.663 560.443 889.626 561.341 890.448 562.471C891.269 563.602 891.9 564.936 892.339 566.474C892.8 568.09 892.953 569.596 892.797 570.993C892.674 572.408 892.261 573.682 891.558 574.813C890.88 575.937 889.951 576.909 888.771 577.728C887.591 578.548 886.19 579.178 884.569 579.62ZM878.959 570.163C879.332 571.471 879.972 572.402 880.879 572.956C881.811 573.504 882.947 573.595 884.285 573.23L884.825 573.083C886.163 572.718 887.089 572.079 887.605 571.164C888.153 570.269 888.23 569.128 887.835 567.744C887.439 566.359 886.766 565.409 885.815 564.895C884.89 564.373 883.758 564.295 882.421 564.659L881.88 564.807C880.542 565.171 879.616 565.811 879.1 566.725C878.618 567.658 878.571 568.804 878.959 570.163Z" fill="#220E91"/>
<path d="M804.498 567.519L809.138 566.141L811.371 573.321L829.316 567.99L829.209 567.646L820.39 564.341L822.125 559.82L832.545 563.693L835.278 572.478L813.153 579.05L814.912 584.703L810.272 586.082L804.498 567.519ZM813.609 598.426C812.5 594.861 812.895 591.865 814.793 589.437C816.698 587.035 819.837 585.185 824.208 583.886C828.579 582.588 832.24 582.418 835.191 583.377C838.151 584.362 840.184 586.636 841.293 590.201C842.402 593.766 842.004 596.749 840.098 599.151C838.2 601.579 835.066 603.442 830.695 604.741C826.324 606.039 822.658 606.196 819.699 605.212C816.748 604.253 814.718 601.991 813.609 598.426ZM818.134 597.082C818.664 598.788 819.633 599.793 821.041 600.098C822.456 600.429 824.237 600.275 826.385 599.637L831.369 598.156C833.517 597.518 835.084 596.677 836.072 595.633C837.067 594.614 837.299 593.251 836.769 591.545C836.238 589.839 835.265 588.821 833.85 588.49C832.442 588.185 830.665 588.352 828.518 588.99L823.533 590.47C821.386 591.108 819.815 591.937 818.819 592.956C817.832 594 817.603 595.375 818.134 597.082ZM825.189 594.986C824.912 594.094 824.897 593.417 825.144 592.954C825.399 592.517 825.782 592.223 826.293 592.071L827.136 591.82C827.648 591.668 828.134 591.705 828.595 591.929C829.063 592.179 829.436 592.75 829.714 593.641C829.991 594.533 830.002 595.197 829.747 595.634C829.5 596.097 829.121 596.404 828.61 596.556L827.766 596.807C827.255 596.959 826.765 596.91 826.296 596.659C825.835 596.435 825.466 595.877 825.189 594.986Z" fill="#220E91"/>
<path d="M748.83 587.978L753.297 586.116L756.305 593.008L773.584 585.806L773.44 585.476L764.301 583.133L765.534 578.459L776.329 581.195L780.009 589.627L758.706 598.507L761.074 603.933L756.606 605.795L748.83 587.978ZM758.424 609.96L762.891 608.098L765.899 614.99L783.178 607.788L783.034 607.458L773.895 605.115L775.128 600.441L785.923 603.177L789.603 611.609L768.299 620.489L770.667 625.915L766.2 627.777L758.424 609.96Z" fill="#220E91"/>
<path d="M697.03 613.064L701.466 611.129L704.589 617.97L721.749 610.489L721.6 610.162L712.421 607.968L713.577 603.276L724.417 605.836L728.237 614.205L707.08 623.429L709.539 628.814L705.102 630.748L697.03 613.064ZM714.646 651.658L706.308 633.39L711.331 631.201L721.696 636.281C723.525 637.141 725.017 637.683 726.174 637.906C727.331 638.129 728.398 638.027 729.376 637.601L729.743 637.441C730.818 636.972 731.481 636.305 731.731 635.44C732.005 634.564 731.899 633.592 731.412 632.525C730.858 631.312 730.077 630.532 729.069 630.186C728.062 629.841 727.008 629.747 725.908 629.907L725.566 624.341C726.579 624.248 727.592 624.286 728.607 624.454C729.646 624.612 730.637 624.951 731.578 625.472C732.53 626.017 733.415 626.736 734.233 627.63C735.076 628.513 735.807 629.634 736.428 630.993C737.059 632.375 737.428 633.698 737.535 634.96C737.642 636.222 737.525 637.378 737.184 638.429C736.843 639.479 736.284 640.406 735.508 641.21C734.756 642.003 733.83 642.64 732.73 643.119C731.655 643.588 730.582 643.838 729.511 643.868C728.476 643.912 727.424 643.789 726.353 643.5C725.294 643.234 724.204 642.837 723.084 642.307C721.974 641.802 720.836 641.236 719.671 640.61L713.685 637.417L719.266 649.643L714.646 651.658Z" fill="#220E91"/>
<path d="M640.816 637.859L645.336 636.129L648.134 643.109L665.617 636.418L665.483 636.084L656.422 633.471L657.795 628.834L668.499 631.889L671.921 640.429L650.366 648.679L652.568 654.174L648.048 655.904L640.816 637.859ZM668.166 660.735C668.742 662.17 669.432 663.105 670.238 663.539C671.054 663.998 671.86 664.074 672.657 663.769L672.918 663.669C673.865 663.307 674.483 662.699 674.773 661.846C675.098 661.008 675.027 660.007 674.561 658.844C674.134 657.779 673.459 656.882 672.534 656.151C671.644 655.435 670.572 654.946 669.318 654.684L671.192 649.898C672.037 650.146 672.841 650.466 673.602 650.86C674.388 651.244 675.112 651.724 675.773 652.299C676.459 652.864 677.08 653.554 677.637 654.369C678.228 655.199 678.751 656.184 679.208 657.322C679.773 658.733 680.122 660.07 680.255 661.332C680.387 662.595 680.301 663.742 679.996 664.772C679.725 665.818 679.256 666.725 678.588 667.495C677.92 668.264 677.063 668.849 676.017 669.25C675.195 669.564 674.393 669.714 673.611 669.699C672.83 669.684 672.096 669.537 671.409 669.257C670.733 669.003 670.108 668.628 669.537 668.133C669 667.653 668.53 667.09 668.128 666.445L667.904 666.531C668.265 668.22 668.118 669.789 667.464 671.239C666.844 672.703 665.638 673.779 663.845 674.465C662.674 674.913 661.517 675.071 660.372 674.938C659.237 674.83 658.155 674.459 657.125 673.825C656.106 673.216 655.156 672.352 654.277 671.233C653.432 670.128 652.702 668.809 652.087 667.274C651.561 665.962 651.232 664.747 651.099 663.627C650.977 662.532 650.985 661.515 651.126 660.576C651.292 659.628 651.56 658.754 651.929 657.956C652.334 657.173 652.775 656.448 653.254 655.779L658.118 658.671C657.276 659.65 656.674 660.694 656.314 661.802C655.989 662.926 656.114 664.206 656.689 665.641C657.225 666.978 657.948 667.886 658.858 668.366C659.768 668.845 660.772 668.875 661.867 668.456L662.129 668.356C663.2 667.946 663.833 667.232 664.029 666.215C664.249 665.189 664.067 663.945 663.482 662.485L662.514 660.071L667.184 658.284L668.166 660.735Z" fill="#220E91"/>
<path d="M578.576 649.456L583.332 648.558L584.789 655.936L603.185 652.464L603.115 652.111L594.703 647.919L596.907 643.595L606.849 648.517L608.632 657.542L585.952 661.822L587.099 667.629L582.343 668.527L578.576 649.456ZM585.124 682.599L590.391 681.605L587.956 669.284L592.988 668.334L612.28 676.01L613.676 683.073L596.067 686.396L596.764 689.928L592.205 690.788L591.507 687.256L586.24 688.25L585.124 682.599ZM593.454 673.171L594.95 680.745L606.467 678.572L606.397 678.219L593.454 673.171Z" fill="#220E91"/>
<path d="M513.046 652.938L517.881 653.159L517.523 660.67L536.223 661.522L536.24 661.162L529.079 655.15L532.258 651.451L540.731 658.524L540.293 667.713L517.237 666.663L516.955 672.576L512.12 672.356L513.046 652.938ZM533.739 695.148L534.354 682.242L525.554 681.201L525.537 681.561C526.162 681.883 526.732 682.242 527.247 682.639C527.789 683.038 528.234 683.499 528.583 684.022C528.958 684.546 529.237 685.146 529.418 685.822C529.6 686.497 529.67 687.261 529.629 688.113C529.575 689.259 529.323 690.329 528.876 691.323C528.426 692.343 527.797 693.222 526.988 693.959C526.204 694.724 525.242 695.308 524.101 695.71C522.987 696.113 521.738 696.283 520.353 696.22C518.941 696.156 517.647 695.856 516.471 695.322C515.295 694.788 514.29 694.035 513.455 693.063C512.619 692.117 511.981 690.954 511.539 689.572C511.125 688.192 510.958 686.636 511.041 684.905C511.106 683.546 511.31 682.341 511.654 681.289C511.998 680.237 512.429 679.309 512.948 678.505C513.492 677.729 514.099 677.049 514.767 676.465C515.461 675.91 516.164 675.435 516.877 675.04L520.106 679.551C519.558 679.847 519.036 680.157 518.54 680.481C518.043 680.832 517.597 681.226 517.202 681.661C516.833 682.125 516.529 682.632 516.289 683.182C516.075 683.759 515.95 684.421 515.914 685.166C515.843 686.658 516.189 687.795 516.953 688.577C517.742 689.387 518.816 689.823 520.174 689.885L520.494 689.9C521.799 689.959 522.843 689.62 523.626 688.881C524.409 688.143 524.832 687.094 524.897 685.736C524.95 684.617 524.768 683.674 524.351 682.908C523.959 682.169 523.559 681.604 523.151 681.212L524.064 676.328L539.798 678.086L538.973 695.386L533.739 695.148Z" fill="#220E91"/>
<path d="M450.806 643.587L455.468 644.888L453.358 652.106L471.388 657.141L471.489 656.795L465.917 649.343L469.884 646.464L476.485 655.242L473.904 664.072L451.674 657.865L450.013 663.547L445.351 662.246L450.806 643.587ZM441.257 674.541C441.728 672.928 442.395 671.55 443.257 670.407C444.137 669.296 445.167 668.435 446.346 667.823C447.551 667.218 448.875 666.868 450.32 666.773C451.765 666.678 453.296 666.856 454.914 667.308C456.789 667.832 458.475 668.621 459.973 669.676C461.496 670.738 462.829 671.927 463.972 673.243C465.133 674.591 466.111 675.999 466.904 677.467C467.69 678.96 468.3 680.389 468.734 681.756L466.41 689.704C465.741 687.717 465.061 685.908 464.372 684.276C463.7 682.676 462.971 681.227 462.184 679.928C461.416 678.661 460.56 677.55 459.617 676.594C458.666 675.665 457.577 674.876 456.35 674.229L456.133 674.542C456.579 674.916 456.998 675.337 457.389 675.806C457.779 676.275 458.083 676.803 458.301 677.39C458.544 677.984 458.687 678.633 458.731 679.337C458.768 680.067 458.659 680.867 458.405 681.738C458.075 682.864 457.563 683.856 456.868 684.714C456.198 685.579 455.39 686.253 454.443 686.736C453.514 687.252 452.477 687.571 451.329 687.694C450.182 687.816 448.967 687.698 447.682 687.34C446.321 686.96 445.134 686.365 444.12 685.556C443.107 684.747 442.307 683.776 441.721 682.644C441.154 681.544 440.822 680.302 440.727 678.919C440.631 677.536 440.808 676.076 441.257 674.541ZM445.775 675.761C445.371 677.143 445.424 678.293 445.934 679.21C446.469 680.135 447.404 680.784 448.74 681.157L449.279 681.307C450.615 681.68 451.738 681.592 452.649 681.044C453.577 680.528 454.24 679.592 454.636 678.235C455.018 676.93 454.958 675.806 454.456 674.863C453.979 673.927 453.073 673.272 451.738 672.899L451.198 672.749C449.863 672.376 448.721 672.431 447.775 672.914C446.846 673.43 446.179 674.379 445.775 675.761Z" fill="#220E91"/>
<path d="M392.248 627.288L396.822 628.87L394.262 635.941L411.954 642.059L412.076 641.721L406.979 633.948L411.121 631.318L417.164 640.475L414.031 649.126L392.219 641.582L390.203 647.149L385.629 645.567L392.248 627.288ZM383.129 652.472L401.635 669.029L404.713 660.529L399.912 658.869L401.641 654.092L411.054 657.348L404.218 676.228L399.303 674.529L380.977 658.415L383.129 652.472Z" fill="#220E91"/>
<path d="M334.25 604.312L338.634 606.364L335.326 613.117L352.282 621.05L352.44 620.727L348.2 612.473L352.607 610.296L357.638 620.025L353.591 628.286L332.686 618.505L330.082 623.821L325.698 621.77L334.25 604.312ZM319.639 633.047C320.378 631.538 321.216 630.282 322.153 629.278C323.114 628.286 324.121 627.535 325.172 627.026C326.223 626.517 327.301 626.256 328.405 626.243C329.523 626.265 330.613 626.525 331.675 627.022C333.318 627.791 334.405 628.874 334.938 630.271C335.495 631.68 335.621 633.21 335.316 634.863L335.606 634.999C336.675 633.968 337.874 633.278 339.203 632.929C340.532 632.579 341.933 632.749 343.407 633.439C344.373 633.891 345.173 634.501 345.806 635.268C346.44 636.035 346.864 636.926 347.08 637.939C347.321 638.964 347.334 640.089 347.12 641.314C346.93 642.549 346.489 643.874 345.797 645.287C345.116 646.676 344.343 647.83 343.477 648.749C342.623 649.704 341.713 650.411 340.745 650.871C339.802 651.342 338.826 651.577 337.817 651.576C336.808 651.575 335.82 651.348 334.854 650.896C333.381 650.207 332.367 649.247 331.812 648.016C331.257 646.785 331.055 645.439 331.206 643.979L330.916 643.844C329.79 645.112 328.491 645.976 327.019 646.435C325.571 646.906 324.026 646.757 322.384 645.989C321.321 645.491 320.436 644.812 319.73 643.952C319.035 643.127 318.562 642.154 318.308 641.035C318.055 639.916 318.023 638.679 318.211 637.325C318.424 635.982 318.9 634.556 319.639 633.047ZM323.805 634.997C323.195 636.242 323.021 637.323 323.284 638.241C323.536 639.183 324.156 639.886 325.147 640.349L325.871 640.688C326.886 641.163 327.829 641.207 328.701 640.82C329.598 640.445 330.357 639.622 330.979 638.353C331.6 637.084 331.78 635.991 331.517 635.073C331.278 634.166 330.652 633.476 329.637 633.001L328.913 632.662C327.922 632.199 326.979 632.155 326.082 632.53C325.174 632.929 324.415 633.751 323.805 634.997ZM334.964 640.218C334.377 641.415 334.209 642.455 334.46 643.338C334.71 644.22 335.307 644.882 336.249 645.323L336.792 645.577C337.734 646.018 338.629 646.039 339.477 645.641C340.338 645.279 341.055 644.511 341.63 643.337C342.205 642.164 342.373 641.124 342.134 640.217C341.908 639.346 341.324 638.69 340.382 638.249L339.838 637.995C338.897 637.554 337.995 637.515 337.135 637.878C336.274 638.241 335.551 639.021 334.964 640.218Z" fill="#220E91"/>
<path d="M275.044 581.455L279.585 583.129L276.877 590.145L294.442 596.62L294.571 596.284L289.636 588.412L293.834 585.867L299.685 595.143L296.372 603.726L274.717 595.742L272.585 601.265L268.044 599.591L275.044 581.455ZM275.917 627.286C274.065 626.603 272.437 625.676 271.031 624.504C269.626 623.332 268.4 622.028 267.355 620.591C266.324 619.188 265.479 617.711 264.82 616.161C264.151 614.636 263.658 613.175 263.339 611.779L266.321 604.054C266.823 606.086 267.342 607.926 267.878 609.573C268.429 611.254 269.035 612.756 269.696 614.08C270.373 615.437 271.146 616.618 272.016 617.621C272.877 618.648 273.893 619.534 275.063 620.278L275.306 619.984C274.892 619.576 274.514 619.11 274.173 618.586C273.823 618.088 273.551 617.533 273.358 616.922C273.181 616.345 273.104 615.691 273.129 614.962C273.144 614.257 273.314 613.481 273.641 612.635C274.063 611.541 274.645 610.59 275.385 609.783C276.15 608.985 277.017 608.367 277.987 607.929C278.972 607.525 280.041 607.308 281.196 607.279C282.35 607.25 283.553 607.466 284.804 607.927C286.13 608.416 287.265 609.104 288.208 609.992C289.152 610.88 289.861 611.894 290.335 613.035C290.824 614.21 291.059 615.49 291.039 616.875C291.019 618.261 290.721 619.699 290.144 621.192C289.54 622.759 288.752 624.06 287.781 625.095C286.825 626.163 285.721 626.95 284.469 627.455C283.242 627.968 281.904 628.214 280.455 628.191C279.006 628.169 277.493 627.867 275.917 627.286ZM277.107 616.428C276.617 617.697 276.571 618.817 276.968 619.787C277.39 620.767 278.252 621.496 279.553 621.976L280.078 622.17C281.379 622.65 282.514 622.67 283.484 622.232C284.469 621.828 285.22 620.954 285.739 619.611C286.258 618.267 286.288 617.113 285.832 616.149C285.4 615.194 284.534 614.477 283.233 613.998L282.707 613.804C281.406 613.324 280.271 613.304 279.301 613.742C278.347 614.214 277.616 615.11 277.107 616.428Z" fill="#220E91"/>
<path d="M218.068 585.971L222.327 566.348L227.693 567.46L232.994 577.546C233.951 579.296 234.829 580.595 235.628 581.441C236.426 582.288 237.348 582.819 238.392 583.035L238.784 583.117C239.933 583.355 240.868 583.195 241.589 582.636C242.337 582.083 242.835 581.233 243.084 580.087C243.367 578.784 243.206 577.702 242.602 576.841C241.997 575.981 241.204 575.299 240.222 574.796L243.291 570.081C244.164 570.588 244.958 571.203 245.675 571.923C246.418 572.649 247.012 573.494 247.458 574.458C247.898 575.447 248.179 576.541 248.301 577.737C248.45 578.939 248.365 580.269 248.049 581.729C247.726 583.214 247.229 584.5 246.557 585.586C245.884 586.672 245.095 587.543 244.188 588.199C243.282 588.856 242.274 589.287 241.165 589.493C240.083 589.704 238.954 589.688 237.779 589.444C236.63 589.206 235.615 588.791 234.733 588.2C233.873 587.64 233.098 586.935 232.41 586.084C231.715 585.26 231.076 584.31 230.49 583.236C229.899 582.187 229.322 581.074 228.76 579.895L225.854 573.86L223.003 586.994L218.068 585.971ZM214.674 599.344C215.466 595.696 217.292 593.255 220.151 592.024C223.005 590.818 226.665 590.678 231.13 591.604C235.595 592.529 238.881 594.109 240.988 596.343C243.09 598.604 243.745 601.558 242.953 605.206C242.161 608.855 240.338 611.282 237.484 612.487C234.624 613.719 230.962 613.872 226.497 612.947C222.032 612.021 218.749 610.428 216.647 608.168C214.54 605.934 213.882 602.992 214.674 599.344ZM219.296 600.302C218.917 602.048 219.267 603.387 220.348 604.319C221.422 605.277 223.056 605.983 225.249 606.438L230.341 607.494C232.534 607.948 234.321 607.951 235.701 607.502C237.075 607.079 237.952 605.994 238.331 604.248C238.71 602.502 238.362 601.15 237.288 600.192C236.208 599.26 234.571 598.567 232.377 598.112L227.286 597.057C225.092 596.602 223.308 596.586 221.934 597.009C220.554 597.458 219.675 598.556 219.296 600.302ZM226.503 601.796C226.7 600.884 227.022 600.283 227.467 599.994C227.906 599.731 228.386 599.654 228.909 599.762L229.77 599.941C230.292 600.049 230.7 600.311 230.992 600.725C231.278 601.166 231.322 601.842 231.124 602.754C230.926 603.666 230.608 604.254 230.169 604.517C229.724 604.806 229.24 604.896 228.718 604.788L227.856 604.609C227.334 604.501 226.93 604.227 226.644 603.786C226.352 603.371 226.305 602.708 226.503 601.796Z" fill="#220E91"/>
<path d="M163.53 582.264L165.236 562.256L170.697 562.701L177.246 572.063C178.419 573.683 179.456 574.865 180.356 575.607C181.257 576.349 182.238 576.763 183.301 576.85L183.7 576.882C184.87 576.978 185.776 576.704 186.42 576.06C187.09 575.419 187.475 574.514 187.574 573.345C187.688 572.017 187.389 570.962 186.68 570.182C185.97 569.402 185.096 568.822 184.058 568.444L186.496 563.385C187.426 563.782 188.292 564.294 189.095 564.921C189.925 565.55 190.622 566.316 191.188 567.218C191.751 568.147 192.17 569.198 192.445 570.37C192.746 571.545 192.833 572.877 192.706 574.365C192.577 575.879 192.249 577.217 191.722 578.378C191.195 579.539 190.524 580.501 189.71 581.264C188.895 582.027 187.952 582.579 186.879 582.92C185.833 583.263 184.712 583.386 183.516 583.288C182.346 583.193 181.287 582.906 180.337 582.428C179.412 581.978 178.554 581.373 177.762 580.613C176.968 579.879 176.212 579.015 175.494 578.02C174.774 577.052 174.059 576.017 173.35 574.916L169.695 569.281L168.554 582.673L163.53 582.264ZM163.06 587.788L167.884 588.181L167.245 595.674L185.904 597.192L185.934 596.834L179.001 590.571L182.317 586.988L190.521 594.358L189.74 603.524L166.736 601.652L166.233 607.551L161.409 607.158L163.06 587.788Z" fill="#220E91"/>
<path d="M109.248 586.938L107.172 566.966L112.621 566.379L120.808 574.347C122.265 575.719 123.504 576.685 124.528 577.245C125.551 577.806 126.593 578.029 127.654 577.914L128.051 577.871C129.218 577.746 130.057 577.307 130.569 576.554C131.107 575.799 131.315 574.838 131.194 573.671C131.056 572.344 130.566 571.365 129.722 570.731C128.879 570.098 127.912 569.693 126.821 569.515L128.268 564.089C129.255 564.304 130.202 564.645 131.109 565.11C132.042 565.573 132.87 566.195 133.595 566.975C134.322 567.782 134.93 568.735 135.42 569.836C135.936 570.933 136.272 572.225 136.426 573.71C136.583 575.222 136.512 576.598 136.211 577.837C135.911 579.076 135.433 580.147 134.776 581.049C134.119 581.951 133.295 582.67 132.305 583.206C131.342 583.739 130.264 584.07 129.071 584.199C127.904 584.324 126.81 584.241 125.787 583.949C124.794 583.68 123.838 583.247 122.918 582.649C122 582.077 121.096 581.37 120.204 580.527C119.315 579.711 118.419 578.829 117.516 577.88L112.87 573.03L114.259 586.398L109.248 586.938ZM111.727 610.794L109.651 590.822L115.1 590.234L123.287 598.203C124.744 599.575 125.983 600.541 127.007 601.101C128.03 601.661 129.072 601.884 130.133 601.77L130.53 601.727C131.697 601.602 132.536 601.163 133.048 600.41C133.586 599.655 133.794 598.694 133.673 597.526C133.535 596.2 133.045 595.221 132.201 594.587C131.358 593.954 130.391 593.549 129.3 593.371L130.747 587.945C131.734 588.16 132.681 588.501 133.588 588.966C134.521 589.429 135.349 590.051 136.074 590.831C136.801 591.637 137.409 592.591 137.899 593.692C138.415 594.789 138.751 596.081 138.905 597.566C139.062 599.078 138.991 600.454 138.69 601.693C138.39 602.932 137.912 604.003 137.255 604.905C136.598 605.807 135.774 606.526 134.785 607.062C133.821 607.595 132.743 607.926 131.55 608.054C130.383 608.18 129.289 608.097 128.266 607.805C127.273 607.536 126.317 607.103 125.397 606.505C124.479 605.933 123.575 605.226 122.683 604.383C121.794 603.567 120.898 602.685 119.995 601.736L115.349 596.886L116.738 610.254L111.727 610.794Z" fill="#220E91"/>
<path d="M56.3525 601.151L50.2989 582.005L55.5176 580.333L65.1416 586.49C66.8442 587.541 68.2531 588.237 69.3683 588.58C70.4835 588.923 71.5491 588.932 72.5649 588.606L72.9458 588.484C74.0632 588.126 74.7967 587.527 75.1464 586.687C75.5215 585.839 75.5321 584.855 75.1784 583.737C74.7764 582.465 74.0987 581.604 73.1452 581.154C72.1916 580.703 71.1628 580.501 70.0585 580.547L70.3834 574.94C71.3941 574.953 72.3902 575.095 73.3717 575.369C74.3786 575.634 75.3154 576.076 76.1821 576.695C77.0569 577.339 77.8449 578.15 78.5461 579.13C79.2727 580.101 79.8612 581.298 80.3114 582.722C80.7696 584.172 80.9764 585.533 80.9319 586.808C80.8873 588.082 80.6341 589.227 80.1723 590.243C79.7104 591.259 79.0486 592.129 78.1868 592.853C77.3504 593.569 76.3609 594.11 75.2181 594.477C74.1007 594.835 73.0119 594.973 71.9517 594.893C70.9249 594.83 69.9007 594.598 68.879 594.197C67.8654 593.822 66.8369 593.311 65.7937 592.666C64.7585 592.045 63.7032 591.361 62.6278 590.614L57.1004 586.798L61.1522 599.613L56.3525 601.151ZM76.2578 608.114C76.724 609.589 77.341 610.567 78.1088 611.049C78.8845 611.557 79.6787 611.68 80.4914 611.42L80.758 611.334C81.723 611.025 82.3804 610.451 82.7301 609.611C83.1132 608.788 83.1158 607.779 82.7379 606.584C82.3923 605.491 81.7873 604.55 80.9231 603.763C80.0924 602.993 79.0646 602.44 77.8397 602.105L80.0463 597.408C80.8674 597.705 81.641 598.073 82.3673 598.512C83.1189 598.943 83.8018 599.467 84.4158 600.082C85.0553 600.689 85.6213 601.418 86.1139 602.268C86.6399 603.136 87.0878 604.154 87.4576 605.324C87.9159 606.773 88.1648 608.135 88.2045 609.411C88.2442 610.686 88.0752 611.832 87.6976 612.849C87.3534 613.884 86.8219 614.768 86.1032 615.502C85.3845 616.237 84.4918 616.775 83.4252 617.116C82.5872 617.385 81.7811 617.489 81.007 617.429C80.2329 617.369 79.5155 617.179 78.8548 616.858C78.2022 616.563 77.6104 616.151 77.0792 615.621C76.5816 615.109 76.1567 614.517 75.8046 613.845L75.576 613.919C75.8112 615.635 75.5516 617.203 74.7973 618.62C74.0764 620.055 72.8017 621.066 70.9732 621.652C69.7797 622.034 68.62 622.125 67.4942 621.926C66.3764 621.752 65.33 621.317 64.3549 620.622C63.3878 619.951 62.5088 619.029 61.7179 617.854C60.9604 616.697 60.3324 615.33 59.834 613.754C59.4079 612.406 59.1697 611.166 59.1195 610.034C59.0772 608.928 59.1601 607.907 59.368 606.973C59.6013 606.03 59.9302 605.168 60.3548 604.388C60.8128 603.625 61.3036 602.922 61.8272 602.278L66.4417 605.462C65.5347 606.397 64.8622 607.41 64.4245 608.503C64.0202 609.612 64.0512 610.904 64.5175 612.379C64.9516 613.752 65.6027 614.706 66.4707 615.24C67.3387 615.774 68.3314 615.862 69.4488 615.504L69.7155 615.418C70.8075 615.068 71.4875 614.388 71.7555 613.378C72.0489 612.36 71.9584 611.101 71.4841 609.601L70.7003 607.122L75.4619 605.597L76.2578 608.114Z" fill="#220E91"/>
<path d="M2.36717 622.993L-5.75733 604.63L-0.754386 602.393L9.48892 607.454C11.2968 608.31 12.7739 608.848 13.9201 609.066C15.0662 609.284 16.1262 609.175 17.1 608.74L17.4652 608.576C18.5364 608.098 19.1995 607.421 19.4546 606.548C19.734 605.664 19.6363 604.685 19.1616 603.612C18.6221 602.393 17.8537 601.612 16.8564 601.269C15.8591 600.926 14.8141 600.838 13.7217 601.005L13.4274 595.397C14.4333 595.298 15.4391 595.33 16.4447 595.494C17.4747 595.647 18.4544 595.983 19.384 596.502C20.3243 597.046 21.1969 597.766 22.0017 598.662C22.8308 599.548 23.5475 600.673 24.1517 602.039C24.7667 603.429 25.1222 604.76 25.2182 606.031C25.3142 607.303 25.1886 608.469 24.8414 609.529C24.4942 610.59 23.9322 611.528 23.1554 612.342C22.4029 613.146 21.4789 613.793 20.3833 614.282C19.3122 614.761 18.2452 615.019 17.1826 615.056C16.1551 615.106 15.1116 614.988 14.052 614.703C13.0033 614.441 11.9249 614.047 10.8169 613.52C9.71968 613.017 8.59551 612.453 7.44436 611.829L1.53051 608.645L6.96842 620.936L2.36717 622.993ZM8.57561 637.025L13.469 634.838L8.38714 623.352L13.0614 621.262L33.4824 624.314L36.3956 630.899L20.0356 638.212L21.4922 641.504L17.2561 643.397L15.7995 640.105L10.9062 642.292L8.57561 637.025ZM14.5815 625.884L17.7051 632.944L28.4048 628.161L28.2592 627.832L14.5815 625.884Z" fill="#220E91"/>
<path d="M1151.5 445.1C1208.5 348.348 1250.25 363.704 1300.47 373.034L1288.57 290.784C1168.16 269.037 1088.68 367.776 1075.5 402.588L1151.5 445.1Z" fill="white" stroke="#220E91"/>
<path d="M1274.34 368.814L1276.41 350.973L1273.9 350.738L1271.84 368.578L1274.34 368.814Z" fill="#220E91"/>
<path d="M1262.5 368.021L1262.85 350.065L1260.33 350.027L1259.98 367.984L1262.5 368.021Z" fill="#220E91"/>
<path d="M1239.14 369.415L1235.13 351.909L1232.65 352.379L1236.67 369.885L1239.14 369.415Z" fill="#220E91"/>
<path d="M1227.49 371.973L1220.98 355.23L1218.58 355.999L1225.09 372.742L1227.49 371.973Z" fill="#220E91"/>
<path d="M1207.25 381.494L1196.35 367.219L1194.21 368.56L1205.12 382.835L1207.25 381.494Z" fill="#220E91"/>
<path d="M1197.85 387.667L1185.26 374.852L1183.3 376.435L1195.89 389.25L1197.85 387.667Z" fill="#220E91"/>
<path d="M1181.34 403.105L1166.47 393.025L1164.86 394.967L1179.73 405.048L1181.34 403.105Z" fill="#220E91"/>
<path d="M1166.13 423.342L1151.27 413.261L1149.66 415.204L1164.53 425.285L1166.13 423.342Z" fill="#220E91"/>
<path d="M1174.3 411.938L1158.71 403.016L1157.27 405.083L1172.86 414.004L1174.3 411.938Z" fill="#220E91"/>
<path d="M1159.1 432.174L1143.5 423.253L1142.06 425.32L1157.66 434.241L1159.1 432.174Z" fill="#220E91"/>
<path d="M1097.77 366.557L1114.02 374.224L1115.26 372.03L1099.01 364.364L1097.77 366.557Z" fill="#220E91"/>
<path d="M1089.87 375.883L1106.11 383.549L1107.35 381.356L1091.11 373.689L1089.87 375.883Z" fill="#220E91"/>
<path d="M1082.87 386.633L1099.11 394.299L1100.35 392.106L1084.11 384.439L1082.87 386.633Z" fill="#220E91"/>
<path d="M1104.63 355.503L1119.88 364.992L1121.39 362.976L1106.14 353.488L1104.63 355.503Z" fill="#220E91"/>
<path d="M1112.8 345.236L1127.07 356.149L1128.78 354.3L1114.51 343.387L1112.8 345.236Z" fill="#220E91"/>
<path d="M1131.54 324.989L1144.67 337.257L1146.56 335.593L1133.44 323.326L1131.54 324.989Z" fill="#220E91"/>
<path d="M1141.82 316.348L1153.75 329.777L1155.79 328.291L1143.86 314.862L1141.82 316.348Z" fill="#220E91"/>
<path d="M1152.77 308.691L1163.45 323.132L1165.61 321.822L1154.92 307.381L1152.77 308.691Z" fill="#220E91"/>
<path d="M1164.59 301.862L1173.84 317.258L1176.1 316.141L1166.85 300.744L1164.59 301.862Z" fill="#220E91"/>
<path d="M1190.3 292.23L1196.48 309.098L1198.89 308.37L1192.72 291.502L1190.3 292.23Z" fill="#220E91"/>
<path d="M1203.53 288.569L1208.15 305.927L1210.61 305.386L1205.99 288.028L1203.53 288.569Z" fill="#220E91"/>
<path d="M1217.02 285.944L1220.11 303.638L1222.6 303.278L1219.52 285.583L1217.02 285.944Z" fill="#220E91"/>
<path d="M1230.67 284.318L1232.28 302.206L1234.79 302.017L1233.18 284.129L1230.67 284.318Z" fill="#220E91"/>
<path d="M1257.99 283.817L1256.95 301.746L1259.47 301.863L1260.51 283.933L1257.99 283.817Z" fill="#220E91"/>
<path d="M1271.57 284.789L1269.31 302.605L1271.82 302.863L1274.08 285.047L1271.57 284.789Z" fill="#220E91"/>
<path d="M1181.11 298.085L1178.37 299.419L1214.11 377.29L1216.85 375.956L1181.11 298.085Z" fill="#220E91"/>
<path d="M1247.16 286.752L1244.11 287.032L1248.76 372.258L1251.81 371.979L1247.16 286.752Z" fill="#220E91"/>
<path d="M1125.58 332.917L1123.65 335.243L1187.54 396.251L1189.46 393.925L1125.58 332.917Z" fill="#220E91"/>
<path d="M1257.17 324.388L1257.02 304.309L1262.5 304.269L1269.88 313.015C1271.2 314.526 1272.34 315.611 1273.31 316.271C1274.27 316.93 1275.29 317.256 1276.36 317.248L1276.76 317.245C1277.93 317.237 1278.81 316.884 1279.39 316.186C1280 315.488 1280.3 314.553 1280.29 313.38C1280.28 312.046 1279.88 311.023 1279.1 310.308C1278.32 309.594 1277.4 309.094 1276.33 308.808L1278.29 303.554C1279.25 303.867 1280.16 304.3 1281.02 304.854C1281.91 305.408 1282.67 306.109 1283.32 306.957C1283.96 307.833 1284.48 308.842 1284.86 309.986C1285.27 311.13 1285.48 312.448 1285.49 313.942C1285.5 315.462 1285.3 316.823 1284.88 318.026C1284.47 319.229 1283.89 320.247 1283.15 321.079C1282.41 321.911 1281.52 322.544 1280.48 322.978C1279.47 323.413 1278.37 323.634 1277.17 323.643C1275.99 323.651 1274.91 323.459 1273.92 323.066C1272.96 322.7 1272.05 322.173 1271.19 321.486C1270.33 320.826 1269.5 320.032 1268.69 319.104C1267.88 318.203 1267.08 317.236 1266.27 316.202L1262.11 310.912L1262.21 324.352L1257.17 324.388ZM1256.8 338.176C1256.78 336.496 1256.97 335.001 1257.36 333.692C1257.78 332.382 1258.34 331.271 1259.06 330.359C1259.77 329.447 1260.62 328.748 1261.6 328.26C1262.61 327.8 1263.7 327.565 1264.87 327.557C1266.69 327.543 1268.15 328.053 1269.25 329.085C1270.37 330.117 1271.17 331.444 1271.64 333.068L1271.96 333.065C1272.45 331.675 1273.22 330.536 1274.25 329.648C1275.28 328.761 1276.61 328.311 1278.24 328.299C1279.31 328.292 1280.3 328.498 1281.21 328.918C1282.12 329.338 1282.89 329.959 1283.54 330.781C1284.21 331.603 1284.73 332.612 1285.08 333.81C1285.47 335.007 1285.66 336.392 1285.67 337.965C1285.69 339.512 1285.51 340.887 1285.15 342.089C1284.81 343.319 1284.31 344.349 1283.65 345.18C1283.02 346.012 1282.25 346.644 1281.34 347.077C1280.44 347.51 1279.46 347.731 1278.39 347.739C1276.76 347.751 1275.43 347.32 1274.38 346.448C1273.33 345.576 1272.55 344.448 1272.03 343.065L1271.71 343.067C1271.27 344.697 1270.5 346.036 1269.38 347.084C1268.3 348.132 1266.85 348.663 1265.04 348.676C1263.86 348.685 1262.77 348.453 1261.75 347.98C1260.76 347.534 1259.9 346.86 1259.17 345.959C1258.45 345.057 1257.87 343.955 1257.43 342.651C1257.02 341.348 1256.81 339.856 1256.8 338.176ZM1261.4 338.142C1261.41 339.529 1261.73 340.58 1262.38 341.295C1263.02 342.037 1263.89 342.404 1264.99 342.396L1265.79 342.39C1266.91 342.382 1267.77 342.016 1268.38 341.291C1269.01 340.567 1269.33 339.498 1269.32 338.085C1269.3 336.671 1268.98 335.607 1268.33 334.892C1267.71 334.176 1266.84 333.822 1265.72 333.831L1264.92 333.836C1263.83 333.844 1262.97 334.211 1262.33 334.935C1261.7 335.687 1261.38 336.756 1261.4 338.142ZM1273.71 338.053C1273.73 339.386 1274.04 340.397 1274.66 341.086C1275.28 341.775 1276.11 342.115 1277.15 342.108L1277.75 342.103C1278.79 342.096 1279.6 341.73 1280.18 341.006C1280.79 340.308 1281.08 339.306 1281.07 337.999C1281.06 336.692 1280.75 335.681 1280.13 334.966C1279.54 334.277 1278.72 333.936 1277.68 333.944L1277.08 333.948C1276.04 333.955 1275.22 334.308 1274.61 335.006C1274 335.704 1273.7 336.719 1273.71 338.053Z" fill="#220E91"/>
<path d="M1209.53 332.269L1202.21 313.567L1207.35 311.65L1217.41 317.286C1219.19 318.244 1220.65 318.866 1221.79 319.151C1222.93 319.436 1224 319.392 1225 319.019L1225.38 318.879C1226.48 318.469 1227.17 317.838 1227.47 316.987C1227.79 316.127 1227.74 315.15 1227.31 314.058C1226.83 312.816 1226.09 311.995 1225.1 311.595C1224.12 311.195 1223.07 311.045 1221.97 311.145L1221.93 305.565C1222.95 305.527 1223.96 305.62 1224.96 305.843C1225.99 306.056 1226.96 306.449 1227.87 307.02C1228.79 307.615 1229.63 308.382 1230.4 309.319C1231.19 310.247 1231.86 311.407 1232.4 312.798C1232.96 314.213 1233.25 315.554 1233.29 316.821C1233.33 318.088 1233.15 319.237 1232.75 320.268C1232.35 321.299 1231.74 322.196 1230.92 322.957C1230.13 323.709 1229.17 324.294 1228.04 324.714C1226.94 325.125 1225.86 325.316 1224.79 325.289C1223.75 325.277 1222.71 325.097 1221.66 324.75C1220.62 324.428 1219.55 323.972 1218.46 323.382C1217.38 322.818 1216.28 322.191 1215.15 321.502L1209.35 317.989L1214.25 330.506L1209.53 332.269ZM1234.59 348.809C1232.74 349.499 1230.89 349.862 1229.04 349.897C1227.2 349.932 1225.39 349.752 1223.63 349.355C1221.91 348.974 1220.28 348.417 1218.73 347.685C1217.19 346.978 1215.83 346.206 1214.65 345.368L1211.63 337.656C1213.39 338.851 1215.02 339.89 1216.54 340.774C1218.1 341.674 1219.57 342.405 1220.97 342.966C1222.39 343.543 1223.77 343.924 1225.11 344.11C1226.45 344.32 1227.81 344.324 1229.19 344.122L1229.17 343.744C1228.58 343.707 1227.99 343.604 1227.37 343.433C1226.77 343.288 1226.19 343.049 1225.63 342.717C1225.11 342.4 1224.61 341.961 1224.13 341.399C1223.66 340.862 1223.27 340.172 1222.94 339.327C1222.51 338.235 1222.3 337.146 1222.3 336.063C1222.33 334.97 1222.56 333.945 1222.99 332.988C1223.45 332.047 1224.11 331.191 1224.95 330.421C1225.79 329.65 1226.84 329.032 1228.09 328.565C1229.41 328.071 1230.73 327.85 1232.04 327.902C1233.35 327.954 1234.57 328.253 1235.7 328.799C1236.86 329.361 1237.9 330.166 1238.83 331.215C1239.76 332.264 1240.51 333.534 1241.09 335.024C1241.7 336.588 1242 338.072 1241.97 339.476C1241.98 340.895 1241.69 342.199 1241.1 343.389C1240.53 344.569 1239.7 345.621 1238.6 346.543C1237.5 347.466 1236.16 348.221 1234.59 348.809ZM1228.1 339.916C1228.6 341.183 1229.32 342.05 1230.28 342.519C1231.26 342.978 1232.4 342.965 1233.7 342.48L1234.23 342.284C1235.52 341.799 1236.39 341.078 1236.82 340.121C1237.28 339.18 1237.25 338.039 1236.72 336.698C1236.2 335.357 1235.44 334.474 1234.44 334.049C1233.47 333.615 1232.33 333.64 1231.04 334.125L1230.51 334.321C1229.21 334.806 1228.35 335.527 1227.92 336.484C1227.53 337.456 1227.59 338.6 1228.1 339.916Z" fill="#220E91"/>
<path d="M1170.79 336.7C1171.7 337.955 1172.59 338.697 1173.48 338.927C1174.38 339.178 1175.19 339.062 1175.89 338.578L1176.12 338.419C1176.96 337.845 1177.41 337.11 1177.49 336.215C1177.61 335.326 1177.3 334.374 1176.56 333.357C1175.89 332.427 1175.02 331.717 1173.95 331.227C1172.91 330.744 1171.75 330.524 1170.46 330.566L1171.14 325.488C1172.02 325.527 1172.88 325.648 1173.72 325.85C1174.58 326.036 1175.39 326.33 1176.18 326.73C1176.98 327.116 1177.75 327.638 1178.49 328.295C1179.26 328.96 1180.01 329.79 1180.72 330.785C1181.61 332.018 1182.27 333.23 1182.71 334.422C1183.14 335.614 1183.33 336.745 1183.28 337.815C1183.26 338.892 1183.03 339.882 1182.56 340.785C1182.09 341.689 1181.4 342.458 1180.48 343.093C1179.75 343.592 1179.01 343.927 1178.24 344.097C1177.48 344.267 1176.73 344.298 1175.99 344.189C1175.27 344.102 1174.57 343.887 1173.9 343.542C1173.26 343.205 1172.67 342.771 1172.12 342.24L1171.92 342.377C1172.68 343.927 1172.91 345.482 1172.62 347.041C1172.37 348.606 1171.46 349.933 1169.87 351.022C1168.84 351.732 1167.75 352.159 1166.61 352.301C1165.47 352.464 1164.33 352.36 1163.18 351.99C1162.04 351.641 1160.91 351.028 1159.78 350.152C1158.69 349.282 1157.67 348.176 1156.7 346.835C1155.88 345.688 1155.26 344.588 1154.87 343.535C1154.48 342.503 1154.25 341.516 1154.16 340.573C1154.09 339.615 1154.15 338.706 1154.31 337.845C1154.52 336.991 1154.78 336.184 1155.08 335.423L1160.51 337.075C1159.93 338.223 1159.59 339.376 1159.51 340.535C1159.46 341.7 1159.89 342.91 1160.79 344.165C1161.63 345.333 1162.55 346.042 1163.56 346.292C1164.56 346.541 1165.54 346.333 1166.51 345.668L1166.74 345.509C1167.68 344.859 1168.13 344.018 1168.08 342.987C1168.04 341.94 1167.57 340.779 1166.65 339.502L1165.13 337.393L1169.25 334.558L1170.79 336.7ZM1171.15 366.877C1168.96 363.848 1168.39 360.891 1169.43 358.005C1170.49 355.141 1172.9 352.416 1176.66 349.83C1180.41 347.245 1183.85 345.948 1186.96 345.94C1190.09 345.953 1192.75 347.474 1194.93 350.502C1197.12 353.531 1197.68 356.478 1196.62 359.342C1195.58 362.228 1193.18 364.963 1189.42 367.549C1185.67 370.134 1182.22 371.42 1179.09 371.407C1175.98 371.416 1173.33 369.905 1171.15 366.877ZM1175.03 364.201C1176.08 365.65 1177.32 366.301 1178.76 366.153C1180.21 366.026 1181.86 365.328 1183.7 364.058L1187.99 361.11C1189.83 359.839 1191.06 358.557 1191.67 357.262C1192.3 355.989 1192.09 354.628 1191.05 353.179C1190 351.729 1188.75 351.068 1187.3 351.194C1185.86 351.342 1184.22 352.051 1182.38 353.321L1178.09 356.27C1176.25 357.54 1175.01 358.811 1174.38 360.084C1173.77 361.379 1173.99 362.751 1175.03 364.201ZM1181.1 360.028C1180.55 359.27 1180.32 358.635 1180.41 358.12C1180.52 357.627 1180.79 357.229 1181.23 356.927L1181.95 356.428C1182.39 356.126 1182.87 356.009 1183.38 356.079C1183.9 356.17 1184.44 356.594 1184.98 357.351C1185.53 358.109 1185.75 358.734 1185.65 359.227C1185.56 359.741 1185.29 360.15 1184.85 360.452L1184.13 360.951C1183.69 361.253 1183.21 361.359 1182.68 361.268C1182.17 361.198 1181.64 360.785 1181.1 360.028Z" fill="#220E91"/>
<path d="M1125.19 381.566C1126.43 382.503 1127.5 382.952 1128.42 382.913C1129.35 382.89 1130.09 382.545 1130.62 381.878L1130.8 381.659C1131.43 380.867 1131.65 380.031 1131.46 379.152C1131.32 378.269 1130.74 377.448 1129.75 376.689C1128.83 375.994 1127.79 375.569 1126.62 375.414C1125.49 375.255 1124.31 375.382 1123.09 375.796L1122.26 370.742C1123.12 370.523 1123.98 370.388 1124.84 370.338C1125.71 370.267 1126.58 370.309 1127.45 370.464C1128.33 370.599 1129.22 370.874 1130.11 371.288C1131.05 371.698 1132 372.275 1132.98 373.018C1134.19 373.938 1135.17 374.905 1135.93 375.919C1136.69 376.934 1137.2 377.96 1137.47 378.998C1137.77 380.031 1137.83 381.048 1137.65 382.048C1137.46 383.047 1137.02 383.985 1136.32 384.861C1135.78 385.549 1135.16 386.086 1134.48 386.472C1133.8 386.857 1133.09 387.105 1132.35 387.215C1131.64 387.341 1130.91 387.338 1130.16 387.206C1129.45 387.068 1128.76 386.826 1128.08 386.478L1127.93 386.665C1129.11 387.928 1129.78 389.347 1129.96 390.923C1130.17 392.493 1129.68 394.029 1128.49 395.53C1127.71 396.511 1126.79 397.235 1125.73 397.705C1124.7 398.19 1123.57 398.424 1122.36 398.406C1121.17 398.404 1119.91 398.147 1118.58 397.636C1117.28 397.121 1115.98 396.362 1114.66 395.361C1113.54 394.505 1112.63 393.631 1111.94 392.739C1111.28 391.864 1110.77 390.988 1110.41 390.112C1110.06 389.215 1109.85 388.331 1109.76 387.459C1109.71 386.582 1109.72 385.735 1109.79 384.919L1115.47 384.918C1115.24 386.186 1115.26 387.386 1115.51 388.519C1115.81 389.648 1116.57 390.68 1117.8 391.617C1118.94 392.489 1120.03 392.899 1121.06 392.846C1122.09 392.793 1122.98 392.307 1123.71 391.39L1123.88 391.171C1124.6 390.274 1124.78 389.34 1124.43 388.369C1124.09 387.378 1123.3 386.405 1122.05 385.452L1119.98 383.878L1123.09 379.967L1125.19 381.566ZM1128.06 404.957L1131.08 401.172L1137.06 405.726L1148.73 391.087L1148.44 390.869L1139.29 393.247L1138.1 388.575L1148.9 385.739L1156.22 391.311L1141.84 409.36L1146.55 412.946L1143.53 416.731L1128.06 404.957Z" fill="#220E91"/>
</svg>
