<svg width="1202" height="615" viewBox="0 0 1202 615" fill="none" xmlns="http://www.w3.org/2000/svg">
<rect width="22.0504" height="82.0768" transform="matrix(-0.997141 -0.07556 0.079091 -0.996867 662.898 173.127)" fill="white"/>
<rect width="22.0504" height="164.983" transform="matrix(-0.997141 -0.07556 0.079091 -0.996867 138.689 174.975)" fill="white"/>
<rect width="22.0504" height="117.726" transform="matrix(-0.997141 -0.07556 0.079091 -0.996867 23.3643 148.776)" fill="white"/>
<rect width="429.982" height="113.581" rx="5.08923" transform="matrix(-0.997141 -0.07556 0.079091 -0.996867 558.482 181.011)" fill="white"/>
<path d="M565.988 83.5045L559.499 165.291L653.437 152.962L656.859 109.838L565.988 83.5045Z" fill="white"/>
<path d="M564.671 97.7178L560.624 148.733L643.387 142.874L645.521 115.975L564.671 97.7178Z" fill="#220E91"/>
<path d="M663.197 110.546L659.874 152.423L793.887 152.621L795.639 130.539L663.197 110.546Z" fill="white"/>
<path d="M137.464 50.9993L130.972 132.819L15.8047 104.636L19.2275 61.4952L137.464 50.9993Z" fill="white"/>
<path d="M452.13 133.037L453.941 133.154L453.751 135.967L460.756 136.421L460.765 136.286L458.125 133.981L459.345 132.617L462.469 135.329L462.236 138.771L453.599 138.212L453.449 140.427L451.637 140.31L452.13 133.037Z" fill="#220E91"/>
<path d="M375.249 135.002L375.758 127.49L377.809 127.623L380.325 131.092C380.776 131.692 381.172 132.129 381.514 132.402C381.857 132.674 382.227 132.823 382.627 132.849L382.776 132.859C383.215 132.887 383.554 132.779 383.791 132.534C384.038 132.289 384.176 131.947 384.206 131.508C384.24 131.01 384.121 130.616 383.85 130.328C383.579 130.04 383.247 129.828 382.856 129.693L383.737 127.781C384.088 127.924 384.416 128.11 384.721 128.34C385.036 128.571 385.303 128.854 385.521 129.189C385.738 129.533 385.902 129.925 386.013 130.363C386.133 130.801 386.175 131.3 386.137 131.859C386.098 132.428 385.984 132.931 385.794 133.37C385.604 133.808 385.359 134.173 385.058 134.465C384.758 134.756 384.408 134.969 384.008 135.103C383.618 135.238 383.198 135.291 382.749 135.262C382.31 135.234 381.911 135.133 381.552 134.959C381.202 134.796 380.876 134.575 380.574 134.295C380.272 134.025 379.983 133.705 379.707 133.337C379.431 132.978 379.156 132.595 378.883 132.186L377.476 130.096L377.135 135.124L375.249 135.002Z" fill="#220E91"/>
<path d="M337.65 123.533L338.159 116.021L340.21 116.154L342.726 119.623C343.176 120.223 343.573 120.66 343.915 120.933C344.258 121.205 344.628 121.354 345.028 121.38L345.177 121.39C345.616 121.418 345.954 121.31 346.192 121.065C346.439 120.82 346.577 120.478 346.607 120.04C346.641 119.541 346.522 119.147 346.251 118.859C345.98 118.571 345.648 118.359 345.256 118.224L346.138 116.312C346.489 116.455 346.817 116.641 347.122 116.871C347.437 117.102 347.704 117.385 347.922 117.72C348.139 118.064 348.303 118.456 348.413 118.894C348.534 119.333 348.575 119.831 348.538 120.39C348.499 120.959 348.385 121.462 348.195 121.901C348.005 122.339 347.759 122.704 347.459 122.996C347.159 123.287 346.808 123.5 346.408 123.634C346.018 123.769 345.599 123.822 345.15 123.793C344.711 123.765 344.312 123.664 343.952 123.49C343.603 123.327 343.277 123.106 342.975 122.826C342.673 122.556 342.384 122.236 342.108 121.868C341.831 121.509 341.557 121.126 341.284 120.717L339.877 118.627L339.536 123.655L337.65 123.533ZM337.121 128.679C337.159 128.12 337.306 127.724 337.562 127.49C337.828 127.267 338.131 127.166 338.47 127.188L338.994 127.222C339.333 127.244 339.614 127.382 339.838 127.637C340.07 127.903 340.168 128.315 340.13 128.874C340.092 129.432 339.94 129.823 339.674 130.047C339.418 130.28 339.12 130.386 338.781 130.364L338.257 130.331C337.918 130.309 337.632 130.165 337.399 129.899C337.176 129.644 337.083 129.238 337.121 128.679ZM344.952 141.58L345.28 136.746L341.988 136.293L341.979 136.427C342.211 136.553 342.422 136.692 342.612 136.844C342.812 136.997 342.975 137.173 343.102 137.372C343.239 137.571 343.339 137.798 343.402 138.053C343.465 138.307 343.486 138.594 343.464 138.913C343.435 139.342 343.333 139.742 343.157 140.111C342.981 140.49 342.739 140.815 342.43 141.086C342.13 141.367 341.765 141.579 341.334 141.722C340.914 141.865 340.444 141.92 339.925 141.886C339.396 141.852 338.913 141.73 338.476 141.522C338.039 141.313 337.668 141.024 337.362 140.653C337.056 140.293 336.825 139.852 336.67 139.331C336.525 138.81 336.474 138.226 336.518 137.577C336.553 137.068 336.638 136.618 336.775 136.226C336.912 135.834 337.081 135.489 337.281 135.192C337.491 134.905 337.724 134.654 337.979 134.44C338.243 134.237 338.51 134.064 338.781 133.921L339.957 135.635C339.75 135.742 339.552 135.855 339.363 135.973C339.174 136.101 339.004 136.245 338.853 136.406C338.711 136.577 338.593 136.765 338.499 136.969C338.414 137.184 338.362 137.431 338.343 137.71C338.306 138.269 338.427 138.698 338.707 138.996C338.997 139.306 339.396 139.477 339.905 139.51L340.025 139.518C340.514 139.549 340.908 139.429 341.207 139.158C341.506 138.887 341.673 138.497 341.707 137.988C341.736 137.569 341.675 137.214 341.524 136.924C341.383 136.644 341.237 136.43 341.086 136.28L341.466 134.455L347.352 135.227L346.913 141.707L344.952 141.58Z" fill="#220E91"/>
<path d="M267.837 114.789C267.798 115.367 267.879 115.793 268.081 116.067C268.282 116.351 268.543 116.503 268.862 116.523L268.967 116.53C269.346 116.555 269.654 116.444 269.891 116.199C270.138 115.965 270.277 115.613 270.308 115.144C270.338 114.715 270.255 114.304 270.061 113.91C269.877 113.528 269.594 113.194 269.212 112.909L270.626 111.572C270.872 111.788 271.091 112.023 271.285 112.276C271.488 112.53 271.655 112.806 271.785 113.105C271.925 113.405 272.023 113.737 272.078 114.101C272.143 114.476 272.16 114.893 272.129 115.352C272.09 115.921 271.99 116.43 271.83 116.881C271.669 117.331 271.453 117.708 271.182 118.011C270.92 118.325 270.613 118.561 270.262 118.718C269.91 118.876 269.525 118.941 269.106 118.914C268.777 118.893 268.481 118.818 268.219 118.691C267.957 118.564 267.733 118.399 267.546 118.197C267.358 118.004 267.208 117.779 267.095 117.521C266.992 117.274 266.925 117.009 266.894 116.727L266.804 116.721C266.651 117.352 266.346 117.864 265.888 118.255C265.44 118.657 264.856 118.835 264.138 118.788C263.669 118.758 263.252 118.63 262.886 118.406C262.519 118.192 262.214 117.897 261.969 117.52C261.723 117.154 261.542 116.711 261.427 116.193C261.321 115.685 261.289 115.122 261.331 114.503C261.367 113.974 261.453 113.509 261.591 113.107C261.728 112.715 261.896 112.37 262.097 112.073C262.308 111.776 262.54 111.52 262.795 111.306C263.06 111.103 263.327 110.925 263.598 110.772L264.773 112.516C264.329 112.718 263.955 112.979 263.653 113.3C263.36 113.632 263.193 114.087 263.154 114.666C263.118 115.205 263.214 115.627 263.444 115.932C263.674 116.238 264.009 116.405 264.448 116.433L264.553 116.44C264.982 116.468 265.312 116.324 265.544 116.008C265.786 115.693 265.927 115.241 265.967 114.653L266.033 113.68L267.904 113.801L267.837 114.789ZM260.705 123.746C260.743 123.187 260.89 122.791 261.146 122.557C261.412 122.333 261.714 122.233 262.054 122.255L262.578 122.289C262.917 122.311 263.198 122.449 263.422 122.704C263.654 122.969 263.752 123.382 263.714 123.94C263.676 124.499 263.524 124.89 263.258 125.113C263.002 125.347 262.704 125.453 262.365 125.431L261.841 125.397C261.502 125.375 261.216 125.232 260.983 124.966C260.76 124.711 260.667 124.304 260.705 123.746ZM268.536 136.647L268.864 131.813L265.572 131.36L265.563 131.494C265.795 131.619 266.006 131.758 266.196 131.911C266.396 132.064 266.559 132.24 266.686 132.439C266.823 132.638 266.923 132.865 266.986 133.119C267.049 133.374 267.07 133.661 267.048 133.98C267.019 134.409 266.917 134.808 266.741 135.178C266.565 135.557 266.323 135.882 266.014 136.153C265.714 136.434 265.349 136.646 264.918 136.788C264.498 136.932 264.028 136.986 263.509 136.953C262.98 136.919 262.497 136.797 262.06 136.588C261.623 136.38 261.252 136.09 260.946 135.72C260.64 135.359 260.409 134.918 260.254 134.397C260.109 133.877 260.058 133.293 260.102 132.644C260.137 132.135 260.222 131.685 260.359 131.293C260.496 130.901 260.665 130.556 260.865 130.258C261.075 129.971 261.308 129.721 261.563 129.507C261.827 129.304 262.094 129.13 262.365 128.988L263.541 130.702C263.334 130.809 263.136 130.921 262.947 131.039C262.758 131.167 262.588 131.312 262.437 131.472C262.295 131.644 262.177 131.831 262.083 132.036C261.998 132.251 261.946 132.498 261.927 132.777C261.89 133.336 262.011 133.765 262.291 134.063C262.581 134.373 262.98 134.544 263.489 134.577L263.609 134.584C264.098 134.616 264.492 134.496 264.791 134.225C265.09 133.954 265.257 133.564 265.291 133.055C265.32 132.636 265.259 132.281 265.108 131.991C264.966 131.711 264.821 131.496 264.67 131.346L265.05 129.522L270.936 130.294L270.497 136.774L268.536 136.647Z" fill="#220E91"/>
<path d="M185.039 110.435L187.045 110.564L187.363 105.865L189.279 105.989L195.524 110.572L195.341 113.266L188.635 112.832L188.544 114.179L186.807 114.066L186.899 112.719L184.893 112.59L185.039 110.435ZM188.977 107.789L188.781 110.677L193.167 110.961L193.176 110.826L188.977 107.789ZM184.291 118.813C184.329 118.254 184.476 117.858 184.732 117.624C184.998 117.4 185.3 117.3 185.64 117.322L186.164 117.356C186.503 117.378 186.784 117.516 187.008 117.771C187.24 118.036 187.338 118.449 187.3 119.007C187.262 119.566 187.11 119.957 186.844 120.18C186.588 120.414 186.29 120.52 185.951 120.498L185.427 120.464C185.088 120.442 184.802 120.299 184.569 120.033C184.346 119.778 184.253 119.371 184.291 118.813ZM192.122 131.714L192.45 126.88L189.158 126.427L189.148 126.561C189.381 126.686 189.592 126.825 189.782 126.978C189.982 127.131 190.145 127.307 190.272 127.506C190.409 127.705 190.509 127.932 190.572 128.186C190.635 128.441 190.656 128.728 190.634 129.047C190.605 129.476 190.503 129.875 190.327 130.245C190.151 130.624 189.909 130.949 189.6 131.22C189.3 131.501 188.935 131.713 188.504 131.855C188.084 131.999 187.614 132.053 187.095 132.02C186.566 131.986 186.083 131.864 185.646 131.655C185.209 131.447 184.838 131.157 184.532 130.787C184.226 130.426 183.995 129.985 183.84 129.464C183.695 128.944 183.644 128.36 183.688 127.711C183.723 127.202 183.808 126.752 183.945 126.36C184.082 125.968 184.251 125.623 184.451 125.325C184.661 125.038 184.893 124.788 185.148 124.574C185.413 124.371 185.68 124.197 185.95 124.055L187.127 125.769C186.92 125.876 186.722 125.988 186.533 126.106C186.344 126.234 186.174 126.379 186.023 126.539C185.881 126.711 185.763 126.898 185.669 127.103C185.584 127.318 185.532 127.565 185.513 127.844C185.475 128.403 185.597 128.832 185.877 129.13C186.167 129.44 186.566 129.611 187.075 129.644L187.195 129.651C187.684 129.683 188.078 129.563 188.377 129.292C188.676 129.021 188.843 128.631 188.877 128.122C188.906 127.703 188.845 127.348 188.694 127.058C188.552 126.778 188.407 126.563 188.256 126.413L188.636 124.589L194.522 125.361L194.083 131.841L192.122 131.714Z" fill="#220E91"/>
<path d="M305.436 126.258C305.397 126.836 305.478 127.262 305.68 127.536C305.881 127.819 306.142 127.972 306.461 127.992L306.566 127.999C306.945 128.024 307.253 127.913 307.49 127.668C307.737 127.433 307.876 127.082 307.908 126.613C307.937 126.184 307.854 125.773 307.66 125.379C307.476 124.997 307.193 124.663 306.811 124.377L308.225 123.041C308.471 123.257 308.69 123.492 308.884 123.745C309.087 123.999 309.254 124.275 309.384 124.574C309.524 124.874 309.622 125.206 309.677 125.57C309.742 125.945 309.759 126.362 309.728 126.821C309.689 127.389 309.59 127.899 309.429 128.35C309.268 128.8 309.052 129.177 308.781 129.48C308.519 129.794 308.212 130.029 307.861 130.187C307.51 130.345 307.124 130.41 306.705 130.383C306.376 130.362 306.08 130.287 305.818 130.16C305.556 130.033 305.332 129.868 305.145 129.666C304.957 129.473 304.807 129.248 304.695 128.99C304.591 128.743 304.524 128.478 304.493 128.196L304.403 128.19C304.25 128.821 303.945 129.333 303.487 129.724C303.039 130.126 302.456 130.303 301.737 130.257C301.268 130.227 300.851 130.099 300.485 129.875C300.119 129.661 299.813 129.366 299.568 128.989C299.322 128.623 299.141 128.18 299.026 127.662C298.92 127.154 298.888 126.59 298.93 125.972C298.966 125.443 299.053 124.978 299.19 124.576C299.327 124.184 299.496 123.839 299.696 123.541C299.907 123.244 300.14 122.989 300.395 122.775C300.659 122.572 300.927 122.393 301.198 122.241L302.372 123.985C301.928 124.187 301.554 124.448 301.252 124.769C300.959 125.101 300.793 125.556 300.753 126.135C300.717 126.674 300.814 127.096 301.043 127.401C301.273 127.707 301.608 127.874 302.047 127.902L302.152 127.909C302.581 127.937 302.911 127.793 303.143 127.477C303.385 127.162 303.526 126.71 303.566 126.121L303.632 125.149L305.503 125.27L305.436 126.258Z" fill="#220E91"/>
<path d="M222.637 121.903L224.643 122.033L224.962 117.334L226.878 117.458L233.122 122.04L232.94 124.734L226.234 124.3L226.143 125.647L224.406 125.535L224.497 124.188L222.491 124.058L222.637 121.903ZM226.575 119.257L226.38 122.145L230.766 122.429L230.775 122.294L226.575 119.257Z" fill="#220E91"/>
<path d="M490.559 129.573C490.653 128.176 491.197 127.174 492.191 126.567C493.183 125.97 494.533 125.726 496.239 125.837C497.946 125.947 499.251 126.362 500.154 127.082C501.057 127.812 501.461 128.875 501.367 130.272C501.272 131.669 500.728 132.666 499.736 133.263C498.742 133.87 497.393 134.118 495.686 134.008C493.98 133.897 492.675 133.477 491.772 132.748C490.869 132.028 490.464 130.969 490.559 129.573ZM492.325 129.687C492.28 130.355 492.483 130.835 492.934 131.124C493.385 131.424 494.03 131.601 494.868 131.655L496.814 131.781C497.652 131.835 498.315 131.743 498.802 131.504C499.289 131.275 499.555 130.826 499.6 130.158C499.646 129.489 499.443 129.005 498.992 128.705C498.541 128.416 497.896 128.244 497.057 128.189L495.111 128.064C494.273 128.009 493.611 128.097 493.124 128.326C492.637 128.565 492.37 129.019 492.325 129.687ZM495.08 129.865C495.103 129.516 495.19 129.276 495.339 129.145C495.487 129.025 495.661 128.971 495.861 128.984L496.19 129.005C496.39 129.018 496.555 129.094 496.686 129.233C496.816 129.381 496.87 129.63 496.846 129.979C496.822 130.329 496.736 130.564 496.588 130.684C496.439 130.815 496.264 130.874 496.065 130.861L495.735 130.84C495.536 130.827 495.371 130.746 495.24 130.597C495.11 130.458 495.056 130.214 495.08 129.865ZM489.951 138.546C489.989 137.987 490.136 137.591 490.392 137.357C490.658 137.134 490.961 137.033 491.3 137.055L491.824 137.089C492.163 137.111 492.444 137.249 492.668 137.504C492.9 137.77 492.998 138.182 492.96 138.741C492.922 139.299 492.77 139.69 492.505 139.914C492.248 140.147 491.95 140.253 491.611 140.232L491.087 140.198C490.748 140.176 490.462 140.032 490.229 139.766C490.006 139.511 489.913 139.105 489.951 138.546ZM497.782 151.447L498.11 146.613L494.818 146.16L494.809 146.294C495.041 146.42 495.252 146.559 495.442 146.711C495.642 146.864 495.806 147.04 495.932 147.239C496.069 147.438 496.169 147.665 496.232 147.92C496.295 148.174 496.316 148.461 496.294 148.78C496.265 149.209 496.163 149.609 495.987 149.978C495.811 150.358 495.569 150.683 495.26 150.953C494.96 151.234 494.595 151.446 494.164 151.589C493.744 151.732 493.274 151.787 492.755 151.753C492.226 151.719 491.743 151.597 491.306 151.389C490.869 151.18 490.498 150.891 490.192 150.52C489.886 150.16 489.655 149.719 489.5 149.198C489.355 148.677 489.304 148.093 489.348 147.444C489.383 146.935 489.468 146.485 489.605 146.093C489.742 145.701 489.911 145.356 490.111 145.059C490.321 144.772 490.554 144.521 490.809 144.307C491.073 144.104 491.34 143.931 491.611 143.788L492.787 145.502C492.58 145.609 492.382 145.722 492.193 145.84C492.004 145.968 491.834 146.112 491.683 146.273C491.541 146.444 491.423 146.632 491.329 146.836C491.244 147.051 491.192 147.298 491.173 147.577C491.136 148.136 491.257 148.565 491.537 148.864C491.827 149.173 492.227 149.344 492.736 149.377L492.855 149.385C493.344 149.416 493.738 149.297 494.037 149.025C494.336 148.754 494.503 148.364 494.538 147.855C494.566 147.436 494.505 147.081 494.354 146.791C494.213 146.511 494.067 146.297 493.917 146.147L494.296 144.322L500.182 145.094L499.743 151.574L497.782 151.447Z" fill="#220E91"/>
<path d="M414.529 121.568L416.341 121.685L416.15 124.498L423.156 124.951L423.165 124.817L420.524 122.512L421.744 121.148L424.868 123.86L424.635 127.302L415.998 126.743L415.848 128.958L414.037 128.841L414.529 121.568ZM413.533 133.612C413.571 133.053 413.718 132.657 413.974 132.423C414.24 132.2 414.543 132.099 414.882 132.121L415.406 132.155C415.745 132.177 416.026 132.315 416.25 132.57C416.482 132.836 416.58 133.248 416.542 133.807C416.504 134.365 416.352 134.756 416.087 134.98C415.83 135.214 415.532 135.32 415.193 135.298L414.669 135.264C414.33 135.242 414.044 135.098 413.811 134.832C413.588 134.577 413.495 134.171 413.533 133.612ZM421.364 146.513L421.692 141.679L418.4 141.226L418.391 141.361C418.623 141.486 418.834 141.625 419.024 141.777C419.224 141.931 419.388 142.106 419.514 142.305C419.651 142.504 419.751 142.731 419.814 142.986C419.877 143.24 419.898 143.527 419.876 143.847C419.847 144.276 419.745 144.675 419.569 145.044C419.393 145.424 419.151 145.749 418.842 146.019C418.542 146.3 418.177 146.512 417.746 146.655C417.326 146.798 416.856 146.853 416.337 146.819C415.808 146.785 415.325 146.663 414.888 146.455C414.451 146.246 414.08 145.957 413.774 145.586C413.468 145.226 413.237 144.785 413.082 144.264C412.937 143.743 412.886 143.159 412.93 142.51C412.965 142.002 413.05 141.551 413.187 141.159C413.324 140.767 413.493 140.422 413.693 140.125C413.903 139.838 414.136 139.587 414.391 139.373C414.655 139.17 414.922 138.997 415.193 138.854L416.37 140.568C416.162 140.675 415.964 140.788 415.775 140.906C415.586 141.034 415.416 141.178 415.265 141.339C415.123 141.51 415.005 141.698 414.911 141.902C414.826 142.117 414.774 142.364 414.756 142.643C414.718 143.202 414.839 143.631 415.119 143.93C415.409 144.239 415.809 144.41 416.318 144.443L416.437 144.451C416.926 144.482 417.32 144.363 417.619 144.091C417.918 143.82 418.085 143.43 418.12 142.921C418.148 142.502 418.087 142.148 417.936 141.857C417.795 141.578 417.649 141.363 417.499 141.213L417.878 139.388L423.764 140.16L423.325 146.64L421.364 146.513Z" fill="#220E91"/>
<path d="M538.86 81.7511L536.36 118.671" stroke="#220E91" stroke-width="2.83035"/>
<path d="M500.281 79.2543L497.78 116.174" stroke="#220E91" stroke-width="2.83035"/>
<path d="M423.117 74.2626L420.616 111.183" stroke="#220E91" stroke-width="2.83035"/>
<path d="M345.95 69.2701L343.449 106.19" stroke="#220E91" stroke-width="2.83035"/>
<path d="M268.79 64.2786L266.289 101.199" stroke="#220E91" stroke-width="2.83035"/>
<path d="M461.697 76.7576L459.196 113.678" stroke="#220E91" stroke-width="2.83035"/>
<path d="M384.535 71.766L382.034 108.686" stroke="#220E91" stroke-width="2.83035"/>
<path d="M307.37 66.774L304.869 103.694" stroke="#220E91" stroke-width="2.83035"/>
<path d="M230.207 61.7815L227.706 98.7015" stroke="#220E91" stroke-width="2.83035"/>
<path d="M191.626 59.2854L189.125 96.2054" stroke="#220E91" stroke-width="2.83035"/>
<path d="M529.216 81.1261L527.726 103.121" stroke="#220E91" stroke-width="1.41518"/>
<path d="M452.052 76.1329L450.562 98.1278" stroke="#220E91" stroke-width="1.41518"/>
<path d="M374.89 71.1418L373.4 93.1367" stroke="#220E91" stroke-width="1.41518"/>
<path d="M297.724 66.1492L296.234 88.144" stroke="#220E91" stroke-width="1.41518"/>
<path d="M490.636 78.631L489.146 100.626" stroke="#220E91" stroke-width="1.41518"/>
<path d="M413.47 73.6378L411.98 95.6327" stroke="#220E91" stroke-width="1.41518"/>
<path d="M336.308 68.647L334.818 90.6418" stroke="#220E91" stroke-width="1.41518"/>
<path d="M259.144 63.6536L257.654 85.6484" stroke="#220E91" stroke-width="1.41518"/>
<path d="M220.562 61.1569L219.072 83.1517" stroke="#220E91" stroke-width="1.41518"/>
<path d="M522.784 80.7101L521.294 102.705" stroke="#220E91" stroke-width="1.41518"/>
<path d="M445.623 75.7183L444.133 97.7131" stroke="#220E91" stroke-width="1.41518"/>
<path d="M368.458 70.7266L366.969 92.7214" stroke="#220E91" stroke-width="1.41518"/>
<path d="M291.296 65.7335L289.806 87.7284" stroke="#220E91" stroke-width="1.41518"/>
<path d="M484.205 78.2137L482.715 100.209" stroke="#220E91" stroke-width="1.41518"/>
<path d="M407.041 73.2228L405.551 95.2176" stroke="#220E91" stroke-width="1.41518"/>
<path d="M329.876 68.2295L328.387 90.2244" stroke="#220E91" stroke-width="1.41518"/>
<path d="M252.714 63.2388L251.224 85.2336" stroke="#220E91" stroke-width="1.41518"/>
<path d="M214.132 60.7419L212.642 82.7368" stroke="#220E91" stroke-width="1.41518"/>
<path d="M516.355 80.2938L514.865 102.289" stroke="#220E91" stroke-width="1.41518"/>
<path d="M439.19 75.3021L437.701 97.297" stroke="#220E91" stroke-width="1.41518"/>
<path d="M362.029 70.3098L360.539 92.3047" stroke="#220E91" stroke-width="1.41518"/>
<path d="M284.865 65.318L283.375 87.3129" stroke="#220E91" stroke-width="1.41518"/>
<path d="M477.775 77.7976L476.285 99.7925" stroke="#220E91" stroke-width="1.41518"/>
<path d="M400.611 72.8069L399.121 94.8018" stroke="#220E91" stroke-width="1.41518"/>
<path d="M323.447 67.8136L321.957 89.8085" stroke="#220E91" stroke-width="1.41518"/>
<path d="M246.285 62.8217L244.795 84.8165" stroke="#220E91" stroke-width="1.41518"/>
<path d="M207.701 60.3262L206.211 82.321" stroke="#220E91" stroke-width="1.41518"/>
<path d="M509.925 79.8782L508.435 101.873" stroke="#220E91" stroke-width="1.41518"/>
<path d="M432.763 74.8857L431.273 96.8806" stroke="#220E91" stroke-width="1.41518"/>
<path d="M355.597 69.8929L354.107 91.8878" stroke="#220E91" stroke-width="1.41518"/>
<path d="M278.435 64.9019L276.945 86.8967" stroke="#220E91" stroke-width="1.41518"/>
<path d="M471.343 77.3827L469.853 99.3776" stroke="#220E91" stroke-width="1.41518"/>
<path d="M394.179 72.3903L392.689 94.3851" stroke="#220E91" stroke-width="1.41518"/>
<path d="M317.019 67.3988L315.529 89.3937" stroke="#220E91" stroke-width="1.41518"/>
<path d="M239.853 62.4059L238.363 84.4008" stroke="#220E91" stroke-width="1.41518"/>
<path d="M201.273 59.9103L199.783 81.9051" stroke="#220E91" stroke-width="1.41518"/>
<path d="M163.583 61.2703C163.624 60.6617 163.751 60.1188 163.964 59.6416C164.186 59.175 164.483 58.7833 164.855 58.4667C165.227 58.1601 165.668 57.9331 166.179 57.7858C166.691 57.6385 167.261 57.5852 167.889 57.6259C168.518 57.6666 169.076 57.7928 169.563 58.0047C170.049 58.2166 170.456 58.4984 170.783 58.8502C171.11 59.212 171.346 59.6382 171.493 60.1287C171.65 60.6298 171.708 61.1797 171.667 61.7783C171.61 62.6263 171.389 63.2934 171.006 63.7796C170.631 64.2765 170.15 64.6412 169.563 64.8738L168.751 63.1077C169.06 62.9874 169.322 62.819 169.537 62.6024C169.751 62.3958 169.873 62.083 169.901 61.664C169.935 61.1552 169.812 60.7514 169.532 60.4527C169.261 60.1646 168.871 60.0041 168.362 59.9712L167.104 59.8898C166.595 59.8569 166.182 59.9654 165.865 60.2155C165.556 60.4761 165.384 60.8708 165.348 61.3995C165.319 61.8285 165.396 62.1692 165.58 62.4216C165.762 62.6839 166.008 62.9102 166.316 63.1005L165.244 64.7146C164.694 64.3984 164.263 63.9597 163.95 63.3983C163.646 62.8476 163.524 62.1383 163.583 61.2703ZM162.975 70.2435C163.016 69.6349 163.143 69.092 163.356 68.6148C163.578 68.1482 163.875 67.7566 164.248 67.4399C164.619 67.1333 165.06 66.9063 165.572 66.759C166.083 66.6117 166.653 66.5584 167.281 66.5991C167.91 66.6398 168.468 66.766 168.955 66.9779C169.442 67.1898 169.848 67.4716 170.175 67.8234C170.502 68.1852 170.738 68.6114 170.886 69.1019C171.042 69.603 171.1 70.1529 171.06 70.7515C171.002 71.5995 170.782 72.2666 170.398 72.7529C170.023 73.2497 169.543 73.6144 168.955 73.847L168.143 72.0809C168.452 71.9606 168.714 71.7922 168.929 71.5756C169.143 71.369 169.265 71.0562 169.293 70.6372C169.328 70.1284 169.205 69.7246 168.924 69.4259C168.653 69.1378 168.263 68.9773 167.754 68.9444L166.497 68.863C165.988 68.8301 165.574 68.9387 165.257 69.1887C164.948 69.4493 164.776 69.844 164.74 70.3727C164.711 70.8017 164.789 71.1424 164.972 71.3948C165.155 71.6571 165.4 71.8834 165.708 72.0737L164.636 73.6878C164.086 73.3716 163.655 72.9329 163.342 72.3715C163.039 71.8208 162.916 71.1115 162.975 70.2435ZM160.733 75.3834L173.85 81.0568L173.715 83.0472L160.598 77.3737L160.733 75.3834ZM162.234 83.8467L169.958 84.3464L169.838 86.1273L168.7 86.0537L168.693 86.1584C169.044 86.3014 169.342 86.491 169.586 86.7273C169.83 86.9735 169.939 87.3012 169.911 87.7102C169.86 88.4585 169.39 88.889 168.5 89.0018L168.494 89.0916C168.67 89.1631 168.834 89.2489 168.988 89.349C169.142 89.4491 169.274 89.5679 169.385 89.7053C169.496 89.8428 169.58 90.0036 169.638 90.1877C169.695 90.3718 169.716 90.5835 169.7 90.823C169.627 91.9005 168.797 92.3879 167.21 92.2852L161.687 91.9279L161.807 90.147L167.106 90.4898C167.466 90.5131 167.72 90.4644 167.868 90.3437C168.026 90.2337 168.112 90.0789 168.125 89.8794C168.138 89.6898 168.084 89.521 167.964 89.3729C167.853 89.2355 167.668 89.1584 167.408 89.1416L161.9 88.7852L162.021 86.9894L167.32 87.3322C167.68 87.3554 167.933 87.3117 168.081 87.201C168.238 87.101 168.323 86.9512 168.337 86.7517C168.35 86.5521 168.297 86.3783 168.177 86.2303C168.067 86.0828 167.882 86.0007 167.622 85.9839L162.113 85.6276L162.234 83.8467ZM163.309 93.5L163.149 95.8644L170.783 96.3583L170.944 93.9939L172.665 94.1052L172.355 98.6846L162.999 98.0793L162.839 100.444L161.117 100.332L161.588 93.3886L163.309 93.5Z" fill="#220E91"/>
<rect width="139.079" height="4.58285" transform="matrix(-0.997141 -0.07556 0.079091 -0.996867 779.808 142.362)" fill="#220E91"/>
<rect width="28.1424" height="105.323" transform="matrix(0.938565 -0.345103 0.359276 0.933231 366.093 483.067)" fill="white"/>
<rect width="28.1424" height="211.709" transform="matrix(0.938565 -0.345103 0.359276 0.933231 972.778 203.324)" fill="white"/>
<rect width="28.1424" height="151.069" transform="matrix(0.938565 -0.345103 0.359276 0.933231 1121 172.625)" fill="white"/>
<rect width="548.777" height="145.749" rx="6.51256" transform="matrix(0.938565 -0.345103 0.359276 0.933231 482.771 418.631)" fill="white"/>
<path d="M528.132 535.645L490.307 437.394L388.241 501.433L408.185 553.238L528.132 535.645Z" fill="white"/>
<path d="M521.778 518.471L498.185 457.186L405.487 507.807L417.927 540.12L521.778 518.471Z" fill="#220E91"/>
<path d="M400.446 555.774L381.079 505.466L225.609 576.205L235.821 602.731L400.446 555.774Z" fill="white"/>
<path d="M1042.94 346.4L1005.1 248.11L1154.24 219.793L1174.19 271.619L1042.94 346.4Z" fill="white"/>
<rect width="177.504" height="5.8808" transform="matrix(0.938565 -0.345103 0.359276 0.933231 247.618 580.642)" fill="#220E91"/>
<path d="M615.557 432.108C615.288 431.384 614.956 430.911 614.561 430.691C614.161 430.458 613.762 430.417 613.364 430.569L613.233 430.619C612.759 430.799 612.446 431.104 612.293 431.533C612.122 431.954 612.146 432.459 612.365 433.046C612.564 433.583 612.89 434.037 613.34 434.408C613.774 434.77 614.3 435.019 614.919 435.154L613.937 437.561C613.52 437.435 613.125 437.271 612.752 437.071C612.366 436.875 612.013 436.632 611.691 436.341C611.357 436.054 611.056 435.705 610.79 435.293C610.506 434.874 610.257 434.377 610.043 433.802C609.778 433.09 609.62 432.415 609.568 431.779C609.517 431.142 609.572 430.565 609.735 430.046C609.881 429.52 610.123 429.064 610.463 428.678C610.803 428.291 611.235 427.999 611.758 427.799C612.169 427.643 612.569 427.569 612.956 427.579C613.344 427.588 613.706 427.664 614.043 427.806C614.376 427.937 614.682 428.127 614.96 428.378C615.221 428.621 615.447 428.905 615.64 429.231L615.752 429.189C615.592 428.337 615.682 427.546 616.022 426.818C616.346 426.081 616.956 425.542 617.853 425.2C618.439 424.977 619.015 424.901 619.581 424.97C620.143 425.027 620.675 425.217 621.179 425.539C621.678 425.848 622.139 426.286 622.563 426.852C622.97 427.41 623.317 428.076 623.605 428.851C623.851 429.513 624.001 430.127 624.054 430.691C624.103 431.243 624.088 431.756 624.007 432.228C623.915 432.706 623.772 433.145 623.58 433.547C623.371 433.94 623.144 434.305 622.899 434.641L620.518 433.172C620.947 432.681 621.257 432.156 621.448 431.598C621.622 431.033 621.574 430.388 621.304 429.663C621.053 428.988 620.705 428.529 620.259 428.285C619.813 428.042 619.315 428.024 618.767 428.233L618.636 428.283C618.101 428.487 617.779 428.845 617.67 429.357C617.55 429.873 617.626 430.5 617.9 431.238L618.353 432.456L616.017 433.345L615.557 432.108ZM619.301 417.275C619.952 419.025 619.841 420.543 618.969 421.831C618.092 423.107 616.588 424.15 614.458 424.961C612.327 425.772 610.517 425.991 609.027 425.617C607.532 425.231 606.459 424.163 605.809 422.413C605.159 420.664 605.272 419.152 606.149 417.876C607.021 416.588 608.523 415.539 610.653 414.727C612.783 413.916 614.596 413.704 616.091 414.09C617.581 414.464 618.651 415.526 619.301 417.275ZM617.096 418.115C616.785 417.278 616.276 416.808 615.57 416.706C614.859 416.592 613.98 416.734 612.934 417.133L610.504 418.058C609.458 418.456 608.705 418.936 608.244 419.496C607.78 420.044 607.703 420.736 608.014 421.574C608.325 422.411 608.837 422.887 609.548 423.001C610.254 423.103 611.13 422.955 612.177 422.556L614.606 421.631C615.653 421.232 616.408 420.759 616.873 420.211C617.333 419.651 617.408 418.952 617.096 418.115ZM613.658 419.424C613.82 419.862 613.847 420.201 613.738 420.442C613.624 420.671 613.442 420.833 613.193 420.928L612.782 421.085C612.533 421.18 612.291 421.179 612.056 421.083C611.816 420.974 611.615 420.701 611.453 420.264C611.29 419.827 611.266 419.494 611.38 419.265C611.489 419.023 611.668 418.855 611.918 418.76L612.329 418.604C612.578 418.509 612.822 418.516 613.062 418.624C613.297 418.72 613.495 418.987 613.658 419.424Z" fill="#220E91"/>
<path d="M579.107 439.633L582.714 449.003L580.143 449.948L575.127 447.105C574.24 446.621 573.512 446.307 572.942 446.161C572.372 446.016 571.836 446.035 571.336 446.219L571.148 446.288C570.597 446.491 570.247 446.804 570.096 447.229C569.933 447.659 569.956 448.147 570.167 448.695C570.407 449.317 570.773 449.729 571.265 449.931C571.757 450.134 572.28 450.212 572.833 450.164L572.836 452.955C572.328 452.971 571.823 452.922 571.322 452.808C570.809 452.699 570.325 452.5 569.872 452.212C569.413 451.912 568.993 451.527 568.612 451.056C568.218 450.59 567.887 450.009 567.619 449.312C567.346 448.603 567.202 447.931 567.187 447.298C567.171 446.664 567.264 446.09 567.466 445.575C567.668 445.061 567.975 444.614 568.386 444.236C568.785 443.862 569.266 443.571 569.829 443.364C570.38 443.162 570.923 443.069 571.458 443.085C571.975 443.094 572.496 443.186 573.021 443.362C573.542 443.526 574.073 443.757 574.616 444.054C575.155 444.339 575.705 444.655 576.267 445.003L579.156 446.774L576.742 440.503L579.107 439.633ZM576.856 433.118C577.527 434.86 577.428 436.367 576.56 437.637C575.688 438.896 574.181 439.919 572.041 440.705C569.901 441.492 568.079 441.694 566.574 441.31C565.064 440.913 563.974 439.844 563.303 438.102C562.633 436.36 562.733 434.86 563.606 433.601C564.474 432.33 565.978 431.301 568.118 430.515C570.258 429.728 572.083 429.533 573.592 429.929C575.097 430.313 576.185 431.376 576.856 433.118ZM574.641 433.933C574.32 433.099 573.803 432.629 573.09 432.521C572.373 432.402 571.489 432.535 570.437 432.922L567.997 433.819C566.946 434.205 566.191 434.675 565.732 435.227C565.269 435.767 565.197 436.454 565.518 437.287C565.839 438.121 566.358 438.598 567.076 438.717C567.789 438.825 568.671 438.685 569.722 438.298L572.162 437.401C573.213 437.015 573.971 436.551 574.434 436.012C574.893 435.459 574.962 434.766 574.641 433.933ZM571.187 435.203C571.355 435.638 571.385 435.975 571.276 436.214C571.163 436.44 570.982 436.599 570.732 436.691L570.319 436.843C570.068 436.935 569.824 436.933 569.587 436.835C569.345 436.725 569.14 436.453 568.972 436.017C568.804 435.582 568.777 435.251 568.89 435.025C568.998 434.786 569.177 434.621 569.428 434.529L569.841 434.377C570.091 434.285 570.337 434.294 570.579 434.404C570.817 434.501 571.019 434.767 571.187 435.203Z" fill="#220E91"/>
<path d="M671.097 409.547L668.593 410.501L670.781 416.386L668.389 417.297L658.304 415.189L657.05 411.815L665.422 408.627L664.794 406.94L666.962 406.115L667.589 407.802L670.093 406.848L671.097 409.547ZM667.77 414.944L666.425 411.326L660.95 413.411L661.012 413.58L667.77 414.944ZM667.415 398.954C668.065 400.703 667.954 402.222 667.082 403.51C666.205 404.785 664.701 405.829 662.571 406.64C660.44 407.451 658.63 407.67 657.14 407.296C655.645 406.909 654.573 405.841 653.922 404.092C653.272 402.343 653.385 400.83 654.262 399.555C655.135 398.267 656.636 397.217 658.766 396.406C660.897 395.595 662.709 395.383 664.204 395.769C665.694 396.143 666.764 397.205 667.415 398.954ZM665.21 399.794C664.898 398.957 664.39 398.487 663.683 398.385C662.972 398.271 662.094 398.413 661.047 398.811L658.618 399.736C657.571 400.135 656.818 400.614 656.358 401.175C655.893 401.723 655.816 402.415 656.127 403.252C656.439 404.09 656.95 404.565 657.661 404.68C658.367 404.782 659.244 404.633 660.29 404.235L662.719 403.31C663.766 402.911 664.522 402.438 664.986 401.89C665.446 401.33 665.521 400.631 665.21 399.794ZM661.771 401.103C661.934 401.541 661.96 401.88 661.851 402.121C661.737 402.35 661.555 402.512 661.306 402.607L660.895 402.763C660.646 402.858 660.404 402.858 660.169 402.762C659.93 402.653 659.729 402.38 659.566 401.943C659.403 401.506 659.379 401.172 659.493 400.944C659.603 400.702 659.782 400.534 660.031 400.439L660.442 400.283C660.691 400.188 660.936 400.195 661.175 400.303C661.41 400.399 661.608 400.666 661.771 401.103Z" fill="#220E91"/>
<path d="M705.394 392.506L707.645 398.56L711.887 397.287L711.824 397.119C711.474 397.095 711.142 397.043 710.827 396.963C710.501 396.888 710.206 396.765 709.943 396.594C709.668 396.428 709.423 396.207 709.207 395.933C708.991 395.658 708.809 395.321 708.66 394.921C708.461 394.384 708.366 393.842 708.376 393.296C708.382 392.738 708.498 392.209 708.725 391.709C708.934 391.201 709.261 390.741 709.705 390.33C710.137 389.923 710.677 389.596 711.325 389.349C711.985 389.098 712.637 388.978 713.282 388.989C713.926 389.001 714.535 389.147 715.108 389.428C715.678 389.696 716.199 390.104 716.672 390.651C717.134 391.203 717.515 391.885 717.817 392.697C718.054 393.334 718.197 393.929 718.246 394.481C718.294 395.033 718.279 395.545 718.199 396.018C718.101 396.483 717.956 396.916 717.764 397.317C717.555 397.711 717.326 398.069 717.076 398.392L714.709 396.961C714.903 396.717 715.081 396.47 715.245 396.222C715.404 395.962 715.532 395.692 715.627 395.414C715.706 395.127 715.746 394.834 715.748 394.533C715.733 394.225 715.66 393.896 715.53 393.546C715.27 392.846 714.888 392.393 714.384 392.185C713.863 391.97 713.285 391.983 712.65 392.225L712.5 392.282C711.89 392.515 711.478 392.879 711.264 393.374C711.049 393.869 711.061 394.435 711.298 395.072C711.493 395.597 711.761 395.994 712.103 396.263C712.428 396.525 712.723 396.705 712.987 396.804L713.526 399.231L705.964 401.554L702.946 393.438L705.394 392.506ZM713.604 381.365C714.254 383.114 714.144 384.633 713.271 385.92C712.394 387.196 710.891 388.239 708.76 389.05C706.63 389.862 704.82 390.08 703.33 389.706C701.835 389.32 700.762 388.252 700.112 386.503C699.461 384.753 699.575 383.241 700.452 381.965C701.324 380.677 702.825 379.628 704.956 378.817C707.086 378.005 708.899 377.793 710.393 378.179C711.884 378.553 712.954 379.615 713.604 381.365ZM711.399 382.204C711.088 381.367 710.579 380.898 709.873 380.796C709.162 380.681 708.283 380.823 707.236 381.222L704.807 382.147C703.761 382.545 703.007 383.025 702.547 383.585C702.082 384.133 702.006 384.826 702.317 385.663C702.628 386.5 703.139 386.976 703.85 387.09C704.557 387.192 705.433 387.044 706.479 386.645L708.909 385.72C709.955 385.322 710.711 384.848 711.176 384.301C711.636 383.74 711.71 383.041 711.399 382.204ZM707.961 383.514C708.123 383.951 708.15 384.29 708.04 384.532C707.926 384.761 707.745 384.922 707.496 385.017L707.084 385.174C706.835 385.269 706.593 385.268 706.358 385.172C706.119 385.064 705.918 384.791 705.755 384.353C705.593 383.916 705.569 383.583 705.683 383.354C705.792 383.113 705.971 382.945 706.22 382.85L706.632 382.693C706.881 382.598 707.125 382.605 707.364 382.714C707.599 382.81 707.798 383.076 707.961 383.514Z" fill="#220E91"/>
<path d="M765.862 374.208C766.155 374.995 766.299 375.746 766.294 376.461C766.273 377.168 766.117 377.82 765.826 378.415C765.523 379.016 765.096 379.549 764.544 380.016C763.992 380.483 763.324 380.866 762.539 381.165C761.63 381.511 760.717 381.695 759.8 381.716C758.871 381.742 757.98 381.66 757.128 381.471C756.258 381.275 755.445 380.999 754.687 380.646C753.926 380.28 753.253 379.887 752.67 379.467L751.228 375.587C752.091 376.186 752.904 376.71 753.669 377.161C754.417 377.604 755.143 377.969 755.847 378.257C756.535 378.537 757.21 378.729 757.875 378.833C758.534 378.924 759.207 378.917 759.894 378.813L759.887 378.623C759.596 378.605 759.302 378.56 759.005 378.488C758.708 378.416 758.428 378.294 758.166 378.123C757.89 377.957 757.639 377.739 757.41 377.469C757.178 377.187 756.982 376.834 756.824 376.409C756.62 375.859 756.529 375.309 756.552 374.758C756.562 374.212 756.685 373.701 756.921 373.227C757.14 372.744 757.461 372.308 757.885 371.918C758.309 371.528 758.833 371.215 759.456 370.978C760.116 370.726 760.77 370.612 761.419 370.636C762.068 370.66 762.68 370.813 763.253 371.093C763.81 371.366 764.314 371.766 764.766 372.293C765.218 372.82 765.583 373.458 765.862 374.208ZM763.682 375.059C763.432 374.385 763.067 373.939 762.588 373.722C762.096 373.509 761.527 373.527 760.879 373.773L760.617 373.873C759.97 374.12 759.545 374.488 759.343 374.979C759.124 375.461 759.138 376.034 759.384 376.696C759.621 377.333 759.981 377.767 760.465 377.996C760.936 378.231 761.496 378.224 762.143 377.978L762.405 377.878C763.053 377.631 763.495 377.271 763.731 376.796C763.949 376.313 763.933 375.734 763.682 375.059ZM761.712 363.045C762.362 364.794 762.251 366.312 761.379 367.6C760.502 368.876 758.998 369.919 756.868 370.73C754.737 371.542 752.927 371.76 751.437 371.386C749.942 371 748.87 369.932 748.219 368.182C747.569 366.433 747.682 364.921 748.559 363.645C749.431 362.357 750.933 361.308 753.063 360.497C755.193 359.685 757.006 359.473 758.501 359.859C759.991 360.233 761.061 361.295 761.712 363.045ZM759.506 363.884C759.195 363.047 758.686 362.577 757.98 362.476C757.269 362.361 756.39 362.503 755.344 362.902L752.915 363.827C751.868 364.225 751.115 364.705 750.655 365.265C750.19 365.813 750.113 366.506 750.424 367.343C750.736 368.18 751.247 368.656 751.958 368.77C752.664 368.872 753.54 368.724 754.587 368.325L757.016 367.4C758.063 367.002 758.818 366.528 759.283 365.981C759.743 365.42 759.818 364.721 759.506 363.884ZM756.068 365.194C756.231 365.631 756.257 365.97 756.148 366.212C756.034 366.441 755.852 366.602 755.603 366.697L755.192 366.854C754.943 366.949 754.701 366.948 754.466 366.852C754.226 366.744 754.025 366.471 753.863 366.033C753.7 365.596 753.676 365.263 753.79 365.034C753.899 364.793 754.079 364.625 754.328 364.53L754.739 364.373C754.988 364.278 755.232 364.285 755.472 364.394C755.707 364.49 755.905 364.756 756.068 365.194Z" fill="#220E91"/>
<path d="M810.877 360.062L798.441 359.662L800.015 363.898L802.389 362.995L803.274 365.375L798.62 367.147L795.122 357.738L797.552 356.813L809.776 357.1L810.877 360.062ZM805.975 346.189C806.626 347.938 806.515 349.457 805.642 350.745C804.765 352.02 803.262 353.063 801.131 353.875C799.001 354.686 797.191 354.905 795.701 354.531C794.206 354.144 793.133 353.076 792.483 351.327C791.833 349.577 791.946 348.065 792.823 346.79C793.695 345.502 795.196 344.452 797.327 343.641C799.457 342.83 801.27 342.617 802.764 343.004C804.255 343.378 805.325 344.439 805.975 346.189ZM803.77 347.029C803.459 346.191 802.95 345.722 802.244 345.62C801.533 345.505 800.654 345.648 799.608 346.046L797.178 346.971C796.132 347.37 795.378 347.849 794.918 348.409C794.454 348.957 794.377 349.65 794.688 350.487C794.999 351.324 795.51 351.8 796.221 351.914C796.928 352.016 797.804 351.868 798.851 351.47L801.28 350.544C802.326 350.146 803.082 349.673 803.547 349.125C804.007 348.564 804.081 347.866 803.77 347.029ZM800.332 348.338C800.494 348.775 800.521 349.115 800.411 349.356C800.297 349.585 800.116 349.747 799.867 349.842L799.456 349.998C799.206 350.093 798.964 350.092 798.73 349.996C798.49 349.888 798.289 349.615 798.127 349.178C797.964 348.74 797.94 348.407 798.054 348.178C798.163 347.937 798.342 347.769 798.591 347.674L799.003 347.517C799.252 347.423 799.496 347.429 799.736 347.538C799.97 347.634 800.169 347.901 800.332 348.338Z" fill="#220E91"/>
<path d="M860.191 338.373C860.483 339.16 860.65 339.896 860.691 340.579C860.719 341.267 860.644 341.888 860.465 342.441C860.287 342.994 860.009 343.47 859.632 343.871C859.237 344.264 858.766 344.564 858.218 344.773C857.371 345.096 856.601 345.111 855.909 344.818C855.205 344.53 854.605 344.045 854.11 343.363L853.96 343.42C853.965 344.16 853.801 344.829 853.469 345.426C853.136 346.023 852.59 346.467 851.83 346.756C851.332 346.946 850.834 347.022 850.336 346.983C849.838 346.944 849.367 346.788 848.924 346.515C848.469 346.246 848.056 345.861 847.685 345.361C847.301 344.865 846.972 344.248 846.698 343.511C846.429 342.786 846.277 342.11 846.242 341.481C846.19 340.844 846.248 340.273 846.416 339.767C846.571 339.266 846.823 338.835 847.172 338.474C847.521 338.112 847.945 337.837 848.443 337.647C849.203 337.358 849.903 337.327 850.542 337.554C851.181 337.781 851.74 338.175 852.218 338.734L852.368 338.677C852.296 337.835 852.431 337.07 852.774 336.383C853.103 335.701 853.692 335.199 854.539 334.877C855.087 334.668 855.639 334.586 856.196 334.63C856.736 334.667 857.254 334.834 857.748 335.131C858.242 335.428 858.703 335.844 859.13 336.381C859.544 336.922 859.898 337.586 860.191 338.373ZM858.041 339.191C857.8 338.542 857.467 338.105 857.042 337.882C856.613 337.646 856.143 337.625 855.633 337.819L855.259 337.962C854.736 338.161 854.394 338.484 854.232 338.93C854.059 339.381 854.095 339.938 854.341 340.6C854.588 341.263 854.923 341.706 855.347 341.929C855.759 342.157 856.227 342.172 856.75 341.973L857.124 341.83C857.635 341.636 857.977 341.313 858.15 340.862C858.319 340.398 858.283 339.841 858.041 339.191ZM852.286 341.383C852.053 340.759 851.734 340.338 851.326 340.122C850.919 339.907 850.472 339.891 849.987 340.076L849.706 340.183C849.22 340.368 848.903 340.682 848.754 341.123C848.589 341.557 848.62 342.08 848.847 342.693C849.075 343.305 849.395 343.725 849.807 343.953C850.202 344.174 850.642 344.192 851.128 344.007L851.408 343.9C851.894 343.715 852.22 343.405 852.386 342.971C852.551 342.537 852.518 342.008 852.286 341.383ZM856.012 327.135C856.663 328.884 856.552 330.403 855.679 331.69C854.803 332.966 853.299 334.009 851.169 334.82C849.038 335.632 847.228 335.85 845.738 335.476C844.243 335.09 843.17 334.022 842.52 332.273C841.87 330.523 841.983 329.011 842.86 327.735C843.732 326.447 845.234 325.398 847.364 324.587C849.494 323.775 851.307 323.563 852.802 323.95C854.292 324.324 855.362 325.385 856.012 327.135ZM853.807 327.974C853.496 327.137 852.987 326.668 852.281 326.566C851.57 326.451 850.691 326.593 849.645 326.992L847.215 327.917C846.169 328.315 845.416 328.795 844.955 329.355C844.491 329.903 844.414 330.596 844.725 331.433C845.036 332.27 845.548 332.746 846.258 332.86C846.965 332.962 847.841 332.814 848.888 332.415L851.317 331.49C852.364 331.092 853.119 330.618 853.584 330.071C854.044 329.51 854.118 328.811 853.807 327.974ZM850.369 329.284C850.531 329.721 850.558 330.06 850.449 330.302C850.335 330.531 850.153 330.692 849.904 330.787L849.493 330.944C849.243 331.039 849.001 331.038 848.767 330.942C848.527 330.834 848.326 330.561 848.164 330.123C848.001 329.686 847.977 329.353 848.091 329.124C848.2 328.883 848.379 328.715 848.629 328.62L849.04 328.463C849.289 328.368 849.533 328.375 849.773 328.484C850.007 328.58 850.206 328.846 850.369 329.284Z" fill="#220E91"/>
<path d="M894.307 319.776C895.229 319.424 896.148 319.238 897.065 319.217C897.981 319.196 898.874 319.284 899.744 319.481C900.596 319.67 901.403 319.947 902.165 320.313C902.923 320.667 903.593 321.054 904.175 321.474L905.618 325.353C904.755 324.755 903.95 324.234 903.202 323.791C902.437 323.341 901.711 322.975 901.024 322.695C900.32 322.407 899.638 322.217 898.978 322.126C898.314 322.023 897.638 322.023 896.952 322.128L896.958 322.318C897.249 322.335 897.546 322.386 897.848 322.471C898.145 322.543 898.431 322.663 898.706 322.829C898.964 322.987 899.209 323.208 899.442 323.49C899.671 323.76 899.864 324.107 900.022 324.532C900.226 325.082 900.323 325.629 900.313 326.175C900.29 326.726 900.169 327.243 899.95 327.726C899.715 328.201 899.385 328.633 898.961 329.023C898.537 329.412 898.013 329.726 897.39 329.963C896.73 330.214 896.075 330.328 895.426 330.304C894.778 330.28 894.175 330.132 893.618 329.859C893.044 329.578 892.532 329.174 892.08 328.647C891.628 328.12 891.263 327.482 890.984 326.732C890.691 325.945 890.556 325.198 890.577 324.491C890.582 323.776 890.735 323.118 891.038 322.518C891.329 321.922 891.75 321.391 892.302 320.924C892.854 320.457 893.522 320.074 894.307 319.776ZM897.461 324.244C897.225 323.607 896.871 323.171 896.399 322.937C895.916 322.707 895.35 322.716 894.702 322.963L894.441 323.062C893.793 323.309 893.36 323.674 893.141 324.156C892.905 324.631 892.913 325.206 893.163 325.881C893.414 326.556 893.785 326.999 894.277 327.212C894.756 327.429 895.319 327.414 895.967 327.167L896.228 327.067C896.876 326.821 897.31 326.456 897.528 325.973C897.73 325.483 897.708 324.907 897.461 324.244ZM900.27 310.281C900.921 312.03 900.81 313.549 899.937 314.837C899.06 316.112 897.557 317.156 895.426 317.967C893.296 318.778 891.486 318.997 889.996 318.623C888.501 318.236 887.428 317.168 886.778 315.419C886.127 313.67 886.241 312.157 887.118 310.882C887.99 309.594 889.491 308.544 891.622 307.733C893.752 306.922 895.565 306.709 897.059 307.096C898.55 307.47 899.62 308.532 900.27 310.281ZM898.065 311.121C897.754 310.283 897.245 309.814 896.539 309.712C895.828 309.598 894.949 309.74 893.902 310.138L891.473 311.063C890.427 311.462 889.673 311.941 889.213 312.502C888.748 313.049 888.672 313.742 888.983 314.579C889.294 315.416 889.805 315.892 890.516 316.007C891.223 316.108 892.099 315.96 893.145 315.562L895.575 314.637C896.621 314.238 897.377 313.765 897.842 313.217C898.302 312.657 898.376 311.958 898.065 311.121ZM894.627 312.43C894.789 312.867 894.816 313.207 894.706 313.448C894.592 313.677 894.411 313.839 894.162 313.934L893.75 314.09C893.501 314.185 893.259 314.185 893.025 314.089C892.785 313.98 892.584 313.707 892.421 313.27C892.259 312.832 892.235 312.499 892.349 312.27C892.458 312.029 892.637 311.861 892.886 311.766L893.298 311.61C893.547 311.515 893.791 311.521 894.03 311.63C894.265 311.726 894.464 311.993 894.627 312.43Z" fill="#220E91"/>
<path d="M947.999 309.342L945.738 310.203L944.428 306.679L935.682 310.01L935.745 310.178L940.211 311.516L939.478 313.849L934.203 312.285L932.6 307.974L943.383 303.868L942.352 301.094L944.613 300.233L947.999 309.342ZM942.61 294.157C943.26 295.906 943.149 297.425 942.277 298.713C941.4 299.988 939.897 301.032 937.766 301.843C935.636 302.654 933.826 302.873 932.335 302.499C930.841 302.112 929.768 301.044 929.118 299.295C928.467 297.546 928.581 296.033 929.458 294.758C930.33 293.47 931.831 292.42 933.962 291.609C936.092 290.798 937.904 290.585 939.399 290.972C940.889 291.346 941.96 292.408 942.61 294.157ZM940.405 294.997C940.094 294.159 939.585 293.69 938.879 293.588C938.168 293.474 937.289 293.616 936.242 294.014L933.813 294.939C932.766 295.338 932.013 295.817 931.553 296.378C931.088 296.925 931.012 297.618 931.323 298.455C931.634 299.292 932.145 299.768 932.856 299.883C933.562 299.984 934.439 299.836 935.485 299.438L937.915 298.513C938.961 298.114 939.717 297.641 940.182 297.093C940.642 296.533 940.716 295.834 940.405 294.997ZM936.966 296.306C937.129 296.743 937.156 297.083 937.046 297.324C936.932 297.553 936.751 297.715 936.501 297.81L936.09 297.966C935.841 298.061 935.599 298.061 935.364 297.965C935.125 297.856 934.924 297.583 934.761 297.146C934.599 296.708 934.574 296.375 934.688 296.146C934.798 295.905 934.977 295.737 935.226 295.642L935.637 295.486C935.887 295.391 936.131 295.398 936.37 295.506C936.605 295.602 936.804 295.869 936.966 296.306ZM938.432 282.918C939.082 284.668 938.971 286.186 938.099 287.474C937.222 288.75 935.718 289.793 933.588 290.604C931.458 291.416 929.647 291.634 928.157 291.26C926.662 290.874 925.59 289.806 924.94 288.056C924.289 286.307 924.402 284.795 925.279 283.519C926.152 282.231 927.653 281.182 929.783 280.371C931.914 279.559 933.726 279.347 935.221 279.733C936.711 280.107 937.781 281.169 938.432 282.918ZM936.227 283.758C935.915 282.921 935.407 282.451 934.7 282.349C933.989 282.235 933.111 282.377 932.064 282.776L929.635 283.701C928.588 284.099 927.835 284.579 927.375 285.139C926.91 285.687 926.833 286.379 927.145 287.217C927.456 288.054 927.967 288.53 928.678 288.644C929.384 288.746 930.261 288.598 931.307 288.199L933.737 287.274C934.783 286.875 935.539 286.402 936.003 285.854C936.463 285.294 936.538 284.595 936.227 283.758ZM932.788 285.068C932.951 285.505 932.977 285.844 932.868 286.086C932.754 286.314 932.572 286.476 932.323 286.571L931.912 286.728C931.663 286.823 931.421 286.822 931.186 286.726C930.947 286.618 930.746 286.345 930.583 285.907C930.421 285.47 930.396 285.137 930.51 284.908C930.62 284.667 930.799 284.498 931.048 284.404L931.459 284.247C931.708 284.152 931.953 284.159 932.192 284.267C932.427 284.364 932.626 284.63 932.788 285.068Z" fill="#220E91"/>
<path d="M553.071 527.589L536.055 483.392" stroke="#220E91" stroke-width="4.11231"/>
<path d="M599.249 510.608L582.233 466.411" stroke="#220E91" stroke-width="4.11231"/>
<path d="M691.628 476.639L674.612 432.442" stroke="#220E91" stroke-width="4.11231"/>
<path d="M784.001 442.672L766.985 398.475" stroke="#220E91" stroke-width="4.11231"/>
<path d="M876.37 408.706L859.354 364.509" stroke="#220E91" stroke-width="4.11231"/>
<path d="M645.444 493.622L628.428 449.425" stroke="#220E91" stroke-width="4.11231"/>
<path d="M737.812 459.657L720.795 415.46" stroke="#220E91" stroke-width="4.11231"/>
<path d="M830.187 425.689L813.17 381.492" stroke="#220E91" stroke-width="4.11231"/>
<path d="M922.558 391.721L905.541 347.524" stroke="#220E91" stroke-width="4.11231"/>
<path d="M968.743 374.738L951.727 330.54" stroke="#220E91" stroke-width="4.11231"/>
<path d="M564.612 523.344L554.475 497.014" stroke="#220E91" stroke-width="2.05615"/>
<path d="M656.985 489.378L646.848 463.048" stroke="#220E91" stroke-width="2.05615"/>
<path d="M749.356 455.41L739.219 429.08" stroke="#220E91" stroke-width="2.05615"/>
<path d="M841.733 421.443L831.596 395.112" stroke="#220E91" stroke-width="2.05615"/>
<path d="M610.798 506.361L600.661 480.031" stroke="#220E91" stroke-width="2.05615"/>
<path d="M703.173 472.393L693.036 446.063" stroke="#220E91" stroke-width="2.05615"/>
<path d="M795.544 438.426L785.407 412.096" stroke="#220E91" stroke-width="2.05615"/>
<path d="M887.919 404.459L877.782 378.128" stroke="#220E91" stroke-width="2.05615"/>
<path d="M934.103 387.476L923.965 361.146" stroke="#220E91" stroke-width="2.05615"/>
<path d="M572.312 520.514L562.174 494.183" stroke="#220E91" stroke-width="2.05615"/>
<path d="M664.685 486.547L654.547 460.217" stroke="#220E91" stroke-width="2.05615"/>
<path d="M757.056 452.58L746.918 426.25" stroke="#220E91" stroke-width="2.05615"/>
<path d="M849.433 418.611L839.295 392.281" stroke="#220E91" stroke-width="2.05615"/>
<path d="M618.499 503.53L608.362 477.2" stroke="#220E91" stroke-width="2.05615"/>
<path d="M710.874 469.562L700.737 443.232" stroke="#220E91" stroke-width="2.05615"/>
<path d="M803.243 435.596L793.106 409.265" stroke="#220E91" stroke-width="2.05615"/>
<path d="M895.616 401.628L885.479 375.298" stroke="#220E91" stroke-width="2.05615"/>
<path d="M941.8 384.645L931.662 358.315" stroke="#220E91" stroke-width="2.05615"/>
<path d="M580.007 517.683L569.87 491.353" stroke="#220E91" stroke-width="2.05615"/>
<path d="M672.382 483.716L662.245 457.386" stroke="#220E91" stroke-width="2.05615"/>
<path d="M764.757 449.749L754.62 423.419" stroke="#220E91" stroke-width="2.05615"/>
<path d="M857.128 415.781L846.991 389.451" stroke="#220E91" stroke-width="2.05615"/>
<path d="M626.196 500.7L616.059 474.369" stroke="#220E91" stroke-width="2.05615"/>
<path d="M718.569 466.732L708.432 440.402" stroke="#220E91" stroke-width="2.05615"/>
<path d="M810.942 432.765L800.805 406.434" stroke="#220E91" stroke-width="2.05615"/>
<path d="M903.313 398.798L893.176 372.468" stroke="#220E91" stroke-width="2.05615"/>
<path d="M949.503 381.814L939.366 355.484" stroke="#220E91" stroke-width="2.05615"/>
<path d="M587.706 514.853L577.569 488.522" stroke="#220E91" stroke-width="2.05615"/>
<path d="M680.081 480.884L669.944 454.554" stroke="#220E91" stroke-width="2.05615"/>
<path d="M772.45 446.919L762.313 420.589" stroke="#220E91" stroke-width="2.05615"/>
<path d="M864.827 412.95L854.69 386.619" stroke="#220E91" stroke-width="2.05615"/>
<path d="M633.894 497.869L623.756 471.538" stroke="#220E91" stroke-width="2.05615"/>
<path d="M726.267 463.901L716.129 437.57" stroke="#220E91" stroke-width="2.05615"/>
<path d="M818.642 429.934L808.504 403.603" stroke="#220E91" stroke-width="2.05615"/>
<path d="M911.011 395.968L900.873 369.638" stroke="#220E91" stroke-width="2.05615"/>
<path d="M957.202 378.983L947.065 352.653" stroke="#220E91" stroke-width="2.05615"/>
<path d="M973.717 294.527L963.76 298.189L962.88 295.906L964.347 295.366L964.295 295.232C963.773 295.249 963.291 295.178 962.848 295.02C962.4 294.848 962.075 294.501 961.873 293.976C961.504 293.017 961.843 292.22 962.892 291.586L962.847 291.471C962.586 291.48 962.331 291.464 962.08 291.425C961.83 291.385 961.596 291.311 961.378 291.201C961.159 291.092 960.961 290.938 960.782 290.741C960.603 290.544 960.455 290.292 960.336 289.985C959.805 288.603 960.561 287.536 962.607 286.784L969.728 284.166L970.607 286.449L963.776 288.961C963.312 289.131 963.023 289.333 962.907 289.565C962.773 289.79 962.755 290.03 962.854 290.286C962.947 290.529 963.112 290.709 963.348 290.827C963.567 290.936 963.843 290.93 964.178 290.807L971.279 288.195L972.166 290.498L965.334 293.01C964.871 293.18 964.579 293.375 964.458 293.595C964.319 293.807 964.299 294.04 964.398 294.296C964.496 294.552 964.664 294.739 964.9 294.856C965.123 294.979 965.402 294.978 965.737 294.855L972.838 292.244L973.717 294.527ZM966.788 283.109L965.62 280.077L955.778 283.696L956.946 286.728L954.726 287.544L952.466 281.672L964.527 277.237L963.36 274.205L965.579 273.389L969.007 282.293L966.788 283.109Z" fill="#220E91"/>
<path d="M988.166 363.895L986.406 359.322C985.912 358.041 985.849 356.949 986.216 356.047C986.578 355.133 987.297 354.477 988.374 354.082C989.125 353.806 989.797 353.771 990.391 353.979C990.968 354.179 991.489 354.584 991.952 355.195L992.065 355.153C991.954 354.271 992.065 353.52 992.397 352.9C992.726 352.268 993.334 351.789 994.222 351.462C995.324 351.057 996.334 351.084 997.253 351.541C998.167 351.986 998.864 352.831 999.343 354.075L1001.27 359.077L988.166 363.895ZM997.702 355.659C997.444 354.987 997.142 354.537 996.797 354.308C996.452 354.08 995.979 354.076 995.378 354.297L994.834 354.497C994.233 354.718 993.88 355.026 993.775 355.42C993.669 355.814 993.746 356.346 994.004 357.018L994.55 358.437L998.248 357.077L997.702 355.659ZM992.264 358.063C992.01 357.404 991.719 356.964 991.391 356.743C991.051 356.528 990.593 356.526 990.018 356.737L989.454 356.944C988.879 357.156 988.542 357.45 988.444 357.827C988.347 358.204 988.425 358.722 988.678 359.382L989.088 360.445L992.673 359.127L992.264 358.063ZM983.951 352.946L982.334 348.747C981.659 346.993 981.721 345.485 982.522 344.225C983.322 342.965 984.78 341.946 986.895 341.168C989.01 340.39 990.793 340.217 992.245 340.649C993.697 341.081 994.761 342.175 995.436 343.929L997.053 348.129L983.951 352.946ZM993.293 344.93C992.972 344.097 992.468 343.586 991.782 343.398C991.095 343.21 990.239 343.305 989.213 343.682L986.829 344.559C985.815 344.931 985.113 345.41 984.724 345.993C984.334 346.577 984.3 347.285 984.621 348.119L985.102 349.37L993.775 346.181L993.293 344.93Z" fill="#220E91"/>
</svg>
