<svg width="1204" height="840" viewBox="0 0 1204 840" fill="none" xmlns="http://www.w3.org/2000/svg">
<g clip-path="url(#clip0_476_367)">
<path d="M430.637 460.654L407.03 475.796L406.183 474.534C401.865 468.105 403.649 459.503 410.168 455.322C416.687 451.141 425.472 452.963 429.789 459.392L430.637 460.654Z" fill="white"/>
<path d="M168.684 509.939L212.477 576.233L204.162 581.479C185.606 593.186 160.76 587.836 148.667 569.53C136.574 551.223 141.813 526.892 160.369 515.185L168.684 509.939Z" fill="#FBA09F"/>
<path d="M173.316 527.33L198.386 564.155L193.349 567.43C183.036 574.136 169.063 571.328 162.14 561.16C155.217 550.991 157.966 537.311 168.279 530.605L173.316 527.33Z" fill="#D66170"/>
<path d="M456.336 444.27L432.729 459.412L431.882 458.15C427.564 451.721 429.349 443.119 435.867 438.938C442.386 434.757 451.171 436.579 455.489 443.008L456.336 444.27Z" fill="white"/>
<path d="M482.352 428.117L458.624 443.077L457.789 441.812C453.522 435.348 455.374 426.759 461.927 422.628C468.479 418.497 477.25 420.388 481.517 426.853L482.352 428.117Z" fill="white"/>
<path d="M507.73 411.884L484.124 427.026L483.277 425.764C478.959 419.335 480.743 410.734 487.262 406.552C493.781 402.371 502.565 404.193 506.883 410.623L507.73 411.884Z" fill="white"/>
<path d="M70.2316 344.893C73.0525 346.835 76.9563 346.128 78.9509 343.314C80.9455 340.501 80.2756 336.647 77.4547 334.706L70.2316 344.893ZM33.8425 229.072L27.8804 227.266L33.8425 229.072ZM138.328 180.488L135.782 174.864L138.328 180.488ZM55.4759 229.396L49.7168 227.045L55.4759 229.396ZM87.5698 318.536L82.6589 314.759L87.5698 318.536ZM130.212 213.187L134.54 217.606L130.212 213.187ZM102.336 290.625L106.71 286.151L102.336 290.625ZM112.032 252.478L106.232 250.224L112.032 252.478ZM77.4547 334.706C55.5055 319.602 22.6417 284.534 39.8047 230.877L27.8804 227.266C8.27639 288.555 46.424 328.511 70.2316 344.893L77.4547 334.706ZM39.8047 230.877C51.0638 195.677 82.0499 181.05 107.639 176.969C120.522 174.915 131.142 175.702 136.31 177.369C137.57 177.776 138.148 178.124 138.298 178.236C138.502 178.388 137.525 177.754 137.369 176.132C137.2 174.38 138.161 173.46 138.069 173.55C137.96 173.657 137.358 174.152 135.782 174.864L140.874 186.112C143.109 185.101 145.216 183.869 146.826 182.29C148.453 180.694 150.143 178.128 149.823 174.816C149.516 171.634 147.51 169.524 145.915 168.331C144.266 167.098 142.277 166.231 140.312 165.597C132.578 163.102 119.77 162.52 105.786 164.75C77.6437 169.239 41.1458 185.794 27.8804 227.266L39.8047 230.877ZM135.782 174.864C132.41 176.389 127.146 177.532 119.709 179.163C112.615 180.718 104.137 182.618 95.5345 185.717C78.1712 191.973 59.852 203.288 49.7168 227.045L61.235 231.747C69.5498 212.257 84.3828 202.859 99.6961 197.342C107.432 194.555 115.173 192.805 122.283 191.246C129.049 189.762 135.972 188.328 140.874 186.112L135.782 174.864ZM49.7168 227.045C36.6059 257.778 44.026 283.692 55.4069 300.964C61.0496 309.528 67.7207 316.072 73.4896 320.156C76.3347 322.171 79.2164 323.769 81.8465 324.621C83.1366 325.039 84.7322 325.399 86.4182 325.315C88.1294 325.229 90.6633 324.613 92.4808 322.314L82.6589 314.759C83.893 313.197 85.4759 312.976 85.9285 312.953C86.3559 312.932 86.3853 313.023 85.8617 312.854C84.8645 312.531 83.129 311.678 80.8478 310.063C76.3642 306.889 70.7465 301.46 65.9112 294.122C56.3359 279.59 50.0424 257.983 61.235 231.747L49.7168 227.045ZM92.4808 322.314C94.8575 319.307 94.9876 315.8 94.6475 313.172C94.3039 310.516 93.3518 307.713 92.2864 305.059C91.1993 302.35 89.8127 299.364 88.3948 296.317C86.9528 293.218 85.4413 289.977 83.9874 286.552C78.0941 272.668 73.8653 257.304 79.919 242.348L68.3118 237.861C60.2974 257.661 66.3271 277.045 72.4437 291.455C73.9922 295.103 75.5927 298.532 77.0193 301.598C78.4701 304.716 79.7088 307.392 80.651 309.74C81.615 312.142 82.0963 313.791 82.2373 314.881C82.3818 315.999 82.0477 315.532 82.6589 314.759L92.4808 322.314ZM79.919 242.348C86.4109 226.31 102.669 216.394 115.935 212.526C119.17 211.582 122.061 211.053 124.393 210.871C126.852 210.679 128.214 210.91 128.682 211.073C129.109 211.221 127.06 210.514 127.102 208.055C127.124 206.755 127.812 206.919 125.884 208.768L134.54 217.606C136.915 215.329 139.544 212.084 139.611 208.121C139.698 202.999 135.798 200.378 132.942 199.387C130.126 198.411 126.774 198.28 123.55 198.532C120.2 198.794 116.441 199.514 112.524 200.656C97.1802 205.131 76.7855 216.926 68.3118 237.861L79.919 242.348ZM125.884 208.768C119.847 214.559 113.303 217.403 105.802 221.682C98.5306 225.831 91.0136 231.12 86.8084 241.509L98.4156 245.996C101.028 239.543 105.527 236.057 111.959 232.387C118.162 228.848 127.009 224.83 134.54 217.606L125.884 208.768ZM86.8084 241.509C83.8226 248.885 83.7764 259.402 85.5647 268.928C87.3561 278.47 91.3076 288.736 97.9621 295.098L106.71 286.151C102.715 282.331 99.4512 274.975 97.8664 266.533C96.2786 258.075 96.695 250.247 98.4156 245.996L86.8084 241.509ZM97.9621 295.098C99.6586 296.72 101.856 298.535 104.434 299.225C105.922 299.624 107.84 299.726 109.8 298.883C111.724 298.055 112.92 296.646 113.619 295.458C114.852 293.366 115.18 290.88 115.327 289.186C115.496 287.252 115.508 285.032 115.482 282.808C115.429 278.165 115.215 273.175 115.457 268.029C115.698 262.892 116.381 258.296 117.831 254.731L106.232 250.224C103.994 255.726 103.224 261.965 102.959 267.597C102.695 273.219 102.924 278.932 102.972 283.091C102.997 285.27 102.975 286.975 102.862 288.264C102.729 289.792 102.53 289.824 102.829 289.317C103.062 288.921 103.689 288.071 104.923 287.541C106.192 286.995 107.297 287.132 107.831 287.275C108.499 287.454 108.22 287.594 106.71 286.151L97.9621 295.098ZM117.831 254.731C118.594 252.856 119.288 251.862 119.748 251.384C119.959 251.165 120.084 251.093 120.109 251.08C120.122 251.073 120.122 251.074 120.112 251.077C120.101 251.081 120.094 251.082 120.095 251.082C120.215 251.065 121.988 251.073 126.114 254.631C133.985 261.42 145.046 276.356 160.266 300.233L170.871 293.546C155.8 269.902 143.844 253.41 134.396 245.261C129.862 241.35 124.399 238.012 118.51 238.823C112.034 239.714 108.359 244.996 106.232 250.224L117.831 254.731Z" fill="#F4354C"/>
<path d="M602.651 294.799C576.776 303.859 585.171 319.238 564.6 332.065C541.689 346.35 541.585 327.712 518.919 342.701C499.058 355.837 509.695 365.111 489.294 377.793C467.869 391.112 463.963 376.13 442.951 389.817C423.866 402.248 435.092 409.315 417.358 422.356C394.057 439.492 380.829 421.347 358.488 438.672C342.228 451.283 339.972 462.633 339.972 462.633" stroke="#F4354C" stroke-width="12.4444" stroke-linecap="round"/>
<path d="M225.706 93.4998L262.912 69.2167C296.007 47.6171 340.938 56.7969 362.931 89.6516L425.712 183.437L326.64 246.046L225.706 93.4998Z" fill="#FBA09F"/>
<rect width="148.058" height="369.225" transform="matrix(0.845348 -0.534216 0.551807 0.833972 193.102 477.212)" fill="#FBA09F"/>
<rect width="168.623" height="84.8176" transform="matrix(0.845348 -0.534216 0.551807 0.833972 162.938 507.292)" fill="#FBA09F"/>
<path d="M301.605 542.08L507.773 411.793L514.032 421.252C538.412 458.099 527.898 507.104 490.548 530.707L352.009 618.257L301.605 542.08Z" fill="#FBA09F"/>
<path d="M816.051 252.736L1048.51 105.201L1022.59 66.1917C998.138 29.3927 948.074 18.7538 910.77 42.4291L745.853 147.095L816.051 252.736Z" fill="#FBA09F"/>
<path d="M1073.91 366.59L1177.36 300.937L1117.74 211.221L1014.29 276.873L1073.91 366.59Z" fill="#FBA09F"/>
<path d="M934.344 556.618L686.955 184.325L795.051 115.722L998.163 421.384C1022.62 458.183 1012.2 507.207 974.894 530.883L934.344 556.618Z" fill="#FBA09F"/>
<path d="M1153.2 315.287L1176.89 300.249L1195.93 328.9C1200.22 335.354 1198.39 343.953 1191.85 348.106C1185.31 352.259 1176.53 350.392 1172.24 343.938L1153.2 315.287Z" fill="#FBA09F"/>
<path d="M1120.63 246.629L1102.49 221.154L1134.97 199.067C1142.11 194.211 1151.96 195.977 1156.97 203.012C1161.98 210.047 1160.25 219.686 1153.11 224.543L1120.63 246.629Z" fill="#FBA09F"/>
<path d="M1126.87 332.44L1150.93 317.167L1173.8 351.58C1178.16 358.136 1176.3 366.869 1169.65 371.087C1163.01 375.304 1154.09 373.409 1149.73 366.854L1126.87 332.44Z" fill="#FBA09F"/>
<path d="M1097.3 345.206L1121.37 329.933L1140.7 359.031C1145.06 365.587 1143.2 374.32 1136.56 378.538C1129.91 382.755 1120.99 380.86 1116.64 374.305L1097.3 345.206Z" fill="#FBA09F"/>
<path d="M1066.94 355.787L1091 340.514L1110.34 369.612C1114.69 376.168 1112.84 384.901 1106.19 389.118C1099.55 393.336 1090.63 391.441 1086.27 384.885L1066.94 355.787Z" fill="#FBA09F"/>
<path d="M426.047 351.489L449.728 336.459L450.568 337.723C454.854 344.174 453.028 352.768 446.489 356.918C439.949 361.068 431.173 359.203 426.886 352.752L426.047 351.489Z" fill="white"/>
<path d="M400.27 367.751L423.951 352.721L424.79 353.985C429.077 360.436 427.251 369.03 420.711 373.18C414.172 377.33 405.396 375.465 401.109 369.014L400.27 367.751Z" fill="white"/>
<path d="M374.492 383.387L398.174 368.357L399.013 369.621C403.3 376.072 401.473 384.666 394.934 388.816C388.395 392.966 379.618 391.101 375.332 384.65L374.492 383.387Z" fill="#FDD30B"/>
<path d="M348.715 399.893L372.396 384.863L373.236 386.126C377.522 392.577 375.696 401.171 369.157 405.321C362.617 409.472 353.841 407.607 349.554 401.156L348.715 399.893Z" fill="white"/>
<rect width="81.3506" height="128.028" transform="matrix(-0.55345 -0.832883 0.844313 -0.535851 984.852 240.926)" fill="#FBA09F"/>
<ellipse cx="64.1172" cy="17.0667" rx="64.1172" ry="17.0667" transform="matrix(0.84552 -0.533944 0.551533 0.834153 975.473 226.999)" fill="#F3364C"/>
<path d="M1105.4 373.783C1105.97 374.648 1106.37 375.614 1106.56 376.628C1106.75 377.641 1106.74 378.682 1106.52 379.69C1106.3 380.699 1105.88 381.655 1105.28 382.504C1104.68 383.354 1103.92 384.08 1103.04 384.641C1102.15 385.203 1101.16 385.588 1100.12 385.776C1099.09 385.964 1098.02 385.95 1096.99 385.736C1095.96 385.522 1094.98 385.111 1094.11 384.527C1093.24 383.943 1092.5 383.198 1091.93 382.333L1098.66 378.058L1105.4 373.783Z" fill="#D9D9D9"/>
<path d="M1135.92 362.795C1136.49 363.659 1136.89 364.626 1137.08 365.639C1137.27 366.653 1137.26 367.694 1137.04 368.702C1136.82 369.71 1136.4 370.666 1135.8 371.516C1135.2 372.365 1134.44 373.091 1133.55 373.653C1132.67 374.214 1131.68 374.6 1130.64 374.788C1129.61 374.975 1128.54 374.962 1127.51 374.747C1126.48 374.533 1125.5 374.122 1124.63 373.539C1123.76 372.955 1123.02 372.209 1122.44 371.345L1129.18 367.07L1135.92 362.795Z" fill="#D9D9D9"/>
<path d="M1169.23 355.829C1169.8 356.694 1170.2 357.66 1170.39 358.674C1170.58 359.687 1170.57 360.728 1170.35 361.736C1170.13 362.744 1169.71 363.701 1169.11 364.55C1168.51 365.4 1167.75 366.126 1166.87 366.687C1165.98 367.249 1164.99 367.634 1163.96 367.822C1162.92 368.01 1161.85 367.996 1160.82 367.782C1159.79 367.568 1158.81 367.157 1157.94 366.573C1157.07 365.989 1156.33 365.244 1155.76 364.379L1162.49 360.104L1169.23 355.829Z" fill="#D9D9D9"/>
<path d="M1191.33 332.968C1191.9 333.833 1192.3 334.8 1192.49 335.813C1192.68 336.827 1192.67 337.867 1192.45 338.875C1192.23 339.884 1191.81 340.84 1191.21 341.689C1190.62 342.539 1189.85 343.265 1188.97 343.826C1188.08 344.388 1187.1 344.773 1186.06 344.961C1185.02 345.149 1183.96 345.135 1182.92 344.921C1181.89 344.707 1180.91 344.296 1180.05 343.712C1179.18 343.128 1178.43 342.383 1177.86 341.518L1184.59 337.243L1191.33 332.968Z" fill="#D9D9D9"/>
<path d="M1138.88 204.717C1139.84 204.075 1140.93 203.625 1142.07 203.393C1143.21 203.161 1144.39 203.151 1145.54 203.364C1146.69 203.577 1147.78 204.009 1148.75 204.635C1149.73 205.261 1150.57 206.068 1151.23 207.011C1151.88 207.954 1152.34 209.015 1152.58 210.131C1152.82 211.248 1152.83 212.4 1152.61 213.521C1152.39 214.642 1151.95 215.709 1151.31 216.663C1150.67 217.617 1149.84 218.438 1148.88 219.08L1143.88 211.899L1138.88 204.717Z" fill="#D9D9D9"/>
<path fill-rule="evenodd" clip-rule="evenodd" d="M158.068 135.995C171.658 169.312 172.514 214.767 157.438 260.8C140.418 312.772 107.301 352.622 71.7178 369.414L167.864 514.725L449.786 336.565L270.193 65.1375L158.068 135.995Z" fill="#FBA09F"/>
<ellipse cx="29.5692" cy="20.1256" rx="29.5692" ry="20.1256" transform="matrix(0.836015 -0.548706 0.566357 0.82416 218.82 163.851)" fill="#220E91"/>
<ellipse cx="36.2281" cy="6.81874" rx="36.2281" ry="6.81874" transform="matrix(0.836015 -0.548706 0.566357 0.82416 1006.5 221.344)" fill="#D9D9D9"/>
<ellipse cx="22.804" cy="3.44016" rx="22.804" ry="3.44016" transform="matrix(0.846727 -0.532027 0.549606 0.835424 1020.13 216.276)" fill="#921F2E"/>
<ellipse cx="276.047" cy="152.854" rx="40" ry="39" fill="white"/>
<ellipse cx="283.047" cy="145.854" rx="23" ry="22" fill="#438DCE"/>
<circle cx="287.047" cy="141.854" r="10" fill="#220E91"/>
<circle cx="290.047" cy="134.854" r="5" fill="white"/>
<rect width="32.6691" height="4.37369" transform="matrix(0.844313 -0.535851 0.55345 0.832883 372.715 197.355)" fill="#D66170"/>
<rect width="18.9539" height="1.45571" transform="matrix(0.844313 -0.535851 0.55345 0.832883 1168.27 328.998)" fill="#D66170"/>
<rect width="18.7818" height="1.46906" transform="matrix(-0.562016 -0.827127 0.838839 -0.544379 1135.51 228.243)" fill="#D66170"/>
<rect width="18.9539" height="1.45571" transform="matrix(0.844313 -0.535851 0.55345 0.832883 1144.27 349.847)" fill="#D66170"/>
<rect width="18.9539" height="1.45571" transform="matrix(0.844313 -0.535851 0.55345 0.832883 1112.27 358.534)" fill="#D66170"/>
<rect width="18.9539" height="1.45571" transform="matrix(0.844313 -0.535851 0.55345 0.832883 1082.94 370.696)" fill="#D66170"/>
<rect width="18.9539" height="1.45571" transform="matrix(0.844313 -0.535851 0.55345 0.832883 1170.94 332.473)" fill="#D66170"/>
<rect width="18.7818" height="1.46906" transform="matrix(-0.562016 -0.827127 0.838839 -0.544379 1139.04 225.602)" fill="#D66170"/>
<rect width="18.9539" height="1.45571" transform="matrix(0.844313 -0.535851 0.55345 0.832883 1146.94 353.322)" fill="#D66170"/>
<rect width="18.9539" height="1.45571" transform="matrix(0.844313 -0.535851 0.55345 0.832883 1114.94 362.009)" fill="#D66170"/>
<rect width="18.9539" height="1.45571" transform="matrix(0.844313 -0.535851 0.55345 0.832883 1085.61 374.171)" fill="#D66170"/>
<path d="M283.46 43.2364C306.051 37.5891 357.42 37.7315 382.17 83.4802" stroke="white" stroke-width="4.44444" stroke-linecap="round"/>
<path d="M122.616 545.215C121.003 562.368 128.191 599.092 169.852 608.761" stroke="white" stroke-width="4.44444" stroke-linecap="round"/>
<path d="M277.25 640.939L351.973 752.669" stroke="white" stroke-width="4.44444" stroke-linecap="round"/>
<path d="M1029.19 45.2007L1102.48 157.833" stroke="white" stroke-width="4.44444" stroke-linecap="round"/>
<path d="M801.047 470.854L840.047 445.962L810.354 401.854" stroke="white" stroke-width="4.44444" stroke-linecap="round"/>
<path d="M243 845.775L970.595 384L996.517 423.01C1020.97 459.809 1010.55 508.833 973.248 532.508L313.198 951.415L243 845.775Z" fill="#FBA09F"/>
<rect width="324.889" height="426.197" transform="matrix(0.844313 -0.535851 0.55345 0.832883 423.008 744.91)" fill="#FBA09F"/>
</g>
<defs>
<clipPath id="clip0_476_367">
<rect width="1204" height="840" fill="white"/>
</clipPath>
</defs>
</svg>
