<svg width="448" height="89" viewBox="0 0 448 89" fill="none" xmlns="http://www.w3.org/2000/svg">
<path d="M62 4.35993C62 1.95201 63.952 0 66.3599 0H180.5V40H66.3599C63.952 40 62 38.048 62 35.6401V4.35993Z" fill="#5F4CC8"/>
<rect x="62.436" y="0.435993" width="235.128" height="39.128" rx="3.56401" stroke="white" stroke-width="0.871986"/>
<line x1="62.436" y1="36" x2="62.436" y2="61.2876" stroke="white" stroke-width="0.871986"/>
<line x1="180.436" y1="40" x2="180.436" y2="58" stroke="white" stroke-width="0.871986"/>
<line x1="297.436" y1="33" x2="297.436" y2="58" stroke="white" stroke-width="0.871986"/>
<path d="M62.1289 85.3C61.0622 85.3 60.1456 85.1 59.3789 84.7C58.6122 84.2833 57.9789 83.6917 57.4789 82.925C56.9789 82.1583 56.6122 81.2167 56.3789 80.1C56.1456 78.9833 56.0289 77.7083 56.0289 76.275C56.0289 74.8583 56.1456 73.5917 56.3789 72.475C56.6122 71.3417 56.9789 70.3917 57.4789 69.625C57.9789 68.8583 58.6122 68.275 59.3789 67.875C60.1456 67.4583 61.0622 67.25 62.1289 67.25C63.1956 67.25 64.1122 67.4583 64.8789 67.875C65.6456 68.275 66.2789 68.8583 66.7789 69.625C67.2789 70.3917 67.6456 71.3417 67.8789 72.475C68.1122 73.5917 68.2289 74.8583 68.2289 76.275C68.2289 77.7083 68.1122 78.9833 67.8789 80.1C67.6456 81.2167 67.2789 82.1583 66.7789 82.925C66.2789 83.6917 65.6456 84.2833 64.8789 84.7C64.1122 85.1 63.1956 85.3 62.1289 85.3ZM62.1289 83.475C62.8289 83.475 63.4289 83.3417 63.9289 83.075C64.4289 82.7917 64.8289 82.4 65.1289 81.9C65.4456 81.4 65.6789 80.8 65.8289 80.1C65.9789 79.3833 66.0539 78.5833 66.0539 77.7V74.85C66.0539 73.9833 65.9789 73.1917 65.8289 72.475C65.6789 71.7583 65.4456 71.15 65.1289 70.65C64.8289 70.15 64.4289 69.7667 63.9289 69.5C63.4289 69.2167 62.8289 69.075 62.1289 69.075C61.4289 69.075 60.8289 69.2167 60.3289 69.5C59.8289 69.7667 59.4206 70.15 59.1039 70.65C58.8039 71.15 58.5789 71.7583 58.4289 72.475C58.2789 73.1917 58.2039 73.9833 58.2039 74.85V77.7C58.2039 78.5833 58.2789 79.3833 58.4289 80.1C58.5789 80.8 58.8039 81.4 59.1039 81.9C59.4206 82.4 59.8289 82.7917 60.3289 83.075C60.8289 83.3417 61.4289 83.475 62.1289 83.475ZM62.1289 77.75C61.5456 77.75 61.1372 77.6333 60.9039 77.4C60.6872 77.1667 60.5789 76.8833 60.5789 76.55V76C60.5789 75.6667 60.6872 75.3833 60.9039 75.15C61.1372 74.9167 61.5456 74.8 62.1289 74.8C62.7122 74.8 63.1122 74.9167 63.3289 75.15C63.5622 75.3833 63.6789 75.6667 63.6789 76V76.55C63.6789 76.8833 63.5622 77.1667 63.3289 77.4C63.1122 77.6333 62.7122 77.75 62.1289 77.75Z" fill="white"/>
<path d="M166.125 84V82.175H171.125V68.1H170.95L166.55 72.2L165.325 70.875L169.95 66.55H173.225V82.175H177.825V84H166.125ZM186.49 84.3C185.424 84.3 184.507 84.1 183.74 83.7C182.974 83.2833 182.34 82.6917 181.84 81.925C181.34 81.1583 180.974 80.2167 180.74 79.1C180.507 77.9833 180.39 76.7083 180.39 75.275C180.39 73.8583 180.507 72.5917 180.74 71.475C180.974 70.3417 181.34 69.3917 181.84 68.625C182.34 67.8583 182.974 67.275 183.74 66.875C184.507 66.4583 185.424 66.25 186.49 66.25C187.557 66.25 188.474 66.4583 189.24 66.875C190.007 67.275 190.64 67.8583 191.14 68.625C191.64 69.3917 192.007 70.3417 192.24 71.475C192.474 72.5917 192.59 73.8583 192.59 75.275C192.59 76.7083 192.474 77.9833 192.24 79.1C192.007 80.2167 191.64 81.1583 191.14 81.925C190.64 82.6917 190.007 83.2833 189.24 83.7C188.474 84.1 187.557 84.3 186.49 84.3ZM186.49 82.475C187.19 82.475 187.79 82.3417 188.29 82.075C188.79 81.7917 189.19 81.4 189.49 80.9C189.807 80.4 190.04 79.8 190.19 79.1C190.34 78.3833 190.415 77.5833 190.415 76.7V73.85C190.415 72.9833 190.34 72.1917 190.19 71.475C190.04 70.7583 189.807 70.15 189.49 69.65C189.19 69.15 188.79 68.7667 188.29 68.5C187.79 68.2167 187.19 68.075 186.49 68.075C185.79 68.075 185.19 68.2167 184.69 68.5C184.19 68.7667 183.782 69.15 183.465 69.65C183.165 70.15 182.94 70.7583 182.79 71.475C182.64 72.1917 182.565 72.9833 182.565 73.85V76.7C182.565 77.5833 182.64 78.3833 182.79 79.1C182.94 79.8 183.165 80.4 183.465 80.9C183.782 81.4 184.19 81.7917 184.69 82.075C185.19 82.3417 185.79 82.475 186.49 82.475ZM186.49 76.75C185.907 76.75 185.499 76.6333 185.265 76.4C185.049 76.1667 184.94 75.8833 184.94 75.55V75C184.94 74.6667 185.049 74.3833 185.265 74.15C185.499 73.9167 185.907 73.8 186.49 73.8C187.074 73.8 187.474 73.9167 187.69 74.15C187.924 74.3833 188.04 74.6667 188.04 75V75.55C188.04 75.8833 187.924 76.1667 187.69 76.4C187.474 76.6333 187.074 76.75 186.49 76.75Z" fill="white"/>
<path d="M386.8 20.1H389.55L392.525 26.675H392.675L395.65 20.1H398.2V33H396.275V24.925L396.35 22.625H396.2L392.5 30.8L388.8 22.625H388.65L388.725 24.925V33H386.8V20.1ZM400.64 31.3H402.24C402.49 30.9833 402.707 30.6083 402.89 30.175C403.09 29.7417 403.249 29.225 403.365 28.625C403.499 28.025 403.599 27.3333 403.665 26.55C403.732 25.75 403.765 24.825 403.765 23.775V20.1H412.34V33H410.34V21.8H405.715V23.825C405.715 26.1583 405.54 27.9917 405.19 29.325C404.857 30.6417 404.407 31.5833 403.84 32.15C403.524 32.4667 403.174 32.6917 402.79 32.825C402.407 32.9417 401.949 33 401.415 33H400.64V31.3ZM417.23 36.45L425.93 14H427.73L419.03 36.45H417.23ZM440.221 27.075H440.096C439.629 27.5917 439.096 27.9833 438.496 28.25C437.912 28.5 437.162 28.625 436.246 28.625C434.846 28.625 433.779 28.3 433.046 27.65C432.329 26.9833 431.971 25.9833 431.971 24.65V20.1H433.971V24.475C433.971 25.275 434.196 25.8667 434.646 26.25C435.096 26.6333 435.829 26.825 436.846 26.825C437.846 26.825 438.654 26.7 439.271 26.45C439.904 26.1833 440.221 25.7833 440.221 25.25V20.1H442.221V33H440.221V27.075Z" fill="white"/>
<path d="M275.125 84V82.175H280.125V68.1H279.95L275.55 72.2L274.325 70.875L278.95 66.55H282.225V82.175H286.825V84H275.125ZM295.49 84.3C294.424 84.3 293.507 84.1 292.74 83.7C291.974 83.2833 291.34 82.6917 290.84 81.925C290.34 81.1583 289.974 80.2167 289.74 79.1C289.507 77.9833 289.39 76.7083 289.39 75.275C289.39 73.8583 289.507 72.5917 289.74 71.475C289.974 70.3417 290.34 69.3917 290.84 68.625C291.34 67.8583 291.974 67.275 292.74 66.875C293.507 66.4583 294.424 66.25 295.49 66.25C296.557 66.25 297.474 66.4583 298.24 66.875C299.007 67.275 299.64 67.8583 300.14 68.625C300.64 69.3917 301.007 70.3417 301.24 71.475C301.474 72.5917 301.59 73.8583 301.59 75.275C301.59 76.7083 301.474 77.9833 301.24 79.1C301.007 80.2167 300.64 81.1583 300.14 81.925C299.64 82.6917 299.007 83.2833 298.24 83.7C297.474 84.1 296.557 84.3 295.49 84.3ZM295.49 82.475C296.19 82.475 296.79 82.3417 297.29 82.075C297.79 81.7917 298.19 81.4 298.49 80.9C298.807 80.4 299.04 79.8 299.19 79.1C299.34 78.3833 299.415 77.5833 299.415 76.7V73.85C299.415 72.9833 299.34 72.1917 299.19 71.475C299.04 70.7583 298.807 70.15 298.49 69.65C298.19 69.15 297.79 68.7667 297.29 68.5C296.79 68.2167 296.19 68.075 295.49 68.075C294.79 68.075 294.19 68.2167 293.69 68.5C293.19 68.7667 292.782 69.15 292.465 69.65C292.165 70.15 291.94 70.7583 291.79 71.475C291.64 72.1917 291.565 72.9833 291.565 73.85V76.7C291.565 77.5833 291.64 78.3833 291.79 79.1C291.94 79.8 292.165 80.4 292.465 80.9C292.782 81.4 293.19 81.7917 293.69 82.075C294.19 82.3417 294.79 82.475 295.49 82.475ZM295.49 76.75C294.907 76.75 294.499 76.6333 294.265 76.4C294.049 76.1667 293.94 75.8833 293.94 75.55V75C293.94 74.6667 294.049 74.3833 294.265 74.15C294.499 73.9167 294.907 73.8 295.49 73.8C296.074 73.8 296.474 73.9167 296.69 74.15C296.924 74.3833 297.04 74.6667 297.04 75V75.55C297.04 75.8833 296.924 76.1667 296.69 76.4C296.474 76.6333 296.074 76.75 295.49 76.75ZM310.48 84.3C309.414 84.3 308.497 84.1 307.73 83.7C306.964 83.2833 306.33 82.6917 305.83 81.925C305.33 81.1583 304.964 80.2167 304.73 79.1C304.497 77.9833 304.38 76.7083 304.38 75.275C304.38 73.8583 304.497 72.5917 304.73 71.475C304.964 70.3417 305.33 69.3917 305.83 68.625C306.33 67.8583 306.964 67.275 307.73 66.875C308.497 66.4583 309.414 66.25 310.48 66.25C311.547 66.25 312.464 66.4583 313.23 66.875C313.997 67.275 314.63 67.8583 315.13 68.625C315.63 69.3917 315.997 70.3417 316.23 71.475C316.464 72.5917 316.58 73.8583 316.58 75.275C316.58 76.7083 316.464 77.9833 316.23 79.1C315.997 80.2167 315.63 81.1583 315.13 81.925C314.63 82.6917 313.997 83.2833 313.23 83.7C312.464 84.1 311.547 84.3 310.48 84.3ZM310.48 82.475C311.18 82.475 311.78 82.3417 312.28 82.075C312.78 81.7917 313.18 81.4 313.48 80.9C313.797 80.4 314.03 79.8 314.18 79.1C314.33 78.3833 314.405 77.5833 314.405 76.7V73.85C314.405 72.9833 314.33 72.1917 314.18 71.475C314.03 70.7583 313.797 70.15 313.48 69.65C313.18 69.15 312.78 68.7667 312.28 68.5C311.78 68.2167 311.18 68.075 310.48 68.075C309.78 68.075 309.18 68.2167 308.68 68.5C308.18 68.7667 307.772 69.15 307.455 69.65C307.155 70.15 306.93 70.7583 306.78 71.475C306.63 72.1917 306.555 72.9833 306.555 73.85V76.7C306.555 77.5833 306.63 78.3833 306.78 79.1C306.93 79.8 307.155 80.4 307.455 80.9C307.772 81.4 308.18 81.7917 308.68 82.075C309.18 82.3417 309.78 82.475 310.48 82.475ZM310.48 76.75C309.897 76.75 309.489 76.6333 309.255 76.4C309.039 76.1667 308.93 75.8833 308.93 75.55V75C308.93 74.6667 309.039 74.3833 309.255 74.15C309.489 73.9167 309.897 73.8 310.48 73.8C311.064 73.8 311.464 73.9167 311.68 74.15C311.914 74.3833 312.03 74.6667 312.03 75V75.55C312.03 75.8833 311.914 76.1667 311.68 76.4C311.464 76.6333 311.064 76.75 310.48 76.75Z" fill="white"/>
<path d="M0.91543 32.175H2.41543C3.16543 31.1083 3.7321 29.7417 4.11543 28.075C4.49876 26.3917 4.69043 24.2583 4.69043 21.675L4.69043 16.55H12.8404L12.8404 32.175H14.9654V37.75H13.0404V34H2.84043V37.75H0.91543L0.91543 32.175ZM10.7404 18.375H6.74043L6.74043 21.825C6.74043 24.475 6.5571 26.6333 6.19043 28.3C5.84043 29.9667 5.3821 31.2583 4.81543 32.175H10.7404L10.7404 18.375ZM23.2807 34.3C22.3473 34.3 21.5057 34.1417 20.7557 33.825C20.0223 33.5083 19.389 33.0583 18.8557 32.475C18.339 31.875 17.939 31.1667 17.6557 30.35C17.3723 29.5167 17.2307 28.5917 17.2307 27.575C17.2307 26.5417 17.3723 25.6083 17.6557 24.775C17.9557 23.9417 18.364 23.2333 18.8807 22.65C19.3973 22.05 20.014 21.5917 20.7307 21.275C21.464 20.9583 22.2723 20.8 23.1557 20.8C24.0223 20.8 24.8057 20.9583 25.5057 21.275C26.2223 21.5917 26.8307 22.0333 27.3307 22.6C27.8307 23.15 28.214 23.8083 28.4807 24.575C28.7473 25.3417 28.8807 26.1833 28.8807 27.1V28.05H19.3307V28.65C19.3307 29.2167 19.4223 29.7417 19.6057 30.225C19.789 30.7083 20.0473 31.125 20.3807 31.475C20.7307 31.825 21.1473 32.1 21.6307 32.3C22.1307 32.4833 22.6807 32.575 23.2807 32.575C24.1473 32.575 24.8973 32.375 25.5307 31.975C26.164 31.575 26.6473 31.025 26.9807 30.325L28.4557 31.325C28.0723 32.1917 27.4307 32.9083 26.5307 33.475C25.6473 34.025 24.564 34.3 23.2807 34.3ZM23.1557 22.45C22.6057 22.45 22.0973 22.55 21.6307 22.75C21.164 22.95 20.7557 23.225 20.4057 23.575C20.0723 23.925 19.8057 24.3417 19.6057 24.825C19.4223 25.2917 19.3307 25.8083 19.3307 26.375V26.55H26.7307V26.275C26.7307 25.7083 26.639 25.1917 26.4557 24.725C26.289 24.2583 26.0473 23.8583 25.7307 23.525C25.4307 23.175 25.0557 22.9083 24.6057 22.725C24.1723 22.5417 23.689 22.45 23.1557 22.45ZM38.4959 34.3C37.5626 34.3 36.7292 34.1417 35.9959 33.825C35.2792 33.4917 34.6709 33.0333 34.1709 32.45C33.6709 31.8667 33.2876 31.1583 33.0209 30.325C32.7709 29.4917 32.6459 28.5667 32.6459 27.55C32.6459 26.5333 32.7792 25.6083 33.0459 24.775C33.3126 23.9417 33.6959 23.2333 34.1959 22.65C34.6959 22.05 35.3042 21.5917 36.0209 21.275C36.7376 20.9583 37.5542 20.8 38.4709 20.8C39.7209 20.8 40.7376 21.075 41.5209 21.625C42.3042 22.175 42.8792 22.8917 43.2459 23.775L41.6459 24.625C41.4126 23.9583 41.0209 23.4417 40.4709 23.075C39.9376 22.7083 39.2709 22.525 38.4709 22.525C37.8876 22.525 37.3626 22.625 36.8959 22.825C36.4459 23.0083 36.0626 23.275 35.7459 23.625C35.4292 23.975 35.1876 24.3917 35.0209 24.875C34.8709 25.3583 34.7959 25.8833 34.7959 26.45V28.65C34.7959 29.2167 34.8709 29.7417 35.0209 30.225C35.1876 30.7083 35.4292 31.125 35.7459 31.475C36.0626 31.825 36.4542 32.1 36.9209 32.3C37.3876 32.4833 37.9209 32.575 38.5209 32.575C39.3876 32.575 40.1042 32.375 40.6709 31.975C41.2376 31.575 41.6876 31.025 42.0209 30.325L43.4459 31.3C43.0626 32.1667 42.4626 32.8833 41.6459 33.45C40.8459 34.0167 39.7959 34.3 38.4959 34.3Z" fill="#5F4CC8"/>
<path d="M355.425 34H343.775V31.85L349.6 26.6C350.45 25.8333 351.15 25.05 351.7 24.25C352.25 23.4333 352.525 22.575 352.525 21.675V21.375C352.525 20.325 352.25 19.5167 351.7 18.95C351.15 18.3667 350.333 18.075 349.25 18.075C348.183 18.075 347.358 18.35 346.775 18.9C346.208 19.4333 345.783 20.15 345.5 21.05L343.625 20.35C343.792 19.8333 344.017 19.3333 344.3 18.85C344.6 18.35 344.975 17.9083 345.425 17.525C345.875 17.1417 346.417 16.8333 347.05 16.6C347.7 16.3667 348.45 16.25 349.3 16.25C350.167 16.25 350.933 16.375 351.6 16.625C352.283 16.875 352.85 17.225 353.3 17.675C353.767 18.125 354.117 18.6583 354.35 19.275C354.6 19.8917 354.725 20.5667 354.725 21.3C354.725 21.9667 354.625 22.5917 354.425 23.175C354.242 23.7583 353.975 24.3167 353.625 24.85C353.292 25.3833 352.883 25.9083 352.4 26.425C351.933 26.925 351.408 27.425 350.825 27.925L345.95 32.175H355.425V34ZM366.44 34V30.575H357.84V28.725L365.39 16.55H368.44V28.85H371.04V30.575H368.44V34H366.44ZM359.715 28.85H366.44V18.175H366.34L359.715 28.85Z" fill="#5F4CC8"/>
</svg>
