<svg width="140" height="132" viewBox="0 0 140 132" fill="none" xmlns="http://www.w3.org/2000/svg">
<path d="M131.5 65.5C131.5 97.4529 104.047 123.5 70 123.5C35.9526 123.5 8.5 97.4529 8.5 65.5C8.5 33.5471 35.9526 7.5 70 7.5C104.047 7.5 131.5 33.5471 131.5 65.5Z" stroke="#5F4CC8" stroke-width="3"/>
<path d="M138.5 66C138.5 101.54 107.916 130.5 70 130.5C32.0841 130.5 1.5 101.54 1.5 66C1.5 30.4596 32.0841 1.5 70 1.5C107.916 1.5 138.5 30.4596 138.5 66Z" stroke="#5F4CC8" stroke-width="3"/>
<path d="M108.5 66C108.5 86.0698 91.1306 102.5 69.5 102.5C47.8694 102.5 30.5 86.0698 30.5 66C30.5 45.9302 47.8694 29.5 69.5 29.5C91.1306 29.5 108.5 45.9302 108.5 66Z" stroke="#5F4CC8" stroke-width="3"/>
<path d="M52 44.7895L71.5429 94M68.4571 39L88 88.2105" stroke="#5F4CC8" stroke-width="3"/>
<path d="M72.6133 88.1168L70.641 83.2406C70.3261 82.4618 70.3046 81.7692 70.5766 81.1627C70.8361 80.5606 71.3425 80.1249 72.0958 79.8556C73.3137 79.4203 74.2504 79.7999 74.906 80.9944L74.9813 80.9675C74.7441 80.2034 74.7602 79.5681 75.0295 79.0616C75.2813 78.5471 75.7086 78.1822 76.3112 77.9668C76.7004 77.8276 77.0958 77.757 77.4973 77.755C77.8989 77.7529 78.279 77.8222 78.6376 77.9628C78.9963 78.1034 79.3272 78.3176 79.6304 78.6053C79.921 78.8975 80.1563 79.2662 80.3363 79.7111L82.331 84.643L72.6133 88.1168ZM79.281 80.5128C79.076 80.006 78.793 79.6616 78.4319 79.4794C78.0708 79.2972 77.6706 79.2847 77.2311 79.4417L76.798 79.5966C76.3585 79.7537 76.0745 80.0108 75.946 80.368C75.7998 80.7174 75.8168 81.1145 75.9967 81.5595L77.2866 84.7485L80.5258 83.5906L79.281 80.5128ZM74.8853 82.169C74.7203 81.7611 74.4836 81.4779 74.1752 81.3194C73.8667 81.1608 73.5179 81.1511 73.1287 81.2902L72.7144 81.4383C72.3252 81.5775 72.0713 81.8026 71.9529 82.1138C71.8219 82.4294 71.8389 82.7912 72.0038 83.1991L73.2187 86.2027L76.1001 85.1727L74.8853 82.169ZM68.2068 77.222L67.6069 75.7387L69.1889 75.1732L69.1589 75.0991C67.7036 74.9119 66.7035 74.1447 66.1586 72.7973C65.6836 71.6231 65.7594 70.5491 66.3859 69.5753C67.0073 68.5892 68.1216 67.8089 69.7287 67.2344C71.3357 66.6599 72.72 66.5471 73.8813 66.8959C75.0377 67.2324 75.8534 67.9877 76.3283 69.162C76.8733 70.5093 76.668 71.7074 75.7127 72.7563L75.7427 72.8304L81.0912 70.9185L81.6912 72.4018L68.2068 77.222ZM75.2237 70.2147C74.8737 69.3495 74.3401 68.7763 73.6228 68.4951C72.8879 68.206 72.0811 68.2185 71.2022 68.5327L69.5449 69.1251C68.6661 69.4393 68.0604 69.9317 67.7281 70.6022C67.3782 71.2649 67.3782 72.0289 67.7282 72.8941C67.8632 73.2279 68.0346 73.5274 68.2424 73.7926C68.4503 74.0578 68.6871 74.2703 68.9529 74.4299C69.2061 74.5941 69.4858 74.6993 69.7919 74.7455C70.0804 74.7838 70.3879 74.7446 70.7143 74.6279L74.2172 73.3757C74.5437 73.259 74.8075 73.094 75.0086 72.8807C75.1921 72.6594 75.3268 72.4061 75.4126 72.1208C75.4858 71.84 75.5064 71.5355 75.4743 71.2074C75.4422 70.8794 75.3586 70.5485 75.2237 70.2147ZM70.4286 55.2145C70.6635 55.7955 70.6803 56.2634 70.479 56.6183C70.2777 56.9733 69.9635 57.2624 69.5365 57.4858L69.574 57.5785C70.224 57.5867 70.8072 57.7673 71.3236 58.1203C71.8224 58.4654 72.2293 59.0273 72.5443 59.8061C72.9492 60.8073 73.008 61.6988 72.7207 62.4806C72.4333 63.2624 71.8314 63.8171 70.9148 64.1448C70.0109 64.4679 69.1841 64.3956 68.4344 63.9279C67.6798 63.4478 67.0101 62.4847 66.4251 61.0385L65.6002 58.999L64.6398 59.3423C63.9241 59.5982 63.4705 59.9867 63.2789 60.5079C63.0748 61.0336 63.1202 61.6611 63.4152 62.3903C63.6752 63.0331 64.0195 63.5113 64.4481 63.8249C64.8642 64.1431 65.3419 64.3472 65.8813 64.4373L65.533 65.7078C65.2319 65.674 64.9196 65.5946 64.596 65.4698C64.2725 65.3449 63.9603 65.1594 63.6596 64.9132C63.3463 64.6715 63.0594 64.3709 62.799 64.0112C62.526 63.6561 62.292 63.2375 62.0971 62.7554C61.6421 61.6306 61.5709 60.6374 61.8835 59.7758C62.1911 58.9019 62.8597 58.2809 63.8892 57.9129L69.2377 56.001L68.6978 54.666L70.0161 54.1948L70.4286 55.2145ZM71.1775 59.9975C71.0225 59.6144 70.8386 59.284 70.6257 59.0064C70.3953 58.7209 70.1573 58.4877 69.9116 58.3067C69.6534 58.1302 69.3926 58.0183 69.1292 57.971C68.8482 57.9158 68.5821 57.9331 68.331 58.0228L66.7302 58.5951L67.5551 60.6346C67.9151 61.5245 68.3031 62.1286 68.7192 62.4467C69.1352 62.7649 69.5818 62.8386 70.0589 62.6681L70.4544 62.5267C70.9566 62.3472 71.2696 62.0373 71.3933 61.5969C71.4994 61.1487 71.4275 60.6156 71.1775 59.9975ZM62.1061 47.2687L62.1436 47.3614C62.6728 47.5684 63.1278 47.8585 63.5087 48.2316C63.872 48.5969 64.1911 49.1195 64.4661 49.7993C64.886 50.8376 64.9612 51.7162 64.6915 52.4351C64.4042 53.1462 63.7584 53.6812 62.754 54.0403L59.3264 55.2655L58.7265 53.7822L62.0222 52.6041C62.6249 52.3887 63.0031 52.0625 63.1569 51.6255C63.3107 51.1886 63.2351 50.5931 62.9301 49.8391C62.6302 49.0974 62.2936 48.5316 61.9203 48.1416C61.5294 47.7437 61.1331 47.6166 60.7313 47.7602L56.8517 49.147L56.2518 47.6637L65.9696 44.1899L66.5695 45.6732L62.1061 47.2687Z" fill="#5F4CC8"/>
<path d="M120.492 54.6946L123.703 53.8234L123.668 53.7092L117.808 53.0247L122.379 49.51L122.344 49.3957L119.133 50.2669L114.048 51.6465L113.711 50.5468L123.852 47.7954L124.325 49.3379L120.39 52.3088L120.416 52.3945L125.43 52.9372L125.886 54.4226L115.745 57.174L115.407 56.0742L120.492 54.6946Z" fill="#5F4CC8"/>
<path d="M124.267 63.2221L124.389 64.4021L114.505 61.4945C114.274 61.4263 114.073 61.3454 113.901 61.252C113.718 61.1595 113.569 61.0441 113.453 60.9058C113.327 60.7684 113.229 60.5987 113.157 60.3968C113.075 60.1959 113.02 59.9528 112.99 59.6676L112.874 58.5466L113.9 58.4527L114.084 60.2228L116.315 60.8822L123.635 57.1156L123.76 58.3251L120.633 59.9066L117.792 61.3129L117.798 61.3719L120.874 62.2371L124.267 63.2221Z" fill="#5F4CC8"/>
<path d="M117.582 65.2699L117.496 66.2094C117.675 66.3719 117.891 66.5177 118.144 66.6468C118.397 66.7857 118.702 66.9043 119.06 67.0025C119.417 67.1105 119.832 67.2035 120.305 67.2815C120.787 67.3603 121.347 67.4257 121.985 67.4777L124.218 67.6598L123.754 72.695L115.916 72.0558L116.024 70.8814L122.829 71.4363L123.08 68.7206L121.849 68.6202C120.432 68.5046 119.327 68.311 118.536 68.0395C117.754 67.7785 117.206 67.4676 116.893 67.1068C116.717 66.9051 116.6 66.6885 116.539 66.4568C116.489 66.2259 116.479 65.9539 116.508 65.6407L116.55 65.1856L117.582 65.2699Z" fill="#5F4CC8"/>
<path d="M116.748 73.2329L116.484 74.1353C116.63 74.3249 116.816 74.5046 117.042 74.6745C117.266 74.8538 117.546 75.0224 117.882 75.1802C118.215 75.3475 118.608 75.51 119.061 75.6678C119.524 75.8282 120.066 75.9889 120.688 76.1501L122.864 76.714L121.446 81.55L113.807 79.5705L114.138 78.4426L120.77 80.1612L121.535 77.5529L120.336 77.2421C118.954 76.8841 117.897 76.504 117.165 76.1021C116.441 75.712 115.958 75.3137 115.716 74.9072C115.581 74.68 115.505 74.4481 115.49 74.2114C115.484 73.9774 115.525 73.7099 115.613 73.4091L115.742 72.9721L116.748 73.2329Z" fill="#5F4CC8"/>
<path d="M110.339 86.5837C110.547 86.1732 110.807 85.9306 111.119 85.856C111.431 85.7813 111.766 85.7972 112.124 85.9036L112.157 85.838C111.813 85.502 111.603 85.1138 111.529 84.6735C111.46 84.2461 111.564 83.7573 111.843 83.207C112.201 82.4995 112.682 82.0236 113.286 81.7795C113.889 81.5353 114.531 81.5653 115.211 81.8696C115.882 82.1697 116.284 82.6282 116.417 83.2449C116.546 83.8704 116.352 84.6942 115.835 85.7161L115.105 87.1573L115.818 87.4762C116.349 87.7138 116.816 87.7512 117.218 87.5884C117.63 87.4298 117.966 87.0928 118.227 86.5775C118.457 86.1233 118.547 85.7083 118.497 85.3325C118.457 84.9609 118.318 84.6148 118.08 84.2942L118.997 83.8368C119.14 84.0075 119.262 84.2067 119.363 84.4344C119.465 84.6621 119.526 84.9143 119.546 85.191C119.575 85.4719 119.556 85.7688 119.489 86.0816C119.432 86.3987 119.317 86.7275 119.144 87.0681C118.742 87.863 118.209 88.396 117.546 88.6672C116.879 88.9471 116.163 88.9162 115.399 88.5744L111.43 86.7987L110.953 87.742L109.975 87.3043L110.339 86.5837ZM112.687 83.8093C112.549 84.0801 112.458 84.3393 112.413 84.5868C112.373 84.8473 112.366 85.0855 112.394 85.3015C112.431 85.5216 112.507 85.7108 112.621 85.869C112.74 86.0401 112.893 86.1673 113.079 86.2507L114.267 86.7822L114.996 85.341C115.315 84.7121 115.454 84.2118 115.413 83.8402C115.373 83.4686 115.176 83.2036 114.822 83.0452L114.528 82.9139C114.156 82.7472 113.809 82.7423 113.49 82.8993C113.175 83.0693 112.908 83.3726 112.687 83.8093Z" fill="#5F4CC8"/>
<path d="M115.359 93.126L112.059 97.4565L111.196 96.8756L113.783 93.4815L108.103 89.6546L108.816 88.7183L115.359 93.126Z" fill="#5F4CC8"/>
<path d="M99.8046 98.4119C100.146 98.0985 100.476 97.9596 100.797 97.9951C101.118 98.0307 101.428 98.1585 101.728 98.3785L101.782 98.3285C101.576 97.8984 101.516 97.4652 101.601 97.0289C101.687 96.6062 101.958 96.1848 102.415 95.7648C103.003 95.2247 103.624 94.9424 104.28 94.9179C104.935 94.8934 105.53 95.1381 106.065 95.6519C106.592 96.1586 106.809 96.7226 106.717 97.3438C106.618 97.9717 106.145 98.6757 105.296 99.4558L104.099 100.556L104.659 101.094C105.076 101.496 105.503 101.688 105.94 101.672C106.385 101.662 106.821 101.461 107.249 101.068C107.626 100.721 107.858 100.364 107.943 99.9958C108.036 99.635 108.027 99.2648 107.916 98.8851L108.943 98.7673C109.017 98.9747 109.061 99.202 109.077 99.449C109.093 99.6961 109.061 99.9523 108.983 100.217C108.911 100.49 108.788 100.761 108.615 101.03C108.449 101.307 108.224 101.575 107.941 101.836C107.281 102.442 106.59 102.761 105.869 102.79C105.141 102.827 104.476 102.556 103.876 101.979L100.758 98.9808L99.9747 99.701L99.2061 98.962L99.8046 98.4119ZM102.998 96.6121C102.773 96.8188 102.596 97.0301 102.466 97.2461C102.336 97.4758 102.246 97.6962 102.196 97.9073C102.153 98.1255 102.158 98.3277 102.209 98.5141C102.261 98.7141 102.361 98.8845 102.507 99.0253L103.44 99.9226L104.637 98.8224C105.159 98.3423 105.467 97.9219 105.56 97.5611C105.653 97.2003 105.56 96.8861 105.282 96.6187L105.052 96.397C104.759 96.1155 104.434 95.9942 104.077 96.0331C103.721 96.0857 103.361 96.2787 102.998 96.6121Z" fill="#5F4CC8"/>
<path d="M93.1033 102.894C93.495 102.642 93.8455 102.56 94.1548 102.649C94.4641 102.737 94.7466 102.915 95.0023 103.182L95.0648 103.142C94.9389 102.683 94.9571 102.246 95.1191 101.83C95.2788 101.427 95.6212 101.057 96.1462 100.719C96.8211 100.284 97.4834 100.11 98.1331 100.195C98.7828 100.28 99.3246 100.62 99.7585 101.216C100.187 101.804 100.3 102.396 100.098 102.993C99.8886 103.596 99.2962 104.211 98.3213 104.839L96.9464 105.724L97.4011 106.348C97.74 106.814 98.126 107.074 98.5591 107.131C98.9981 107.196 99.4635 107.07 99.9551 106.754C100.388 106.475 100.68 106.161 100.83 105.813C100.986 105.472 101.044 105.106 101.002 104.713L102.034 104.768C102.07 104.985 102.073 105.216 102.044 105.462C102.016 105.709 101.939 105.956 101.814 106.204C101.694 106.461 101.525 106.708 101.306 106.945C101.093 107.19 100.824 107.417 100.499 107.626C99.7407 108.115 99.004 108.313 98.2889 108.222C97.5655 108.137 96.96 107.759 96.4725 107.09L93.94 103.614L93.0401 104.194L92.4159 103.337L93.1033 102.894ZM96.5686 101.652C96.3103 101.818 96.0978 101.997 95.9311 102.188C95.762 102.393 95.6339 102.595 95.5469 102.795C95.4659 103.003 95.4343 103.203 95.452 103.396C95.4673 103.602 95.5345 103.786 95.6533 103.949L96.4113 104.99L97.7862 104.104C98.3862 103.718 98.7642 103.355 98.9203 103.015C99.0764 102.674 99.0415 102.349 98.8156 102.039L98.6283 101.782C98.3906 101.456 98.0926 101.282 97.7344 101.261C97.3739 101.253 96.9853 101.384 96.5686 101.652Z" fill="#5F4CC8"/>
<path d="M94.5773 110.888L93.4771 111.361L91.7493 107.803L90.9922 105.971L90.9372 105.994L89.9702 112.866L88.9387 113.309L85.5489 106.329L86.6491 105.857L88.3769 109.414L89.134 111.247L89.189 111.223L90.156 104.352L91.1874 103.909L94.5773 110.888Z" fill="#5F4CC8"/>
<path d="M85.4867 114.493L84.316 114.78L83.4535 111.674L79.7948 112.572L80.6573 115.678L79.4865 115.966L77.4261 108.546L78.5969 108.258L79.5232 111.594L83.182 110.697L82.2556 107.36L83.4264 107.073L85.4867 114.493Z" fill="#5F4CC8"/>
<path d="M69.3505 109.413C69.8241 109.375 70.1723 109.467 70.395 109.687C70.6176 109.907 70.77 110.192 70.8521 110.543L70.9276 110.537C71.0594 110.08 71.3053 109.709 71.6653 109.423C72.0162 109.147 72.5091 108.985 73.144 108.934C73.9602 108.87 74.6287 109.025 75.1494 109.4C75.6701 109.776 75.9625 110.322 76.0268 111.041C76.0901 111.749 75.8769 112.316 75.3872 112.742C74.8874 113.168 74.048 113.427 72.8689 113.52L71.2061 113.652L71.2734 114.405C71.3236 114.966 71.5222 115.371 71.8694 115.621C72.2174 115.881 72.6886 115.988 73.2832 115.941C73.8072 115.899 74.2263 115.762 74.5404 115.529C74.8553 115.306 75.0982 115.014 75.269 114.654L76.138 115.18C76.0549 115.385 75.936 115.587 75.7814 115.788C75.6268 115.988 75.4297 116.167 75.19 116.325C74.9513 116.493 74.6742 116.629 74.3588 116.733C74.0442 116.847 73.6904 116.919 73.2974 116.95C72.3803 117.023 71.6345 116.854 71.0599 116.443C70.4753 116.034 70.1468 115.425 70.0747 114.618L69.6999 110.426L68.6115 110.512L68.5191 109.478L69.3505 109.413ZM73.0208 109.94C72.7084 109.965 72.4293 110.022 72.1835 110.11C71.9285 110.21 71.7106 110.326 71.5296 110.459C71.3496 110.603 71.2167 110.762 71.1309 110.937C71.0359 111.123 70.9971 111.314 71.0147 111.511L71.1269 112.766L72.7897 112.635C73.5153 112.577 74.0356 112.437 74.3505 112.214C74.6655 111.991 74.8063 111.692 74.7728 111.318L74.7451 111.008C74.7099 110.615 74.542 110.326 74.2413 110.141C73.9315 109.967 73.5246 109.9 73.0208 109.94Z" fill="#5F4CC8"/>
<path d="M57.6537 108.4L58.0204 111.424L61.7139 112.017L63.1262 109.278L64.4377 109.488L59.3778 119.077L57.7044 118.809L56.312 108.185L57.6537 108.4ZM58.7222 117.646L58.8579 117.667L61.2206 113.025L58.1301 112.53L58.7222 117.646Z" fill="#5F4CC8"/>
<path d="M52.628 115.055L51.4673 114.666L52.8385 111.055L53.6428 109.282L53.5847 109.262L47.7674 113.424L46.6792 113.058L49.3694 105.975L50.5302 106.364L49.159 109.975L48.3547 111.748L48.4127 111.767L54.2301 107.606L55.3183 107.972L52.628 115.055Z" fill="#5F4CC8"/>
<path d="M47.9715 106.676L47.1904 106.254C46.6426 106.526 46.1117 106.906 45.5978 107.396C45.0697 107.889 44.5656 108.528 44.0856 109.314L42.8293 111.37L38.3445 108.949L41.7762 103.331L40.6315 102.713L42.2248 100.105L43.208 100.636L42.1355 102.391L47.5093 105.293L48.5817 103.537L49.5649 104.068L47.9715 106.676ZM42.8537 103.913L39.9428 108.678L42.2997 109.95L43.0657 108.696C43.5407 107.919 44.0165 107.287 44.4934 106.799C44.9651 106.32 45.4735 105.928 46.0187 105.622L42.8537 103.913Z" fill="#5F4CC8"/>
<path d="M35.6004 97.59C35.9757 97.8866 36.1646 98.186 36.1671 98.488C36.1695 98.7901 36.0728 99.0887 35.8769 99.384L35.9368 99.4313C36.3673 99.209 36.8195 99.1225 37.2933 99.1719C37.7525 99.2223 38.2336 99.4464 38.7367 99.844C39.3835 100.355 39.761 100.916 39.8691 101.527C39.9772 102.137 39.7922 102.71 39.314 103.245C38.8423 103.772 38.2711 104.015 37.6004 103.972C36.9217 103.923 36.1152 103.53 35.1809 102.791L33.8634 101.75L33.3622 102.31C32.9888 102.728 32.8382 103.14 32.9103 103.547C32.9758 103.961 33.2441 104.355 33.7153 104.727C34.1305 105.055 34.5387 105.247 34.9397 105.301C35.3343 105.363 35.726 105.329 36.115 105.199L36.3687 106.149C36.1579 106.233 35.9223 106.29 35.6621 106.322C35.4019 106.354 35.1261 106.342 34.8348 106.287C34.5369 106.239 34.234 106.144 33.926 106C33.6116 105.864 33.2986 105.673 32.9872 105.427C32.2605 104.853 31.8363 104.23 31.7144 103.558C31.5846 102.88 31.7882 102.241 32.3254 101.641L35.1162 98.5201L34.2538 97.8384L34.9416 97.0693L35.6004 97.59ZM37.9106 100.448C37.6631 100.252 37.4166 100.101 37.1711 99.9943C36.9111 99.8888 36.6659 99.8201 36.4356 99.788C36.1987 99.7633 35.9846 99.7817 35.7934 99.8431C35.5877 99.9055 35.4193 100.01 35.2882 100.156L34.453 101.09L35.7705 102.132C36.3455 102.586 36.8302 102.844 37.2247 102.906C37.6193 102.968 37.941 102.86 38.1899 102.581L38.3963 102.351C38.6583 102.058 38.7463 101.746 38.6603 101.415C38.5598 101.086 38.3099 100.763 37.9106 100.448Z" fill="#5F4CC8"/>
<path d="M30.1297 91.3C30.6435 92 30.9312 92.6845 30.9928 93.3535C31.0484 94.0144 30.9694 94.6424 30.7558 95.2375L29.5856 94.8973C29.9831 93.7502 29.8652 92.7453 29.2318 91.8826C28.8196 91.3209 28.3538 90.9623 27.8345 90.8065C27.3152 90.6508 26.8019 90.7375 26.2948 91.0665L26.033 91.2364C25.609 91.5115 25.3685 91.8777 25.3116 92.3352C25.2464 92.7981 25.4349 93.3307 25.877 93.933L26.7554 95.1295L25.8451 95.7201L25.0205 94.5969C24.2139 93.498 23.3367 93.2561 22.389 93.871L22.1271 94.0409C21.7281 94.2998 21.5096 94.6458 21.4717 95.0789C21.4278 95.504 21.603 95.9851 21.9973 96.5223C22.3439 96.9943 22.715 97.3243 23.1106 97.5122C23.5063 97.7001 23.9254 97.7946 24.3681 97.7958L24.4215 98.8967C23.7658 98.8895 23.1662 98.7498 22.6227 98.4776C22.0733 98.1973 21.5655 97.7396 21.0995 97.1048C20.4422 96.2095 20.1571 95.4031 20.2442 94.6858C20.3253 93.9603 20.7149 93.371 21.4133 92.9179C22.0201 92.5242 22.6034 92.3741 23.1629 92.4676C23.7142 92.5666 24.1975 92.8237 24.6129 93.2391L24.6753 93.1987C24.5233 92.9248 24.4124 92.6483 24.3425 92.3692C24.2726 92.0901 24.2611 91.8152 24.3078 91.5446C24.3546 91.2739 24.4668 91.0088 24.6445 90.7494C24.8139 90.4953 25.0607 90.2631 25.385 90.0527C25.7674 89.8046 26.1715 89.6445 26.5973 89.5726C27.0088 89.4978 27.4235 89.5111 27.8415 89.6124C28.2512 89.7191 28.6528 89.9151 29.0464 90.2005C29.434 90.4777 29.7951 90.8442 30.1297 91.3Z" fill="#5F4CC8"/>
<path d="M19.9299 90.1444L19.4147 89.0579L23.0461 87.5359L24.9203 86.8806L24.8945 86.8263L17.7723 85.5947L17.2893 84.5761L24.4141 81.5899L24.9294 82.6764L21.2979 84.1984L19.4238 84.8537L19.4495 84.908L26.5717 86.1396L27.0547 87.1582L19.9299 90.1444Z" fill="#5F4CC8"/>
<path d="M16.211 81.5395L15.9182 80.3831L19.0973 79.6718L18.1824 76.0582L15.0033 76.7696L14.7106 75.6132L22.3049 73.9138L22.5977 75.0702L19.1832 75.8342L20.0981 79.4478L23.5126 78.6837L23.8053 79.8401L16.211 81.5395Z" fill="#5F4CC8"/>
<path d="M14.2952 72.7195L14.2314 71.5369L17.5066 71.3808L17.3073 67.6852L14.0321 67.8413L13.9684 66.6587L21.7924 66.2858L21.8561 67.4684L18.3384 67.636L18.5376 71.3317L22.0554 71.164L22.1192 72.3466L14.2952 72.7195Z" fill="#5F4CC8"/>
<path d="M14.9411 58.0155L15.11 56.8497L24.0887 61.7993C24.298 61.9152 24.4756 62.0369 24.6216 62.1644C24.7776 62.2932 24.8955 62.437 24.9753 62.5956C25.0652 62.7556 25.1205 62.9408 25.1414 63.1513C25.1724 63.363 25.1675 63.6098 25.1267 63.8915L24.9662 64.9991L23.9371 64.8673L24.1905 63.1185L22.1639 61.9981L14.067 64.0486L14.2401 62.8537L17.6927 62.0044L20.8216 61.2622L20.83 61.2039L18.0263 59.7019L14.9411 58.0155Z" fill="#5F4CC8"/>
<path d="M15.7415 54.66L16.124 53.549L17.3536 53.9232L17.3727 53.8676C16.5952 53.1197 16.3802 52.2411 16.7276 51.232C17.0304 50.3525 17.6127 49.7728 18.4745 49.4929C19.3395 49.2038 20.3966 49.2493 21.6457 49.6294C22.8949 50.0094 23.7798 50.5549 24.3006 51.2656C24.8246 51.9671 24.9352 52.7576 24.6324 53.6372C24.285 54.6463 23.5631 55.2398 22.4669 55.4176L22.4478 55.4732L26.6051 56.7381L26.2227 57.8491L15.7415 54.66ZM23.4448 53.7514C23.6679 53.1034 23.6351 52.5411 23.3463 52.0645C23.051 51.5758 22.5618 51.2275 21.8787 51.0196L20.5905 50.6277C19.9073 50.4198 19.2987 50.4341 18.7645 50.6704C18.2238 50.8946 17.8418 51.3307 17.6187 51.9787C17.5327 52.2287 17.4856 52.4752 17.4774 52.7181C17.4692 52.9611 17.5047 53.1867 17.584 53.3949C17.6535 53.6002 17.7683 53.7834 17.9284 53.9447C18.082 54.0937 18.2856 54.2068 18.5393 54.284L21.2621 55.1124C21.5158 55.1896 21.7562 55.2116 21.9833 55.1784C22.2037 55.133 22.411 55.0478 22.605 54.9227C22.7892 54.7946 22.9537 54.6299 23.0985 54.4285C23.2433 54.2271 23.3588 54.0014 23.4448 53.7514Z" fill="#5F4CC8"/>
<path d="M27.7778 47.035C27.5162 47.4946 27.1922 47.8681 26.8058 48.1554C26.4243 48.4343 25.9989 48.6254 25.5297 48.7287C25.0561 48.8189 24.5572 48.8198 24.033 48.7312C23.4996 48.6381 22.9503 48.4493 22.3851 48.165C21.8289 47.8852 21.3617 47.5626 20.9833 47.1971C20.605 46.8316 20.3289 46.4409 20.1552 46.0251C19.9771 45.5961 19.9056 45.1551 19.9407 44.702C19.9806 44.2404 20.1314 43.7798 20.393 43.3202C20.6545 42.8606 20.9761 42.4914 21.3576 42.2125C21.744 41.9252 22.1739 41.7364 22.6475 41.6462C23.1167 41.5428 23.6181 41.5377 24.1514 41.6309C24.6848 41.724 25.2295 41.9105 25.7857 42.1902C26.3509 42.4746 26.8227 42.7995 27.2011 43.165C27.5703 43.5259 27.8439 43.9208 28.022 44.3498C28.1957 44.7656 28.2627 45.2043 28.2228 45.666C28.1877 46.1191 28.0393 46.5754 27.7778 47.035ZM26.8342 46.5604C27.1587 45.9901 27.238 45.4388 27.0719 44.9064C26.9058 44.374 26.4399 43.9152 25.674 43.5299L24.662 43.0208C23.8962 42.6356 23.2316 42.5257 22.6684 42.6912C22.1051 42.8567 21.6611 43.2246 21.3366 43.7948C21.012 44.3651 20.9328 44.9164 21.0988 45.4488C21.2649 45.9812 21.7309 46.44 22.4967 46.8253L23.5087 47.3344C24.2745 47.7196 24.9391 47.8295 25.5024 47.664C26.0657 47.4985 26.5096 47.1306 26.8342 46.5604Z" fill="#5F4CC8"/>
<path d="M23.9401 38.119L26.4224 35.145C26.8188 34.67 27.2777 34.4057 27.7993 34.352C28.3127 34.2922 28.8153 34.4437 29.3071 34.8065C30.1021 35.393 30.2311 36.1032 29.694 36.9371L29.7431 36.9734C30.1616 36.5513 30.5974 36.3307 31.0503 36.3116C31.5014 36.279 31.9236 36.4077 32.317 36.698C32.5711 36.8854 32.7815 37.1015 32.948 37.3461C33.1146 37.5908 33.2242 37.8483 33.2768 38.1185C33.3294 38.3887 33.3208 38.6686 33.2512 38.9583C33.1734 39.2419 33.0212 39.5195 32.7947 39.7909L30.2842 42.7988L23.9401 38.119ZM31.8191 39.4366C32.0771 39.1275 32.1933 38.8296 32.1678 38.5428C32.1423 38.256 31.9861 38.0068 31.6992 37.7952L31.4164 37.5866C31.1296 37.375 30.8391 37.2946 30.5449 37.3456C30.2488 37.383 29.9875 37.5374 29.761 37.8088L28.1377 39.7538L30.2524 41.3137L31.8191 39.4366ZM28.8921 37.3505C29.0997 37.1017 29.1937 36.8543 29.1739 36.6083C29.1541 36.3623 29.0171 36.1455 28.763 35.9581L28.4926 35.7586C28.2385 35.5711 27.982 35.4976 27.7231 35.5381C27.456 35.5725 27.2187 35.7141 27.011 35.9629L25.482 37.7948L27.3631 39.1824L28.8921 37.3505Z" fill="#5F4CC8"/>
<path d="M30.082 31.2271L30.9879 30.4648L33.2535 32.8445L36.0845 30.4623L33.819 28.0827L34.7249 27.3204L40.1371 33.0052L39.2311 33.7675L36.7978 31.2115L33.9667 33.5937L36.4001 36.1496L35.4941 36.9119L30.082 31.2271Z" fill="#5F4CC8"/>
<path d="M46.9694 28.8412C46.5664 29.0765 46.2126 29.1433 45.9078 29.0416C45.603 28.94 45.3292 28.7503 45.0863 28.4726L45.022 28.5101C45.1262 28.9736 45.0877 29.4098 44.9064 29.8187C44.7281 30.2141 44.3688 30.5695 43.8287 30.8849C43.1343 31.2904 42.4647 31.4367 41.8198 31.3239C41.175 31.211 40.6498 30.8476 40.2443 30.2338C39.8443 29.6284 39.7588 29.0316 39.988 28.4433C40.2257 27.85 40.8461 27.2605 41.8491 26.6748L43.2637 25.8488L42.8387 25.2056C42.522 24.7263 42.1487 24.449 41.7189 24.3738C41.2834 24.2901 40.8128 24.396 40.307 24.6913C39.8612 24.9516 39.5551 25.2527 39.3889 25.5945C39.2171 25.9279 39.1427 26.2918 39.1657 26.6862L38.1379 26.5872C38.1125 26.3689 38.1199 26.1374 38.1601 25.8925C38.2003 25.6476 38.2887 25.4038 38.4252 25.1609C38.5562 24.9096 38.7367 24.6702 38.9666 24.4428C39.1909 24.2069 39.4703 23.9913 39.8046 23.7961C40.5848 23.3405 41.3298 23.1735 42.0397 23.295C42.7582 23.4114 43.3452 23.8144 43.8008 24.5039L46.1674 28.086L47.0933 27.5453L47.6766 28.4282L46.9694 28.8412ZM43.4504 29.9347C43.7162 29.7795 43.9368 29.6099 44.1123 29.4259C44.2907 29.2285 44.428 29.0318 44.5243 28.8357C44.6149 28.6313 44.6559 28.4326 44.6472 28.2396C44.6415 28.0332 44.5831 27.8459 44.472 27.6777L43.7637 26.6056L42.3491 27.4316C41.7319 27.792 41.3373 28.139 41.1655 28.4723C40.9937 28.8057 41.0134 29.1322 41.2245 29.4517L41.3995 29.7166C41.6217 30.0529 41.9112 30.2393 42.2679 30.2757C42.6276 30.2987 43.0218 30.185 43.4504 29.9347Z" fill="#5F4CC8"/>
</svg>
