<svg width="814" height="431" viewBox="0 0 814 431" fill="none" xmlns="http://www.w3.org/2000/svg">
<line x1="432" y1="44.5" x2="611" y2="44.5" stroke="white"/>
<path d="M426 44.5L435.75 38.0048V50.9952L426 44.5Z" fill="white"/>
<path d="M613 44.5L602.5 38.0048V50.9952L613 44.5Z" fill="white"/>
<line x1="3" y1="397.5" x2="161" y2="397.5" stroke="white"/>
<path d="M1 397.5L10.75 391.005L10.75 403.995L1 397.5Z" fill="white"/>
<path d="M170 397.5L160.25 391.005V403.995L170 397.5Z" fill="white"/>
<line x1="0.5" y1="103" x2="0.499984" y2="430" stroke="white"/>
<line x1="169.5" y1="104" x2="169.5" y2="431" stroke="white"/>
<line x1="213" y1="202.5" x2="262" y2="202.5" stroke="white"/>
<line x1="117" y1="236.5" x2="168" y2="236.5" stroke="white"/>
<line x1="542" y1="222.5" x2="593" y2="222.5" stroke="white"/>
<line x1="645" y1="129.5" x2="697" y2="129.5" stroke="white"/>
<line x1="760" y1="129.5" x2="813" y2="129.5" stroke="white"/>
<path d="M115 236.5L124.75 230.005V242.995L115 236.5Z" fill="white"/>
<path d="M211 202.5L220.75 196.005V208.995L211 202.5Z" fill="white"/>
<path d="M539 222.5L548.75 216.005V228.995L539 222.5Z" fill="white"/>
<path d="M169 236.5L159.25 230.005V242.995L169 236.5Z" fill="white"/>
<path d="M264 202.5L254.25 196.005V208.995L264 202.5Z" fill="white"/>
<path d="M594 222.5L584.25 216.005V228.995L594 222.5Z" fill="white"/>
<path d="M644 129.5L653.75 123.005V135.995L644 129.5Z" fill="white"/>
<path d="M759 129.5L768.75 123.005V135.995L759 129.5Z" fill="white"/>
<path d="M698 129.5L688.25 123.005V135.995L698 129.5Z" fill="white"/>
<path d="M814 129.5L804.25 123.005V135.995L814 129.5Z" fill="white"/>
<line x1="425.5" y1="1.94297e-08" x2="425.5" y2="285" stroke="white"/>
<line x1="613.5" y1="1" x2="613.5" y2="286" stroke="white"/>
</svg>
